<?xml version="1.0" encoding="utf-8" ?>
<svg xmlns="http://www.w3.org/2000/svg" xmlns:xlink="http://www.w3.org/1999/xlink" width="643" height="965">
	<path fill="#FEFEFE" transform="matrix(0.62793 0 0 0.628255 0 0.000244141)" d="M0 0L1024 0L1024 1534.69C1023.17 1535.21 1022.35 1535.57 1021.39 1535.79C1015.2 1537.19 989.131 1536 981.169 1536L865.91 1536.01L391.421 1536.01L132.471 1536.01L47.604 1536C33.1619 1536 18.5072 1536.57 4.09208 1535.91C2.50848 1535.84 1.34434 1535.54 0 1534.69L0 0ZM582.929 376.85C562.209 377.794 541.371 377.123 520.628 377.408L342.194 379.242Q320.104 379.455 298.013 379.397C289.2 379.396 280.103 378.715 271.394 380.244C264.544 381.446 258.509 385.807 253.854 390.811C250.058 394.892 247.766 398.691 246.484 404.123C243.102 418.454 244.294 435.245 244.3 449.956L244.467 514.703C231.833 512.296 194.236 504.701 183.251 505.019C181.287 505.076 179.871 505.55 178.203 506.566C177.099 508.337 176.33 509.808 176.897 512.012C177.251 513.388 177.868 513.599 179.069 514.225C185.773 517.718 232.567 524.085 244.08 526.135C245.48 559.245 243.605 592.873 243.318 626.02C243.109 650.179 244.685 674.402 243.617 698.559C225.876 697.297 208.208 694.956 190.527 693.061Q139.918 687.57 89.4322 681.031C75.1687 679.054 60.9702 676.018 46.6985 674.283C44.2965 673.991 42.1319 673.94 39.8375 674.855C38.5242 676.127 38.3694 676.294 37.9472 678.062C38.8707 679.957 39.3778 680.498 41.4031 681.291C47.5253 683.687 76.3753 686.749 84.8556 687.909Q135.661 695.357 186.703 700.95C205.718 703.086 224.811 704.529 243.81 706.723C244.006 725.877 246.681 865.669 243.513 870.583C225.202 868.239 207.286 864.538 189.084 861.599L89.0057 845.697L44.9894 838.579C39.1582 837.657 33.2335 835.988 27.3547 835.581C24.3601 835.373 20.2079 835.485 17.846 837.551C16.6537 838.593 16.6552 839.298 16.6011 840.804C17.959 843.568 20.1293 844.886 22.9795 845.874C28.7877 847.887 35.6096 848.036 41.6856 848.973C52.4272 850.63 63.1412 852.529 73.8604 854.327C92.6264 857.476 237.636 879.42 242.195 882.145C242.734 882.468 243.155 882.789 243.425 883.365C247.46 891.97 241.184 902.859 248.913 911.871C254.569 918.467 278.339 932.055 286.532 937.351Q342.49 973.714 399.139 1008.99C408.726 1015.03 425.995 1027.82 435.588 1031.68C436.689 1032.12 437.931 1032.12 439.098 1032.15C438.881 1032.23 438.667 1032.32 438.448 1032.39C436.837 1032.95 435.303 1033.13 433.605 1032.95C420.323 1031.47 406.778 1028.17 393.612 1025.7C374.183 1022.05 354.66 1018.82 335.195 1015.35C296.718 1008.48 258.005 1002.99 219.393 997.008L139.899 984.29L78.4318 975.05C67.5139 973.333 55.9368 970.386 44.928 969.961C41.2421 969.819 37.9463 970.202 35.7385 973.446C35.3562 975.442 35.2503 975.727 36.0396 977.703C37.497 979.081 38.7939 979.709 40.732 980.212C56.3515 984.268 75.9235 985.916 92.1328 988.24C112.709 991.191 133.12 994.924 153.666 997.992C193.168 1003.89 232.759 1009.49 272.17 1015.95C300.303 1020.56 328.33 1025.92 356.432 1030.73L417.111 1041.21C429.717 1043.36 442.646 1045.08 455.07 1048.08C463.686 1050.17 469.33 1054.37 476.381 1059.49C494.226 1072.46 510.27 1084.32 533.4 1083.66C543.473 1083.37 554.163 1081.17 561.274 1073.46C562.931 1071.66 564.042 1069.65 564.962 1067.39C575.165 1072.19 628.239 1078.82 642.886 1081.39C651.366 1082.88 666.661 1086.85 674.416 1087.24C675.408 1087.29 676.099 1087.11 677.052 1086.87C681.512 1090.04 698.759 1091.06 705.149 1092.17C744.259 1099 783.255 1106.16 822.636 1111.33C837.872 1113.33 853.279 1115.62 868.625 1116.44C870.156 1115.73 871.6 1115.01 873.037 1114.12C867.693 1114.38 841.656 1106.36 833.985 1104.56Q814.433 1100.06 794.752 1096.15C776.772 1092.57 758.51 1090.02 740.437 1086.9L642.659 1070.11C631.191 1068.25 571.801 1059.78 567.107 1056.16Q568.219 1003.65 567.272 951.136C578.041 948.761 633.465 942.088 637.862 934.593C640.784 929.614 638.216 920.686 638.449 915.052C652.371 914.87 666.384 915.365 680.282 914.876C683.105 911.724 685.301 908.176 687.219 904.407C704 906.865 720.625 910.28 737.353 913.063Q820.674 927.48 904.221 940.527C926.984 943.979 949.719 947.425 972.65 949.562C980.903 950.332 989.446 951.44 997.734 951.197L998.094 952.103L998.665 950.471L999.507 951.102L1000.58 950.851C1000.3 950.18 1000.32 949.64 999.613 949.362C993.396 946.907 986.154 945.717 979.655 944.108C953.533 937.641 927.576 933.877 901.112 929.412Q828.883 916.552 756.42 905.081L714.965 898.194C707.28 896.891 698.682 896.233 691.444 893.435C702.37 873.58 711.996 852.805 721.882 832.414L753.068 769.157C771.585 774.114 790.927 775.997 809.883 778.671L882.706 789.441L943.926 799.096C949.215 799.942 954.394 802.389 959.681 802.982C961.885 803.229 965.021 803.229 967.007 802.11C967.848 801.635 967.955 801.176 968.426 800.372C968.033 798.322 967.33 797.204 965.613 795.958C964.003 794.79 962.093 794.003 960.178 793.504C956.238 792.479 951.957 792.26 947.926 791.623L915.033 786.55C898.656 783.859 882.284 780.84 865.856 778.492C829.259 773.261 792.403 769.128 755.907 763.306C759.674 755.051 778.319 721.861 775.671 714.987C775.099 713.502 774.713 713.432 773.366 712.785C763.334 713.003 753.72 716.489 743.446 716.579C723.667 716.752 693.447 695.272 678.789 682.026Q678.461 639.266 678.775 596.508C713.115 604.135 982.183 648.281 993 642.418C977.458 632.008 718.186 592.688 678.828 585.165L678.834 445.004C678.812 426.945 680.835 393.255 677.027 377.094C665.008 375.86 652.475 376.447 640.395 376.466Q611.66 376.295 582.929 376.85ZM101.983 596.096C101.584 598.09 101.204 598.484 102.238 600.305C112.984 606.152 161.769 623.093 172.839 620.807C173.759 619.008 174.141 618.729 173.781 616.679C172.812 615.752 172.118 615.349 170.833 614.967C159.619 611.628 148.027 609.346 136.745 606.107C125.46 602.867 113.493 598.027 101.983 596.096ZM694.828 646.93C694.106 649.047 693.694 649.494 694.385 651.684C703.232 658.986 765.449 679.391 775.83 678.403C776.037 678.384 776.242 678.35 776.448 678.327C776.651 678.305 776.855 678.288 777.059 678.268C778.072 676.004 778.712 675.546 777.952 673.115C772.588 667.454 735.383 660.485 725.502 657.507C715.135 654.382 704.984 650.668 694.828 646.93ZM851.146 674.138C851.726 676.241 851.589 676.666 853.541 677.802C863.671 683.697 911.21 692.648 922.393 689.463C923.336 689.195 924.231 688.809 925.111 688.383C926.026 686.632 926.495 686.279 926.137 684.284C924.952 683.304 924.015 683.197 922.515 682.964C912.433 681.399 902.171 681.117 892.058 679.748C879.211 678.008 863.878 673.708 851.146 674.138ZM101.012 756.142C100.11 757.927 99.6202 758.164 100.222 760.138C113.539 768.855 178.607 782.155 194.119 780.291C194.911 778.456 195.238 777.976 194.991 775.939C191.03 772.228 166.388 770.544 159.545 769.56C146.255 767.649 133.104 764.225 120.113 760.863C113.906 759.256 107.352 756.99 101.012 756.142ZM796.733 834.616C796.701 836.27 796.31 837.255 797.624 838.493C806.107 846.488 862.518 860.315 874.963 859.372C876.749 859.236 878.467 858.819 880.184 858.322C880.492 856.169 880.666 855.959 879.573 853.964C871.294 849.384 854.06 849.463 844.222 847.297Q828.829 843.832 813.688 839.392C808.169 837.798 802.377 835.601 796.733 834.616ZM91.2992 903.629C91.2899 905.018 90.9711 906.336 91.944 907.464C96.4444 912.679 117.166 915.723 124.216 915.753C126.519 915.762 128.782 915.514 131.056 915.176C131.295 912.969 131.529 912.649 130.344 910.676C126.254 908.077 96.4182 903.228 91.2992 903.629ZM838.166 1002.91C837.432 1004.84 837.306 1004.84 838.023 1006.91C844.342 1012.74 863.948 1015.92 872.183 1015.57C874.168 1015.48 876.048 1015.19 877.965 1014.65C878.847 1012.83 879.069 1012.7 878.646 1010.63C873.878 1006.25 846.121 1004.37 838.166 1002.91ZM679.641 1004.16C680.12 1006.55 680.143 1007.19 682.204 1008.7C691.12 1015.21 713.949 1019.89 724.555 1017.65Q725.35 1017.49 726.14 1017.3C726.871 1015.25 727.055 1014.77 726.666 1012.66C726.236 1012.3 725.391 1011.37 724.914 1011.18C720.974 1009.67 707.975 1009.26 702.964 1008.5C695.672 1007.4 686.83 1004.17 679.641 1004.16ZM243.046 1053.35C243.602 1055.66 243.796 1056.35 245.901 1057.75C256.848 1065.05 279.492 1070.27 292.507 1073.59C315.941 1079.56 521.216 1123.15 527.371 1121.5C527.999 1121.33 528.695 1120.86 529.239 1120.54C521.147 1119.43 512.712 1116.2 504.778 1114.11Q482.08 1108.25 459.256 1102.9C397.637 1088.52 335.277 1077.28 273.883 1062C266.21 1060.1 248.953 1056.87 243.046 1053.35ZM210.924 1109.35C211.443 1112.06 211.867 1112.91 214.225 1114.52C247.571 1137.27 333.162 1145.34 374.444 1152.08C386.938 1154.12 412.734 1160.62 424.133 1159.48L425.925 1158.29C370.529 1143.02 315.343 1138.66 260.053 1125.32C243.079 1121.23 227.395 1114.82 210.924 1109.35Z"/>
	<path transform="matrix(0.62793 0 0 0.628255 0 0.000244141)" d="M244.467 514.703L244.3 449.956C244.294 435.245 243.102 418.454 246.484 404.123C247.766 398.691 250.058 394.892 253.854 390.811C258.509 385.807 264.544 381.446 271.394 380.244C280.103 378.715 289.2 379.396 298.013 379.397Q320.104 379.455 342.194 379.242L520.628 377.408C541.371 377.123 562.209 377.794 582.929 376.85Q611.66 376.294 640.395 376.466C652.475 376.447 665.008 375.86 677.027 377.094C680.835 393.255 678.812 426.945 678.834 445.004L678.828 585.165C718.186 592.688 977.458 632.008 993 642.418C982.183 648.281 713.115 604.135 678.775 596.508Q678.461 639.267 678.789 682.026C693.447 695.272 723.667 716.752 743.446 716.579C753.72 716.489 763.334 713.003 773.366 712.785C774.713 713.432 775.099 713.502 775.671 714.987C778.319 721.861 759.674 755.051 755.907 763.306C792.403 769.128 829.259 773.261 865.856 778.492C882.284 780.84 898.656 783.859 915.033 786.55L947.926 791.623C951.957 792.26 956.238 792.479 960.178 793.504C962.093 794.003 964.003 794.79 965.613 795.958C967.33 797.204 968.033 798.322 968.426 800.372C967.955 801.176 967.848 801.635 967.007 802.11C965.021 803.229 961.885 803.229 959.681 802.982C954.394 802.389 949.215 799.942 943.926 799.096L882.706 789.441L809.883 778.671C790.927 775.997 771.585 774.114 753.068 769.157L721.882 832.414C711.996 852.805 702.37 873.58 691.444 893.435C698.682 896.233 707.28 896.891 714.965 898.194L756.42 905.081Q828.883 916.552 901.112 929.412C927.576 933.877 953.533 937.641 979.655 944.108C986.154 945.717 993.396 946.907 999.613 949.362C1000.32 949.64 1000.3 950.18 1000.58 950.851L999.507 951.102L998.665 950.471L998.094 952.103L997.734 951.197C989.446 951.44 980.903 950.332 972.65 949.562C949.719 947.425 926.984 943.979 904.221 940.527Q820.674 927.48 737.353 913.063C720.625 910.28 704 906.865 687.219 904.407C685.301 908.176 683.105 911.724 680.282 914.876C666.384 915.365 652.371 914.87 638.449 915.052C638.216 920.686 640.784 929.614 637.862 934.593C633.465 942.088 578.041 948.761 567.272 951.136Q568.219 1003.65 567.107 1056.16C571.801 1059.78 631.191 1068.25 642.659 1070.11L740.437 1086.9C758.51 1090.02 776.772 1092.57 794.752 1096.15Q814.433 1100.06 833.985 1104.56C841.656 1106.36 867.693 1114.38 873.037 1114.12C871.6 1115.01 870.156 1115.73 868.625 1116.44C853.279 1115.62 837.872 1113.33 822.636 1111.33C783.255 1106.16 744.259 1099 705.149 1092.17C698.759 1091.06 681.512 1090.04 677.052 1086.87C676.099 1087.11 675.408 1087.29 674.416 1087.24C666.661 1086.85 651.366 1082.88 642.886 1081.39C628.239 1078.82 575.165 1072.19 564.962 1067.39C564.042 1069.65 562.931 1071.66 561.274 1073.46C554.163 1081.17 543.473 1083.37 533.4 1083.66C510.27 1084.32 494.226 1072.46 476.381 1059.49C469.33 1054.37 463.686 1050.17 455.07 1048.08C442.646 1045.08 429.717 1043.36 417.111 1041.21L356.432 1030.73C328.33 1025.92 300.303 1020.56 272.17 1015.95C232.759 1009.49 193.168 1003.89 153.666 997.992C133.12 994.924 112.709 991.191 92.1328 988.24C75.9235 985.916 56.3515 984.268 40.732 980.212C38.7939 979.709 37.497 979.081 36.0396 977.703C35.2503 975.727 35.3562 975.442 35.7385 973.446C37.9463 970.202 41.2421 969.819 44.928 969.961C55.9368 970.386 67.5139 973.333 78.4318 975.05L139.899 984.29L219.393 997.008C258.005 1002.99 296.718 1008.48 335.195 1015.35C354.66 1018.82 374.183 1022.05 393.612 1025.7C406.778 1028.17 420.323 1031.47 433.605 1032.95C435.303 1033.13 436.837 1032.95 438.448 1032.39C438.667 1032.32 438.881 1032.23 439.098 1032.15C437.931 1032.12 436.689 1032.12 435.588 1031.68C425.995 1027.82 408.726 1015.03 399.139 1008.99Q342.49 973.714 286.532 937.351C278.339 932.055 254.569 918.467 248.913 911.871C241.184 902.859 247.46 891.97 243.425 883.365C243.155 882.789 242.734 882.468 242.195 882.145C237.636 879.42 92.6264 857.476 73.8604 854.327C63.1412 852.529 52.4272 850.63 41.6856 848.973C35.6096 848.036 28.7877 847.887 22.9795 845.874C20.1293 844.886 17.959 843.568 16.6011 840.804C16.6552 839.298 16.6537 838.593 17.846 837.551C20.2079 835.485 24.3601 835.373 27.3547 835.581C33.2335 835.988 39.1582 837.657 44.9894 838.579L89.0057 845.697L189.084 861.599C207.286 864.538 225.202 868.239 243.513 870.583C246.681 865.669 244.006 725.877 243.81 706.723C224.811 704.529 205.718 703.086 186.703 700.95Q135.661 695.357 84.8556 687.909C76.3753 686.749 47.5253 683.687 41.4031 681.291C39.3778 680.498 38.8707 679.957 37.9472 678.062C38.3694 676.294 38.5242 676.127 39.8375 674.855C42.1319 673.94 44.2965 673.991 46.6985 674.283C60.9702 676.018 75.1687 679.054 89.4322 681.031Q139.917 687.57 190.527 693.061C208.208 694.956 225.876 697.297 243.617 698.559C244.685 674.402 243.109 650.179 243.318 626.02C243.605 592.873 245.48 559.245 244.08 526.135C232.567 524.085 185.773 517.718 179.069 514.225C177.868 513.599 177.251 513.388 176.897 512.012C176.33 509.808 177.099 508.337 178.203 506.566C179.871 505.55 181.287 505.076 183.251 505.019C194.236 504.701 231.833 512.296 244.467 514.703ZM292.293 400.121C293.299 401.51 294.801 401.512 296.461 401.756C315.115 404.503 334.351 404.03 353.132 405.864C398.08 410.253 442.877 413.053 487.934 415.931C541.619 419.36 589.254 423.063 643.447 418.254C643.449 413.989 643.29 409.772 643.014 405.516C551.069 414.464 459.511 404.457 367.566 401.749C347.338 401.153 327.157 399.426 306.908 399.622C302.176 399.668 296.953 399.293 292.293 400.121ZM289.433 408.792C309.831 417.335 333.17 421.766 354.566 427.3C371.16 431.591 387.937 435.532 404.394 440.319C420.246 444.93 435.88 450.471 451.552 455.667C469.892 461.747 488.342 467.705 505.762 476.163C518.404 482.301 530.67 489.951 542.111 498.089C551.037 504.438 563.704 513.646 568.108 523.827C570.545 529.46 570.155 539.773 570.305 545.939C570.869 569.041 569.463 592.12 569.537 615.2L567.685 942.508C588.04 936.875 609.516 934.722 630.193 930.394Q630.529 839.174 634.52 748.04C635.864 696.903 637.452 645.584 636.114 594.428Q634.881 555.218 633.1 516.03C632.253 499.106 630.914 482.113 630.676 465.171C613.857 466.799 597.303 467.924 580.389 467.44C547.39 466.495 506.362 459.457 474.394 451.251C467.607 449.508 458.407 448.89 452.647 444.74L452.043 443.301C453.229 441.976 453.777 441.938 455.594 441.872C465.213 441.522 485.35 447.523 496.09 449.241C526.408 454.09 557.89 459.801 588.569 460.27C602.376 460.482 616.103 459.159 629.833 457.851C629.658 453.733 629.534 449.607 629.296 445.494Q596.63 446.202 563.978 445.016Q531.326 443.829 498.797 440.752C483.062 439.351 467.539 438.25 451.899 435.779L330.182 415.443C316.796 413.222 303.107 408.422 289.433 408.792ZM354.204 412.413L355.013 412.686C367.364 416.745 388.447 418.67 402.025 420.938Q420.317 423.986 438.55 427.365C447.136 429.027 455.733 431.127 464.417 432.19C496.456 436.112 528.975 436.38 561.2 437.595Q587.362 438.81 613.552 438.563C618.107 438.509 633.933 436.484 637.042 437.881C639.893 446.078 639.767 487.516 640.293 499.108C642.786 554.128 645.767 609.142 645.275 664.246C644.94 701.873 643.47 739.682 641.975 777.287C641.131 798.522 636.32 856.675 640.887 874.173L642.099 874.344C646.132 866.457 641.378 837.216 645.379 831.939C645.706 832.319 646.336 832.916 646.541 833.362C646.789 842.023 645.703 868.741 648.948 874.819L649.918 874.959C651.195 873.471 651.791 872.267 652.035 870.309C652.886 863.464 652.132 855.545 652.292 848.567Q652.857 812.759 652.713 776.946Q653.118 673.711 650.904 570.498Q649.283 511.978 645.291 453.571C644.688 444.024 644.701 434.385 643.93 424.866C643.915 424.682 643.896 424.499 643.878 424.315C630.997 424.605 618.216 426.277 605.356 426.945C587.94 427.849 570.373 427.475 552.959 426.559C538.21 425.784 523.754 423.072 509.067 422.027C478.501 419.853 447.866 419.074 417.271 416.746C396.624 415.175 375.256 412.317 354.593 412.408L354.204 412.413ZM253.434 413.088C253.527 415.73 253.114 418.001 255.017 420.107C258.128 423.549 267.082 426.809 271.403 429.281L359.105 478.836L440.841 524.624C457.464 534.021 474.167 544.783 491.587 552.547C501.429 556.933 513.307 559.725 524.121 559.392C534.306 559.078 552.478 553.664 559.162 545.623C559.753 544.912 560.002 544.446 560.211 543.566L560.143 538.062L559.432 537.537C549.197 548.813 539.621 552.711 524.172 553.507C515.582 553.949 506.155 553.006 498.121 549.769C491.555 547.125 485.213 542.841 478.941 539.486C456.82 527.654 435.569 514.655 413.677 502.478C360.261 472.765 305.458 445.203 253.434 413.088ZM319.45 425.306C350.521 440.675 386.25 449.693 419.136 460.783C432.813 465.396 445.645 471.319 458.905 476.935C469.584 481.458 480.39 485.509 490.903 490.438C504.536 496.829 520.505 504.032 532.048 513.836C535.939 517.141 538.361 525.114 542.273 527.204C543.404 526.551 544.466 525.945 545.446 525.07C547.172 522.997 548.491 521.506 548.218 518.653C547.446 510.566 537.363 503.614 531.398 499.069C505.366 479.232 475.337 470.569 444.658 460.593C428.456 455.325 412.311 449.421 395.936 444.743C381.375 440.584 366.569 437.578 351.905 433.884C341.698 431.313 329.862 425.935 319.45 425.306ZM254.006 431.448Q254.761 525.401 253.013 619.341C252.819 640.237 253.541 661.135 253.543 682.033Q253.262 745.71 253.793 809.385Q254.44 839.215 254.188 869.051C254.137 880.106 252.611 893.098 254.62 903.847C264.847 913.442 280.616 921.49 292.438 929.383C336.463 958.775 381.6 986.412 426.365 1014.64Q442.177 1024.51 457.497 1035.13C464.955 1040.27 472.367 1046.06 480.328 1050.38L482.001 1050.27C483.933 1033.3 482.496 1008.29 482.687 990.615Q483.91 929.792 483.946 868.956C484.024 850.798 485.037 832.665 485.211 814.511Q486.722 687.937 486.169 561.355L254.006 431.448ZM354.685 446.175C370.041 456.272 387.31 464.623 403.43 473.527C434.749 490.826 471.652 513.34 505.249 524.354C515.4 527.682 527.607 530.362 538.198 528.276C535.378 521.876 530.731 517.561 525.089 513.535C506.684 500.402 482.588 492.147 461.863 483.274C450.78 478.53 439.988 473.103 428.746 468.737C413.115 462.666 396.656 458.718 380.566 454.01C372.13 451.541 363.196 447.996 354.685 446.175ZM559.011 557.024C543.508 567.45 528.067 571.689 509.376 568.082C504.77 567.194 500.195 566.039 495.637 564.935Q497.259 761.829 492.796 958.679C492.251 981.405 492.198 1004.27 492.111 1027.01C492.074 1036.4 493.367 1048.8 491.646 1057.68C493.187 1059.76 497.471 1063.24 500.055 1063.71C500.297 1063.76 500.542 1063.79 500.785 1063.82C506.946 1070.64 521.599 1073.86 530.443 1074.24C538.411 1074.58 548.787 1073.05 554.91 1067.42C556.003 1066.42 556.778 1065.15 557.519 1063.88C559.202 1046.51 557.873 1028.18 557.801 1010.7L557.835 922.892C557.615 869.041 558.984 815.24 559.536 761.396C559.812 734.399 559.125 707.411 559.485 680.414C559.661 667.291 561.361 560.531 559.921 557.497L559.011 557.024ZM678.819 693.554L678.167 897.517C689.725 879.74 697.722 858.583 707.633 839.733C717.04 820.591 726.212 801.301 735.846 782.275C745.538 763.134 756.048 743.737 764.272 723.924C736.59 728.442 718.772 722.747 696.329 706.628C690.449 702.405 684.824 697.556 678.819 693.554Z"/>
	<path fill="#FEFEFE" transform="matrix(0.62793 0 0 0.628255 0 0.000244141)" d="M643.447 418.254C589.254 423.063 541.619 419.36 487.934 415.931C442.877 413.053 398.08 410.253 353.132 405.864C334.351 404.03 315.115 404.503 296.461 401.756C294.801 401.512 293.299 401.51 292.293 400.121C296.953 399.293 302.176 399.668 306.908 399.622C327.157 399.426 347.338 401.153 367.566 401.749C459.511 404.457 551.069 414.464 643.014 405.516C643.29 409.772 643.449 413.989 643.447 418.254Z"/>
	<path fill="#FEFEFE" transform="matrix(0.62793 0 0 0.628255 0 0.000244141)" d="M567.685 942.508L569.537 615.2C569.463 592.12 570.869 569.041 570.305 545.939C570.155 539.773 570.545 529.46 568.108 523.827C563.704 513.646 551.037 504.438 542.111 498.089C530.67 489.951 518.404 482.301 505.762 476.163C488.342 467.705 469.892 461.747 451.552 455.667C435.88 450.471 420.246 444.93 404.394 440.319C387.937 435.532 371.16 431.591 354.566 427.3C333.17 421.766 309.831 417.335 289.433 408.792C303.107 408.422 316.796 413.222 330.182 415.443L451.899 435.779C467.539 438.25 483.062 439.351 498.797 440.752Q531.326 443.829 563.978 445.016Q596.63 446.202 629.296 445.494C629.534 449.607 629.658 453.733 629.833 457.851C616.103 459.159 602.376 460.482 588.569 460.27C557.89 459.801 526.408 454.09 496.09 449.241C485.35 447.523 465.213 441.522 455.594 441.872C453.777 441.938 453.229 441.976 452.043 443.301L452.647 444.74C458.407 448.89 467.607 449.508 474.394 451.251C506.362 459.457 547.39 466.495 580.389 467.44C597.303 467.924 613.857 466.799 630.676 465.171C630.914 482.113 632.253 499.106 633.1 516.03Q634.882 555.218 636.114 594.428C637.452 645.584 635.864 696.903 634.52 748.04Q630.529 839.174 630.193 930.394C609.516 934.722 588.04 936.875 567.685 942.508Z"/>
	<path fill="#FEFEFE" transform="matrix(0.62793 0 0 0.628255 0 0.000244141)" d="M646.541 833.362C646.336 832.916 645.706 832.319 645.379 831.939C641.378 837.216 646.132 866.457 642.099 874.344L640.887 874.173C636.32 856.675 641.131 798.522 641.975 777.287C643.47 739.682 644.94 701.873 645.275 664.246C645.767 609.142 642.786 554.128 640.293 499.108C639.767 487.516 639.893 446.078 637.042 437.881C633.933 436.484 618.107 438.509 613.552 438.563Q587.362 438.81 561.2 437.595C528.975 436.38 496.456 436.112 464.417 432.19C455.733 431.127 447.136 429.027 438.55 427.365Q420.317 423.986 402.025 420.938C388.447 418.67 367.364 416.745 355.013 412.686L354.204 412.413L354.593 412.408C375.256 412.317 396.624 415.175 417.271 416.746C447.866 419.074 478.501 419.853 509.067 422.027C523.754 423.072 538.21 425.784 552.959 426.559C570.373 427.475 587.94 427.849 605.356 426.945C618.216 426.277 630.997 424.605 643.878 424.315C643.896 424.499 643.915 424.682 643.93 424.866C644.701 434.385 644.688 444.024 645.291 453.571Q649.283 511.978 650.904 570.498Q653.117 673.711 652.713 776.946Q652.857 812.759 652.292 848.567C652.132 855.545 652.886 863.464 652.035 870.309C651.791 872.267 651.195 873.471 649.918 874.959L648.948 874.819C645.703 868.741 646.789 842.023 646.541 833.362Z"/>
	<path fill="#FEFEFE" transform="matrix(0.62793 0 0 0.628255 0 0.000244141)" d="M560.211 543.566C560.002 544.446 559.753 544.912 559.162 545.623C552.478 553.664 534.306 559.078 524.121 559.392C513.307 559.725 501.429 556.933 491.587 552.547C474.167 544.783 457.464 534.021 440.841 524.624L359.105 478.836L271.403 429.281C267.082 426.809 258.128 423.549 255.017 420.107C253.114 418.001 253.527 415.73 253.434 413.088C305.458 445.203 360.261 472.765 413.677 502.478C435.569 514.655 456.82 527.654 478.941 539.486C485.213 542.841 491.555 547.125 498.121 549.769C506.155 553.006 515.582 553.949 524.172 553.507C539.621 552.711 549.197 548.813 559.432 537.537L560.143 538.062L560.211 543.566Z"/>
	<path fill="#FEFEFE" transform="matrix(0.62793 0 0 0.628255 0 0.000244141)" d="M545.446 525.07C544.466 525.945 543.404 526.551 542.273 527.204C538.361 525.114 535.939 517.141 532.048 513.836C520.505 504.032 504.536 496.829 490.903 490.438C480.39 485.509 469.584 481.458 458.905 476.935C445.645 471.319 432.813 465.396 419.136 460.783C386.25 449.693 350.521 440.675 319.45 425.306C329.862 425.935 341.698 431.313 351.905 433.884C366.569 437.578 381.375 440.584 395.936 444.743C412.311 449.421 428.456 455.325 444.658 460.593C475.337 470.569 505.366 479.232 531.398 499.069C537.363 503.614 547.446 510.566 548.218 518.653C548.491 521.506 547.172 522.997 545.446 525.07Z"/>
	<path fill="#FEFEFE" transform="matrix(0.62793 0 0 0.628255 0 0.000244141)" d="M254.62 903.847C252.611 893.098 254.137 880.106 254.188 869.051Q254.44 839.215 253.793 809.385Q253.262 745.709 253.543 682.033C253.541 661.135 252.819 640.237 253.013 619.341Q254.761 525.401 254.006 431.448L486.169 561.355Q486.722 687.937 485.211 814.511C485.037 832.665 484.024 850.798 483.946 868.956Q483.91 929.792 482.687 990.615C482.496 1008.29 483.933 1033.3 482.001 1050.27L480.328 1050.38C472.367 1046.06 464.955 1040.27 457.497 1035.13Q442.177 1024.51 426.365 1014.64C381.6 986.412 336.463 958.775 292.438 929.383C280.616 921.49 264.847 913.442 254.62 903.847ZM283.508 499.365C282.356 501.135 281.487 502.655 281.235 504.78C280.6 510.132 281.154 516.057 281.216 521.483L282.027 561.131L282.967 610.463C283.19 618.138 283.026 626.131 284.062 633.739C302.581 644.732 320.942 656.145 339.574 666.919C368.142 683.438 397.174 699.266 425.885 715.534C436.015 721.274 445.394 729.215 455.621 734.537C457.514 735.522 458.494 735.614 460.55 735.142C461.157 735.002 461.299 734.938 461.82 734.751C463.278 733.035 463.959 731.763 464.2 729.508C465.643 716.011 464.446 701.322 464.751 687.696Q465.656 657.091 465.742 626.472C465.789 616.628 466.316 606.454 465.444 596.65C465.29 594.919 465.003 593.252 464.518 591.581C445.693 580.752 425.746 571.975 406.301 562.332Q366.31 542.068 326.802 520.879L297.635 505.038C294.637 503.4 291.163 500.702 288.092 499.503C287.117 499.122 286.163 499.225 285.157 499.277C284.821 499.295 284.484 499.289 284.149 499.307C283.935 499.318 283.722 499.346 283.508 499.365Z"/>
	<path fill="#FEFEFE" transform="matrix(0.62793 0 0 0.628255 0 0.000244141)" d="M538.198 528.276C527.607 530.362 515.4 527.682 505.249 524.354C471.652 513.34 434.749 490.826 403.43 473.527C387.31 464.623 370.041 456.272 354.685 446.175C363.196 447.996 372.13 451.541 380.566 454.01C396.656 458.718 413.115 462.666 428.746 468.737C439.988 473.103 450.78 478.53 461.863 483.274C482.588 492.147 506.684 500.402 525.089 513.535C530.731 517.561 535.378 521.876 538.198 528.276Z"/>
	<path transform="matrix(0.62793 0 0 0.628255 0 0.000244141)" d="M284.062 633.739C283.026 626.131 283.19 618.138 282.967 610.463L282.027 561.131L281.216 521.483C281.154 516.057 280.6 510.132 281.235 504.78C281.487 502.655 282.356 501.135 283.508 499.365C283.722 499.346 283.935 499.318 284.149 499.307C284.484 499.289 284.821 499.295 285.157 499.277C286.163 499.225 287.117 499.122 288.092 499.503C291.163 500.702 294.637 503.4 297.635 505.038L326.802 520.879Q366.31 542.068 406.301 562.332C425.746 571.975 445.693 580.752 464.518 591.581C465.003 593.252 465.29 594.919 465.444 596.65C466.316 606.454 465.789 616.628 465.742 626.472Q465.656 657.091 464.751 687.696C464.446 701.322 465.643 716.011 464.2 729.508C463.959 731.763 463.278 733.035 461.82 734.751C461.299 734.938 461.157 735.002 460.55 735.142C458.494 735.614 457.514 735.522 455.621 734.537C445.394 729.215 436.015 721.274 425.885 715.534C397.174 699.266 368.142 683.438 339.574 666.919C320.942 656.145 302.581 644.732 284.062 633.739ZM290.697 512.512C288.387 525.424 290.968 543.793 291.443 557.06C292.274 580.272 292.733 603.895 292.534 627.134C306.014 635.907 453.891 721.276 455.224 721.09C454.197 702.186 455.052 683.443 455.417 664.545C455.683 650.729 455.325 636.9 455.532 623.082C455.661 614.503 456.249 605.857 456.077 597.284C442.753 589.827 428.464 583.677 414.725 576.967Q379.383 559.794 344.682 541.36C336.527 537.016 295.581 513.517 290.697 512.512Z"/>
	<path fill="#FEFEFE" transform="matrix(0.62793 0 0 0.628255 0 0.000244141)" d="M292.534 627.134C292.733 603.895 292.274 580.272 291.443 557.06C290.968 543.793 288.387 525.424 290.697 512.512C295.581 513.517 336.527 537.016 344.682 541.36Q379.383 559.794 414.725 576.967C428.464 583.677 442.753 589.827 456.077 597.284C456.249 605.857 455.661 614.503 455.532 623.082C455.325 636.9 455.683 650.729 455.417 664.545C455.052 683.443 454.197 702.186 455.224 721.09C453.891 721.276 306.014 635.907 292.534 627.134Z"/>
	<path fill="#FEFEFE" transform="matrix(0.62793 0 0 0.628255 0 0.000244141)" d="M495.637 564.935C500.195 566.039 504.77 567.194 509.376 568.082C528.067 571.689 543.508 567.45 559.011 557.024L559.921 557.497C561.361 560.531 559.661 667.291 559.485 680.414C559.125 707.411 559.812 734.399 559.536 761.396C558.984 815.24 557.615 869.041 557.835 922.892L557.801 1010.7C557.873 1028.18 559.202 1046.51 557.519 1063.88C556.778 1065.15 556.003 1066.42 554.91 1067.42C548.787 1073.05 538.411 1074.58 530.443 1074.24C521.599 1073.86 506.946 1070.64 500.785 1063.82C500.542 1063.79 500.297 1063.76 500.055 1063.71C497.471 1063.24 493.187 1059.76 491.646 1057.68C493.367 1048.8 492.074 1036.4 492.111 1027.01C492.198 1004.27 492.251 981.405 492.796 958.679Q497.26 761.829 495.637 564.935Z"/>
	<path transform="matrix(0.62793 0 0 0.628255 0 0.000244141)" d="M172.839 620.807C161.769 623.093 112.984 606.152 102.238 600.305C101.204 598.484 101.584 598.09 101.983 596.096C113.493 598.027 125.46 602.867 136.745 606.107C148.027 609.346 159.619 611.628 170.833 614.967C172.118 615.349 172.812 615.752 173.781 616.679C174.141 618.729 173.759 619.008 172.839 620.807Z"/>
	<path transform="matrix(0.62793 0 0 0.628255 0 0.000244141)" d="M777.059 678.268C776.855 678.288 776.651 678.305 776.448 678.327C776.242 678.35 776.037 678.384 775.83 678.403C765.449 679.391 703.232 658.986 694.385 651.684C693.694 649.494 694.106 649.047 694.828 646.93C704.984 650.668 715.135 654.382 725.502 657.507C735.383 660.485 772.588 667.454 777.952 673.115C778.712 675.546 778.072 676.004 777.059 678.268Z"/>
	<path transform="matrix(0.62793 0 0 0.628255 0 0.000244141)" d="M925.111 688.383C924.231 688.809 923.336 689.195 922.393 689.463C911.21 692.648 863.671 683.697 853.541 677.802C851.589 676.666 851.726 676.241 851.146 674.138C863.878 673.708 879.211 678.008 892.058 679.748C902.171 681.117 912.433 681.399 922.515 682.964C924.015 683.197 924.952 683.304 926.137 684.284C926.495 686.279 926.026 686.632 925.111 688.383Z"/>
	<path fill="#FEFEFE" transform="matrix(0.62793 0 0 0.628255 0 0.000244141)" d="M678.167 897.517L678.819 693.554C684.824 697.556 690.449 702.405 696.329 706.628C718.772 722.747 736.59 728.442 764.272 723.924C756.048 743.737 745.538 763.134 735.846 782.275C726.212 801.301 717.04 820.591 707.633 839.733C697.722 858.583 689.725 879.74 678.167 897.517Z"/>
	<path transform="matrix(0.62793 0 0 0.628255 0 0.000244141)" d="M194.119 780.291C178.607 782.155 113.539 768.855 100.222 760.138C99.6202 758.164 100.11 757.927 101.012 756.142C107.352 756.99 113.906 759.256 120.113 760.863C133.104 764.225 146.255 767.649 159.545 769.56C166.388 770.544 191.03 772.228 194.991 775.939C195.238 777.976 194.911 778.456 194.119 780.291Z"/>
	<path transform="matrix(0.62793 0 0 0.628255 0 0.000244141)" d="M880.184 858.322C878.467 858.819 876.749 859.236 874.963 859.372C862.518 860.315 806.107 846.488 797.624 838.493C796.31 837.255 796.701 836.27 796.733 834.616C802.377 835.601 808.169 837.798 813.688 839.392Q828.829 843.832 844.222 847.297C854.06 849.463 871.294 849.384 879.573 853.964C880.666 855.959 880.492 856.169 880.184 858.322Z"/>
	<path transform="matrix(0.62793 0 0 0.628255 0 0.000244141)" d="M131.056 915.176C128.782 915.514 126.519 915.762 124.216 915.753C117.166 915.723 96.4444 912.679 91.944 907.464C90.9711 906.336 91.2899 905.018 91.2992 903.629C96.4182 903.228 126.254 908.077 130.344 910.676C131.529 912.649 131.295 912.969 131.056 915.176Z"/>
	<path transform="matrix(0.62793 0 0 0.628255 0 0.000244141)" d="M877.965 1014.65C876.048 1015.19 874.168 1015.48 872.183 1015.57C863.948 1015.92 844.342 1012.74 838.023 1006.91C837.306 1004.84 837.432 1004.84 838.166 1002.91C846.121 1004.37 873.878 1006.25 878.646 1010.63C879.069 1012.7 878.847 1012.83 877.965 1014.65Z"/>
	<path transform="matrix(0.62793 0 0 0.628255 0 0.000244141)" d="M726.14 1017.3Q725.35 1017.49 724.555 1017.65C713.949 1019.89 691.12 1015.21 682.204 1008.7C680.143 1007.19 680.12 1006.55 679.641 1004.16C686.83 1004.17 695.672 1007.4 702.964 1008.5C707.975 1009.26 720.974 1009.67 724.914 1011.18C725.391 1011.37 726.236 1012.3 726.666 1012.66C727.055 1014.77 726.871 1015.25 726.14 1017.3Z"/>
	<path transform="matrix(0.62793 0 0 0.628255 0 0.000244141)" d="M529.239 1120.54C528.695 1120.86 527.999 1121.33 527.371 1121.5C521.216 1123.15 315.941 1079.56 292.507 1073.59C279.492 1070.27 256.848 1065.05 245.901 1057.75C243.796 1056.35 243.602 1055.66 243.046 1053.35C248.953 1056.87 266.21 1060.1 273.883 1062C335.277 1077.28 397.637 1088.52 459.256 1102.9Q482.08 1108.25 504.778 1114.11C512.712 1116.2 521.147 1119.43 529.239 1120.54Z"/>
	<path transform="matrix(0.62793 0 0 0.628255 0 0.000244141)" d="M425.925 1158.29L424.133 1159.48C412.734 1160.62 386.938 1154.12 374.444 1152.08C333.162 1145.34 247.571 1137.27 214.225 1114.52C211.867 1112.91 211.443 1112.06 210.924 1109.35C227.395 1114.82 243.079 1121.23 260.053 1125.32C315.343 1138.66 370.529 1143.02 425.925 1158.29Z"/>
</svg>
