<svg width="25" height="24" viewBox="0 0 25 24" fill="none" xmlns="http://www.w3.org/2000/svg">
<path d="M11.2543 3.45879C11.9721 2.84707 13.0279 2.84707 13.7457 3.45879L14.9667 4.49929C15.2743 4.76143 15.6567 4.91985 16.0596 4.952L17.6587 5.07961C18.5988 5.15463 19.3454 5.90117 19.4204 6.8413L19.548 8.4404C19.5802 8.84327 19.7386 9.22573 20.0007 9.53333L21.0412 10.7543C21.6529 11.4721 21.6529 12.5279 21.0412 13.2457L20.0007 14.4667C19.7386 14.7743 19.5802 15.1567 19.548 15.5596L19.4204 17.1587C19.3454 18.0988 18.5988 18.8454 17.6587 18.9204L16.0596 19.048C15.6567 19.0802 15.2743 19.2386 14.9667 19.5007L13.7457 20.5412C13.0279 21.1529 11.9721 21.1529 11.2543 20.5412L10.0333 19.5007C9.72573 19.2386 9.34327 19.0802 8.9404 19.048L7.3413 18.9204C6.40117 18.8454 5.65463 18.0988 5.57961 17.1587L5.452 15.5596C5.41985 15.1567 5.26143 14.7743 4.99929 14.4667L3.95879 13.2457C3.34707 12.5279 3.34707 11.4721 3.95879 10.7543L4.99929 9.53333C5.26143 9.22573 5.41985 8.84327 5.452 8.4404L5.57961 6.8413C5.65463 5.90117 6.40117 5.15463 7.3413 5.07961L8.9404 4.952C9.34327 4.91985 9.72573 4.76143 10.0333 4.49929L11.2543 3.45879Z" stroke="#E30004" stroke-width="2" stroke-linecap="round" stroke-linejoin="round"/>
<path d="M12.4492 15.45H12.5492V15.55H12.4492V15.45Z" stroke="#E30004" stroke-width="2" stroke-linecap="round" stroke-linejoin="round"/>
<path d="M12.5 8.44995V12.45" stroke="#E30004" stroke-width="2" stroke-linecap="round" stroke-linejoin="round"/>
</svg>
