<svg width="131" height="129" viewBox="0 0 131 129" fill="none" xmlns="http://www.w3.org/2000/svg">
<path d="M93.6423 125.962C93.7621 126.89 99.7568 125.067 100.307 124.41C101.07 123.508 100.897 118.594 99.6901 119.158C96.8459 120.485 93.954 120.538 93.4109 121.268C93.1387 121.631 93.2516 122.912 93.6423 125.962Z" fill="#1D6CFF"/>
<path d="M44.7846 24.6574C43.5446 24.0938 40.7855 25.8144 40.5649 26.9448C42.337 27.8136 44.0455 28.8066 45.6776 29.9163C48.1536 28.6967 46.8271 25.5925 44.7846 24.6574Z" fill="#1D6CFF"/>
<path d="M54.2803 73.0917C54.9037 77.5734 56.3956 81.6522 58.922 80.2931C60.2484 79.5764 57.4104 76.4266 60.0892 76.1482C61.1305 76.0421 61.8267 77.1365 61.76 78.1574C61.6239 80.2672 65.5033 81.5127 66.0634 78.6215C66.4153 76.7839 69.3984 77.6687 69.6509 80.5183C69.8768 83.0515 73.7691 84.2977 73.8093 81.2207C73.8978 74.2453 53.7699 69.424 54.2803 73.0917Z" fill="#1D6CFF"/>
<path d="M32.4037 28.0783C29.3737 29.9615 29.6943 34.3949 34.0685 34.2854C35.8516 34.2404 36.8337 30.5788 36.5281 29.803C36.2226 29.0271 33.6907 27.6149 32.4037 28.0783Z" fill="#1D6CFF"/>
<path d="M97.9131 33.1715C97.907 35.5257 102.383 35.4726 102.813 33.5036C103.244 31.5347 97.9226 30.7847 97.9131 33.1715Z" fill="#1D6CFF"/>
<path d="M60.5402 26.3145C61.2364 26.0491 62.2771 24.0263 61.6475 23.2967C61.1235 22.6937 59.0415 21.5796 58.2983 21.9315C57.5551 22.2833 56.9589 24.5177 57.2046 24.9417C57.7674 25.8973 59.6731 26.6466 60.5402 26.3145Z" fill="#1D6CFF"/>
<path d="M71.2302 108.024C73.7035 111.439 97.6747 113.342 97.9932 106.527C97.6815 100.79 72.4437 101.804 71.2302 108.024Z" fill="#1D6CFF"/>
<path d="M83.0728 33.1782C83.5703 30.66 78.4577 31.1364 78.6966 33.2463C78.8817 34.9287 82.6352 35.3929 83.0728 33.1782Z" fill="#1D6CFF"/>
<path d="M77.8943 117.242C79.9959 117.189 79.4521 113.919 81.2224 114.019C82.9926 114.118 83.1457 120.961 85.3407 120.325C87.5356 119.689 87.5226 114.185 89.0744 114.019C90.9174 113.82 91.0107 116.22 92.3964 116.174C93.9481 116.121 95.2345 113.429 95.977 109.749C85.3073 113.104 66.203 110.922 69.6509 103.84C67.9937 105.571 66.0308 119.317 70.8712 120.603C74.1939 120.418 72.6408 114.682 74.5253 114.509C76.4099 114.336 75.7191 117.294 77.8943 117.242Z" fill="#1D6CFF"/>
<path d="M23.9958 76.2079C23.1934 75.119 22.3379 74.4636 21.4361 74.4704C19.1023 74.4969 15.2889 76.7449 14.7982 78.7935C14.4137 80.3922 15.8525 84.2247 18.2264 84.1518C22.1922 84.0389 27.345 80.7829 23.9958 76.2079ZM16.3963 79.1719C16.5419 78.5417 17.59 77.6331 18.8103 76.9702C19.5356 78.5994 20.4031 80.1616 21.4027 81.6384C20.4171 82.1555 19.3317 82.454 18.2203 82.5137C16.9319 82.4905 16.2309 79.7287 16.3963 79.1719Z" fill="#202020"/>
<path d="M36.8004 74.1255C38.8755 74.0731 42.6358 72.6867 43.577 70.5184C44.34 68.6481 42.2778 64.4175 40.01 64.4379C37.6756 64.4638 33.8432 66.7057 33.3722 68.7611C32.9741 70.3523 34.4305 74.1854 36.8004 74.1255ZM37.3904 66.931C38.116 68.5602 38.9837 70.1223 39.9835 71.5992C37.0985 73.3299 34.8443 72.1763 34.977 69.1327C35.1227 68.5025 36.1701 67.5939 37.3904 66.931Z" fill="#202020"/>
<path d="M17.9216 68.3434C15.3748 70.0211 13.5657 71.155 14.9773 72.1547C15.7995 72.7387 16.1575 71.1202 18.7042 69.7944C18.8843 69.6842 19.0153 69.5092 19.0703 69.3053C19.1253 69.1014 19.1001 68.8842 18.9998 68.6984C18.8996 68.5126 18.7319 68.3722 18.5314 68.3062C18.3308 68.2401 18.1126 68.2535 17.9216 68.3434Z" fill="#202020"/>
<path d="M67.324 79.9813C67.2877 81.4826 66.833 82.944 66.0111 84.201C65.8923 84.378 65.8469 84.5943 65.8845 84.8042C65.9221 85.014 66.0397 85.2011 66.2126 85.3259C66.3855 85.4507 66.6001 85.5034 66.8112 85.4729C67.0222 85.4425 67.2131 85.3312 67.3437 85.1627C67.9801 84.0737 70.3213 79.8445 68.2054 79.2143C67.7725 79.0924 67.3566 79.5301 67.324 79.9813Z" fill="#202020"/>
<path d="M71.3794 76.2022C66.7779 73.4117 58.6414 69.8958 55.1534 71.3414C51.1086 73.019 54.7559 76.2287 54.0393 79.9223C54.0151 80.0303 54.0145 80.1423 54.0376 80.2505C54.0606 80.3588 54.1068 80.4608 54.1729 80.5496C54.239 80.6384 54.3235 80.7118 54.4206 80.765C54.5177 80.8181 54.6251 80.8496 54.7355 80.8575C57.057 80.7111 55.2596 75.6781 55.1867 75.0282C54.875 73.8215 54.5967 73.019 55.704 72.8931C60.5907 72.3487 68.9756 76.6732 70.4579 77.6872C72.1458 79.0065 73.2658 80.9209 73.5887 83.0388C73.6152 83.3042 73.6622 83.5492 73.4226 83.6554C71.9349 84.3422 70.7059 85.4869 69.9155 86.9222C69.8241 87.1155 69.8116 87.3368 69.8805 87.5392C69.9495 87.7416 70.0945 87.9092 70.2849 88.0065C70.4753 88.1038 70.6961 88.1232 70.9005 88.0606C71.1049 87.9979 71.277 87.8582 71.3801 87.6709C71.7127 87.014 72.1789 86.4339 72.7489 85.9679C73.3189 85.5019 73.98 85.1602 74.6899 84.9648C76.2627 84.6096 74.5184 78.4761 71.3794 76.2022Z" fill="#202020"/>
<path d="M103.477 89.3376C87.7476 83.0762 78.6494 97.0236 77.274 99.3512C73.4742 100.239 70.5429 101.738 69.0245 103.31C67.1413 105.259 66.9691 105.438 66.9752 115.57C66.9752 119.941 66.7302 123.793 67.698 123.919C69.343 124.132 67.8572 111.207 69.1504 107.673C71.4515 112.222 97.0146 114.118 102.406 106.897C102.446 107.414 102.485 107.944 102.519 108.495C100.848 109.868 99.5239 110.73 99.4879 110.757C99.3386 110.826 99.2185 110.945 99.1488 111.094C99.0792 111.243 99.0645 111.412 99.1074 111.571C99.1502 111.73 99.2479 111.868 99.383 111.962C99.5182 112.056 99.6821 112.099 99.8459 112.083C100.655 111.91 100.974 111.698 102.644 110.518C102.949 122.401 103.075 123.853 103.998 123.8C104.806 123.926 104.289 121.962 104.216 109.235C111.58 103.668 114.937 93.8976 103.477 89.3376ZM101.507 104.822C100.672 106.778 98.6426 108.349 94.3521 109.351C85.5459 111.413 66.9589 109.251 70.3475 104.298C71.753 102.242 77.2215 100.425 83.7294 100.078C95.9699 99.437 102.595 102.295 101.507 104.822ZM104.074 107.143C103.622 97.2883 86.8547 97.8321 79.5043 98.9C83.9601 91.6176 93.9206 86.8841 102.819 90.8499C112.25 95.0601 110.28 101.891 104.074 107.143Z" fill="#202020"/>
<path d="M30.3025 63.2238C32.2388 61.9837 34.6325 62.4881 34.4331 61.3011C34.2214 60.0413 30.9123 60.8036 29.3538 61.9136C29.2615 61.9734 29.1823 62.0513 29.1211 62.1426C29.0599 62.2339 29.0179 62.3367 28.9977 62.4447C28.9775 62.5528 28.9795 62.6638 29.0036 62.7711C29.0277 62.8784 29.0733 62.9796 29.1378 63.0686C29.2023 63.1577 29.2842 63.2326 29.3786 63.289C29.473 63.3454 29.5779 63.3819 29.6868 63.3964C29.7958 63.4109 29.9066 63.4031 30.0124 63.3734C30.1183 63.3438 30.217 63.2928 30.3025 63.2238Z" fill="#202020"/>
<path d="M3.52425 90.9426C3.91491 91.3408 5.16176 91.2414 6.1037 90.9229C6.62336 91.8138 7.43695 92.496 8.40479 92.8524C3.38813 98.7606 2.84365 108.515 3.55147 116.068C3.64471 117.043 5.07736 116.83 5.03721 115.856C4.65267 107.003 5.03721 98.7007 10.2778 93.2601C10.6815 93.2905 11.0867 93.2973 11.4913 93.2805C11.7104 96.8012 15.7484 97.1599 19.2569 96.1648C20.2778 99.348 25.2046 98.2066 27.6118 96.9407C30.2437 99.0615 34.2429 97.5941 37.0476 95.6939C43.3091 95.6939 46.1519 94.6362 45.9403 88.34C46.6003 87.4852 47.1445 86.547 47.5587 85.5496C49.2141 85.6035 50.8132 86.1636 52.1405 87.1544C51.9948 89.5086 51.1727 89.4487 53.6922 91.3986C53.241 92.3515 52.6775 93.5997 52.1337 94.9125C45.5489 93.6528 44.7465 104.209 37.1742 102.976C34.5281 102.545 32.0697 100.199 32.0412 100.178C31.1986 99.5188 30.1716 100.828 31.0271 101.471C31.0802 101.512 31.7233 102.016 32.6911 102.628C24.4491 107.25 22.9586 116.666 24.5682 123.114C18.0427 119.183 15.7355 116.404 13.1826 111.099C12.9831 110.691 12.6381 110.316 12.2604 110.562C10.8413 111.503 14.1374 116.543 17.0082 119.534C18.5531 121.145 23.9183 125.8 30.4962 127.617C35.0453 128.877 39.8462 128.957 46.3711 126.749C58.5374 122.619 62.7748 119.012 63.3254 113.92C63.9883 107.794 64.5389 103.065 60.0694 99.9877C60.7093 98.5848 61.3173 97.1674 61.8927 95.7367C62.8612 96.3738 65.3678 96.2343 66.1172 95.8164C67.4961 95.0602 69.9033 90.1797 69.1941 88.8144C68.6102 87.6867 66.4037 88.4292 64.8901 87.607C63.2192 86.6984 54.6321 82.2092 54.5389 82.1766C52.9606 81.5994 53.239 83.6882 52.5298 85.3924C51.1847 84.5751 49.6725 84.0719 48.1059 83.9203C48.5374 82.342 48.6429 80.4656 47.622 79.3603C48.3843 77.2647 48.0984 74.0353 46.269 72.5101C49.2731 69.8442 42.8476 62.0725 41.0835 61.5158C26.9857 40.1036 -11.0575 59.4059 4.45326 83.5711C2.57142 84.4709 2.79601 90.2062 3.52425 90.9426ZM62.1779 105.74C61.6872 106.489 59.8135 107.858 58.1726 108.731C58.0166 108.822 57.8946 108.961 57.825 109.128C57.7555 109.294 57.7422 109.479 57.7873 109.654C57.8323 109.829 57.9332 109.984 58.0746 110.096C58.216 110.208 58.3902 110.271 58.5707 110.276C59.4923 110.044 60.7323 109.129 62.3174 107.928C62.3106 108.837 62.2446 109.852 62.1445 110.979C61.0531 112.083 59.8168 113.033 58.4693 113.804C58.3202 113.9 58.2058 114.041 58.143 114.207C58.0802 114.373 58.0724 114.555 58.1206 114.725C58.1689 114.896 58.2706 115.047 58.411 115.155C58.5513 115.264 58.7228 115.325 58.9001 115.328C59.6958 115.163 60.392 114.5 61.9043 113.423C61.8315 115.89 60.6642 117.461 57.607 119.69C46.8448 126.28 35.3659 129.251 26.5998 124.139C24.4219 118.118 25.4428 107.899 34.3913 103.569C38.4694 106.168 43.1314 104.113 45.4387 101.195C47.4348 98.6681 49.1261 96.3343 51.5198 96.4534C49.8421 100.021 49.8421 101.407 50.505 102.382C51.8662 104.356 55.2331 105.134 56.5133 104.882C57.7935 104.63 58.615 103.397 59.3575 101.467C60.1345 101.902 60.796 102.517 61.2867 103.261C61.7774 104.004 62.0829 104.854 62.1779 105.74ZM56.4554 102.988C54.9302 103.645 52.4767 102.219 52.2712 101.277C51.7267 98.7708 53.9352 94.9309 55.0956 92.2657C56.3159 92.9885 58.0222 93.8903 60.4043 95.0242C59.0948 98.2896 57.377 102.594 56.4554 102.991V102.988ZM54.6369 84.0856C58.9607 86.0757 63.7017 89.7489 67.8329 89.8816C66.8985 92.1493 65.8633 94.0788 65.4325 94.3245C64.6084 94.5347 63.7474 94.5552 62.9143 94.3844C52.7489 88.8872 52.6359 91.4204 54.6369 84.0856ZM46.2166 80.2995C47.6955 81.8444 46.0709 85.3393 44.7513 87.1497C44.5749 87.3984 44.4757 87.6936 44.4661 87.9984C44.2381 93.1471 42.8789 94.0849 37.4369 94.0461C37.0131 94.0433 36.5955 94.1482 36.2234 94.351C33.8944 95.6374 30.0348 97.5995 28.4919 95.44C28.3677 95.2583 28.1797 95.1301 27.9653 95.0809C27.7508 95.0317 27.5257 95.0652 27.3348 95.1746C25.272 96.4548 20.7562 97.6247 20.7698 95.1017C20.7752 94.9616 20.746 94.8222 20.6848 94.696C20.6236 94.5698 20.5323 94.4605 20.4189 94.3779C20.3055 94.2954 20.1735 94.2419 20.0346 94.2224C19.8957 94.2029 19.7541 94.2178 19.6223 94.266C16.201 95.6122 13.4487 95.3998 13.137 92.9266C13.11 92.643 12.9768 92.3802 12.7641 92.1908C12.5514 92.0015 12.2749 91.8996 11.9902 91.9057C9.78844 92.005 7.81267 91.66 7.28794 89.5236C6.7911 87.899 7.6398 85.83 8.64913 85.3325C10.0614 84.3912 12.2767 83.1907 13.3575 82.521C14.4716 84.5369 16.0894 87.3818 18.0924 87.428C20.9032 87.428 27.767 83.3445 28.4966 81.5001C29.0602 80.0742 27.1967 76.8843 26.3344 75.5251C27.7405 74.7084 30.5452 73.0981 31.8513 72.342C33.9005 75.4319 35.9029 79.4508 30.7242 79.4113C30.624 79.3979 30.5221 79.407 30.4259 79.4379C30.3297 79.4688 30.2416 79.5208 30.1679 79.59C30.0943 79.6592 30.037 79.7439 30.0002 79.838C29.9634 79.9322 29.948 80.0333 29.9551 80.1341C30.0232 81.1217 31.56 81.1618 33.4262 80.5384C35.7205 79.7693 35.8763 78.1046 35.6803 77.1565C38.2536 78.0413 42.0398 75.5449 44.9779 73.6086C47.9344 75.6715 45.0698 79.3514 46.2166 80.2995ZM13.3248 77.9984C13.5433 76.7454 20.3846 73.0205 22.0051 73.1111C22.197 73.1219 23.0457 73.6617 24.4321 75.651C26.1295 78.0848 27.1041 80.4152 26.9585 80.9032C26.6073 82.0602 19.7966 86.1152 17.9862 85.7837C16.5624 85.5183 13.0607 79.5168 13.3248 77.9984ZM40.5867 63.0716C40.7725 63.0852 41.7342 63.548 43.0137 65.6184C45.1426 69.0534 46.7937 70.4792 44.4259 71.9643C40.8188 74.2259 37.3573 77.9453 34.4266 73.4827C32.4706 70.5057 31.7009 69.1595 31.9084 67.959C32.1187 66.706 38.9689 62.9457 40.5867 63.0716ZM31.8009 56.348C33.1995 55.877 36.5419 57.2893 39.2344 61.7458C35.9185 63.1444 29.135 65.9036 30.4411 68.9935C29.1949 69.6741 26.1309 71.3755 24.1116 72.6537C23.5897 72.0034 22.841 71.5747 22.016 71.4538C20.1335 71.7451 10.0736 75.7041 11.9105 79.1595C10.9223 79.6965 7.91817 81.3272 5.8301 82.6469C5.43726 82.0042 5.07633 81.3425 4.74864 80.6643C12.9056 75.9764 6.55902 67.5812 17.5071 65.1801C30.1491 62.4087 29.1214 57.2498 31.8009 56.348ZM4.08233 79.1391C-4.02082 63.1247 18.0944 49.2195 30.3022 55.046C23.8169 67.9569 10.9257 59.0908 8.25098 72.8095C7.72284 75.2066 7.25186 77.2913 4.08233 79.1391Z" fill="#202020"/>
<path d="M91.8523 119.76C92.8936 119.315 97.5285 118.699 99.6376 117.538C100.599 117.001 100.188 115.648 99.0673 116.119C94.883 117.87 91.9251 117.957 90.8246 118.705C89.8364 119.375 89.4124 121.02 90.0617 123.705C90.3203 124.794 90.466 127.193 91.0363 127.186C93.1788 127.178 90.3938 120.385 91.8523 119.76Z" fill="#202020"/>
<path d="M92.5025 33.2568C89.6644 34.7888 83.9481 31.2341 85.6285 36.6319C86.8025 40.4051 92.1336 41.1612 94.6341 38.3429C96.0368 36.7591 95.5195 31.6268 92.5025 33.2568ZM93.2715 37.5806C90.7914 39.3706 87.4559 38.4885 86.9121 35.7566C86.5935 34.0653 89.5664 36.4862 93.2253 34.7289C94.1999 34.3852 94.0869 36.9919 93.2715 37.582V37.5806Z" fill="#202020"/>
<path d="M88.9613 31.2554C89.8366 31.8455 90.7384 30.4203 89.8298 29.8568C89.8168 29.85 88.7823 29.1667 88.8422 28.3248C88.8885 27.668 90.0224 27.1242 90.46 26.7859C91.2223 26.1959 90.5662 25.0028 89.452 25.4996C87.741 26.2694 85.4733 28.9012 88.9613 31.2554Z" fill="#202020"/>
<path d="M40.3813 31.9579C37.3506 33.8418 37.6719 38.2745 42.0461 38.1649C43.8292 38.1207 44.8113 34.4577 44.5064 33.6819C44.2015 32.906 41.6676 31.4938 40.3813 31.9579Z" fill="#202020"/>
<path d="M84.353 17.768C83.0613 17.312 81.6646 17.2427 80.3341 17.5686C79.4193 17.7878 79.7311 19.1537 80.7914 19.1537C81.79 19.0965 82.7912 19.2018 83.7561 19.4654C83.9748 19.5213 84.2066 19.4932 84.4056 19.3867C84.6047 19.2802 84.7567 19.103 84.8316 18.89C84.9065 18.677 84.8989 18.4437 84.8103 18.236C84.7217 18.0283 84.5585 17.8614 84.353 17.768Z" fill="#202020"/>
<path d="M98.6957 20.5293C97.8621 20.5536 97.0425 20.7493 96.2879 21.1041C95.5332 21.4589 94.8597 21.9653 94.3092 22.5916C93.7586 23.218 93.343 23.9509 93.088 24.7449C92.8329 25.5389 92.7441 26.3768 92.8269 27.2066C93.0059 28.6719 94.0404 30.4163 95.2737 30.6776C96.7465 30.9893 97.7537 30.4258 98.9611 30.2931C100.471 30.0768 102.011 30.2572 103.43 30.8165C106.514 32.0415 106.554 24.6435 104.577 22.5881C103.816 21.8235 102.891 21.2412 101.872 20.8846C100.854 20.5281 99.7679 20.4066 98.6957 20.5293ZM103.98 29.0864C102.663 28.781 101.316 28.6168 99.9643 28.5964C99.5617 26.4309 99.037 24.29 98.3928 22.1838C102.8 21.5406 105.121 25.2669 103.98 29.0864Z" fill="#202020"/>
<path d="M124.261 32.7408C124.109 30.9175 122.67 29.4916 121.947 27.8936C125.495 27.4954 129.454 23.908 127.577 20.6915C125.853 18.2645 123.513 19.346 121.344 18.3047C126.857 13.7821 123.59 7.60846 115.178 9.7639C112.625 10.4207 110.496 9.38549 108.613 8.31832C110.675 7.08508 110.518 3.6964 108.334 2.8055C105.443 1.62535 103.308 3.6542 100.563 3.70729C97.1738 3.42893 93.3938 -1.08069 89.6805 1.08836C87.9633 2.08952 88.0756 3.94686 88.5405 5.25904C80.5626 10.4118 76.5511 4.32391 71.5447 7.55401C68.2486 10.2594 69.4825 14.8942 73.3483 16.3595C70.225 18.3952 66.1734 15.0603 64.6019 19.2643C62.3669 17.4342 58.9979 15.5442 56.2531 16.2275C55.4105 10.6038 49.8405 11.6784 44.6884 14.1857C42.682 11.0012 38.8162 13.1111 35.3758 15.0092C32.2451 16.8591 29.8855 19.9163 33.2871 23.3574C28.4399 22.3229 25.124 31.6607 25.5617 34.2197C26.4226 36.3146 32.7896 39.5862 38.591 42.0248C38.1996 49.6903 57.5646 64.839 68.333 66.1022C73.7682 66.7399 81.0186 63.7146 82.1388 62.6937C83.4782 63.4826 86.1707 64.1856 86.6484 65.28C87.9143 68.131 90.4672 74.2387 92.8153 75.1738C93.485 75.4386 94.2609 74.3646 93.7035 73.8807C91.7012 72.037 89.3667 67.1959 88.1866 64.6967C86.5355 61.2087 80.4217 61.7253 79.0816 57.2497C77.9545 53.4765 79.1217 49.3452 79.7254 47.5811C80.2556 46.0294 78.7107 45.8572 78.1274 46.9775C76.6083 49.904 75.6602 59.3976 80.5476 61.7253C71.8741 67.5144 60.1699 63.1974 51.9626 56.5065C59.313 56.2546 65.3377 47.4021 64.6897 40.552C70.4258 44.7962 71.4405 45.6911 72.2096 44.7832C72.9127 43.9406 71.3344 43.4302 68.7216 41.3346C70.8584 38.9945 73.3902 37.0485 76.2013 35.5857C78.4364 45.9504 92.5608 48.2379 100.014 45.5986C100.386 47.4362 100.087 47.9861 97.3419 48.941C91.8046 50.8575 89.8813 53.437 91.3799 60.558C92.5077 65.9232 96.6123 69.7821 103.88 69.3187C111.334 69.4711 122.03 64.8887 128.11 60.1014C129.024 59.3779 128.7 57.8731 127.201 58.7286C125.278 59.8223 122.785 61.4802 121.167 62.4351C123.236 56.5534 117.321 46.0028 115.636 43.1062C117.281 41.7934 118.899 41.0182 118.952 40.1797C118.998 39.463 118.15 39.3303 117.792 39.6093C115.086 41.1938 113.806 43.9066 108.808 42.1956C112.157 40.1797 113.762 37.5471 114.332 34.7819C116.554 37.1558 121.945 38.2168 123.888 34.3973C125.101 35.014 127.409 36.3268 128.596 38.031C128.724 38.2054 128.915 38.3229 129.129 38.3584C129.343 38.3939 129.562 38.3447 129.74 38.2212C129.917 38.0977 130.04 37.9097 130.082 37.6972C130.123 37.4846 130.08 37.2643 129.961 37.083C128.383 34.8955 125.446 33.3111 124.261 32.7408ZM71.9326 13.3152C70.8117 11.8962 71.1363 10.0484 72.6084 8.81311C76.1959 6.73049 79.2068 10.4704 84.2725 8.75322C87.8538 7.92425 89.9357 5.5238 93.9274 5.86818C94.0356 5.87902 94.1448 5.86815 94.2488 5.83621C94.3527 5.80427 94.4492 5.7519 94.5326 5.68217C94.6161 5.61244 94.6847 5.52675 94.7346 5.43014C94.7845 5.33352 94.8145 5.22792 94.8231 5.11952C94.4385 3.24993 91.1295 4.50699 90.0882 4.66216C90.056 4.39709 90.0776 4.12826 90.1515 3.87169C90.2255 3.61512 90.3503 3.37607 90.5186 3.16877C90.6869 2.96148 90.8952 2.79018 91.1311 2.6651C91.367 2.54001 91.6257 2.4637 91.8917 2.4407C94.2527 2.22223 98.6494 5.62384 100.652 5.33867C102.111 5.45165 104.087 4.24972 105.877 4.15172C107.051 4.08366 108.543 4.43008 108.357 6.10162C108.185 7.59893 106.062 7.01634 104.796 6.51951C103.748 6.32009 103.238 7.46077 104.2 7.93174C105.221 8.36035 106.218 8.84733 107.183 9.39026C110.859 11.7247 113.192 11.7778 115.623 11.1741C118.236 10.518 121.332 10.5241 122.267 12.9178C122.857 14.4233 121.624 16.691 118.885 17.75C112.52 20.2301 107.606 14.9718 107.387 14.7397C106.591 13.9108 105.451 14.9521 106.419 16.0329C108.02 17.6795 110.018 18.8853 112.221 19.5338C107.785 22.1466 99.9472 17.9623 99.0387 13.4663C99.8554 12.6176 98.4479 11.4177 97.7721 12.4053C95.5833 15.7014 92.5798 17.3124 90.2787 16.1452C87.6394 14.7989 91.691 12.6741 91.0015 11.1088C90.8736 10.9505 90.692 10.8447 90.4912 10.8117C90.2903 10.7787 90.0844 10.8207 89.9126 10.9298C83.4503 15.0691 75.3267 17.6282 71.9326 13.3152ZM56.8064 18.0393C59.2994 16.9258 63.4905 19.9225 64.5454 21.6001C65.1621 22.5822 61.3221 30.1947 59.9099 31.7526C59.4831 31.2075 58.9277 30.7768 58.2935 30.4991C57.6594 30.2214 56.9663 30.1054 56.2762 30.1613C55.9979 26.3949 57.1447 22.018 56.8064 18.0393ZM53.2074 14.1075C56.2646 16.335 54.3086 23.8747 54.6135 30.5322C53.9914 30.748 53.4236 31.0963 52.9495 31.5531C52.6173 30.7364 52.2267 29.7761 51.7884 28.7151C53.0686 28.6681 53.0291 27.4287 52.9958 26.2813C52.9495 24.4511 52.3322 22.8783 49.5009 23.3969C49.3022 22.9525 49.0966 22.508 48.8972 22.0636C52.8031 21.3674 53.0291 21.5137 51.736 17.1769C51.4243 16.1159 47.1399 16.348 46.7425 17.6411C46.3801 16.944 45.9998 16.2563 45.6018 15.5789C48.7836 13.9958 51.5944 13.4309 53.2074 14.1075ZM51.4882 27.0442C51.3767 27.0993 51.2632 27.1504 51.1479 27.1973C50.8329 26.4522 50.5123 25.7094 50.1863 24.9691C50.4665 24.929 50.7516 24.938 51.0288 24.9956C51.3631 25.6248 51.5218 26.3325 51.4882 27.0442ZM33.1333 19.917C33.04 17.3641 41.4222 13.3391 42.6888 14.3361C45.938 18.2285 48.3786 25.0984 51.8129 33.1485C51.7666 33.2417 51.7203 33.3275 51.6768 33.4336C48.6263 31.0992 41.3583 25.8212 35.8352 23.9734C34.5659 22.3672 33.2061 20.4002 33.1333 19.917ZM37.0127 39.5249C25.0764 33.8222 25.1363 34.3796 31.018 25.4006C35.8455 23.4643 44.2338 30.3077 51.1765 35.1283C51.1085 35.4999 51.0574 35.911 51.0241 36.3418C48.365 34.2592 45.7256 37.88 46.4015 40.1987C46.8854 41.4388 50.0821 43.0368 51.3814 41.2196C51.9789 46.5283 42.9869 41.9513 37.0127 39.5243V39.5249ZM50.8648 38.1726C50.7557 38.9799 50.4305 39.7428 49.9236 40.3805C49.5482 40.4027 49.1726 40.3391 48.8255 40.1944C48.4785 40.0497 48.1689 39.8277 47.9206 39.5454C48.0128 38.7348 48.3614 37.9749 48.9156 37.3763C49.6252 37.4608 50.2987 37.7357 50.8648 38.1719V38.1726ZM52.9801 54.8962C51.3957 55.2875 49.6581 55.3603 46.004 51.3884C42.9209 48.0331 40.1155 44.4722 40.3612 42.7448C47.9206 46.173 53.6498 46.4779 53.0883 41.3782C52.7834 38.6558 52.4914 36.6569 52.8562 35.0793C53.1149 32.8776 55.6821 31.1829 57.6374 32.0085C59.7929 32.9191 60.1046 37.4131 62.8433 39.1241C63.7294 43.079 62.6085 52.508 52.9801 54.8955V54.8962ZM67.3563 40.3941C63.2319 37.688 62.1708 36.5541 60.9111 33.2192C62.2239 31.2761 64.8585 27.1715 65.8447 24.0346C66.6766 25.0067 67.7697 25.72 68.9945 26.09C66.2428 29.3528 70.0154 34.2068 73.8485 34.9963C71.4555 36.5006 69.2725 38.3155 67.3563 40.3934V40.3941ZM75.7718 33.6364C71.4943 34.008 67.0051 27.6948 71.2888 26.316C72.0252 26.0839 73.5307 25.6129 73.4109 24.837C73.3428 24.3865 72.7609 24.2068 72.3437 24.3729C68.9407 25.8518 64.7973 21.6505 66.362 19.3399C67.6946 17.3838 71.9653 20.2151 75.3934 16.9523C75.7796 17.0198 76.1693 17.0652 76.5607 17.0885C75.1065 22.4827 74.8374 28.1277 75.7718 33.6358V33.6364ZM114.2 43.8876C115.658 46.8652 123.974 60.0544 117.694 64.0597C110.519 67.3422 99.9554 70.4192 94.6373 63.7745C95.9767 64.1196 98.8814 64.3313 98.9012 63.0654C98.8996 62.9556 98.8753 62.8474 98.83 62.7475C98.7846 62.6476 98.7191 62.5581 98.6376 62.4846C98.5561 62.4112 98.4603 62.3553 98.3562 62.3206C98.2522 62.2858 98.142 62.2729 98.0327 62.2827C96.5135 62.3929 94.9868 62.2334 93.5231 61.8117C93.0162 60.5732 92.6858 59.2696 92.5417 57.9391C94.299 58.4496 97.3739 58.6748 97.4556 57.5151C97.457 57.4073 97.4366 57.3004 97.3956 57.2007C97.3547 57.1011 97.2939 57.0107 97.2171 56.9351C97.1403 56.8595 97.049 56.8002 96.9487 56.7608C96.8484 56.7214 96.7412 56.7027 96.6334 56.7059C95.2416 56.7851 93.8468 56.6143 92.5152 56.2016C92.5417 49.5174 102.376 51.1155 101.879 46.5534C100.134 37.23 110.532 46.8005 114.2 43.8876ZM106.917 41.3694C104.263 39.904 100.571 40.507 100.101 43.8426C94.3841 46.4684 76.739 45.2222 77.0044 30.4479C78.6487 29.8578 81.0199 30.0232 83.0984 30.7725C83.4632 30.9086 84.0867 31.0447 84.3848 30.799C86.5205 29.0417 86.268 24.3075 84.4379 22.4039C83.0386 20.9454 80.7048 20.0218 77.4958 20.209C77.6861 19.158 77.9476 18.1211 78.2785 17.1055C80.8709 16.953 84.0805 16.071 87.9531 13.9958C87.2235 19.8115 95.1416 18.7899 97.8333 15.0106C98.2195 15.9124 98.7429 16.749 99.3851 17.4907C97.3297 17.6268 96.9778 18.7505 97.6482 19.2807C98.2315 19.7448 98.9012 18.8832 101.089 19.1214C103.503 21.0311 106.985 22.3045 110.121 21.9118C113.456 29.1996 115.482 37.0775 106.918 41.368L106.917 41.3694ZM80.4067 22.131C83.9281 22.4822 85.2675 26.691 83.5565 29.2929C82.7984 28.8933 81.9776 28.6263 81.1295 28.5034C81.0036 26.3289 80.6851 23.9278 80.4067 22.131ZM122.051 34.1598C119.601 36.8454 114.942 33.5303 114.59 32.7605C114.769 28.5034 112.992 24.2061 111.773 21.5409C112.732 21.2213 113.606 20.6858 114.325 19.9755C116.149 20.1891 117.996 19.9213 119.683 19.199C121.944 21.2877 128.642 19.6434 125.791 23.9631C124.617 25.7402 121.639 27.0204 118.304 25.9328C118.201 25.899 118.092 25.886 117.984 25.8944C117.876 25.9028 117.77 25.9325 117.674 25.9817C117.577 26.031 117.491 26.0988 117.42 26.1814C117.35 26.264 117.296 26.3597 117.263 26.463C116.991 27.9283 119.325 27.7826 120.2 27.9603C120.771 29.9558 123.616 32.4359 122.051 34.1598Z" fill="#202020"/>
<path d="M42.4041 77.8194C40.753 77.6206 42.3646 80.0871 39.1372 80.1137C38.9205 80.1143 38.7076 80.1711 38.5192 80.2784C38.3309 80.3858 38.1736 80.54 38.0626 80.7262C37.2003 82.2235 36.225 83.9556 34.6943 82.41C34.5829 82.2731 34.4323 82.1737 34.2627 82.125C34.093 82.0763 33.9126 82.0808 33.7456 82.1378C32.3 82.9068 35.1068 85.8381 30.0023 85.195C28.4771 85.0024 29.1604 87.3763 26.8035 87.1041C26.1004 87.0251 25.8153 87.4362 25.9085 87.8867C26.0603 88.5966 26.7504 89.12 28.2906 88.749C28.7548 88.6428 29.1848 88.4212 29.5407 88.1048C29.8967 87.7884 30.1671 87.3873 30.3269 86.9387C33.3774 87.1708 34.2744 86.2819 34.9223 84.4851C36.8055 84.8254 38.019 84.4919 39.3516 81.7464C40.3559 81.8241 41.3514 81.5105 42.1298 80.8712C43.359 79.7822 43.1466 77.9126 42.4041 77.8194Z" fill="#202020"/>
<path d="M43.3255 21.2683C43.5576 20.4659 42.0922 17.2766 40.7392 17.457C38.743 17.7156 36.9456 19.1149 36.9061 20.2474C36.8796 20.8307 37.7548 22.4689 38.643 23.3305C40.1559 24.412 43.0866 22.0374 43.3255 21.2683ZM38.5913 20.2277C38.7566 19.7567 40.0702 18.9414 40.6861 19.1197C40.9576 19.3141 41.1852 19.5634 41.3542 19.8513C41.5233 20.1393 41.63 20.4595 41.6675 20.7912C41.6417 21.4276 40.1158 22.2368 39.5727 21.9646C39.1548 21.759 38.4184 20.6783 38.5913 20.2277Z" fill="#202020"/>
</svg>
