<svg width="135" height="128" viewBox="0 0 135 128" fill="none" xmlns="http://www.w3.org/2000/svg">
<path d="M39.334 55.9755C37.609 58.9588 44.2826 62.8117 47.9799 59.1073C51.9811 55.0777 41.1791 52.7943 39.334 55.9755Z" fill="#1D6CFF"/>
<path d="M5.25964 81.1146C5.83933 78.0465 5.88882 77.5799 3.06812 79.3473C-1.37146 77.5304 2.55206 80.2451 0 83.1294C2.26221 83.5818 2.4036 83.4617 3.66902 85.5542C5.64845 82.5214 4.41131 84.0908 7.47236 82.7264C7.67737 82.1185 5.44344 81.6095 5.25964 81.1146Z" fill="#1D6CFF"/>
<path d="M117.076 81.3479C118.363 77.8132 118.73 75.9327 113.117 78.2161C110.699 76.3357 109.441 75.6146 109.292 79.8916C105.758 82.0124 106.182 82.8466 109.674 83.7091C110.325 89.5979 112.636 88.4668 114.262 84.9462C118.709 86.0066 120.179 85.9006 117.076 81.3479Z" fill="#1D6CFF"/>
<path d="M75.2392 50.5955C75.2392 46.6861 68.1698 49.9521 68.7778 52.6456C69.4847 55.8692 75.2392 54.3634 75.2392 50.5955Z" fill="#1D6CFF"/>
<path d="M28.1791 110.82C27.6771 106.373 26.9561 107.285 24.4818 109.915C20.5724 109.632 21.0672 110.367 22.983 112.976C22.983 114.001 21.5692 115.366 22.2761 116.009C25.6199 115.457 25.0473 115.507 27.9316 117.529C29.5576 113.648 26.7935 115.521 31.3249 112.58C31.2967 111.718 28.5679 111.456 28.1791 110.82Z" fill="#1D6CFF"/>
<path d="M23.6689 20.4802C16.7055 24.121 11.87 32.3003 15.0088 47.344C16.8186 56.0111 3.88866 70.0792 20.6644 73.4442C19.7948 69.2591 19.6888 60.3093 29.4021 58.8883C31.3109 60.3022 32.0602 63.2855 34.3931 63.0805C22.2762 38.3376 53.8976 37.9205 58.7543 24.0715C65.5409 37.5034 86.5583 23.8665 77.2479 54.7244C108.162 16.3093 51.6071 -22.4169 23.6689 20.4802ZM46.4465 24.7643C46.2061 26.3549 44.3257 27.0548 41.6534 27.7971C38.9741 33.4526 36.2453 33.389 34.6264 27.9597C28.5043 28.8434 27.6277 25.1319 32.6753 21.2296C31.2967 17.0657 33.7357 15.6165 37.6592 17.4192C41.4201 14.853 43.9651 16.2669 43.0249 20.4873C45.6406 22.2052 46.6586 23.4635 46.4465 24.7643Z" fill="#1D6CFF"/>
<path d="M110.601 112.764C105.652 113.471 108.48 113.259 104.719 111.442C104.139 111.676 104.323 114.376 103.963 114.709C100.195 115.889 101.51 116.674 104.069 117.854C104.012 122.329 105.631 121.205 107.215 118.3C107.957 118.074 110.566 119.445 111.011 118.724C109.576 113.945 109.053 118.137 110.601 112.764Z" fill="#1D6CFF"/>
<path d="M79.6722 118.809C79.3611 118.045 80.4498 115.338 79.2268 115.097C73.0411 119.827 70.5031 112.312 72.2069 120.505C69.1529 124.507 69.3226 124.422 74.1298 124.542C74.9286 125.129 75.8052 128.296 77.1342 127.978C79.5096 120.541 77.7281 124.761 83.3553 121.537C83.3341 120.449 80.1246 119.89 79.6722 118.809Z" fill="#1D6CFF"/>
<path d="M41.3491 21.8799C40.2604 21.173 41.4127 19.137 41.0734 18.1685C40.8259 18.1685 40.0978 18.3593 38.2456 19.4551C38.1077 19.5389 37.952 19.5891 37.791 19.6013C37.6301 19.6136 37.4686 19.5877 37.3195 19.5258C34.9442 18.5361 34.4069 18.7411 34.3504 18.7411C34.2938 18.7411 34.2161 19.2289 34.8523 21.2931C34.9133 21.4926 34.9129 21.7058 34.8511 21.905C34.7894 22.1042 34.6691 22.2802 34.5059 22.4101C31.4378 24.8561 31.459 25.8105 31.459 25.8105C36.6974 26.6447 35.0432 23.6897 37.7649 29.9178C38.2951 29.9956 39.0374 27.3799 40.6634 25.9095C41.5258 25.6762 44.1486 24.9692 44.396 24.432C44.3889 24.439 44.2617 23.7745 41.3491 21.8799Z" fill="#1D6CFF"/>
<path d="M55.7632 118.505C55.4507 118.322 55.1508 118.119 54.8654 117.897C54.9361 116.292 56.6893 113.132 54.7311 112.291C53.1829 111.52 50.9561 113.782 49.3937 114.623C44.1836 110.544 42.6566 111.527 43.9715 117.897C39.8429 121.566 41.3982 123.397 46.5023 123.446C47.2517 124.796 47.5486 127.172 49.4998 127.207C49.6635 127.208 49.825 127.169 49.9712 127.096C50.1174 127.022 50.2441 126.915 50.341 126.783C51.1893 125.609 51.7125 124.818 52.0872 124.231C53.091 122.697 52.4053 123.609 57.0357 122.294C57.2112 122.239 57.369 122.139 57.4932 122.004C57.6174 121.869 57.7035 121.703 57.7427 121.523C58.1032 119.961 56.6964 119.084 55.7632 118.505ZM53.2112 121.064C50.9702 121.269 50.6238 122.895 49.2947 124.683C47.6829 120.385 47.6193 121.742 43.8372 121.078C44.4117 120.33 45.0633 119.646 45.7813 119.035C46.4882 118.441 45.7812 117.31 45.5692 114.496C50.1431 117.6 48.7151 117.451 53.5364 114.39C52.7234 117.642 51.8963 118.844 55.2401 120.632C54.3211 120.859 53.6778 120.979 53.2112 121.064Z" fill="#202020"/>
<path d="M100.866 99.5656C101.396 97.8053 104.153 94.405 102.202 93.3304C100.788 92.376 98.201 94.207 96.5468 94.6877C91.2448 90.9268 89.4208 91.6691 90.0642 97.9114C84.6066 101.623 87.1233 103.298 92.185 104.189C92.7576 105.879 92.5879 109.138 94.6522 109.378C94.793 109.392 94.9351 109.378 95.0701 109.335C95.205 109.293 95.3298 109.223 95.4369 109.131C99.721 105.483 96.7165 105.765 101.849 105.645C102.33 105.582 103.637 105.765 103.97 105.327C106.112 103.037 101.799 100.838 100.866 99.5656ZM101.799 103.574C96.3277 103.574 97.6143 104.154 94.8855 106.854C93.8958 101.269 93.9877 102.761 89.2794 101.276C90.031 100.517 90.8685 99.8481 91.775 99.2828C91.9242 99.1781 92.0438 99.0364 92.1218 98.8716C92.1999 98.7067 92.2338 98.5245 92.2203 98.3426C92.0714 97.0638 92.043 95.7739 92.1355 94.4898C96.7872 96.6106 94.9138 97.876 100.619 95.2533C98.0738 100.294 97.9253 99.8484 102.125 103.56L101.799 103.574Z" fill="#202020"/>
<path d="M13.5452 91.2945C10.4064 88.4667 8.84407 90.0573 9.30359 94.0798C8.16541 94.7868 6.05873 95.3382 6.51117 96.9995C6.96361 98.6608 8.8158 98.3568 10.0459 98.5689C10.3428 99.6576 10.2155 101.51 12.0324 101.623C12.2012 101.631 12.3693 101.596 12.5212 101.522C12.6731 101.447 12.804 101.336 12.9019 101.199C13.9906 99.6717 14.436 98.9294 15.6307 99.0213C16.175 98.9012 17.4546 99.1274 17.9424 98.4629C18.9038 96.9429 17.292 95.9744 16.5992 95.0483C18.0696 91.853 17.0163 90.0715 13.5452 91.2945ZM12.1313 98.6891C12.0041 97.049 10.8376 96.3845 9.30359 96.4127C12.0041 95.2816 11.2901 94.5181 11.3396 92.1711C11.7708 92.3337 12.7535 93.7476 13.6301 93.4082C14.1076 93.243 14.5938 93.1038 15.0864 92.9911C14.945 93.4577 14.6834 94.1435 14.4855 94.6878C14.2098 95.5432 14.952 96.335 15.4893 96.9147C13.7714 97.1055 13.3473 97.1338 12.1596 98.6891H12.1313Z" fill="#202020"/>
<path d="M126.839 78.0607C125.698 74.0912 124.889 70.0334 124.421 65.9296C119.805 60.9315 124.923 78.7818 124.867 78.598C127.461 88.2477 128.006 90.2625 105.779 97.438C105.537 97.537 105.341 97.7241 105.23 97.9616C105.12 98.1991 105.103 98.4697 105.183 98.719C105.264 98.9684 105.435 99.1781 105.664 99.3063C105.892 99.4345 106.161 99.4716 106.416 99.4103C129.603 91.9097 129.794 89.0324 126.839 78.0607Z" fill="#202020"/>
<path d="M134.015 86.5508C132.389 80.0681 129.908 67.7886 127.688 62.5148C123.39 56.8593 115.14 55.3606 109.003 57.5238C104.288 51.0977 96.6107 46.6369 90.2341 42.4872C104.168 6.3201 48.3125 -15.6728 24.5805 13.5026C14.846 23.7674 -0.59362 21.8586 5.08311 47.6125C6.87167 59.5456 0.134529 74.2359 20.4237 78.1382C21.781 87.1022 25.3158 94.1292 30.9783 99.0071C44.1345 110.707 68.3967 106.72 72.8646 92.482C75.1692 91.3509 76.5407 89.7674 76.9507 87.7455C81.6236 88.8483 86.6499 89.3644 86.6428 85.3419C86.1197 82.6626 80.8035 80.4428 76.8446 79.2622C77.5516 72.7654 65.1306 68.234 61.1082 74.0379C55.6152 72.5675 52.1724 74.6459 55.0426 79.34C51.2322 80.6054 48.7932 77.6787 47.5561 73.6138C47.4758 73.3517 47.2965 73.1312 47.0562 72.9992C46.816 72.8672 46.5338 72.8341 46.2695 72.9068C44.7354 73.4865 46.0503 75.4023 46.3684 76.3779C37.56 74.2571 27.988 82.1677 27.0124 91.1671C25.3971 88.4571 24.1805 85.5286 23.3999 82.4717C22.4212 79.0147 21.8424 75.4567 21.675 71.8676C21.576 66.3959 23.7958 60.5566 29.6917 59.9133C42.6217 74.759 64.3318 67.0604 79.3331 55.1061C87.1094 62.0624 91.238 68.8066 91.6268 75.1549C91.6429 75.4181 91.7585 75.6654 91.9502 75.8465C92.1418 76.0277 92.3952 76.1292 92.6589 76.1305C95.3241 74.9287 92.2347 69.1106 91.3228 66.6504C92.8922 63.1581 97.6853 55.3394 103.793 54.7597C104.97 55.8491 106.057 57.0311 107.045 58.2944C101.856 60.9171 98.8658 65.8374 99.1557 71.2314C96.1583 74.0591 96.0946 77.3323 96.031 81.6022C96.7026 82.8959 94.0587 92.581 96.2431 92.3123C96.484 92.3118 96.7172 92.2277 96.9029 92.0742C97.0886 91.9208 97.2152 91.7076 97.2611 91.4711C99.8838 81.6658 93.8678 73.8683 106.31 69.5559C111.824 73.5077 122.054 71.6414 119.615 63.6671C121.191 63.0662 125.079 61.617 125.772 63.2924C127.462 67.3644 129.589 76.6819 130.862 82.2526C136.199 94.3554 123.793 96.0733 107.575 101.771C107.436 101.775 107.299 101.807 107.172 101.864C107.045 101.921 106.93 102.003 106.835 102.104C106.739 102.206 106.665 102.325 106.615 102.455C106.566 102.585 106.543 102.724 106.547 102.863C106.551 103.003 106.583 103.14 106.64 103.267C106.697 103.394 106.778 103.508 106.88 103.604C106.981 103.699 107.101 103.774 107.231 103.823C107.361 103.873 107.5 103.896 107.639 103.892C121.955 99.5373 136.624 94.8503 134.015 86.5508ZM79.015 82.189C83.1576 83.8715 84.72 85.1228 84.5291 85.9004C83.8222 86.5084 81.2772 86.7699 77.5304 85.759C78.6473 84.84 79.4674 83.5675 79.015 82.189ZM74.7733 78.5482C70.9841 77.1343 66.5445 75.5013 63.3845 74.6247C66.9121 71.6485 74.5542 74.8438 74.7945 78.5482H74.7733ZM56.1525 76.0032C57.5664 74.3278 68.5028 78.4492 72.5747 79.948C67.5555 80.8882 62.4867 82.8535 57.2977 79.0572C56.0253 77.1061 55.9899 76.2012 56.1525 76.0032ZM48.3196 79.3683C49.2961 80.5125 50.6315 81.292 52.108 81.5796C53.5845 81.8672 55.1149 81.6459 56.4494 80.9518C64.2258 86.8265 73.6422 79.4955 76.9507 82.5848C77.5233 84.6067 71.8183 86.4518 70.4893 86.7204C70.2344 86.7621 70.0043 86.8971 69.8436 87.0992C69.6828 87.3012 69.6031 87.5559 69.6199 87.8135C69.6366 88.0712 69.7487 88.3133 69.9342 88.4929C70.1198 88.6724 70.3655 88.7764 70.6236 88.7847C72.1135 88.5274 73.5572 88.051 74.9076 87.3708C74.4269 89.4917 72.299 90.9409 68.4533 91.768C68.2076 91.8261 67.9916 91.9717 67.8454 92.1774C67.6992 92.3832 67.6329 92.6351 67.6589 92.8862C67.6848 93.1373 67.8013 93.3703 67.9865 93.5418C68.1717 93.7133 68.413 93.8115 68.6653 93.8181C69.2497 93.7279 69.8264 93.5932 70.3903 93.4152C64.1268 105.843 41.0664 108.614 28.8787 93.8323C28.3627 84.1401 39.6737 74.5893 48.3196 79.3612V79.3683ZM22.2971 62.0129C19.5683 65.8516 19.1795 71.6061 19.9713 75.9608C2.22 72.3554 9.14802 58.1813 7.06962 47.0823C2.82797 31.162 10.3852 24.3542 17.4404 21.4416C27.479 16.493 28.0445 9.48719 40.7059 4.63758C68.7714 -9.24673 108.699 25.973 81.5812 50.5887C90.2058 24.3754 70.7225 34.7603 59.3125 21.795C51.2746 35.4178 18.2605 35.1138 28.6313 57.9621C27.3597 58.1836 26.1448 58.6558 25.0573 59.3513C23.9699 60.0467 23.0316 60.9514 22.2971 62.0129ZM78.4706 53.1125C33.488 89.9158 6.99892 36.0964 51.7624 35.7995C52.0254 35.7929 52.2761 35.6867 52.4639 35.5025C52.6517 35.3182 52.7627 35.0696 52.7743 34.8067C52.786 34.5439 52.6975 34.2864 52.5268 34.0862C52.356 33.886 52.1157 33.7581 51.8543 33.7282C51.7058 33.7282 49.7335 33.6363 46.9906 33.7989C52.0876 31.4236 56.9938 28.8008 59.5458 24.7642C61.7868 27.5 64.657 28.9634 67.5908 29.9743C65.8991 30.4026 64.2444 30.9653 62.6422 31.6569C62.3863 31.7712 62.1863 31.9826 62.0862 32.2444C61.9861 32.5063 61.9941 32.7971 62.1085 33.0531C62.2228 33.309 62.4342 33.509 62.696 33.6091C62.9579 33.7092 63.2488 33.7012 63.5047 33.5868C67.1172 31.4094 77.4173 29.9673 80.7894 36.1035C82.4012 39.2423 81.6518 44.7989 78.4706 53.1125ZM90.0644 64.4235C87.5567 60.4681 84.4898 56.8964 80.959 53.8194C84.2956 51.2063 87.1069 47.9847 89.2444 44.3252C93.3941 47.0116 97.7277 49.6343 101.807 53.0277C96.4622 54.5052 92.2489 60.2455 90.0927 64.4165L90.0644 64.4235ZM116.497 68.5804C112.368 72.3059 105.186 64.8124 104.705 67.9512C103.481 68.4354 102.299 69.0195 101.17 69.6973C103.15 53.6993 123.079 61.009 116.525 68.5733L116.497 68.5804ZM118.582 61.8644C117.304 60.3501 115.615 59.2379 113.719 58.662C116.733 58.4917 119.733 59.1884 122.365 60.6697C121.074 60.9676 119.81 61.3671 118.582 61.8644Z" fill="#202020"/>
<path d="M70.9064 34.4143C62.4231 34.4991 58.8884 47.6765 69.4925 48.0936C79.114 48.4683 81.5317 34.2941 70.9064 34.4143ZM65.8801 44.7003C60.783 38.3378 75.445 32.3712 75.7772 40.3667C72.5395 40.8192 68.5735 42.7208 65.8801 44.7003Z" fill="#202020"/>
<path d="M101.093 91.1318C103.362 90.1492 101.962 85.752 102.415 82.8536C101.976 80.0258 103.602 75.975 101.828 75.3176C99.0001 75.3176 101.008 87.6325 100.068 89.9512C100.046 90.0981 100.057 90.2478 100.099 90.3902C100.14 90.5326 100.212 90.6643 100.31 90.7764C100.407 90.8884 100.527 90.9782 100.662 91.0395C100.798 91.1009 100.944 91.1324 101.093 91.1318Z" fill="#202020"/>
<path d="M59.5591 51.9673C57.714 53.1903 54.8509 52.8934 53.7763 51.3734C53.6189 51.1494 53.3788 50.9971 53.109 50.95C52.8392 50.9029 52.5618 50.965 52.3377 51.1225C52.1137 51.28 51.9614 51.52 51.9143 51.7898C51.8672 52.0596 51.9293 52.337 52.0868 52.5611C55.8477 57.8844 65.0379 52.0521 59.5591 51.9673Z" fill="#202020"/>
<path d="M54.8724 45.5413C56.4065 45.9513 56.2085 42.862 57.5164 43.2579C59.5099 43.4487 58.0678 46.9552 59.8351 47.2309C62.9386 46.3048 59.4322 40.8119 57.8416 41.2077C56.4842 40.423 52.4264 43.986 54.8724 45.5413Z" fill="#202020"/>
<path d="M44.4384 38.4576C34.6544 38.6272 32.8234 53.3599 43.9577 52.5964C53.3176 51.9672 55.0567 38.0617 44.4384 38.4576ZM39.3909 49.2879C33.7919 42.4871 49.288 36.054 49.6415 44.6292C46.227 45.1382 42.0207 47.2166 39.3909 49.2879Z" fill="#202020"/>
</svg>
