<svg width="170" height="81" viewBox="0 0 170 81" fill="none" xmlns="http://www.w3.org/2000/svg">
<path d="M131.957 1.14856C132.676 1.67477 133.122 2.29888 133.278 3.17713C133.372 5.28746 132.098 7.2716 131.107 9.05847C130.502 10.1579 129.918 11.2669 129.34 12.381C129.029 12.9808 128.717 13.5795 128.392 14.1719C127.726 15.3889 127.208 16.5995 126.75 17.9096C126.682 18.0843 126.615 18.2589 126.547 18.4334C126.197 19.3726 126.044 20.2259 126.049 21.2288C126.047 21.3308 126.044 21.4328 126.042 21.5379C126.041 22.3644 126.236 22.9024 126.783 23.5407C127.518 24.1761 128.141 24.4719 129.127 24.515C129.243 24.5233 129.359 24.5317 129.479 24.5403C129.603 24.5456 129.726 24.5508 129.853 24.5563C129.966 24.5612 130.079 24.5662 130.195 24.5712C130.645 24.5054 130.948 24.3382 131.345 24.127C131.852 23.8814 132.389 23.7455 132.931 23.5985C133.037 23.5686 133.144 23.5387 133.253 23.5079C133.638 23.401 134.023 23.2974 134.408 23.1939C134.497 23.1696 134.585 23.1453 134.677 23.1203C136.276 22.6822 137.88 22.3155 139.508 21.9967C139.622 21.974 139.736 21.9514 139.854 21.9281C141.729 21.5571 143.606 21.2188 145.498 20.9481C145.688 20.9209 145.688 20.9209 145.881 20.8931C146.614 20.7884 147.347 20.6886 148.082 20.5935C148.371 20.556 148.66 20.5171 148.948 20.478C151.648 20.1319 154.356 19.9985 157.076 19.9903C157.179 19.9896 157.283 19.989 157.389 19.9883C162.748 19.9602 162.748 19.9602 164.408 21.5911C164.995 22.2948 165.112 23.0266 165.075 23.9288C164.921 25.3152 163.956 26.2388 162.918 27.0993C160.606 28.8025 157.823 29.8307 155.171 30.8708C154.901 30.9769 154.633 31.0845 154.364 31.1931C153.65 31.4819 152.935 31.7659 152.214 32.0368C151.06 32.4704 149.919 32.9027 148.81 33.4425C148.472 33.5986 148.136 33.736 147.789 33.8703C145.647 34.7196 142.477 36.0207 141.488 38.2706C140.871 42.0955 143.71 45.5436 145.655 48.5998C145.734 48.7242 145.814 48.8487 145.895 48.977C146.219 49.4851 146.543 49.9931 146.87 50.4988C148.49 53.0465 150.051 56.2994 149.403 59.3988C148.742 61.6609 146.943 63.0361 144.972 64.1407C143.35 64.9862 141.66 65.2498 139.854 65.237C139.712 65.238 139.57 65.239 139.423 65.2401C137.663 65.2359 136.041 64.9198 134.358 64.4196C134.199 64.3737 134.04 64.3278 133.876 64.2805C133.164 64.0728 132.461 63.8577 131.77 63.5878C131.179 63.3637 130.576 63.1731 129.977 62.9746C129.836 62.9279 129.696 62.8812 129.552 62.8331C128.951 62.6331 128.351 62.4339 127.747 62.2419C126.946 61.9841 126.194 61.7023 125.438 61.3316C124.769 61.0086 124.317 60.8899 123.581 60.9765C123.556 61.6461 123.559 62.2706 123.713 62.9251C124.04 64.4312 123.949 65.7769 123.129 67.0911C122.777 67.592 122.454 68.0328 121.865 68.2424C120.812 68.3907 120.074 68.2107 119.224 67.5819C118.346 66.905 117.664 66.1222 116.996 65.2464C115.929 63.7105 115.929 63.7105 114.449 62.7631C113.752 62.721 113.349 62.8022 112.812 63.2636C112.167 63.9093 111.595 64.6133 111.038 65.3361C110.95 65.4488 110.862 65.5615 110.771 65.6777C109.775 66.9922 109.031 68.4496 108.266 69.9046C105.742 74.6974 105.742 74.6974 104.305 76.4331C104.222 76.5412 104.139 76.6493 104.054 76.7607C103.226 77.7544 102.177 78.5016 100.872 78.6211C100.093 78.5859 99.5792 78.0698 99.073 77.5219C98.2288 76.4704 97.6854 75.2081 97.3071 73.923C97.2684 73.7932 97.2297 73.6634 97.1898 73.5296C96.854 72.3815 96.5761 71.2285 96.3251 70.0589C96.2848 69.8738 96.2445 69.6886 96.2042 69.5035C95.9543 68.349 95.7296 67.1915 95.5164 66.0296C95.3212 64.9794 95.0921 63.9501 94.7902 62.9251C94.7594 62.8189 94.7286 62.7127 94.6968 62.6032C94.4918 61.9416 94.2415 61.344 93.7422 60.8444C92.2368 60.6521 91.011 61.8199 89.8927 62.6852C89.256 63.1874 88.6575 63.726 88.0649 64.2792C87.8895 64.4341 87.7135 64.5882 87.5368 64.7416C87.134 65.0924 86.7365 65.4485 86.3402 65.8067C86.1231 66.0022 85.9058 66.1977 85.6883 66.3929C85.5959 66.476 85.5035 66.5591 85.4083 66.6447C84.7951 67.1856 84.7951 67.1856 84.5 67.1856C84.5 67.2728 84.5 67.3599 84.5 67.4498C84.2566 67.6753 84.2566 67.6753 83.9059 67.9534C83.7075 68.1126 83.7075 68.1126 83.5052 68.2749C83.3527 68.3962 83.2002 68.5175 83.0477 68.6387C81.8485 69.5972 80.673 70.5643 79.5551 71.6178C79.3384 71.8209 79.1199 72.0219 78.9011 72.2227C78.0574 72.9996 77.2349 73.7916 76.4311 74.6099C73.9208 77.1622 70.8419 79.8527 67.0719 79.9339C65.5655 79.9264 64.3226 79.3168 63.243 78.2825C62.3882 77.186 62.3044 76.0626 62.4508 74.7157C62.5945 74.0631 62.828 73.4692 63.111 72.8662C63.1556 72.771 63.2003 72.6758 63.2463 72.5777C64.0152 70.9749 64.9457 69.5264 66.0157 68.1103C66.1282 67.9613 66.1282 67.9613 66.2429 67.8093C67.1245 66.6478 68.0335 65.5132 68.9822 64.4062C69.3096 64.023 69.632 63.6365 69.9519 63.2471C70.0398 63.14 70.1278 63.0329 70.2185 62.9225C70.4571 62.6219 70.6889 62.3182 70.9187 62.0108C70.9897 61.916 71.0606 61.8212 71.1337 61.7235C71.1876 61.6514 71.2414 61.5793 71.2969 61.505C71.1777 61.5051 71.1777 61.5051 71.0561 61.5053C64.6669 61.5133 58.2776 61.5186 51.8883 61.5215C51.7691 61.5215 51.6498 61.5216 51.5269 61.5216C27.5907 61.5322 27.5907 61.5322 15.9432 61.3856C15.5881 61.3811 15.2329 61.3767 14.8778 61.3723C13.458 61.3548 12.0382 61.3361 10.6184 61.3156C10.4283 61.3129 10.2382 61.3102 10.0481 61.3075C8.11918 61.2802 6.19099 61.2419 4.26292 61.179C4.02991 61.1718 4.02991 61.1718 3.79218 61.1644C2.56328 61.1214 1.34989 61.0124 0.13208 60.8444C0.21414 60.3058 0.390174 59.8839 0.634933 59.3985C0.71116 59.2465 0.787387 59.0946 0.865924 58.938C0.948606 58.7753 1.03132 58.6127 1.11406 58.45C1.19854 58.2825 1.28297 58.115 1.36736 57.9475C1.89519 56.902 2.43398 55.8626 2.98284 54.828C3.50261 53.8477 3.99697 52.8555 4.48911 51.8611C5.1601 50.5066 5.83179 49.1537 6.54949 47.8231C7.07341 46.8468 7.56058 45.8515 8.05396 44.8595C8.46973 44.0243 8.88582 43.1893 9.30213 42.3544C9.42686 42.1042 9.5515 41.8538 9.67604 41.6035C10.3693 40.21 11.0717 38.8228 11.8004 37.4475C12.3229 36.4592 12.8224 35.46 13.3188 34.4583C14.0378 33.0076 14.7598 31.5596 15.5225 30.1312C16.0231 29.1907 16.4962 28.2367 16.9676 27.2813C17.0549 27.1049 17.0549 27.1049 17.144 26.9249C17.1957 26.8198 17.2475 26.7147 17.3008 26.6064C17.4282 26.3645 17.4282 26.3645 17.5602 26.2324C17.7588 26.2192 17.958 26.2155 18.1571 26.2154C18.3543 26.2151 18.3543 26.2151 18.5555 26.2149C18.7031 26.2155 18.8507 26.2162 19.0027 26.2169C19.1596 26.2173 19.3165 26.2177 19.4781 26.2181C21.6364 26.2287 23.7942 26.2803 25.9519 26.3308C26.4405 26.3422 26.9291 26.3532 27.4178 26.3638C30.3702 26.4278 33.3209 26.5146 36.272 26.6251C39.0022 26.7271 41.7323 26.8063 44.4636 26.8687C44.5544 26.8707 44.6452 26.8728 44.7388 26.875C46.0272 26.9044 47.3157 26.9328 48.6042 26.9611C49.9172 26.9899 51.2302 27.019 52.5431 27.0488C53.1459 27.0625 53.7486 27.0756 54.3514 27.0885C55.9478 27.1239 57.5413 27.174 59.1358 27.2606C59.7661 27.2948 60.3962 27.3147 61.0274 27.3264C61.1926 27.33 61.1926 27.33 61.3612 27.3338C61.7024 27.3413 62.0436 27.3484 62.3848 27.3553C63.1725 27.3713 63.9601 27.3891 64.7477 27.412C64.9834 27.4184 65.2191 27.424 65.4548 27.4288C65.8147 27.4364 66.1743 27.4474 66.534 27.459C66.6978 27.4615 66.6978 27.4615 66.8649 27.4641C67.5523 27.4905 67.9441 27.6093 68.483 28.0736C68.6779 28.2921 68.868 28.515 69.0524 28.7424C69.1438 28.8317 69.2352 28.9209 69.3293 29.0128C70.1918 29.871 70.7886 30.8996 71.3994 31.9453C71.9353 32.8322 72.4559 33.4535 73.4873 33.7181C74.5048 33.7012 75.4151 33.4234 76.3765 33.1143C76.8422 32.9698 76.8422 32.9698 77.1063 32.9698C76.9542 31.2332 76.5653 29.57 76.1593 27.8778C75.9794 27.1264 75.8041 26.374 75.6292 25.6214C75.5978 25.4887 75.5665 25.3559 75.5342 25.2192C75.4386 24.809 75.3474 24.3981 75.2579 23.9866C75.2035 23.7431 75.2035 23.7431 75.1481 23.4948C74.8899 22.2809 74.8031 21.114 74.8174 19.8742C74.8205 19.5835 74.8201 19.293 74.8192 19.0024C74.8217 17.6348 74.857 16.3097 75.5137 15.0776C75.5802 14.9497 75.6468 14.8218 75.7153 14.69C75.8983 14.3765 76.0763 14.0886 76.3141 13.8143C76.4013 13.8143 76.4884 13.8143 76.5782 13.8143C76.5782 13.7271 76.5782 13.6399 76.5782 13.5501C76.6653 13.5501 76.7525 13.5501 76.8422 13.5501C76.8422 13.4629 76.8422 13.3757 76.8422 13.2859C77.9858 12.5818 78.9325 12.3078 80.275 12.4933C80.7175 12.6099 81.0746 12.7821 81.4633 13.0217C81.5687 13.0859 81.674 13.1501 81.7826 13.2162C83.779 14.5263 85.1172 16.4663 86.3031 18.4953C87.1364 19.9113 88.101 21.2273 89.2532 22.4013C89.3739 22.5247 89.3739 22.5247 89.4971 22.6505C91.453 24.4995 93.8707 25.1218 96.4901 25.0785C99.2892 24.9741 101.996 23.4877 104.305 22.005C104.389 21.951 104.474 21.8971 104.561 21.8416C105.641 21.1549 105.641 21.1549 106.417 20.1555C106.504 20.1555 106.592 20.1555 106.681 20.1555C106.716 20.0771 106.751 19.9988 106.787 19.9181C106.951 19.6164 107.118 19.4323 107.366 19.1977C107.697 18.8843 107.999 18.5557 108.296 18.2105C108.795 17.6356 109.325 17.0986 109.867 16.5638C109.958 16.4733 110.049 16.3828 110.142 16.2895C110.312 16.1208 110.482 15.9523 110.652 15.784C111.19 15.2501 111.724 14.7125 112.258 14.1745C112.457 13.9743 112.656 13.7741 112.856 13.574C112.991 13.4376 113.127 13.301 113.262 13.1644C113.959 12.4615 114.657 11.7685 115.41 11.1248C115.874 10.7216 116.313 10.292 116.757 9.86763C117.486 9.17633 118.219 8.51101 119.006 7.88602C119.33 7.62627 119.646 7.35844 119.96 7.08709C128.262 -0.0615382 128.262 -0.0615381 131.957 1.14856Z" fill="#1B191A"/>
<path d="M153.057 7.45697C153.237 7.59593 153.237 7.59593 153.42 7.7377C153.499 7.79764 153.578 7.85758 153.659 7.91934C154.258 8.39779 154.641 8.82295 154.796 9.6001C154.85 10.1961 154.762 10.5713 154.386 11.0404C150.997 14.4376 144.035 16.7107 139.26 16.7705C139.166 16.7724 139.071 16.7742 138.974 16.7761C138.564 16.7723 138.276 16.7426 137.914 16.5445C137.709 16.3247 137.709 16.3247 137.618 15.9283C137.723 14.445 139.31 13.1597 140.349 12.2293C143.432 9.5642 148.907 5.06095 153.057 7.45697Z" fill="#1C1B1B"/>
<path d="M154.873 46.9733C155.854 46.9596 156.834 46.9505 157.816 46.9442C158.148 46.9416 158.48 46.938 158.813 46.9334C161.795 46.8929 165.454 46.8791 167.911 48.8806C168.14 49.1143 168.14 49.1143 168.34 49.3512C168.443 49.4664 168.443 49.4664 168.548 49.5839C169.136 50.355 169.111 51.1913 169 52.1254C168.788 52.7602 168.497 53.0772 167.944 53.4465C166.393 54.1994 164.409 53.6042 162.874 53.0727C160.139 52.0855 156.646 50.5004 155.062 47.9228C154.873 47.5017 154.873 47.5017 154.873 46.9733Z" fill="#1C1B1B"/>
<path d="M94.4188 8.46404C96.43 9.82648 97.5398 12.0694 98.0442 14.4077C98.1423 14.9989 98.1479 15.5859 98.1487 16.184C98.152 16.3062 98.1552 16.4284 98.1585 16.5543C98.163 17.617 97.8968 18.4777 97.307 19.3629C97.0478 19.6222 96.8588 19.7692 96.5148 19.8913C96.3841 19.8913 96.2534 19.8913 96.1187 19.8913C96.1089 19.8143 96.099 19.7374 96.0888 19.658C95.7516 17.5538 94.4882 16.2148 92.9969 14.8129C91.8136 13.6919 90.7083 12.5335 90.6064 10.8089C90.6708 9.90096 91.0753 9.15522 91.6379 8.45579C92.4368 7.86273 93.6014 7.99826 94.4188 8.46404Z" fill="#1C1B1B"/>
<path d="M130.447 69.4316C132.232 69.5129 133.559 70.7945 134.804 71.9417C134.899 72.0265 134.995 72.1113 135.094 72.1987C136.076 73.1113 136.935 74.3821 136.991 75.748C136.977 76.5044 136.796 76.9093 136.255 77.4339C135.858 77.7185 135.552 77.7544 135.068 77.7544C134.811 77.7871 134.811 77.7871 134.548 77.8204C133.945 77.8099 133.623 77.5188 133.203 77.1093C132.797 76.6513 132.47 76.17 132.163 75.6407C132.106 75.5433 132.049 75.4459 131.991 75.3455C131.078 73.655 130.391 71.3619 130.447 69.4316Z" fill="#1D1B1C"/>
<path d="M88.0648 73.3945C88.4629 73.7929 88.3717 74.2446 88.3732 74.779C88.3741 74.8908 88.3749 75.0026 88.3758 75.1178C88.3772 75.3549 88.3778 75.592 88.3778 75.8291C88.3783 76.1898 88.3831 76.5504 88.3881 76.9111C88.3889 77.1417 88.3894 77.3722 88.3897 77.6028C88.3916 77.7099 88.3935 77.817 88.3954 77.9274C88.3895 78.6795 88.2366 79.1187 87.8007 79.7356C87.3487 80.0371 87.1615 80.0391 86.6289 80.0411C86.4931 80.0434 86.3573 80.0456 86.2174 80.0478C85.6083 79.9742 85.29 79.7317 84.8594 79.3068C84.4167 78.5987 84.5412 77.7619 84.6319 76.9614C85.0061 75.5484 85.8442 74.3936 87.0085 73.5266C87.3732 73.3441 87.6617 73.3693 88.0648 73.3945Z" fill="#201E1F"/>
</svg>
