<svg width="100" height="101" viewBox="0 0 100 101" fill="none" xmlns="http://www.w3.org/2000/svg">
<path d="M75.1382 12.9027C79.1166 19.0293 74.1025 28.4376 78.3462 34.3814C82.5497 40.2689 93.8177 37.846 97.4264 44.1199C100.651 49.7269 99.3411 58.4652 94.9168 63.1908C89.6968 68.7662 76.8658 63.0941 73.3201 69.8678C68.9083 78.2961 82.1606 90.058 76.757 97.883C72.6986 103.76 62.1206 98.5171 55.8262 95.201C49.9495 92.105 48.9634 83.2001 43.0703 80.1357C38.478 77.7477 32.2474 83.0968 27.7205 80.586C23.4423 78.2132 23.9858 71.5055 20.7996 67.7836C16.2126 62.4254 8.04071 60.4446 5.01474 54.0627C1.96437 47.6293 -1.50388 37.0791 4.26751 32.9166C12.2259 27.1766 23.5822 34.8684 33.2984 33.6634C37.0811 33.1942 40.8882 31.1684 43.1631 28.0924C49.1589 19.9849 47.9501 5.88152 57.0368 1.56494C63.5463 -1.52739 71.2102 6.85352 75.1382 12.9027Z" fill="#1B191A"/>
<path d="M30.022 52.654H32.682C33.0273 52.654 33.3353 52.6633 33.606 52.682C33.8767 52.7007 34.1193 52.7333 34.334 52.78C34.5487 52.8173 34.7447 52.8687 34.922 52.934C35.0993 52.9993 35.2627 53.0833 35.412 53.186C35.832 53.4473 36.1493 53.8067 36.364 54.264C36.588 54.7213 36.7 55.244 36.7 55.832C36.7 56.42 36.5833 56.9473 36.35 57.414C36.126 57.8807 35.8087 58.24 35.398 58.492C35.2487 58.5853 35.09 58.6647 34.922 58.73C34.754 58.786 34.5627 58.8327 34.348 58.87C34.1427 58.9073 33.9047 58.9353 33.634 58.954C33.3727 58.9727 33.0647 58.982 32.71 58.982H31.646V63H30.022V52.654ZM32.654 57.442C33.0087 57.442 33.312 57.428 33.564 57.4C33.816 57.3627 34.026 57.3067 34.194 57.232C34.4647 57.1293 34.6747 56.9567 34.824 56.714C34.9827 56.4713 35.062 56.182 35.062 55.846C35.062 55.4447 34.9873 55.132 34.838 54.908C34.698 54.684 34.5067 54.5207 34.264 54.418C34.0307 54.3153 33.7647 54.2547 33.466 54.236C33.1673 54.208 32.864 54.194 32.556 54.194H31.646V57.442H32.654ZM37.5694 59.164C37.5694 58.576 37.6674 58.0347 37.8634 57.54C38.0688 57.036 38.3441 56.6067 38.6894 56.252C39.0441 55.888 39.4641 55.6033 39.9494 55.398C40.4441 55.1927 40.9761 55.09 41.5454 55.09C42.1428 55.09 42.6561 55.1973 43.0854 55.412C43.5148 55.6173 43.8974 55.9533 44.2334 56.42V55.272H45.7174V63H44.2334V61.88C43.8508 62.3467 43.4541 62.6827 43.0434 62.888C42.6328 63.084 42.1334 63.182 41.5454 63.182C40.9668 63.182 40.4348 63.084 39.9494 62.888C39.4641 62.6827 39.0441 62.4027 38.6894 62.048C38.3348 61.684 38.0594 61.2593 37.8634 60.774C37.6674 60.2793 37.5694 59.7427 37.5694 59.164ZM39.1654 59.178C39.1654 59.542 39.2261 59.8827 39.3474 60.2C39.4781 60.508 39.6554 60.7787 39.8794 61.012C40.1128 61.236 40.3834 61.4133 40.6914 61.544C41.0088 61.6653 41.3494 61.726 41.7134 61.726C42.0774 61.726 42.4088 61.6653 42.7074 61.544C43.0154 61.4133 43.2814 61.236 43.5054 61.012C43.7294 60.7787 43.9021 60.5033 44.0234 60.186C44.1448 59.8687 44.2054 59.5233 44.2054 59.15C44.2054 58.7673 44.1401 58.4173 44.0094 58.1C43.8881 57.7827 43.7108 57.512 43.4774 57.288C43.2534 57.0547 42.9828 56.8727 42.6654 56.742C42.3574 56.6113 42.0168 56.546 41.6434 56.546C41.2888 56.546 40.9574 56.616 40.6494 56.756C40.3508 56.8867 40.0894 57.0687 39.8654 57.302C39.6508 57.5353 39.4781 57.8153 39.3474 58.142C39.2261 58.4593 39.1654 58.8047 39.1654 59.178ZM46.6817 61.558H47.8157L50.4897 55.272H51.9737L54.6477 61.558H55.7817V64.82H54.6477L54.2697 63H48.2077L47.8157 64.82H46.6817V61.558ZM52.9957 61.558L51.2317 57.372L49.4677 61.558H52.9957ZM56.7453 55.272H58.3273V60.76L62.1913 55.272H63.8013V63H62.2193V57.526L58.3553 63H56.7453V55.272ZM65.0636 59.15C65.0636 58.5713 65.1662 58.0347 65.3716 57.54C65.5862 57.0453 65.8756 56.616 66.2396 56.252C66.6129 55.888 67.0516 55.6033 67.5556 55.398C68.0596 55.1927 68.6009 55.09 69.1796 55.09C69.7396 55.09 70.2669 55.1973 70.7616 55.412C71.2562 55.6173 71.6856 55.9067 72.0496 56.28C72.4136 56.644 72.6982 57.0733 72.9036 57.568C73.1182 58.0627 73.2256 58.59 73.2256 59.15C73.2256 59.71 73.1182 60.2373 72.9036 60.732C72.6982 61.2173 72.4136 61.642 72.0496 62.006C71.6856 62.37 71.2562 62.6593 70.7616 62.874C70.2669 63.0793 69.7396 63.182 69.1796 63.182C68.6009 63.182 68.0596 63.0793 67.5556 62.874C67.0609 62.6593 66.6269 62.37 66.2536 62.006C65.8802 61.642 65.5862 61.2173 65.3716 60.732C65.1662 60.2373 65.0636 59.71 65.0636 59.15ZM69.1516 61.726C69.5062 61.726 69.8329 61.6607 70.1316 61.53C70.4302 61.3993 70.6869 61.2173 70.9016 60.984C71.1256 60.7507 71.2982 60.48 71.4196 60.172C71.5502 59.864 71.6156 59.528 71.6156 59.164C71.6156 58.7907 71.5502 58.4453 71.4196 58.128C71.2982 57.8107 71.1256 57.5353 70.9016 57.302C70.6776 57.0687 70.4116 56.8867 70.1036 56.756C69.7956 56.616 69.4642 56.546 69.1096 56.546C68.7736 56.546 68.4562 56.616 68.1576 56.756C67.8589 56.8867 67.5976 57.0687 67.3736 57.302C67.1496 57.5353 66.9722 57.8107 66.8416 58.128C66.7202 58.4453 66.6596 58.786 66.6596 59.15C66.6596 59.514 66.7249 59.8547 66.8556 60.172C66.9862 60.48 67.1636 60.7507 67.3876 60.984C67.6116 61.208 67.8729 61.39 68.1716 61.53C68.4796 61.6607 68.8062 61.726 69.1516 61.726Z" fill="white"/>
<path d="M29.584 42.088H30.504V46.496L33.392 42.088H34.328V48H33.408V43.592L30.52 48H29.584V42.088ZM35.3701 43.584H36.2741V45.352H38.4501V43.584H39.3621V48H38.4501V46.176H36.2741V48H35.3701V43.584ZM41.0203 44.408H39.9483V43.584H42.9963V44.408H41.9243V48H41.0203V44.408ZM47.877 46.648C47.8077 46.8613 47.701 47.0587 47.557 47.24C47.4183 47.416 47.2557 47.568 47.069 47.696C46.8823 47.824 46.677 47.9253 46.453 48C46.229 48.0693 45.997 48.104 45.757 48.104C45.421 48.104 45.109 48.0453 44.821 47.928C44.533 47.8107 44.2823 47.648 44.069 47.44C43.861 47.232 43.6957 46.9893 43.573 46.712C43.4503 46.4293 43.389 46.1253 43.389 45.8C43.389 45.4747 43.4477 45.1707 43.565 44.888C43.6877 44.6053 43.853 44.36 44.061 44.152C44.269 43.944 44.5117 43.7813 44.789 43.664C45.0717 43.5413 45.3757 43.48 45.701 43.48C46.0263 43.48 46.3277 43.5413 46.605 43.664C46.8877 43.7813 47.1303 43.944 47.333 44.152C47.541 44.36 47.7037 44.608 47.821 44.896C47.9383 45.1787 47.997 45.4853 47.997 45.816C47.997 45.8907 47.9917 45.9547 47.981 46.008C47.9757 46.056 47.9677 46.112 47.957 46.176H44.349C44.4023 46.5013 44.5543 46.7653 44.805 46.968C45.061 47.1707 45.3703 47.272 45.733 47.272C46.2397 47.272 46.6263 47.064 46.893 46.648H47.877ZM47.093 45.368C47.013 45.032 46.853 44.7733 46.613 44.592C46.373 44.4053 46.0717 44.312 45.709 44.312C45.357 44.312 45.061 44.4053 44.821 44.592C44.581 44.7733 44.4183 45.032 44.333 45.368H47.093ZM48.6904 43.584H49.5384V44.184C49.7144 43.9547 49.933 43.7813 50.1944 43.664C50.4557 43.5413 50.7517 43.48 51.0824 43.48C51.4024 43.48 51.6984 43.5387 51.9704 43.656C52.2477 43.768 52.485 43.928 52.6824 44.136C52.885 44.3387 53.0424 44.5813 53.1544 44.864C53.2664 45.1467 53.3224 45.4533 53.3224 45.784C53.3224 46.1147 53.2637 46.4213 53.1464 46.704C53.0344 46.9867 52.877 47.232 52.6744 47.44C52.477 47.648 52.2397 47.8107 51.9624 47.928C51.6904 48.0453 51.3944 48.104 51.0744 48.104C50.7704 48.104 50.4984 48.0533 50.2584 47.952C50.0184 47.8507 49.797 47.6907 49.5944 47.472V49.496H48.6904V43.584ZM50.9864 47.272C51.189 47.272 51.3757 47.2347 51.5464 47.16C51.7224 47.0853 51.8744 46.9813 52.0024 46.848C52.1304 46.7147 52.229 46.56 52.2984 46.384C52.373 46.208 52.4104 46.016 52.4104 45.808C52.4104 45.5893 52.373 45.3893 52.2984 45.208C52.229 45.0267 52.1277 44.8693 51.9944 44.736C51.8664 44.6027 51.7144 44.4987 51.5384 44.424C51.3624 44.3493 51.1704 44.312 50.9624 44.312C50.7597 44.312 50.5704 44.352 50.3944 44.432C50.2237 44.5067 50.0744 44.6107 49.9464 44.744C49.8184 44.8773 49.717 45.0347 49.6424 45.216C49.573 45.3973 49.5384 45.5947 49.5384 45.808C49.5384 46.016 49.5757 46.208 49.6504 46.384C49.725 46.56 49.8264 46.7147 49.9544 46.848C50.0877 46.9813 50.2424 47.0853 50.4184 47.16C50.5944 47.2347 50.7837 47.272 50.9864 47.272ZM54.0419 43.584H54.9459V45.352H57.1219V43.584H58.0339V48H57.1219V46.176H54.9459V48H54.0419V43.584ZM63.2442 46.648C63.1749 46.8613 63.0682 47.0587 62.9242 47.24C62.7855 47.416 62.6229 47.568 62.4362 47.696C62.2495 47.824 62.0442 47.9253 61.8202 48C61.5962 48.0693 61.3642 48.104 61.1242 48.104C60.7882 48.104 60.4762 48.0453 60.1882 47.928C59.9002 47.8107 59.6495 47.648 59.4362 47.44C59.2282 47.232 59.0629 46.9893 58.9402 46.712C58.8175 46.4293 58.7562 46.1253 58.7562 45.8C58.7562 45.4747 58.8149 45.1707 58.9322 44.888C59.0549 44.6053 59.2202 44.36 59.4282 44.152C59.6362 43.944 59.8789 43.7813 60.1562 43.664C60.4389 43.5413 60.7429 43.48 61.0682 43.48C61.3935 43.48 61.6949 43.5413 61.9722 43.664C62.2549 43.7813 62.4975 43.944 62.7002 44.152C62.9082 44.36 63.0709 44.608 63.1882 44.896C63.3055 45.1787 63.3642 45.4853 63.3642 45.816C63.3642 45.8907 63.3589 45.9547 63.3482 46.008C63.3429 46.056 63.3349 46.112 63.3242 46.176H59.7162C59.7695 46.5013 59.9215 46.7653 60.1722 46.968C60.4282 47.1707 60.7375 47.272 61.1002 47.272C61.6069 47.272 61.9935 47.064 62.2602 46.648H63.2442ZM62.4602 45.368C62.3802 45.032 62.2202 44.7733 61.9802 44.592C61.7402 44.4053 61.4389 44.312 61.0762 44.312C60.7242 44.312 60.4282 44.4053 60.1882 44.592C59.9482 44.7733 59.7855 45.032 59.7002 45.368H62.4602ZM64.8016 44.408H63.7296V43.584H66.7776V44.408H65.7056V48H64.8016V44.408Z" fill="#787878"/>
</svg>
