<svg width="156" height="155" viewBox="0 0 156 155" fill="none" xmlns="http://www.w3.org/2000/svg">
<path d="M29.6169 135.82C24.7687 135.565 11.9302 138.507 11.2354 141.502C10.5406 144.497 18.3919 146.312 25.9035 148.96C33.4151 151.608 43.9762 145.578 44.4317 145.1C48.8012 140.784 33.6467 136.036 29.6169 135.82Z" fill="#1D6CFF"/>
<path d="M60.6212 115.431C53.7504 112.783 49.3808 118.681 49.1261 119.291C46.6788 125.328 58.5368 130.593 62.891 129.528C67.2451 128.463 72.0161 124.634 72.6491 121.63C73.2822 118.627 67.4998 118.118 60.6212 115.431Z" fill="#1D6CFF"/>
<path d="M89.3789 133.04C84.5307 132.786 80.1611 137.564 80.1611 138.838C80.1611 140.784 84.6542 142.104 92.135 144.744C99.6157 147.384 101.654 143.2 102.132 142.714C106.517 138.398 93.4397 133.249 89.3789 133.04Z" fill="#1D6CFF"/>
<path d="M123.88 30.6104C123.332 15.9423 117.627 10.9628 110.177 9.2953C100.805 7.20316 84.145 9.78939 75.5988 15.6566C66.1958 22.1106 68.2493 41.5498 75.8536 42.1751C75.3286 38.2224 75.3672 32.7334 83.5737 29.9233C90.4445 27.561 95.2542 27.0592 96.6978 22.3654C98.4271 25.9321 101.214 25.7854 108.224 26.3953C118.592 27.2985 119.24 37.8905 119.24 37.8905C119.24 37.8905 124.119 37.0567 123.88 30.6104Z" fill="#1D6CFF"/>
<path d="M51.165 113.571C51.3172 113.449 51.4181 113.275 51.4473 113.083C51.4766 112.89 51.4322 112.694 51.3229 112.533C51.2136 112.372 51.0475 112.258 50.8579 112.214C50.6683 112.171 50.4692 112.2 50.3003 112.297C37.5931 119.538 50.1382 124.919 47.7913 120.959C43.2596 118.627 48.4012 115.462 51.165 113.571Z" fill="#202020"/>
<path d="M55.8043 120.966C58.8923 122.78 63.231 119.422 67.0524 119.676C67.2572 119.669 67.4507 119.581 67.5904 119.431C67.7301 119.281 67.8046 119.082 67.7974 118.877C67.7903 118.673 67.7021 118.479 67.5522 118.339C67.4024 118.2 67.2031 118.125 66.9984 118.132C63.7482 117.561 57.2171 122.062 56.2675 118.742C55.7194 118.094 56.9314 115.121 55.4955 114.666C54.0441 114.735 54.7235 117.383 54.6463 118.117C53.9438 118.24 49.7981 117.229 49.8135 118.688C49.8135 118.893 49.8949 119.089 50.0396 119.234C50.1844 119.379 50.3808 119.46 50.5855 119.46C52.3843 119.46 53.6195 119.561 54.9782 119.684C55.1327 120.178 55.4182 120.621 55.8043 120.966Z" fill="#202020"/>
<path d="M18.4623 75.2559C20.4773 75.6342 22.4613 78.259 24.1288 77.4561C25.31 75.1401 12.9811 72.7083 13.12 69.3887C12.2631 66.5786 18.0763 63.6681 17.5745 61.7226C17.4393 61.5692 17.2487 61.4758 17.0446 61.4628C16.8405 61.4497 16.6396 61.5182 16.486 61.6531C9.03611 68.0376 10.4026 72.1602 18.4623 75.2559Z" fill="#202020"/>
<path d="M25.5031 131.072C25.0708 131.072 17.8448 131.226 17.6673 133.558C17.7025 133.653 17.7562 133.741 17.8254 133.815C17.8946 133.89 17.9779 133.95 18.0705 133.993C18.163 134.035 18.263 134.058 18.3648 134.062C18.4665 134.066 18.5679 134.049 18.6632 134.013C22.3842 132.608 23.1717 132.608 25.5186 132.608C28.4831 132.608 36.5583 136.19 40.2794 138.406C36.5506 137.966 30.6061 137.557 33.6401 139.61C36.4166 139.575 39.1908 139.782 41.9314 140.228C40.8198 141.841 35.6087 145.477 31.8954 147.106C29.4327 148.226 16.239 142.883 11.1284 138.761C11.2982 138.591 12.0316 138.19 15.0656 137.85C26.9082 136.499 27.024 137.078 28.4368 144.505C28.4368 146.635 30.7528 146.211 29.9808 144.211C28.4368 136.144 27.8192 134.847 14.9189 136.314C9.51487 136.646 7.63889 138.946 12.0934 141.424C12.5103 141.424 26.8078 150.218 32.5902 148.519C35.3231 147.315 44.1703 142.158 43.7379 139.533C43.3056 136.908 28.8382 131.079 25.5031 131.072Z" fill="#202020"/>
<path d="M30.4199 31.7532C32.9057 32.2318 39.3597 24.9364 35.1677 26.3491C34.3262 27.8932 30.2114 32.2396 27.7101 29.0975C27.5655 28.9537 27.3698 28.873 27.1659 28.873C26.9619 28.873 26.7663 28.9537 26.6216 29.0975C25.564 30.6801 29.3622 32.0234 30.4199 31.7532Z" fill="#202020"/>
<path d="M34.3499 75.132C32.3659 79.3935 41.3984 72.9627 40.0474 70.7624C39.8158 66.223 31.3082 62.4248 23.0169 59.3058C17.6823 58.0398 20.6082 65.6672 21.5809 67.4119C19.7281 67.4119 17.3426 67.6281 17.2037 67.6435C17.1023 67.6476 17.0027 67.6716 16.9106 67.7141C16.8185 67.7566 16.7356 67.8169 16.6668 67.8915C16.5278 68.042 16.4543 68.2417 16.4625 68.4464C16.4707 68.6512 16.5599 68.8443 16.7105 68.9833C16.8611 69.1222 17.0607 69.1957 17.2654 69.1875C17.4275 69.1875 21.0097 68.8787 22.7235 68.9714C24.0822 70.3301 25.634 70.7933 27.757 70.9477C28.5799 72.1245 29.2662 73.391 29.8028 74.7228C29.8607 74.8638 29.9591 74.9845 30.0855 75.0697C30.2119 75.1549 30.3607 75.2007 30.5131 75.2015C32.2115 74.9236 30.6289 72.8855 29.6484 70.9786C30.5053 70.747 33.4081 71.3955 33.4313 69.9518C32.5589 68.3615 29.3319 69.9518 28.1276 69.4423C22.7235 70.3764 19.6355 59.8617 22.4765 60.7572C27.703 62.8725 46.7252 69.4114 34.3499 75.132Z" fill="#202020"/>
<path d="M19.9286 24.7045C20.0805 24.8277 20.2736 24.8886 20.4687 24.875C20.6638 24.8613 20.8464 24.7742 20.9798 24.631C21.1131 24.4879 21.1871 24.2996 21.1869 24.104C21.1866 23.9084 21.1122 23.7202 20.9786 23.5774C17.7516 20.4893 16.9178 19.2773 19.8746 16.4749C20.0271 16.3377 20.1189 16.1455 20.1298 15.9407C20.1406 15.7358 20.0697 15.535 19.9325 15.3825C19.7953 15.23 19.6031 15.1382 19.3983 15.1273C19.1934 15.1164 18.9926 15.1874 18.8401 15.3246C15.2194 18.7986 16.0377 21.0143 19.9286 24.7045Z" fill="#202020"/>
<path d="M42.047 54.8129C44.116 54.8129 46.6791 53.6471 49.9755 51.2153C51.2648 45.8113 42.0316 59.0589 37.7469 49.8566C33.6167 48.274 39.6461 55.7779 42.047 54.8129Z" fill="#202020"/>
<path d="M19.9206 19.964C20.021 21.3845 23.7807 19.964 24.4678 20.0875C25.6258 23.6542 24.7457 23.5307 29.0149 24.4957L29.2774 26.858C29.288 26.9594 29.3185 27.0577 29.3672 27.1473C29.4158 27.2369 29.4816 27.316 29.5608 27.3802C29.64 27.4444 29.7311 27.4923 29.8288 27.5212C29.9266 27.5502 30.0291 27.5596 30.1304 27.549C30.2318 27.5383 30.3301 27.5078 30.4197 27.4592C30.5093 27.4106 30.5884 27.3448 30.6526 27.2656C30.7167 27.1863 30.7647 27.0953 30.7936 26.9975C30.8226 26.8998 30.832 26.7973 30.8214 26.6959L30.5975 24.7041C31.3695 24.7041 33.0525 25.3217 33.1914 24.0943C33.1914 23.8895 33.1101 23.6931 32.9653 23.5484C32.8205 23.4036 32.6242 23.3222 32.4194 23.3222C30.4802 23.2776 28.5612 22.9177 26.7375 22.2569C25.703 19.0685 23.9196 12.9928 25.6644 12.684C28.8142 13.0082 36.21 18.3428 36.7118 23.2759C36.7323 23.4807 36.8332 23.6689 36.9925 23.7992C37.1518 23.9295 37.3563 23.9912 37.561 23.9707C37.7658 23.9503 37.954 23.8493 38.0843 23.69C38.2146 23.5308 38.2763 23.3263 38.2558 23.1215C37.368 14.9923 19.689 3.71326 24.0818 18.5898C23.4178 18.9141 19.635 18.5821 19.9206 19.964Z" fill="#202020"/>
<path d="M34.8438 42.8847C34.7309 43.0414 34.6809 43.2348 34.7036 43.4267C34.7263 43.6185 34.8201 43.7949 34.9666 43.9209C35.113 44.047 35.3013 44.1136 35.4944 44.1075C35.6875 44.1015 35.8713 44.0232 36.0096 43.8883C39.3518 40.1208 43.7674 37.4671 48.6628 36.284C51.8203 35.9289 45.5747 44.7298 45.8681 45.0231C43.8573 45.2438 41.8241 45.1395 39.8464 44.7143C39.6478 44.6653 39.4379 44.6972 39.2628 44.8028C39.0876 44.9085 38.9616 45.0794 38.9123 45.2779C38.727 46.8219 41.9 46.4513 42.7724 46.6598C42.4713 47.6866 40.9736 50.6588 42.5099 51.0293C42.7124 51.051 42.9153 50.9918 43.0744 50.8646C43.2335 50.7373 43.3358 50.5524 43.3591 50.35C43.4907 49.0596 43.8763 47.8081 44.4939 46.6675C47.2191 46.4822 46.6478 46.791 47.883 44.4596C49.4039 44.6801 50.9096 44.9946 52.3916 45.4014C55.3561 43.9423 49.2263 43.0854 48.6319 43.0159C57.6953 27.9 39.2829 37.1255 34.8438 42.8847Z" fill="#202020"/>
<path d="M72.5953 118.673C72.2634 114.396 60.0348 112.088 55.6806 109.78C55.5038 109.704 55.3052 109.697 55.1237 109.761C54.9421 109.824 54.7906 109.953 54.6989 110.121C54.6072 110.29 54.5818 110.488 54.6277 110.674C54.6737 110.861 54.7876 111.024 54.9472 111.131C67.6854 116.581 79.2114 116.265 61.8335 127.15C61.7437 126.057 61.5813 124.971 61.3472 123.9C61.3072 123.695 61.1876 123.515 61.0146 123.398C60.8416 123.281 60.6294 123.238 60.4246 123.278C60.2199 123.318 60.0394 123.438 59.9228 123.611C59.8063 123.784 59.7632 123.996 59.8032 124.201C60.0287 125.237 60.186 126.286 60.2741 127.343C58.6837 127.343 56.7923 126.571 54.2756 124.834C54.1066 124.721 53.9 124.68 53.7006 124.718C53.5012 124.757 53.325 124.872 53.2103 125.04C53.0955 125.208 53.0514 125.414 53.0875 125.614C53.1236 125.813 53.2371 125.991 53.4032 126.108C56.8078 128.347 58.8073 129.134 61.4244 128.833C64.0415 128.532 72.8424 121.391 72.5953 118.673Z" fill="#202020"/>
<path d="M79.9682 48.1426C79.8542 48.0673 79.7224 48.0237 79.5861 48.016C79.4498 48.0084 79.3139 48.037 79.1922 48.099C79.0706 48.161 78.9676 48.2541 78.8937 48.3689C78.8198 48.4837 78.7776 48.6161 78.7715 48.7524C78.5785 58.0165 92.3203 59.5605 95.7557 52.1802C101.276 59.2749 113.103 54.1256 111.968 44.0741C111.949 43.9241 111.886 43.7831 111.787 43.6685C111.688 43.554 111.558 43.4711 111.412 43.43C111.267 43.3888 111.112 43.3914 110.968 43.4373C110.824 43.4832 110.696 43.5704 110.601 43.6881C104.703 51.4081 100.959 39.056 94.9991 46.5213C87.5724 40.8394 85.7196 51.8405 79.9682 48.1426Z" fill="#202020"/>
<path d="M145.481 108.521C142.007 82.0647 152.074 50.6594 125.139 46.9693C125.451 45.1411 125.515 43.2794 125.332 41.434C136.912 36.9872 128.844 12.7925 122.506 9.00965C112.107 -1.02644 77.1816 5.38122 67.9097 14.5758C60.043 22.3885 59.4717 43.6419 70.3184 46.9152C70.9308 50.0915 72.2153 53.1001 74.0858 55.7393C69.3766 58.2946 67.5006 64.3394 65.007 68.2844C60.5757 75.3868 43.8463 82.8367 44.4639 90.7343C29.7957 98.7246 9.61548 114.667 19.4663 114.983C17.2352 124.085 23.3263 130.03 26.9007 121.198C31.3706 122.904 37.8478 116.357 38.4036 112.25C39.1756 113.138 39.9476 114.188 41.013 113.972C41.1751 113.972 49.3661 110.714 46.7645 107.51C49.9065 104.962 47.6446 103.951 43.0357 101.859C44.5797 100.778 46.1237 99.7205 47.5288 98.7709C54.8165 104.098 68.7281 101.473 72.233 94.054C75.7622 91.4401 79.0816 88.5543 82.161 85.4229C82.7554 86.6967 83.3653 87.8393 83.9135 88.8352C83.3422 89.4605 82.794 90.0859 82.3 90.7343C75.6684 93.2125 72.0631 98.8636 78.687 100.307C78.0482 101.487 77.4685 102.698 76.9499 103.936C69.1527 100.554 58.7537 109.718 63.5942 109C69.4692 103.897 71.268 104.283 77.2433 105.58C77.4211 105.619 77.6069 105.594 77.7679 105.509C77.9289 105.424 78.0548 105.285 78.1234 105.117C81.9834 95.8528 85.0715 95.2043 85.9284 95.2351C93.4555 98.1533 79.4976 103.681 82.6165 107.912C85.4652 109.842 89.8579 111.146 89.0319 115.925C81.5743 126.2 76.8033 129.049 71.4455 126.532C66.8135 127.69 78.2315 132.446 84.9943 123.375C90.352 124.463 98.3037 124.595 104.742 124.216C109.289 127.953 123.039 126.988 129.601 125.961C140.532 124.116 149.426 121.406 145.481 108.521ZM143.937 108.521C139.977 114.589 119.295 117.484 110.185 114.474C109.1 110.378 108.696 106.132 108.988 101.905C114.825 98.8173 118.854 95.9454 123.788 92.9346C130.28 92.3247 139.645 89.9237 143.605 85.4924C143.057 93.4827 143.119 97.7056 143.914 108.521H143.937ZM70.0791 45.3094C59.904 40.5847 63.3781 19.9799 68.9442 15.6875C78.2083 7.07192 109.282 0.247371 121.526 10.1677C126.999 13.4024 134.727 35.0031 125.131 39.8822C120.7 18.0807 101.338 30.6181 96.6284 20.8831C91.7802 33.0345 68.9056 24.7586 70.0791 45.3094ZM71.7003 46.0274C69.5078 34.5013 81.8599 28.1709 88.808 32.4246C88.9526 32.5684 89.1483 32.6491 89.3522 32.6491C89.5562 32.6491 89.7519 32.5684 89.8965 32.4246C90.7766 31.0813 88.3525 30.2785 87.1559 29.8384C91.124 28.5646 94.8914 27.0206 96.7133 23.5388C103.916 31.4519 120.453 20.6438 123.734 40.9476C126.05 55.7084 111.235 59.9544 99.0988 61.0893C78.2546 63.4902 73.5454 54.8128 71.7003 46.0274ZM46.6332 105.534C46.6332 105.611 46.4402 105.935 45.0892 106.761C44.9765 106.83 44.8833 106.926 44.8184 107.041C44.7535 107.156 44.7192 107.285 44.7186 107.417C44.6492 108.05 45.8458 108.39 45.7068 108.884C45.5833 110.027 42.557 111.718 40.7119 112.435C39.5925 111.748 38.4499 108.853 36.9368 109.965C36.7995 110.073 36.7025 110.223 36.6619 110.393C36.6212 110.563 36.6392 110.741 36.7129 110.899C37.7474 113.138 34.1653 117.562 30.6295 119.353C27.2018 121.468 26.9548 117.631 25.7968 119.569C23.1642 128.115 19.0648 123.004 21.1647 114.558C26.0284 112.96 34.2888 107.811 41.5689 102.878C44.0856 104.013 46.4634 105.078 46.6332 105.534ZM18.3469 113.485C18.0458 111.463 29.3634 100.516 48.2004 90.4487C47.0578 93.5367 48.3008 94.5481 49.7444 95.2506C26.9934 111.663 19.4277 114.018 18.3469 113.485ZM68.1259 96.5707C64.1578 99.404 55.6194 102.067 48.8643 97.7596C50.0069 96.9413 51.0645 96.2156 51.9524 95.5131C55.9514 96.4009 60.5757 87.5846 63.7641 90.4641C63.6667 91.6849 63.3883 92.8843 62.938 94.0231C62.8653 94.2145 62.8717 94.427 62.9556 94.6138C63.0396 94.8005 63.1943 94.9463 63.3858 95.019C63.5772 95.0917 63.7897 95.0853 63.9765 95.0014C64.1632 94.9174 64.309 94.7627 64.3817 94.5712C64.8176 93.4233 65.1206 92.2292 65.2849 91.0123C66.0811 91.031 66.8754 91.1006 67.6627 91.2207C67.8789 92.039 67.2227 93.8455 66.6437 94.9186C66.5811 95.0361 66.55 95.1678 66.5533 95.3008C66.5566 95.4339 66.5943 95.5638 66.6627 95.678C66.7311 95.7922 66.8278 95.8868 66.9435 95.9526C67.0592 96.0184 67.1899 96.0531 67.323 96.0535C68.2803 96.0535 69.1218 93.3514 69.2453 91.6144C72.0863 92.703 70.6504 94.6716 68.1259 96.5939V96.5707ZM81.3581 83.9252C78.4805 86.8894 75.3837 89.6326 72.094 92.1317C71.3992 90.4024 69.006 89.4991 64.9607 89.4528C63.2005 87.3452 59.904 88.2794 58.1593 90.3329C53.589 95.737 45.8072 95.1348 51.0182 88.8584C51.605 85.8321 47.1582 89.4837 45.9539 89.8697C46.5637 84.3035 57.9586 78.058 62.5983 73.1866C71.7775 71.6426 77.5984 75.1166 81.4199 83.8558C81.3952 83.8837 81.3745 83.9149 81.3581 83.9484V83.9252ZM79.7523 70.8011C77.0735 67.5201 78.8722 76.1589 79.1733 77.0698C75.5063 72.6153 70.7276 70.8166 64.3585 71.3956C68.5273 67.3966 69.5464 59.7614 75.0971 56.905C84.3149 67.4043 120.306 64.4938 124.791 48.4592C140.687 50.3892 143.443 64.7331 143.675 82.4275C142.478 85.7472 136.132 89.6227 126.273 91.0354C128.397 89.9392 139.174 68.0759 133.994 71.8974C130.365 83.1455 127.586 87.6695 124.536 90.3483C125.069 80.374 110.332 71.7121 100.983 74.9082C101.176 73.866 104.302 66.64 101.16 69.0487C100.496 71.3647 99.7473 73.6189 99.1066 75.7728C94.4745 79.6329 88.8852 83.6473 84.9788 87.5382C82.0482 82.4189 80.2649 76.7239 79.7523 70.8474V70.8011ZM88.5223 100.554C92.4673 96.2619 85.4343 88.4801 79.5207 98.7015C74.1167 98.3695 77.1121 94.3473 83.0488 91.9927C87.071 86.9978 94.3896 81.7019 100.203 76.9231C108.633 72.4069 125.787 82.1959 122.591 91.8615C113.89 96.9876 103.345 105.588 91.3247 105.117C92.3221 104.246 93.2111 103.259 93.9727 102.175C94.0854 102.007 94.127 101.8 94.0884 101.601C94.0499 101.401 93.9343 101.225 93.7667 101.11C93.5991 100.995 93.393 100.951 93.1932 100.987C92.9933 101.024 92.8157 101.137 92.6989 101.303C92.6989 101.303 90.8229 103.99 89.0396 104.793C87.8053 104.528 86.6113 104.103 85.4883 103.527C86.4003 102.453 87.4166 101.473 88.5223 100.601V100.554ZM83.6587 106.692C83.8259 106.001 84.1276 105.351 84.5465 104.777C91.9037 108.637 100.187 106.12 107.39 102.677C107.218 106.097 107.507 109.525 108.247 112.868C102.33 113.852 96.2918 113.852 90.3752 112.868C89.2943 109.378 85.3185 107.857 83.6587 106.738V106.692ZM103.731 122.626C97.875 123.02 91.994 122.803 86.1832 121.977C87.5882 119.901 90.8538 117.515 90.6454 114.497C96.5853 115.444 102.64 115.418 108.571 114.42C108.571 114.543 108.633 114.674 108.656 114.798C105.676 117.631 103.16 120.349 103.762 122.672L103.731 122.626ZM144.485 117.361C143.327 125.783 90.5296 130.987 109.675 115.894C119.403 118.797 138.355 116.342 144.269 110.436C144.739 112.73 144.823 115.086 144.516 117.407L144.485 117.361Z" fill="#202020"/>
<path d="M98.9357 31.3208C99.9238 29.7768 102.796 28.4181 106.656 29.0048C106.857 29.0312 107.061 28.9772 107.223 28.8543C107.385 28.7315 107.492 28.5498 107.52 28.3486C105.637 25.1293 95.6701 29.5066 97.8394 31.5679C97.9266 31.6267 98.025 31.6671 98.1284 31.6866C98.2319 31.706 98.3382 31.7041 98.4409 31.681C98.5435 31.6578 98.6404 31.614 98.7255 31.552C98.8106 31.4901 98.8821 31.4114 98.9357 31.3208Z" fill="#202020"/>
<path d="M82.2455 46.0121C90.8456 44.4681 88.738 31.6219 79.9294 34.131C72.1322 36.2849 74.1394 47.4635 82.2455 46.0121ZM85.9974 41.2797C85.8581 41.7796 85.6213 42.2471 85.3007 42.6551C84.98 43.0632 84.5819 43.4039 84.1292 43.6575C82.6392 41.3415 79.4971 39.2339 76.9804 38.323C79.0339 33.9688 87.6727 34.2004 85.9974 41.2797Z" fill="#202020"/>
<path d="M90.7682 42.3295C92.6596 41.9127 89.9962 39.6584 91.27 38.6702C92.7522 36.8483 95.8557 36.802 96.427 39.9904C96.4639 40.1951 96.5805 40.3768 96.7514 40.4956C96.9222 40.6143 97.1332 40.6603 97.338 40.6234C97.5427 40.5866 97.7244 40.4699 97.8432 40.299C97.9619 40.1282 98.0079 39.9172 97.971 39.7124C97.0446 32.3166 85.2561 37.4041 90.7682 42.3295Z" fill="#202020"/>
<path d="M100.341 38.7704C103.591 48.2893 118.869 40.2141 111.481 32.1003C106.679 27.6381 98.4494 32.7951 100.341 38.7704ZM110.423 33.1965C112.909 36.1379 111.967 38.8013 109.952 40.2913C107.857 37.8734 105.174 36.0362 102.163 34.9567C103.63 32.2315 107.791 30.7647 110.423 33.1965Z" fill="#202020"/>
<path d="M76.0231 123.699C75.8764 123.825 75.7821 124.001 75.7588 124.192C75.7356 124.384 75.7851 124.578 75.8975 124.735C76.01 124.892 76.1773 125.001 76.3663 125.041C76.5553 125.081 76.7524 125.048 76.9186 124.95C90.8611 114.497 79.5821 109.039 68.4266 108.436C68.2218 108.428 68.0222 108.502 67.8716 108.641C67.721 108.78 67.6319 108.973 67.6237 109.178C67.6155 109.382 67.689 109.582 67.8279 109.732C67.9669 109.883 68.16 109.972 68.3648 109.98C80.493 110.467 87.1709 115.879 76.0231 123.699Z" fill="#202020"/>
<path d="M99.5538 133.882C94.0339 134.445 111.281 139.849 110.362 142.729C110.408 144.273 107.274 146.149 102.765 148.596C102.426 147.353 101.654 143.887 100.195 144.682C100.029 144.801 99.918 144.981 99.8847 145.182C99.8514 145.383 99.899 145.589 100.017 145.755C100.59 146.673 100.997 147.684 101.221 148.743C96.7051 147.577 87.2634 145.909 85.3489 142.049C93.4395 140.822 93.756 137.958 85.2408 140.505C85.6337 139.338 86.3547 138.309 87.3175 137.541C88.0895 136.877 86.9932 135.711 86.2753 136.406C76.8336 145.608 94.9681 148.758 101.808 150.511C115.557 144.528 115.774 140.776 99.5538 133.882Z" fill="#202020"/>
<path d="M99.1754 143.424C99.8625 142.868 105.699 144.288 106.293 142.783C104.579 140.096 97.0292 143.347 95.74 141.239C94.8367 141.378 94.196 132.901 92.4744 132.932C92.2761 132.98 92.1047 133.104 91.9977 133.278C91.8907 133.451 91.8567 133.66 91.9031 133.859C94.057 142.953 94.2114 143.694 99.1754 143.424Z" fill="#202020"/>
</svg>
