<svg width="170" height="80" viewBox="0 0 170 80" fill="none" xmlns="http://www.w3.org/2000/svg">
<path d="M131.957 0.602665C132.676 1.12888 133.122 1.75298 133.278 2.63123C133.372 4.74157 132.098 6.7257 131.107 8.51257C130.502 9.61204 129.918 10.721 129.34 11.8351C129.029 12.4349 128.717 13.0336 128.392 13.626C127.726 14.843 127.208 16.0536 126.75 17.3637C126.682 17.5384 126.615 17.713 126.547 17.8875C126.197 18.8267 126.044 19.68 126.049 20.6829C126.047 20.7849 126.044 20.8869 126.042 20.992C126.041 21.8185 126.236 22.3565 126.783 22.9948C127.518 23.6302 128.141 23.926 129.127 23.9691C129.243 23.9774 129.359 23.9858 129.479 23.9944C129.603 23.9997 129.726 24.0049 129.853 24.0104C129.966 24.0153 130.079 24.0203 130.195 24.0253C130.645 23.9595 130.948 23.7923 131.345 23.5811C131.852 23.3355 132.389 23.1996 132.931 23.0526C133.037 23.0227 133.144 22.9928 133.253 22.962C133.638 22.8551 134.023 22.7515 134.408 22.648C134.497 22.6237 134.585 22.5994 134.677 22.5744C136.276 22.1363 137.88 21.7696 139.508 21.4508C139.622 21.4281 139.736 21.4055 139.854 21.3822C141.729 21.0112 143.606 20.6729 145.498 20.4022C145.688 20.375 145.688 20.375 145.881 20.3472C146.614 20.2425 147.347 20.1427 148.082 20.0476C148.371 20.0101 148.66 19.9712 148.948 19.9321C151.648 19.586 154.356 19.4526 157.076 19.4444C157.179 19.4437 157.283 19.4431 157.389 19.4424C162.748 19.4143 162.748 19.4143 164.408 21.0452C164.995 21.7489 165.112 22.4807 165.075 23.3829C164.921 24.7693 163.956 25.6929 162.918 26.5534C160.606 28.2566 157.823 29.2848 155.171 30.3249C154.901 30.431 154.633 30.5386 154.364 30.6472C153.65 30.936 152.935 31.22 152.214 31.4909C151.06 31.9245 149.919 32.3568 148.81 32.8966C148.472 33.0527 148.136 33.1901 147.789 33.3244C145.647 34.1737 142.477 35.4748 141.488 37.7247C140.871 41.5496 143.71 44.9977 145.655 48.0539C145.734 48.1783 145.814 48.3028 145.895 48.4311C146.219 48.9392 146.543 49.4472 146.87 49.9529C148.49 52.5006 150.051 55.7535 149.403 58.8529C148.742 61.115 146.943 62.4902 144.972 63.5948C143.35 64.4403 141.66 64.7039 139.854 64.6911C139.712 64.6921 139.57 64.6931 139.423 64.6942C137.663 64.69 136.041 64.3739 134.358 63.8737C134.199 63.8278 134.04 63.7819 133.876 63.7346C133.164 63.5269 132.461 63.3118 131.77 63.0419C131.179 62.8178 130.576 62.6272 129.977 62.4287C129.836 62.382 129.696 62.3353 129.552 62.2872C128.951 62.0872 128.351 61.888 127.747 61.696C126.946 61.4382 126.194 61.1564 125.438 60.7857C124.769 60.4627 124.317 60.344 123.581 60.4306C123.556 61.1002 123.559 61.7247 123.713 62.3792C124.04 63.8853 123.949 65.231 123.129 66.5452C122.777 67.0461 122.454 67.4869 121.865 67.6965C120.812 67.8448 120.074 67.6648 119.224 67.036C118.346 66.3591 117.664 65.5763 116.996 64.7005C115.929 63.1646 115.929 63.1646 114.449 62.2172C113.752 62.1751 113.349 62.2563 112.812 62.7177C112.167 63.3634 111.595 64.0674 111.038 64.7902C110.95 64.9029 110.862 65.0156 110.771 65.1318C109.775 66.4463 109.031 67.9037 108.266 69.3587C105.742 74.1515 105.742 74.1515 104.305 75.8872C104.222 75.9953 104.139 76.1034 104.054 76.2148C103.226 77.2085 102.177 77.9557 100.872 78.0752C100.093 78.04 99.5792 77.5239 99.073 76.976C98.2288 75.9245 97.6854 74.6622 97.3071 73.3771C97.2684 73.2473 97.2297 73.1175 97.1898 72.9837C96.854 71.8356 96.5761 70.6826 96.3251 69.513C96.2848 69.3279 96.2445 69.1427 96.2042 68.9576C95.9543 67.8031 95.7296 66.6456 95.5164 65.4837C95.3212 64.4335 95.0921 63.4042 94.7902 62.3792C94.7594 62.273 94.7286 62.1668 94.6968 62.0573C94.4918 61.3957 94.2415 60.7981 93.7422 60.2985C92.2368 60.1062 91.011 61.274 89.8927 62.1393C89.256 62.6415 88.6575 63.1801 88.0649 63.7333C87.8895 63.8882 87.7135 64.0424 87.5368 64.1957C87.134 64.5465 86.7365 64.9026 86.3402 65.2608C86.1231 65.4563 85.9058 65.6518 85.6883 65.847C85.5959 65.9301 85.5035 66.0132 85.4083 66.0988C84.7951 66.6397 84.7951 66.6397 84.5 66.6397C84.5 66.7269 84.5 66.814 84.5 66.9039C84.2566 67.1294 84.2566 67.1294 83.9059 67.4075C83.7075 67.5667 83.7075 67.5667 83.5052 67.729C83.3527 67.8503 83.2002 67.9716 83.0477 68.0928C81.8485 69.0514 80.673 70.0184 79.5551 71.0719C79.3384 71.275 79.1199 71.476 78.9011 71.6768C78.0574 72.4537 77.2349 73.2457 76.4311 74.064C73.9208 76.6163 70.8419 79.3068 67.0719 79.388C65.5655 79.3805 64.3226 78.7709 63.243 77.7366C62.3882 76.6401 62.3044 75.5167 62.4508 74.1698C62.5945 73.5172 62.828 72.9233 63.111 72.3203C63.1556 72.2251 63.2003 72.1299 63.2463 72.0318C64.0152 70.429 64.9457 68.9805 66.0157 67.5644C66.1282 67.4154 66.1282 67.4154 66.2429 67.2634C67.1245 66.1019 68.0335 64.9673 68.9822 63.8603C69.3096 63.4771 69.632 63.0906 69.9519 62.7012C70.0398 62.5941 70.1278 62.487 70.2185 62.3766C70.4571 62.076 70.6889 61.7723 70.9187 61.4649C70.9897 61.3701 71.0606 61.2753 71.1337 61.1776C71.1876 61.1055 71.2414 61.0334 71.2969 60.9591C71.1777 60.9592 71.1777 60.9592 71.0561 60.9594C64.6669 60.9674 58.2776 60.9727 51.8883 60.9756C51.7691 60.9756 51.6498 60.9757 51.5269 60.9757C27.5907 60.9863 27.5907 60.9863 15.9432 60.8397C15.5881 60.8352 15.2329 60.8308 14.8778 60.8265C13.458 60.8089 12.0382 60.7902 10.6184 60.7697C10.4283 60.767 10.2382 60.7643 10.0481 60.7616C8.11918 60.7343 6.19099 60.696 4.26292 60.6331C4.02991 60.6259 4.02991 60.6259 3.79218 60.6185C2.56328 60.5756 1.34989 60.4665 0.13208 60.2985C0.21414 59.7599 0.390174 59.338 0.634933 58.8526C0.71116 58.7006 0.787387 58.5487 0.865924 58.3921C0.948606 58.2294 1.03132 58.0668 1.11406 57.9041C1.19854 57.7366 1.28297 57.5691 1.36736 57.4016C1.89519 56.3561 2.43398 55.3167 2.98284 54.2821C3.50261 53.3018 3.99697 52.3096 4.48911 51.3152C5.1601 49.9607 5.83179 48.6078 6.54949 47.2772C7.07341 46.3009 7.56058 45.3056 8.05396 44.3136C8.46973 43.4784 8.88582 42.6434 9.30213 41.8085C9.42686 41.5583 9.5515 41.3079 9.67604 41.0576C10.3693 39.6641 11.0717 38.2769 11.8004 36.9016C12.3229 35.9133 12.8224 34.9141 13.3188 33.9124C14.0378 32.4617 14.7598 31.0137 15.5225 29.5853C16.0231 28.6448 16.4962 27.6908 16.9676 26.7354C17.0549 26.559 17.0549 26.559 17.144 26.379C17.1957 26.2739 17.2475 26.1688 17.3008 26.0606C17.4282 25.8186 17.4282 25.8186 17.5602 25.6865C17.7588 25.6733 17.958 25.6696 18.1571 25.6695C18.3543 25.6692 18.3543 25.6692 18.5555 25.669C18.7031 25.6696 18.8507 25.6703 19.0027 25.671C19.1596 25.6714 19.3165 25.6718 19.4781 25.6722C21.6364 25.6828 23.7942 25.7345 25.9519 25.7849C26.4405 25.7963 26.9291 25.8073 27.4178 25.8179C30.3702 25.8819 33.3209 25.9687 36.272 26.0792C39.0022 26.1812 41.7323 26.2604 44.4636 26.3228C44.5544 26.3248 44.6452 26.3269 44.7388 26.3291C46.0272 26.3585 47.3157 26.3869 48.6042 26.4152C49.9172 26.444 51.2302 26.4731 52.5431 26.5029C53.1459 26.5166 53.7486 26.5297 54.3514 26.5426C55.9478 26.578 57.5413 26.6281 59.1358 26.7147C59.7661 26.7489 60.3962 26.7688 61.0274 26.7805C61.1926 26.7841 61.1926 26.7841 61.3612 26.7879C61.7024 26.7954 62.0436 26.8025 62.3848 26.8094C63.1725 26.8254 63.9601 26.8432 64.7477 26.8661C64.9834 26.8725 65.2191 26.8781 65.4548 26.8829C65.8147 26.8905 66.1743 26.9015 66.534 26.9131C66.6978 26.9156 66.6978 26.9156 66.8649 26.9182C67.5523 26.9446 67.9441 27.0634 68.483 27.5277C68.6779 27.7462 68.868 27.9691 69.0524 28.1965C69.1438 28.2858 69.2352 28.375 69.3293 28.4669C70.1918 29.3251 70.7886 30.3537 71.3994 31.3994C71.9353 32.2863 72.4559 32.9076 73.4873 33.1722C74.5048 33.1553 75.4151 32.8775 76.3765 32.5684C76.8422 32.4239 76.8422 32.4239 77.1063 32.4239C76.9542 30.6873 76.5653 29.0241 76.1593 27.3319C75.9794 26.5805 75.8041 25.8281 75.6292 25.0755C75.5978 24.9428 75.5665 24.81 75.5342 24.6733C75.4386 24.2631 75.3474 23.8522 75.2579 23.4407C75.2035 23.1972 75.2035 23.1972 75.1481 22.9489C74.8899 21.735 74.8031 20.5681 74.8174 19.3283C74.8205 19.0376 74.8201 18.7471 74.8192 18.4565C74.8217 17.0889 74.857 15.7638 75.5137 14.5317C75.5802 14.4038 75.6468 14.2759 75.7153 14.1441C75.8983 13.8306 76.0763 13.5427 76.3141 13.2684C76.4013 13.2684 76.4884 13.2684 76.5782 13.2684C76.5782 13.1812 76.5782 13.094 76.5782 13.0042C76.6653 13.0042 76.7525 13.0042 76.8422 13.0042C76.8422 12.917 76.8422 12.8298 76.8422 12.74C77.9858 12.0359 78.9325 11.7619 80.275 11.9474C80.7175 12.064 81.0746 12.2362 81.4633 12.4758C81.5687 12.54 81.674 12.6042 81.7826 12.6703C83.779 13.9804 85.1172 15.9204 86.3031 17.9494C87.1364 19.3654 88.101 20.6814 89.2532 21.8554C89.3739 21.9788 89.3739 21.9788 89.4971 22.1046C91.453 23.9536 93.8707 24.5759 96.4901 24.5326C99.2892 24.4282 101.996 22.9418 104.305 21.4591C104.389 21.4051 104.474 21.3512 104.561 21.2957C105.641 20.609 105.641 20.609 106.417 19.6096C106.504 19.6096 106.592 19.6096 106.681 19.6096C106.716 19.5312 106.751 19.4529 106.787 19.3722C106.951 19.0705 107.118 18.8864 107.366 18.6518C107.697 18.3384 107.999 18.0098 108.296 17.6646C108.795 17.0897 109.325 16.5527 109.867 16.0179C109.958 15.9274 110.049 15.8369 110.142 15.7436C110.312 15.5749 110.482 15.4064 110.652 15.2381C111.19 14.7042 111.724 14.1666 112.258 13.6286C112.457 13.4284 112.656 13.2282 112.856 13.0281C112.991 12.8917 113.127 12.7551 113.262 12.6185C113.959 11.9156 114.657 11.2226 115.41 10.5789C115.874 10.1757 116.313 9.74607 116.757 9.32173C117.486 8.63043 118.219 7.96511 119.006 7.34012C119.33 7.08037 119.646 6.81255 119.96 6.54119C128.262 -0.607437 128.262 -0.607437 131.957 0.602665Z" fill="#1B191A"/>
<path d="M91.8644 34.1702C93.613 35.7117 94.7943 37.9091 94.9616 40.2572C95.0586 42.298 95.0529 44.2539 94.2704 46.1631C94.2372 46.2467 94.2039 46.3303 94.1697 46.4164C93.3149 48.4996 91.5889 50.2192 89.5503 51.1749C89.3201 51.268 89.0891 51.3591 88.8571 51.4474C88.7647 51.4893 88.6723 51.5311 88.5771 51.5743C87.1191 52.1755 85.3373 51.9371 83.9224 51.3483C81.2407 50.0872 79.4865 47.8288 78.4506 45.0842C77.5933 42.6353 77.3405 39.8443 78.4762 37.444C79.432 35.5675 81.0241 34.2979 82.9858 33.5727C83.4004 33.4423 83.8156 33.3261 84.236 33.2166C84.4021 33.1648 84.5682 33.1131 84.7394 33.0597C87.1406 32.4473 89.8885 32.5908 91.8644 34.1702Z" fill="#FCFCFB"/>
<path d="M110.766 33.7616C111.874 34.2319 112.334 35.8582 112.757 36.9007C113.375 38.4642 113.899 40.0495 114.339 41.6715C114.368 41.7797 114.398 41.8878 114.428 41.9993C116.4 49.3981 116.4 49.3981 115.131 51.9759C114.884 52.3887 114.884 52.3887 114.603 52.6364C114.279 52.6787 114.279 52.6787 113.943 52.6364C112.359 51.3162 111.849 48.0138 111.374 46.1451C111.226 45.5661 111.057 45.0017 110.857 44.4385C110.771 44.1703 110.712 43.905 110.659 43.6284C110.51 42.9042 110.243 42.2225 109.985 41.5317C109.85 41.1431 109.85 41.1431 109.85 40.8789C109.413 40.9413 109.138 41.047 108.852 41.3898C108.38 42.1383 108.093 42.917 107.809 43.7512C107.556 44.4708 107.26 45.1723 106.962 45.8742C106.909 46.0019 106.857 46.1295 106.802 46.2611C106.38 47.2443 105.873 48.1993 104.965 48.8053C104.585 48.8631 104.585 48.8631 104.173 48.8053C102.752 47.7226 102.5 45.5155 102.231 43.8627C102.193 43.5252 102.185 43.1998 102.192 42.8605C101.11 43.0608 101.11 43.0608 100.318 43.7612C99.7743 44.782 99.5635 45.8411 99.3453 46.9641C98.6379 50.5661 98.6379 50.5661 97.2683 51.528C96.5068 51.9485 95.9251 52.0455 95.0625 51.9759C95.2877 46.5536 96.1491 38.6764 100.069 34.514C100.458 34.1736 100.75 34.0275 101.26 33.9515C101.664 34.0093 101.664 34.0093 102.019 34.2488C102.673 35.1509 102.749 36.2411 102.874 37.324C102.977 38.206 103.1 39.0843 103.232 39.9624C103.252 40.1038 103.271 40.2453 103.292 40.391C103.416 41.1976 103.581 41.7865 104.041 42.4642C104.224 42.4858 104.409 42.5011 104.594 42.5137C104.696 42.5229 104.799 42.5321 104.905 42.5416C105.403 42.4225 105.622 42.0827 105.889 41.6715C106.099 41.2949 106.28 40.9084 106.458 40.5156C106.534 40.3517 106.534 40.3517 106.612 40.1846C106.914 39.5296 107.207 38.8704 107.497 38.2098C109.488 33.6791 109.488 33.6791 110.766 33.7616Z" fill="#FBFBF9"/>
<path d="M25.075 35.2546C27.1672 36.3239 28.3602 38.5717 29.3108 40.6148C29.3733 40.7444 29.4358 40.874 29.5001 41.0075C30.2745 42.6465 30.7471 44.3113 31.1443 46.0724C31.2546 46.5548 31.396 47.0157 31.5554 47.4843C32.0891 49.5224 31.9915 51.6052 31.9515 53.6934C30.5649 53.5932 29.6319 53.2263 28.6569 52.1999C27.2949 50.4055 26.6308 48.2315 26.0843 46.0807C25.4755 43.2277 25.4755 43.2277 24.2936 40.6148C23.9077 40.4182 23.9077 40.4182 23.5015 40.4827C23.0003 40.8945 22.6969 41.4178 22.3709 41.9689C22.32 42.0521 22.269 42.1354 22.2165 42.2212C21.8638 42.8116 21.6148 43.3999 21.389 44.0496C21.3018 44.0496 21.2147 44.0496 21.1249 44.0496C21.0813 44.1994 21.0377 44.3493 20.9929 44.5037C20.4409 46.1477 19.6297 47.6667 18.6163 49.0696C18.5307 49.1914 18.4451 49.3131 18.3569 49.4386C15.9192 52.8629 15.9192 52.8629 14.5233 53.5613C14.0717 53.6364 13.6422 53.672 13.2401 53.4178C12.7661 52.7092 13.0304 51.2697 13.1783 50.465C13.2897 49.99 13.4399 49.5411 13.6218 49.0887C13.7449 48.7697 13.8441 48.4467 13.9457 48.1201C14.6076 46.1205 15.522 44.1929 16.5038 42.3322C16.5529 42.2381 16.602 42.144 16.6527 42.0471C21.0035 33.7642 21.0035 33.7642 25.075 35.2546Z" fill="#FCFCFA"/>
<path d="M130.442 33.7761C131.254 34.3798 131.735 35.3592 131.986 36.3264C132.034 36.6732 132.044 37.0033 132.039 37.3533C132.038 37.4699 132.037 37.5866 132.036 37.7068C132.034 37.7945 132.033 37.8822 132.031 37.9725C130.672 38.4258 129.455 37.986 128.202 37.4441C127.883 37.3318 127.562 37.2272 127.239 37.1242C127.014 37.0478 127.014 37.0478 126.75 36.9157C125.544 36.7816 124.232 36.9873 123.226 37.6934C122.195 38.6372 121.603 40.0195 121.526 41.4048C121.522 41.6781 121.523 41.9514 121.526 42.2247C121.528 42.3686 121.529 42.5125 121.53 42.6608C121.571 44.2829 121.927 45.7707 122.921 47.0879C123.052 47.1533 123.052 47.1533 123.185 47.22C123.185 47.3072 123.185 47.3944 123.185 47.4843C123.406 47.5129 123.406 47.5129 123.631 47.542C124.109 47.6164 124.109 47.6164 124.373 47.7485C125.944 47.9157 127.369 47.7995 128.842 47.241C129.738 46.9057 130.577 46.7375 131.511 47.0456C131.788 47.2111 131.891 47.3241 132.031 47.6164C132.216 48.694 132.044 49.7067 131.503 50.6548C130.494 52.071 128.76 52.6615 127.114 52.9783C124.661 53.3451 122.119 53.0821 120.016 51.7117C119.922 51.6521 119.827 51.5925 119.73 51.5311C118.099 50.4138 117.139 48.5019 116.778 46.5893C116.249 43.001 117.137 39.4594 119.241 36.5276C121.995 32.981 126.293 31.1629 130.442 33.7761Z" fill="#FBFBFA"/>
<path d="M36.4406 34.0092C36.9515 34.2648 37.139 34.5555 37.3143 35.0805C37.5933 36.0666 37.5565 37.0727 37.5463 38.088C37.5459 38.1921 37.5455 38.2961 37.545 38.4033C37.5359 40.2619 37.396 42.0847 37.1515 43.9282C37.1044 44.2858 37.0613 44.6436 37.0203 45.002C36.8599 46.3807 36.8599 46.3807 36.7046 46.6915C37.448 46.1254 37.9599 45.5321 38.4372 44.7296C38.6803 44.3217 38.9287 43.9175 39.1787 43.5137C39.7164 42.6423 40.2372 41.7614 40.7564 40.8788C44.5821 34.4038 44.5821 34.4038 45.9468 34.034C46.475 34.1771 46.6489 34.4059 46.952 34.8509C47.2959 35.5032 47.4799 36.2043 47.6632 36.9156C47.6856 36.9959 47.708 37.0761 47.7311 37.1589C48.6543 41.2587 48.5937 49.6454 46.3429 53.2968C45.9376 53.4783 45.7594 53.457 45.3444 53.3051C44.4532 52.5506 44.2056 51.2422 44.0984 50.1263C43.9991 48.1912 44.0782 46.2711 44.3037 44.3487C44.3852 43.6324 44.3888 42.9198 44.3625 42.1999C44.2072 42.1862 44.052 42.1726 43.8921 42.1586C43.7611 42.1471 43.7611 42.1471 43.6275 42.1354C42.8817 42.2851 42.3325 42.847 41.9185 43.4619C41.87 43.5386 41.8214 43.6153 41.7713 43.6943C41.7172 43.7776 41.663 43.8608 41.6071 43.9466C40.8484 45.1408 40.2028 46.4034 39.5384 47.6515C37.3541 51.7344 37.3541 51.7344 35.6484 52.5042C35.0805 52.6279 34.6699 52.5431 34.1465 52.2813C33.4874 51.7003 33.4657 50.9665 33.3894 50.1356C33.3783 50.0156 33.3672 49.8957 33.3558 49.7722C33.2265 48.2115 33.2324 46.648 33.2374 45.0831C33.2388 44.5611 33.2374 44.0393 33.2357 43.5173C33.2316 36.4909 33.2316 36.4909 34.9098 34.4432C35.3918 33.9802 35.7945 33.9034 36.4406 34.0092Z" fill="#FBFBFA"/>
<path d="M76.8236 33.6873C77.3621 33.7975 77.716 34.0956 78.0305 34.5378C78.1802 35.2291 78.0608 35.6057 77.7169 36.2139C76.9702 37.3572 76.1044 38.4123 75.2324 39.4606C74.5722 40.2552 73.9141 41.0516 73.2939 41.878C73.2381 41.9486 73.1822 42.0193 73.1247 42.0921C72.6923 42.6838 72.6775 43.0796 72.7492 43.7853C73.1977 45.2317 74.2882 46.2755 75.3486 47.298C76.2977 48.2143 77.384 49.3618 77.5421 50.7359C77.5456 51.5542 77.4442 52.1539 77.1063 52.9007C76.4024 53.009 75.9948 52.7759 75.4443 52.3732C74.4493 51.5447 73.7928 50.3793 73.1453 49.276C71.8947 46.9208 71.8947 46.9208 69.8446 45.3706C69.2445 45.2927 68.9988 45.3177 68.4912 45.6595C67.8826 46.2824 67.639 46.9088 67.4185 47.7402C67.3907 47.8417 67.3629 47.9432 67.3342 48.0478C67.1731 48.6482 67.0293 49.2508 66.8965 49.8581C66.8678 49.9892 66.8391 50.1203 66.8096 50.2555C66.7542 50.5127 66.7002 50.7703 66.6478 51.0282C66.6226 51.1459 66.5975 51.2637 66.5716 51.385C66.5502 51.4896 66.5289 51.5941 66.5068 51.7019C66.3974 52.0172 66.2761 52.1664 66.0156 52.3722C65.7598 52.3722 65.7598 52.3722 65.4875 52.2401C63.7832 50.5348 63.863 47.5006 63.8616 45.2662C63.8907 42.666 64.3328 40.1224 64.9016 37.5928C64.9211 37.506 64.9406 37.4193 64.9607 37.3299C65.1682 36.4164 65.3944 35.5367 65.7516 34.6699C66.7261 34.6186 67.3044 34.7809 68.1282 35.3304C68.2471 36.2823 68.1432 37.2134 67.9229 38.1403C67.7974 38.9102 67.8454 39.705 67.8641 40.4826C69.9002 40.2481 71.264 39.4243 72.5646 37.825C72.9005 37.3973 73.2221 36.9595 73.5414 36.5194C75.6351 33.6521 75.6351 33.6521 76.8236 33.6873Z" fill="#FAFAF9"/>
<path d="M153.057 6.91107C153.237 7.05003 153.237 7.05003 153.42 7.1918C153.499 7.25174 153.578 7.31169 153.659 7.37345C154.258 7.8519 154.641 8.27705 154.796 9.0542C154.85 9.65024 154.762 10.0254 154.386 10.4945C150.997 13.8917 144.035 16.1648 139.26 16.2246C139.166 16.2265 139.071 16.2283 138.974 16.2302C138.564 16.2264 138.276 16.1967 137.914 15.9986C137.709 15.7788 137.709 15.7788 137.618 15.3824C137.723 13.8991 139.31 12.6138 140.349 11.6834C143.432 9.0183 148.907 4.51506 153.057 6.91107Z" fill="#1C1B1B"/>
<path d="M57.9203 34.0999C58.0355 34.0995 58.1506 34.0991 58.2693 34.0986C61.9951 34.0902 61.9951 34.0902 63.3749 34.9339C63.4838 34.9856 63.5927 35.0374 63.705 35.0907C63.9987 35.4459 63.955 35.7726 63.9474 36.2214C63.8961 36.5658 63.8415 36.7623 63.6389 37.0476C63.0711 37.386 62.6553 37.4917 61.9978 37.4883C61.7586 37.4908 61.7586 37.4908 61.5146 37.4934C61.1824 37.4934 60.8503 37.4924 60.5182 37.4903C59.4984 37.5034 58.8986 37.6158 58.0936 38.2365C57.9194 38.3281 57.7437 38.4172 57.5655 38.5007C57.567 38.6421 57.5686 38.7834 57.5702 38.9291C57.5795 40.2188 57.5565 41.5053 57.5077 42.7942C57.5026 42.9359 57.4974 43.0776 57.492 43.2235C57.4667 43.8531 57.4333 44.4779 57.3675 45.1045C57.2542 46.2761 57.2526 47.4557 57.2272 48.6317C57.2215 48.8797 57.2157 49.1276 57.2099 49.3756C57.1959 49.978 57.1825 50.5805 57.1694 51.183C56.3788 51.531 55.786 51.7476 54.9249 51.5793C54.5186 51.3671 54.191 51.1115 53.8686 50.7867C53.7936 50.7152 53.7185 50.6436 53.6412 50.57C53.1581 49.6771 53.5483 48.3054 53.6722 47.3324C53.709 47.0423 53.7448 46.752 53.7802 46.4617C53.8811 45.6371 53.9833 44.8126 54.0875 43.9883C54.1514 43.4818 54.2137 42.975 54.275 42.4681C54.2984 42.277 54.3224 42.0859 54.3471 41.8949C54.538 40.418 54.6484 38.999 54.1327 37.576C54.0483 37.588 53.9639 37.6 53.877 37.6124C53.4865 37.6673 53.0958 37.7207 52.7051 37.7742C52.5724 37.7931 52.4398 37.812 52.3031 37.8314C51.4108 37.952 50.5437 37.9963 49.6436 37.9723C49.5305 37.195 49.495 36.4453 49.5034 35.6604C49.5039 35.5518 49.5045 35.4431 49.5052 35.3312C49.5067 35.0666 49.5091 34.8021 49.5116 34.5375C52.314 34.2882 55.1058 34.1004 57.9203 34.0999Z" fill="#FBFBF9"/>
<path d="M154.873 46.4274C155.854 46.4137 156.834 46.4046 157.816 46.3983C158.148 46.3957 158.48 46.3921 158.813 46.3875C161.795 46.347 165.454 46.3332 167.911 48.3347C168.14 48.5684 168.14 48.5684 168.34 48.8053C168.443 48.9205 168.443 48.9205 168.548 49.038C169.136 49.8091 169.111 50.6454 169 51.5795C168.788 52.2143 168.497 52.5313 167.944 52.9006C166.393 53.6535 164.409 53.0583 162.874 52.5268C160.139 51.5396 156.646 49.9545 155.062 47.3769C154.873 46.9558 154.873 46.9558 154.873 46.4274Z" fill="#1C1B1B"/>
<path d="M94.4188 7.91814C96.43 9.28058 97.5398 11.5235 98.0442 13.8618C98.1423 14.453 98.1479 15.04 98.1487 15.6381C98.152 15.7603 98.1552 15.8825 98.1585 16.0084C98.163 17.0711 97.8968 17.9318 97.307 18.817C97.0478 19.0763 96.8588 19.2233 96.5148 19.3454C96.3841 19.3454 96.2534 19.3454 96.1188 19.3454C96.1089 19.2684 96.099 19.1915 96.0888 19.1122C95.7516 17.0079 94.4882 15.6689 92.9969 14.267C91.8136 13.146 90.7083 11.9876 90.6064 10.263C90.6708 9.35506 91.0753 8.60932 91.6379 7.90989C92.4368 7.31683 93.6014 7.45236 94.4188 7.91814Z" fill="#1C1B1B"/>
<path d="M88.857 39.2934C89.4523 39.8078 89.8657 40.2843 89.9798 41.0763C90.0035 42.6762 89.6878 44.0006 88.5929 45.2382C87.605 45.9644 86.7593 46.0085 85.5562 45.8987C84.5989 45.6415 83.611 45.3 83.0043 44.4698C82.5436 43.5968 82.4051 42.9171 82.5195 41.9355C82.9455 40.7237 83.8849 39.8652 85.0054 39.2934C86.1907 38.7473 87.7067 38.598 88.857 39.2934Z" fill="#1D1B1C"/>
<path d="M130.447 68.8857C132.232 68.967 133.559 70.2486 134.804 71.3958C134.899 71.4806 134.995 71.5654 135.094 71.6528C136.076 72.5654 136.935 73.8362 136.991 75.2021C136.978 75.9585 136.796 76.3634 136.255 76.888C135.858 77.1726 135.552 77.2085 135.068 77.2085C134.811 77.2412 134.811 77.2412 134.548 77.2745C133.945 77.264 133.623 76.9729 133.203 76.5634C132.797 76.1054 132.47 75.6241 132.163 75.0948C132.106 74.9974 132.049 74.9 131.991 74.7996C131.078 73.1091 130.391 70.816 130.447 68.8857Z" fill="#1D1B1C"/>
<path d="M88.0648 72.8486C88.4629 73.247 88.3717 73.6987 88.3732 74.2331C88.3741 74.3449 88.3749 74.4567 88.3758 74.5719C88.3772 74.809 88.3778 75.0461 88.3778 75.2832C88.3783 75.6439 88.3831 76.0045 88.3881 76.3652C88.3889 76.5958 88.3894 76.8264 88.3897 77.0569C88.3916 77.164 88.3935 77.2711 88.3954 77.3815C88.3895 78.1336 88.2366 78.5728 87.8007 79.1897C87.3487 79.4912 87.1615 79.4932 86.6289 79.4952C86.4931 79.4975 86.3573 79.4997 86.2174 79.5019C85.6083 79.4283 85.29 79.1858 84.8594 78.7609C84.4167 78.0528 84.5412 77.216 84.632 76.4155C85.0061 75.0025 85.8442 73.8477 87.0085 72.9807C87.3732 72.7982 87.6617 72.8234 88.0648 72.8486Z" fill="#201E1F"/>
</svg>
