<svg width="155" height="155" viewBox="0 0 155 155" fill="none" xmlns="http://www.w3.org/2000/svg">
<path d="M138.423 126.187C133.613 126.789 121.647 131.082 118.714 132.888C115.78 134.695 116.081 137.999 120.366 138.076C125.407 138.153 138.948 133.444 141.588 130.703C143.765 128.519 142.939 125.593 138.423 126.187Z" fill="#3D9CFB"/>
<path d="M32.3414 120.096C21.5796 128.897 26.5436 147.031 41.3661 146.807C54.9843 147.409 61.531 131.159 53.0312 121.447C50.393 118.646 46.7914 116.95 42.9522 116.699C39.1129 116.449 35.3213 117.662 32.3414 120.096ZM50.5453 142.484C46.3301 145.796 37.2282 147.077 31.3609 141.28C23.6872 132.788 30.3805 118.035 42.169 118.258C55.5093 118.436 59.4234 135.443 50.5453 142.515V142.484Z" fill="#3D9CFB"/>
<path d="M47.0866 122.049C45.4267 122.427 42.3464 133.714 40.9105 133.791C37.2203 133.938 32.7813 126.488 31.4997 133.714C31.1986 135.142 40.3083 140.932 42.8637 140.932C45.419 140.932 52.3902 125.531 51.6646 124.157C51.178 123.409 50.4899 122.815 49.6799 122.442C48.8698 122.069 47.9707 121.933 47.0866 122.049Z" fill="#3D9CFB"/>
<path d="M83.3474 73.8218C82.2975 74.3467 79.966 83.6031 78.9855 83.9042C77.6345 84.0586 75.5964 81.8275 74.1682 81.7271C73.3422 81.6654 72.74 83.0009 72.8172 84.3597C72.8944 85.4096 78.5995 88.8296 80.7148 88.4204C82.4441 88.0885 87.1148 75.7055 86.5126 74.8022C86.1587 74.3225 85.6605 73.9685 85.091 73.7921C84.5215 73.6157 83.9106 73.6261 83.3474 73.8218Z" fill="#3D9CFB"/>
<path d="M73.0418 64.3417C71.3125 64.4189 67.4756 59.9027 66.9507 64.6428C67.0279 65.7005 72.5941 68.9352 74.2461 68.7036C76.2765 68.4025 80.7928 56.143 80.1906 55.2398C79.5884 54.3365 78.3223 53.5954 77.5581 54.2593C76.6703 55.0313 74.0223 64.0406 73.0418 64.3417Z" fill="#3D9CFB"/>
<path d="M68.2239 49.071C70.3392 48.8162 75.0716 36.5027 74.4695 35.5994C73.8673 34.6962 71.7597 34.5495 70.7098 35.3756C69.8066 36.1476 67.7839 44.5007 66.7957 44.7091C65.1514 45.0488 60.7046 40.3396 60.7046 44.933C60.7046 45.9135 66.649 49.2563 68.2239 49.071Z" fill="#3D9CFB"/>
<path d="M118.559 88.1193C116.753 88.3431 112.013 82.9622 110.515 83.0008C109.017 83.0394 107.504 85.3169 107.28 87.6329C107.056 89.9489 117.316 98.8502 121.176 98.248C125.245 97.6458 133.969 75.5201 133.297 73.2658C132.625 71.0116 129.306 69.9539 127.576 70.8572C125.26 72.0924 120.366 87.8954 118.559 88.1193Z" fill="#3D9CFB"/>
<path d="M122.998 99.8539C117.339 103.251 106.415 101.274 104.115 94.0639C103.187 91.8634 102.903 89.4446 103.297 87.0891C103.69 84.7337 104.745 82.5384 106.337 80.7591C107.93 78.9794 109.995 77.6886 112.293 77.0373C114.591 76.3859 117.026 76.4006 119.316 77.0797C121.423 77.6819 121.493 76.107 119.763 75.6515C106.894 72.0539 96.001 86.4596 104.493 97.7695C106.979 101.081 112.09 102.888 115.625 102.965C124.264 103.204 126.001 98.0551 122.998 99.8539Z" fill="#3D9CFB"/>
<path d="M73.5668 141.99C71.9147 141.535 64.9203 145.148 65.4453 147.031C65.8931 148.575 72.7716 147.525 74.4701 146.429C74.8516 146.146 75.1446 145.759 75.3145 145.315C75.4844 144.871 75.5243 144.388 75.4296 143.922C75.3348 143.457 75.1092 143.027 74.7793 142.685C74.4494 142.343 74.0288 142.102 73.5668 141.99Z" fill="#3D9CFB"/>
<path d="M57.9178 43.2039C61.222 54.6914 60.0872 54.8303 73.5664 50.5766C77.2566 49.3722 76.3533 46.5853 75.5968 43.9527C75.2262 42.4087 73.6436 41.9996 73.9447 43.6517C74.4002 45.8364 75.5273 48.3918 73.0414 49.1484C64.5494 51.7963 62.3491 53.0084 61.1525 49.2178C57.8561 38.5024 57.9719 40.4401 67.923 36.9584C69.2046 36.5029 67.8535 35.4143 66.7187 35.8312C64.3178 36.6032 62.6579 37.1822 60.4809 37.9311C58.3038 38.6799 57.0918 40.5714 57.9178 43.2039Z" fill="#001434"/>
<path d="M80.2675 38.2323C83.1239 37.329 102.764 32.5889 104.269 32.1411C105.775 31.6934 106.825 30.1107 103.891 30.7129C101.575 31.1607 84.5907 34.6965 80.0436 36.6574C78.986 37.1051 78.8393 38.6877 80.2675 38.2323Z" fill="#001434"/>
<path d="M68.6792 70.7798C67.251 70.6331 66.2705 67.0201 65.1434 62.7355C63.9314 58.0263 66.8187 58.8755 74.0987 56.5594C75.5269 56.1117 74.4693 55.054 72.3617 55.5867C65.3673 57.316 62.2793 57.6943 63.7152 63.0366C65.7456 70.4093 66.3477 72.8179 69.8063 72.5168C72.9195 72.1708 75.9772 71.4368 78.9083 70.3321C83.2779 68.9038 82.0735 65.8158 81.1703 62.4344C80.6376 60.4735 79.3252 61.6084 79.7421 63.2605C80.1589 64.9126 81.2398 67.6995 78.6072 68.6028C76.214 69.4597 71.3117 71.1118 68.6792 70.7798Z" fill="#001434"/>
<path d="M94.6348 40.4942C102.54 38.765 103.127 38.3095 103.212 37.5606C103.281 37.0279 102.61 36.9585 101.938 37.1051C101.266 37.2518 95.9163 38.4639 94.4881 39.066C93.0599 39.6682 93.7316 40.7181 94.6348 40.4942Z" fill="#001434"/>
<path d="M74.6703 124.913C78.2138 127.569 103.435 120.652 107.774 119.571C115.733 117.641 125.484 115.881 131.475 111.851C135.867 108.964 140.53 103.212 142.908 98.4566C145.44 94.2414 144.954 90.9218 143.587 86.2666C139.218 71.444 132.679 46.238 127.105 28.7134C125.901 24.7222 124.851 21.3408 124.249 19.156C123.044 15.0952 121.161 14.3387 118.76 14.5626C116.953 9.52906 111.812 9.52906 107.396 10.2779C95.0436 12.4241 87.0996 14.3155 84.5983 12.9105C84.2973 12.6866 84.2201 12.3083 84.2201 11.3664C84.2573 9.98841 83.9039 8.62796 83.2008 7.44222C82.4977 6.25647 81.4735 5.29381 80.2465 4.66542C79.0197 4.03656 77.6401 3.76739 76.2669 3.88896C74.8937 4.01053 73.5828 4.5179 72.4855 5.3525C71.491 5.16227 70.4693 5.16227 69.4747 5.3525C64.889 6.47963 64.2096 10.9187 65.8617 14.0762C66.4639 15.2033 66.0161 15.5044 64.6574 16.1066C64.1324 16.3382 61.3532 17.7664 60.5194 19.1174C29.5233 25.9651 38.9495 28.752 49.5338 67.4991C51.2785 73.8604 60.5194 103.915 61.8859 108.801C63.9935 114.599 64.5956 122.42 68.5792 123.176C69.6446 125.415 72.2925 125.716 74.6703 124.913ZM128.765 111.295C132 106.779 133.829 100.973 134.408 93.9867C134.47 93.2147 134.331 92.1802 135.234 92.2574C137.794 92.6536 140.28 93.4345 142.607 94.5734C141.58 98.5724 136.168 106.817 128.796 111.295H128.765ZM117.023 14.7942C114.83 15.2342 105.782 16.7242 99.4209 18.0289C99.0517 17.4371 98.5964 16.9037 98.0699 16.4462C111.974 13.4431 115.942 12.8796 117.054 14.7633L117.023 14.7942ZM75.5659 5.91607C76.3919 5.72084 77.2519 5.71896 78.0788 5.91058C78.9057 6.10221 79.6772 6.48216 80.3332 7.02084C80.9892 7.55953 81.5119 8.24239 81.8607 9.01623C82.2095 9.79007 82.3749 10.634 82.3441 11.4822C82.2669 14.717 84.8994 15.3963 88.0569 15.1647C91.917 15.1647 99.4981 16.9712 98.3632 21.9429C97.9927 23.7417 81.1397 26.8297 74.292 28.3352C67.591 29.7634 65.8617 30.1417 65.1901 28.7134C62.9281 23.7417 66.9194 20.2831 69.7758 19.3027C72.4855 18.4071 74.2148 16.2146 72.6322 13.5898C71.0496 10.965 71.3893 7.01232 75.5967 5.88519L75.5659 5.91607ZM68.0465 15.8441C68.6487 14.0376 67.2745 13.0649 66.9966 11.3278C66.6183 9.15078 68.5406 7.0432 70.9029 6.966C69.4747 9.15078 69.7758 12.1616 70.9801 14.3387C71.8834 15.9213 71.2812 16.369 70.0769 17.0484C68.1237 17.4267 65.7922 17.9517 64.0552 18.2527C65.4448 17.6969 67.4752 17.0947 68.0774 15.8132L68.0465 15.8441ZM82.4136 28.559C95.0359 26.0732 101.845 25.2008 100.17 19.7582C105.666 18.631 114.467 17.1256 116.05 16.9017C119.81 16.2996 121.392 15.7669 122.442 19.8354C124.928 28.3274 129.969 44.362 131.922 51.7347C140.963 85.3865 142.831 88.8374 142.831 92.5893C140.686 91.6723 138.439 91.0166 136.138 90.6361C133.351 90.1035 132.447 91.3078 132.378 95.6002C130.571 95.3763 128.688 94.998 128.842 97.1442C129.066 100.834 127.939 109.496 122.141 114.298C120.508 114.766 118.851 115.145 117.177 115.433C104.053 117.911 88.8135 123.555 76.0985 123.778C75.3265 123.778 75.6894 123.516 70.8335 108.13C64.2096 85.8652 55.3933 59.6787 50.0665 37.2596C48.26 29.7325 55.1077 29.2075 62.7042 27.4782C63.8622 33.8396 68.3553 31.3074 82.4444 28.5282L82.4136 28.559ZM45.3572 35.1057C43.9522 28.2811 46.5229 27.015 63.1134 23.1396C62.8294 23.864 62.6525 24.626 62.5884 25.4015C54.2353 27.8797 46.631 27.7176 48.4375 37.3599C50.244 47.0023 73.4583 123.207 73.4969 123.284C72.5164 123.508 71.1809 123.585 70.5632 122.906C63.3759 96.1251 48.4221 50.0517 45.334 35.0748L45.3572 35.1057Z" fill="#001434"/>
<path d="M142.26 126.419C141.735 122.559 137.674 121.146 130.973 121.601C124.503 122.126 105.497 126.233 103.667 126.789C103.181 127.004 102.743 127.315 102.381 127.703C102.019 128.092 101.739 128.551 101.559 129.051C93.6617 130.858 72.0609 136.424 68.1545 143.943C69.4227 143.165 70.7881 142.558 72.2153 142.137C80.4835 135.621 103.258 130.325 104.64 130.325C109.357 129.715 111.912 138.377 107.805 141.01C105.998 142.137 84.1814 146.877 73.4196 146.877C72.03 147.335 70.5879 147.615 69.1273 147.711C73.6358 151.007 100.139 145.348 107.048 143.194C107.576 143.403 108.141 143.505 108.708 143.495C110.437 143.495 117.131 141.311 119.84 140.184C123.909 144.252 142.646 135.266 145.046 132.463C147.301 129.653 146.397 126.419 142.26 126.419ZM118.86 138.601C115.991 139.745 113.052 140.702 110.059 141.465C113.603 137.412 111.155 128.341 104.941 128.341C109.882 127.368 139.164 118.814 140.453 126.534C135.659 127.994 117.81 133.259 118.86 138.601ZM143.464 131.529C140.53 134.015 132.779 137.095 127.738 138.601C125.63 139.28 122.697 139.805 121.122 138.755C117.053 136.046 139.55 128.217 142.337 128.217C145.124 128.217 145.124 130.101 143.464 131.529Z" fill="#001434"/>
<path d="M87.4855 62.288C88.9137 62.1028 105.543 57.1696 106.678 56.884C107.573 56.5829 107.65 55.6102 106.747 55.6102C104.871 55.6102 100.502 57.3395 94.6343 58.8449C92.4573 59.3698 88.5432 60.1959 87.2616 60.7981C85.9801 61.4002 86.0496 62.5042 87.4855 62.288Z" fill="#001434"/>
<path d="M77.102 13.5588C81.0932 13.636 80.4911 7.15884 76.577 8.29369C75.9389 8.43312 75.3744 8.80213 74.9906 9.33058C74.6068 9.85903 74.4305 10.5101 74.4953 11.16C74.5601 11.8099 74.8615 12.4133 75.342 12.8555C75.8226 13.2978 76.4489 13.5481 77.102 13.5588ZM77.4031 9.6447C78.6074 9.6447 78.7618 11.6751 77.5574 11.9607C75.6738 12.4934 75.3032 9.6447 77.4031 9.6447Z" fill="#001434"/>
<path d="M87.2617 82.6998C86.5824 80.9705 85.6097 81.4954 85.8335 82.3215C86.6673 85.2474 87.7172 87.7255 84.7836 88.4203C82.1439 89.4047 79.424 90.159 76.6544 90.6746C73.6127 91.3077 72.941 89.8563 71.011 81.6498C70.5324 78.9015 71.4665 78.7471 79.3641 76.3848C80.7151 76.0065 80.8695 75.6127 80.5684 75.3271C79.534 74.3312 74.3229 76.3076 72.2925 77.1336C70.2621 77.9596 68.9806 78.7857 69.5056 81.7656C69.9542 84.303 70.6338 86.7941 71.536 89.2078C73.08 93.0215 74.4619 93.423 85.1542 89.81C88.5201 88.6365 88.5047 86.0117 87.2617 82.6998Z" fill="#001434"/>
<path d="M90.3496 40.8725C89.5159 40.0387 87.7866 40.7181 81.0856 42.6713C79.8812 43.0496 80.3136 44.1072 81.3094 44.1072C82.3053 44.1072 86.258 42.6713 89.4387 41.8452C90.4191 41.5982 90.5735 41.0964 90.3496 40.8725Z" fill="#001434"/>
<path d="M48.8935 112.044C44.3447 109.421 39.016 108.489 33.847 109.411C31.9796 108.252 29.862 107.556 27.671 107.381C27.4339 105.83 26.7956 104.368 25.8192 103.14C24.8428 101.911 23.5624 100.96 22.1048 100.379C12.9256 96.3181 4.72692 105.196 8.78768 113.773C10.4475 117.309 13.4197 119.494 16.7625 119.494C16.9981 120.556 17.4049 121.573 17.9668 122.505C16.6158 128.897 17.2952 134.695 20.3755 138.832C26.9993 147.78 33.6154 150.49 40.6175 150.49C63.5693 150.49 67.4602 121.895 48.8935 112.044ZM16.5386 117.61C9.91481 117.162 7.22823 107.929 11.9529 103.32C16.0986 99.2671 25.077 101.738 25.795 107.458C20.4527 108.13 16.4614 112.468 16.5386 117.61ZM31.0601 110.091C25.656 111.635 20.9777 115.055 18.8701 120.019C16.7702 112.569 24.0657 107.126 31.0601 110.091ZM23.7646 139.96C15.4115 131.305 18.1213 113.997 33.546 111.218C38.5273 110.41 43.6358 111.282 48.0674 113.696C30.8594 108.168 17.5422 124.496 23.7646 139.96ZM48.7391 147.031C37.792 151.532 28.8058 147.178 25.1928 138.454C21.5026 126.588 28.9062 114.453 41.9686 114.453C60.0026 114.229 65.6306 140.091 48.7391 147.031Z" fill="#001434"/>
<path d="M85.0768 54.8613C83.803 55.3862 83.803 56.3667 85.2312 56.3667C86.6594 56.3667 94.0321 53.8113 96.8962 52.8309C99.7604 51.8504 115.023 48.0908 115.625 47.7897C116.227 47.4886 116.683 46.0604 113.819 46.5853C107.596 47.7048 85.54 54.676 85.0768 54.8613Z" fill="#001434"/>
<path d="M100.502 77.288C98.5488 77.8129 95.8699 78.9401 94.4881 79.3878C93.1062 79.8356 93.2837 80.9318 94.6347 80.8932C95.9857 80.8546 100.201 79.0867 100.88 78.7857C101.56 78.4846 102.463 76.7553 100.502 77.288Z" fill="#001434"/>
<path d="M101.691 71.7141C98.5331 72.8489 94.0169 74.0301 92.5887 74.7249C91.1604 75.4197 91.9093 76.2689 92.7431 76.2689C93.5768 76.2689 98.9577 74.3235 102.293 73.1809C107.002 71.5828 114.645 69.9462 116.189 69.3209C117.733 68.6955 118.073 67.0666 115.664 67.8926C113.255 68.7187 106.446 70.1392 101.691 71.7141Z" fill="#001434"/>
</svg>
