<svg width="155" height="155" viewBox="0 0 155 155" fill="none" xmlns="http://www.w3.org/2000/svg">
<path d="M37.4191 103.458C37.5589 103.459 37.6959 103.419 37.8134 103.343C37.9308 103.267 38.0237 103.158 38.0807 103.031C38.1372 102.903 38.1551 102.761 38.1322 102.623C38.1093 102.485 38.0466 102.357 37.9518 102.254C36.0638 100.093 34.47 97.6919 33.2116 95.113C34.7479 95.8803 36.3597 96.4858 38.0212 96.9195C39.0789 96.8423 39.2256 95.5608 38.3995 95.3755C36.2887 94.7596 34.2474 93.9265 32.3084 92.8896C29.5282 86.4835 27.9226 79.6297 27.5683 72.6553C31.5117 75.0513 35.8353 76.7562 40.3527 77.6965C40.5524 77.7075 40.7485 77.641 40.9004 77.511C41.0523 77.3809 41.1481 77.1973 41.168 76.9984C41.1879 76.7994 41.1303 76.6004 41.0072 76.4429C40.8841 76.2853 40.705 76.1813 40.5071 76.1525C35.8983 75.1577 31.4953 73.3767 27.4911 70.8874C27.2126 60.9469 29.2753 51.0802 33.5127 42.0839C39.5267 46.5924 47.6559 50.051 55.9009 52.0119V53.2857C55.9009 53.664 57.445 53.664 57.445 53.2857V52.3129C67.9906 54.5209 81.1147 54.05 88.5877 52.4596C88.7421 53.3629 88.7421 53.4401 89.1899 53.5868C89.6377 53.7334 89.7921 53.2857 89.8693 52.0427C94.5554 50.9897 99.0054 49.0762 102.993 46.3994C103.679 48.7154 104.195 51.0793 104.537 53.471C105.061 53.4852 105.583 53.4094 106.081 53.2471C105.641 50.6385 105.038 48.0601 104.275 45.527C106.516 43.8138 108.172 41.4487 109.015 38.7565C109.085 38.5326 107.664 37.7066 107.664 38.0771C107.664 40.9567 104.244 43.4812 103.75 43.9444C101.043 36.3207 96.5415 29.4602 90.6258 23.9417C91.5 22.9408 91.9826 21.6575 91.9846 20.3287C91.9846 20.0276 90.2475 18.8233 90.4405 19.7265C90.5187 20.8774 90.1385 22.0124 89.3829 22.884C82.8225 17.1982 75.1316 12.9673 66.8171 10.4702C60.3388 11.6272 54.276 14.4591 49.2308 18.6843C44.2899 14.4537 48.1037 13.0795 46.6754 12.2149C44.7917 11.7671 44.7917 15.2257 45.5483 16.5073C46.1546 17.7151 46.9973 18.7888 48.0265 19.6648C41.734 25.3531 36.6669 32.2643 33.1344 39.9763C30.139 37.529 23.963 30.7122 24.9357 27.0374C25.1596 26.1342 23.5847 27.4157 23.5847 27.8094C23.5847 32.8506 27.6455 37.4364 32.5323 41.3504C28.4742 50.3424 26.2486 60.0529 25.9856 69.9147C17.262 63.9703 12.2208 56.0186 12.1513 53.139C12.1498 53.0421 12.1282 52.9467 12.0876 52.8587C12.047 52.7707 11.9885 52.6922 11.9158 52.6282C11.8431 52.5642 11.7578 52.5162 11.6654 52.4872C11.573 52.4581 11.4755 52.4487 11.3793 52.4596C9.20221 55.7715 16.0113 65.1746 25.9702 71.644C25.9657 78.4746 27.2762 85.2421 29.8302 91.5772C23.438 87.887 16.8914 82.6219 14.7915 79.3178C14.6809 79.1481 14.508 79.0288 14.3101 78.9855C14.1123 78.9421 13.9053 78.9783 13.7339 79.0862C12.9619 82.2514 22.9131 89.6163 30.8107 93.8315C32.5126 97.357 34.7409 100.603 37.4191 103.458ZM57.4913 50.6531C57.9517 42.457 59.1847 34.3225 61.1737 26.3581C67.649 28.4583 74.5386 28.9485 81.2459 27.7863C86.511 36.9654 87.4915 45.8435 88.2403 50.6531C78.1038 52.7573 67.6432 52.7573 57.5067 50.6531H57.4913ZM89.491 24.9298C95.4206 30.3729 99.8724 37.2312 102.43 44.8631C98.5586 47.4023 94.278 49.254 89.7766 50.3366C89.5527 45.4498 87.669 36.2706 82.7822 27.547C85.492 26.9602 87.8234 26.2114 89.491 24.9298ZM88.3638 23.8799C86.4769 25.1003 84.3447 25.891 82.1183 26.1959C79.1972 21.2147 75.3411 16.8448 70.7621 13.3266C77.158 15.8667 83.0978 19.4311 88.3484 23.8799H88.3638ZM66.9252 12.1454C72.391 15.9133 77.0216 20.7673 80.528 26.4044C74.1971 27.3013 67.7458 26.7738 61.6447 24.8604C63.2427 18.7615 65.1805 13.8747 66.9098 12.1454H66.9252ZM65.0415 12.0682C63.3894 14.4769 61.6601 19.0626 60.2319 24.4744C56.7904 23.4221 53.5401 21.8243 50.605 19.742C55.7774 15.3801 60.9653 12.6704 65.0261 12.0682H65.0415ZM49.4006 20.7147C52.6149 22.9246 56.1369 24.6493 59.8536 25.8331C57.8403 33.8478 56.5816 42.0333 56.0939 50.2826C47.8026 48.3989 40.0825 45.2414 34.2616 40.7251C38.0005 33.1639 43.1313 26.3752 49.3852 20.7147H49.4006Z" fill="#3D9CFB"/>
<path d="M83.6082 74.5003C84.7353 74.5003 85.2602 73.4504 85.7929 73.3732C86.3256 73.296 86.9973 74.6702 87.97 74.5775C89.2515 74.454 90.0776 72.6938 91.1275 73.296C93.0884 74.4231 93.9916 72.663 95.2655 72.771C96.5393 72.8791 96.4698 71.7906 95.3427 71.4895C93.7986 71.0417 92.934 72.3156 92.0307 71.945C91.1275 71.5744 90.8264 71.3428 90.0776 71.4895C89.3287 71.6362 88.2711 72.8482 87.8233 72.6938C87.3755 72.5394 86.7657 71.4895 85.7929 71.7134C84.8202 71.9373 84.1331 73.1493 83.6854 73.1493C83.0832 73.2188 82.4038 72.6938 82.1027 73.1493C81.8017 73.6048 82.5428 74.5003 83.6082 74.5003Z" fill="#3D9CFB"/>
<path d="M83.1609 88.4195C83.6858 87.6475 83.9869 87.2846 84.3575 87.2151C85.1295 86.9835 85.8629 87.5857 86.7661 87.5162C87.2911 87.439 87.6694 86.8369 87.8933 86.613C88.2715 86.0108 88.7965 86.2347 89.4759 86.3814C91.5294 86.8986 91.1511 85.7406 94.5171 86.1575C95.7909 86.3119 94.741 84.2815 92.7878 84.6135C92.0158 84.683 90.9041 85.1384 90.1552 85.0612C88.6112 84.8914 87.7003 84.1889 86.4651 86.0417C85.7934 86.0417 84.921 85.5862 84.2108 85.7406C83.5936 85.8433 83.0421 86.1857 82.6762 86.6933C82.3104 87.2008 82.1599 87.8324 82.2576 88.4503C82.307 88.5269 82.3753 88.5895 82.4559 88.6319C82.5365 88.6744 82.6267 88.6953 82.7177 88.6928C82.8089 88.6894 82.8977 88.6625 82.9754 88.6146C83.0531 88.5667 83.117 88.4995 83.1609 88.4195Z" fill="#3D9CFB"/>
<path d="M94.6633 77.2097C93.3895 77.1325 92.934 78.7537 92.0308 78.8618C91.1275 78.9699 90.3787 77.8814 88.9428 77.8814C87.5068 77.8814 85.4842 79.4254 85.6308 80.815C85.708 81.1933 86.0863 81.4943 86.6113 80.9694C89.5758 78.0049 90.4713 80.6297 92.1003 80.5216C94.4163 80.1897 94.0148 78.0743 95.335 79.3868C96.879 80.4521 97.8903 79.3868 98.1914 79.6184C98.4153 79.6878 98.6469 79.9889 98.9634 80.0661C99.8667 80.3672 100.392 80.2205 100.616 79.8422C100.917 79.3173 100.091 79.464 99.2645 78.414C98.2146 77.3641 97.3345 78.414 96.7014 78.3368C96.2459 78.2596 95.8677 77.2097 94.6633 77.2097Z" fill="#3D9CFB"/>
<path d="M117.909 90.2955C117.909 90.2955 120.997 59.9865 125.428 55.6169C122.34 55.6169 119.337 55.9952 117.384 56.0724C118.658 60.7045 115.724 88.2651 114.751 95.4448C116.782 93.9085 117.909 90.2955 117.909 90.2955Z" fill="#3D9CFB"/>
<path d="M89.0198 58.7821C88.0471 60.1331 87.5916 60.5809 86.6189 60.882C85.6461 61.183 80.0722 61.1136 77.1386 60.9592C72.0202 61.2602 74.3517 56.3734 68.8627 56.8212C48.1497 57.1686 46.6521 56.3889 45.9186 61.0364C43.5177 76.4765 41.7035 88.3886 40.2058 105.72C39.9202 109.024 41.5568 109.271 42.6145 109.325C56.5106 110.051 85.7156 109.928 104.143 110.229C109.547 110.229 109.486 107.974 109.632 106.168C109.632 106.075 113.168 71.4893 113.994 60.9592C114.496 55.972 111.555 57.763 92.7872 56.8212C89.7764 56.6745 90.0003 57.4234 89.0198 58.7821ZM105.271 68.6329V70.7405C106.097 71.1883 108.127 71.2655 107.98 72.547C107.826 75.7817 106.853 85.6711 105.796 94.5878C104.823 103.08 104.252 103.01 102.638 103.613C102.113 104.886 102.337 105.867 88.7959 105.342C71.9584 104.678 52.3958 105.55 49.9871 104.817C48.2501 104.284 49.3078 96.9887 49.3078 96.9887C49.3078 96.9887 48.2501 96.842 48.3273 96.0855C48.7828 91.9552 50.8827 70.8177 51.2609 67.8841C53.0674 64.1167 74.5061 64.2711 78.4896 73.2881C84.5885 63.97 99.1794 65.4754 105.271 68.6329Z" fill="#3D9CFB"/>
<path d="M99.2569 92.4031C98.2069 92.4031 98.9635 91.3918 96.8482 92.0248C96.2537 92.3259 96.3232 91.0212 95.1189 90.6738C93.9686 90.4422 93.9223 91.1524 93.158 90.8977C90.5255 89.2533 90.0237 91.4226 89.3983 91.4226C88.773 91.4226 87.5918 89.8786 86.7658 90.0716C85.4052 90.4941 84.1679 91.2413 83.1605 92.2487C82.3885 93.1519 83.0061 93.5302 83.7549 93.2291C84.5038 92.9281 86.1636 91.6851 86.7658 91.8009C87.8466 92.0711 88.9583 94.4026 90.6799 92.3259C91.6063 91.2142 91.8147 92.5189 93.3896 92.627C94.2542 92.627 94.5631 92.0557 94.8873 92.5498C95.0761 92.9609 95.4204 93.2803 95.8446 93.4376C96.2694 93.5933 96.7387 93.5739 97.1493 93.3835C97.5276 93.3063 97.6742 93.5302 97.8286 93.6074C98.1992 93.9857 98.5003 93.9085 99.1797 93.7541C99.859 93.5997 100.307 94.1401 100.724 93.9857C101.364 93.6923 100.685 92.2487 99.2569 92.4031Z" fill="#3D9CFB"/>
<path d="M124.756 97.8225C127.759 95.4139 128.061 95.2594 128.061 95.2594C128.061 95.2594 134.908 86.2347 137.919 85.6325C133.557 85.4858 133.179 85.4858 133.179 85.4858C133.179 85.4858 125.66 94.6573 124.756 97.8225Z" fill="#3D9CFB"/>
<path d="M55.3218 86.6824C56.4566 86.7596 56.8658 85.1384 57.2054 85.1384C57.5451 85.1384 58.7495 86.3427 59.3902 86.1883C60.031 86.0339 60.4402 85.2156 60.8184 85.1384C61.1967 85.0612 61.7217 86.9912 64.0532 86.6824C64.5781 86.6207 64.9564 85.8564 63.5977 85.4858C62.6944 85.2542 62.2467 83.6793 60.9651 83.6021C59.9847 83.5249 59.6836 84.652 59.1586 84.652C58.6337 84.652 58.1087 83.301 56.9816 83.5249C55.8544 83.7488 55.8544 84.9531 55.2523 85.0689C54.6501 85.1847 53.9553 83.1775 53.523 84.1657C53.0906 85.1539 54.1946 86.6207 55.3218 86.6824Z" fill="#3D9CFB"/>
<path d="M54.5733 72.3928C55.8548 73.0721 56.5265 71.42 56.8893 71.42C57.2522 71.42 58.4333 73.0721 59.5219 73.0721C60.4251 73.0721 60.8806 72.0994 61.2512 72.0145C61.6217 71.9295 62.7952 73.0721 63.5054 72.9949C64.2157 72.9177 65.0494 71.7134 65.5358 71.7134C66.2098 71.7829 66.8559 72.016 67.4195 72.3928C67.9445 72.6938 68.6779 72.1843 67.875 71.3428C67.0721 70.5013 65.7674 70.0613 65.0108 70.3624C64.2543 70.6635 63.5054 71.7211 63.1349 71.5667C62.4478 71.2811 61.8533 70.5245 61.174 70.6635C60.3556 70.8333 60.0468 71.7134 59.6299 71.6439C59.2131 71.5744 57.9701 69.8374 56.843 69.9146C55.9398 69.9841 55.7931 71.3428 54.527 71.1189C53.5929 70.9645 53.7473 71.9527 54.5733 72.3928Z" fill="#3D9CFB"/>
<path d="M70.4457 78.9006C69.7278 79.6185 69.3418 77.2099 67.5121 78.3756C67.211 78.5223 66.9717 78.7616 66.5317 78.2984C63.4436 75.1023 62.4246 79.0704 61.1276 77.7734C59.5836 76.4919 58.3947 76.7775 57.2676 78.1517C57.1806 78.2325 57.1214 78.3387 57.0984 78.4552C57.0753 78.5716 57.0896 78.6924 57.1393 78.8002C57.1889 78.908 57.2713 78.9974 57.3748 79.0556C57.4782 79.1139 57.5974 79.1379 57.7153 79.1244C58.2403 78.9623 58.5414 78.5223 59.1435 78.5223C59.7457 78.5223 60.2707 79.6571 61.6294 79.6571C62.9881 79.6571 63.8837 78.5223 64.4086 78.5995C64.9336 78.6767 65.8368 80.1435 66.7247 80.2593C67.6125 80.3751 68.2687 79.4178 68.6084 79.6571C69.1719 80.0122 70.1524 81.2706 71.0942 80.3288C71.542 79.8038 72.6382 81.232 73.6496 81.3864C74.0973 81.4559 74.2517 81.1548 73.1246 80.0277C71.8739 78.7153 71.1946 78.4142 70.4457 78.9006Z" fill="#3D9CFB"/>
<path d="M128.964 61.6384C122.495 72.5469 114.968 103.458 114.968 103.458C114.968 103.458 113.686 113.764 113.424 116.621C118.828 98.193 131.628 76.4764 137.95 71.7903C136.527 71.6017 135.094 71.5011 133.658 71.4892C127.681 81.0971 122.268 91.0445 117.446 101.281C121.059 84.0498 134.43 62.1634 134.43 62.1634C132.633 61.7854 130.8 61.6093 128.964 61.6384Z" fill="#3D9CFB"/>
<path d="M67.0562 90.2183C65.9291 90.2183 65.4041 91.4226 64.9564 91.3531C64.3182 91.0581 63.6634 90.8004 62.9955 90.5811C62.3238 90.5811 61.49 91.2605 61.1195 91.2605C60.7489 91.2605 60.139 90.5811 59.5755 90.5811C58.8961 90.5811 57.9157 91.6388 57.6146 91.6388C57.3135 91.6388 56.8426 90.5811 55.9625 90.5811C54.7581 90.5039 54.0093 91.7854 53.3299 91.7854C52.805 91.7854 52.28 91.4072 52.0484 91.7854C51.8168 92.1637 52.4267 92.9126 53.4843 92.9898C54.542 93.067 55.2136 92.0093 55.5842 91.9398C55.9548 91.8704 56.6418 93.2908 57.4679 93.2136C58.2939 93.1364 58.9733 92.0865 59.4983 92.0865C60.0232 92.0865 60.5482 92.7659 61.2276 92.7659C61.7525 92.7659 62.733 91.7854 63.1113 91.9939C65.9214 93.7849 65.9059 91.77 67.0948 91.6233C67.697 91.5461 69.5035 93.7232 70.1056 92.9743C70.5225 92.5497 68.716 90.2183 67.0562 90.2183Z" fill="#3D9CFB"/>
<path d="M56.2253 130.386C54.496 131.065 51.6395 130.988 46.4517 130.988C35.7053 130.988 32.1155 131.583 34.941 129.112C35.2421 128.811 34.941 128.587 34.3389 128.734C33.5634 129.002 32.918 129.554 32.5324 130.278C31.7604 132.007 33.2117 132.308 41.8582 132.386C50.8907 132.386 55.0209 132.54 57.0513 131.181C58.109 130.625 57.2829 130.015 56.2253 130.386Z" fill="#001434"/>
<path d="M106.251 70.3621C106.251 68.5016 106.398 67.9997 104.668 67.3513C96.7709 64.2632 83.307 64.4176 78.6441 72.1686C75.3322 66.2241 67.2879 64.6492 60.9652 64.7959C56.5261 64.8731 51.1838 65.5679 50.8133 67.8068C50.5122 69.6827 47.841 94.881 47.8796 96.5409C47.8796 97.143 48.0263 97.3129 48.3274 97.4441C47.4936 102.447 46.4128 105.388 50.5122 105.867C54.1175 106.322 65.9523 106.546 72.3214 105.643C72.7948 105.596 73.2707 105.702 73.6801 105.944C75.8572 107.449 77.2931 106.322 79.1691 105.867C84.0559 106.091 99.8589 106.577 101.434 106.245C102.723 105.967 103.75 105.041 103.842 103.991C104.19 103.86 104.501 103.649 104.749 103.373C104.998 103.098 105.177 102.767 105.271 102.408C106.475 98.4168 108.884 77.287 108.884 72.5469C108.791 71.3425 108.359 70.4084 106.251 70.3621ZM50.8133 102.061C52.3573 102.663 54.2719 101.76 56.6805 101.536C63.2194 100.856 68.7856 101.389 74.2823 103.643C52.118 103.335 50.8133 104.377 50.8133 102.061ZM73.9735 102.061C62.7099 97.2434 54.1097 100.779 51.7088 100.517C50.4504 100.308 51.5776 99.2738 51.7088 97.5136C59.3825 97.0581 67.5813 95.2516 75.2473 101.798C75.4866 102.107 75.4943 102.678 73.9812 102.061H73.9735ZM49.2692 96.1935C49.3464 93.4837 51.0757 76.0363 51.8246 68.8181C51.8583 68.43 52.0082 68.0611 52.2547 67.7595C52.5012 67.458 52.8329 67.2377 53.2065 67.1274C60.4556 65.151 73.1011 65.8922 77.2777 72.848C77.9879 73.9596 77.7949 73.5736 76.4439 92.7812C76.2972 94.7344 76.3744 94.8888 76.745 94.9582C77.1156 95.0277 77.0924 94.2789 77.2777 93.0823C78.6596 83.741 78.5901 75.1563 79.9102 72.9174C83.4383 66.5252 95.3504 65.622 103.75 68.5556C105.031 69.0111 104.73 69.3816 104.73 70.0996C104.73 76.1213 102.847 91.461 101.719 98.7565C101.496 100.416 100.816 99.8914 100.175 99.5903C93.3277 96.4251 81.9715 96.6567 76.7064 101.088C67.2879 93.4528 58.0315 95.9387 49.3464 96.1626L49.2692 96.1935ZM77.7795 103.342C84.9205 99.8837 92.8954 102.362 99.2876 103.721C97.6895 104.06 96.4852 103.952 77.8181 103.311L77.7795 103.342ZM103.765 102.061C102.715 104.917 90.0544 97.4287 79.061 101.289C80.5433 99.5131 89.5294 96.5177 100.5 101.366C101.781 101.96 102.816 101.667 103.132 100.007C104.213 94.8347 106.066 79.0935 106.367 71.8752C107.27 71.9524 107.27 72.0219 107.27 72.5546C107.247 77.1326 105.124 98.2702 103.765 102.061Z" fill="#001434"/>
<path d="M83.9095 115.347C87.2908 115.494 85.191 113.919 80.0494 113.764C74.9079 113.61 60.3401 113.162 55.6772 113.463C51.0142 113.764 50.937 114.969 52.8207 114.969C54.7044 114.969 80.5281 115.27 83.9095 115.347Z" fill="#001434"/>
<path d="M67.103 123.677C66.7247 123.677 65.4509 123.531 64.015 123.453C65.0649 122.928 66.6475 122.172 67.103 121.948C68.4463 121.377 67.7978 119.462 60.8575 123.376C27.8773 122.697 35.1496 123.947 36.1532 121.878C36.3076 121.647 35.6977 121.245 34.3544 121.724C33.488 122.101 32.6562 122.553 31.8686 123.075C28.5567 123.152 27.4373 123.168 26.6035 123.608C26.009 123.917 25.7002 124.735 26.7579 124.735H29.3904C26.7579 126.611 27.5067 126.989 28.41 126.989C29.3132 126.989 31.1892 125.484 32.3241 124.735C39.0174 124.658 49.9258 124.658 58.3484 124.804C57.5764 125.26 56.3952 126.009 56.6191 126.387C56.843 126.765 57.8235 126.989 61.2512 124.882C63.8065 124.959 65.8369 124.959 68.1992 125.036C70.191 125.121 69.419 123.847 67.103 123.677Z" fill="#001434"/>
<path d="M88.8736 118.127C91.1896 116.776 89.8541 116.027 88.6497 116.621C87.4454 117.216 86.9899 117.455 85.7933 118.127C85.5617 118.127 76.3131 117.825 73.8272 117.98C71.3413 118.134 69.6198 119.331 71.874 119.408C74.1283 119.485 78.8221 119.632 82.9292 119.632C80.6131 120.836 77.8339 122.45 76.3131 123.245C74.7922 124.04 76.5369 124.789 78.4901 123.77C80.4433 122.751 83.0064 121.361 86.0944 119.632C89.1824 119.632 91.73 119.825 93.8145 119.856C95.8989 119.887 95.3585 118.358 92.4634 118.204C91.5834 118.204 91.2823 118.127 88.8736 118.127Z" fill="#001434"/>
<path d="M131.295 101.428C127.991 102.408 121.823 107.751 120.24 109.627C116.303 114.32 128.501 104.863 132.052 102.555C133.727 101.467 134.607 100.455 131.295 101.428Z" fill="#001434"/>
<path d="M110.011 56.5973C107.602 56.5201 95.8676 56.1496 91.4286 56.1496C88.4101 56.1496 88.5953 60.0096 86.619 60.2103C84.2026 60.4651 76.3127 60.4342 75.4095 60.0559C74.7833 59.7036 74.2837 59.1635 73.9812 58.5119C72.7769 56.4815 72.1747 56.0338 68.114 56.0338C62.8489 56.0338 54.048 56.0338 49.1535 56.5587C46.2971 56.8598 45.5482 59.0446 45.2471 61.1444C44.7222 64.5336 40.2059 94.6187 39.6038 105.983C39.4494 109.14 40.3758 109.843 42.2363 109.889C45.7721 110.113 92.1852 110.715 103.92 110.715C108.282 110.715 110.157 110.19 110.459 105.905C110.574 104.315 114.697 64.9196 114.828 60.7739C114.828 56.7517 112.419 56.6745 110.011 56.5973ZM109.03 105.867C108.806 108.499 108.127 109.179 105.271 109.325C101.735 109.48 45.8261 108.955 42.4602 108.499C41.3331 108.353 41.032 108.422 41.1864 106.091C41.7113 94.8117 46.2199 64.796 46.7525 61.4146C47.1231 58.7821 48.0264 58.2494 49.3851 58.1027C54.9513 57.5778 63.6749 57.5778 69.6194 57.5778C73.4794 57.5778 72.2288 60.1408 74.8845 61.3374C76.3204 61.9859 85.0364 61.7157 86.9201 61.5613C89.6221 61.3374 89.4754 57.5778 91.5521 57.5006C97.265 57.4234 107.648 57.8788 110.08 57.9483C116.117 58.1336 113.053 58.0564 109.03 105.867Z" fill="#001434"/>
<path d="M80.4506 59.1529C82.481 59.3073 82.8593 56.2964 80.7517 56.2964C78.4897 56.2964 78.343 59.0062 80.4506 59.1529Z" fill="#001434"/>
<path d="M103.094 124.071C104.445 123.299 105.348 122.866 106.475 122.187C107.602 121.508 108.127 119.03 107 119.632C105.873 120.234 101.812 122.419 100.986 122.944C100.16 123.469 101.735 124.82 103.094 124.071Z" fill="#001434"/>
<path d="M96.3929 127.538C96.8292 127.524 97.2584 127.424 97.6559 127.244C98.0535 127.064 98.4113 126.807 98.709 126.488C100.145 124.079 97.1649 124.38 96.0069 125.963C95.4202 126.627 95.7213 127.468 96.3929 127.538Z" fill="#001434"/>
<path d="M89.6997 131.521C91.061 130.899 92.37 130.168 93.6137 129.336C94.4398 128.734 94.3858 126.927 93.3127 127.228C91.8721 127.782 90.5077 128.516 89.2519 129.413C88.6497 129.791 88.6497 131.891 89.6997 131.521Z" fill="#001434"/>
<path d="M134.986 93.9085C129.281 97.3285 125.915 102.902 134.831 95.8616C136.792 94.3408 137.997 92.102 134.986 93.9085Z" fill="#001434"/>
<path d="M39.0792 119.184C42.3139 119.184 46.2975 119.107 50.5126 119.184C49.9877 119.555 48.7061 120.311 48.9686 120.728C49.2311 121.145 50.3968 121.5 53.1066 119.184C56.8662 119.253 60.5564 119.253 62.9574 119.331C65.3583 119.408 65.2734 117.787 61.0042 117.787C57.6923 117.717 58.3717 117.717 55.438 117.717C56.8662 116.582 56.6424 116.173 55.963 116.135C55.1369 115.988 54.4576 116.358 52.5044 117.717C47.9187 117.717 44.3057 117.64 40.8471 117.787C37.3885 117.933 36.9948 119.184 39.0792 119.184Z" fill="#001434"/>
<path d="M149.499 94.6574C148.011 94.1379 146.444 93.8768 144.867 93.8853C142.76 91.4767 143.061 88.0953 143.061 86.891C143.061 85.6866 143.833 84.3279 135.094 84.4823C144.358 72.5085 149.221 71.474 134.862 70.7946C136.29 68.8337 137.796 66.8033 139 65.3906C139.98 64.2634 140.806 62.8352 137.796 62.0786C135.166 61.5122 132.487 61.1994 129.798 61.1445C129.798 61.0673 130.392 59.338 130.57 58.8285C130.948 56.8676 131.172 55.5938 127.482 55.1383C124.373 54.9145 121.25 54.9895 118.156 55.3622C117.253 53.6329 115.523 52.8068 113.045 52.6602C112.821 21.5791 65.1806 -3.97431 32.71 18.6918C12.1746 32.7578 2.23889 61.6386 16.4979 86.0109C22.0177 95.5992 29.7841 101.374 36.655 103.312C36.2767 107.071 35.9833 110.53 35.7517 113.541C31.305 114.753 31.2895 115.671 7.54258 129.637C4.00679 131.745 3.86011 133.497 3.86011 136.33C3.86011 141.449 4.68616 144.382 9.42628 144.606C22.7434 145.139 62.8337 144.606 66.6706 144.537C71.7813 144.382 74.5682 143.479 78.7834 141.526C82.9986 139.573 106.39 125.955 108.421 124.542C109.182 124.126 109.807 123.498 110.22 122.735C116.457 124.851 116.303 118.644 118.495 117.547C127.451 112.915 147.685 99.714 149.376 98.2472C151.066 96.7804 150.48 95.1128 149.499 94.6574ZM139.726 86.2348C136.113 87.7788 130.693 92.0248 126.107 96.6183C128.362 93.3835 130.925 89.8477 133.928 86.0109C134.831 86.0881 137.541 85.9337 139.726 86.2348ZM137.41 63.2907C139.417 63.6921 138.112 63.6999 133.117 70.9644C125.195 81.6938 119.003 93.5984 114.767 106.245C117.291 91.1216 123.259 77.5883 129.28 62.4646C132.002 62.538 134.714 62.8144 137.394 63.2907H137.41ZM118.673 56.6746C121.542 56.3291 124.439 56.2748 127.319 56.5125C129.35 56.7441 129.728 57.1918 128.601 60.2721C125.436 68.5481 119.499 81.9424 115.886 94.4257C119.059 58.2263 119.206 58.8285 118.658 56.6746H118.673ZM103.094 31.3991C108.205 37.5751 111.215 44.7857 111.138 52.4594C109 52.4594 84.6121 52.0812 66.6088 52.2356C66.3658 51.7285 66.2461 51.1711 66.2595 50.6089C66.273 50.0468 66.4191 49.4958 66.686 49.0008C67.404 47.6267 69.2414 46.9705 69.7741 45.465C71.6578 39.8989 72.561 39.2195 78.4978 40.3466C84.8977 41.551 84.8205 37.1119 86.3954 36.4866C88.2791 35.7146 94.5246 37.992 95.6595 31.9009C95.8062 30.9204 96.1844 30.0249 96.6399 29.7933C98.0527 29.2143 101.287 29.2143 103.094 31.3991ZM28.7728 97.1432C4.06855 79.8425 7.25694 36.8108 33.4048 20.0428C34.6857 19.0962 36.0153 18.2175 37.3884 17.4103C38.2916 20.3439 35.5896 21.7721 36.1146 25.2307C36.6936 29.5849 41.3874 28.7588 42.2057 32.6806C43.0317 36.9652 38.5927 37.4902 37.0178 40.8021C34.7018 45.7661 39.797 55.092 34.7558 59.2299C30.1238 63.09 36.5623 67.5831 26.5571 67.2048C22.6971 67.0504 19.0378 67.8069 19.3389 72.3155C19.8638 79.6186 30.3168 76.5306 31.2972 82.0968C31.9766 85.6326 26.7115 88.3423 28.518 92.4031C29.676 95.1128 29.2205 96.4638 28.7728 97.1432ZM30.3168 98.1931C31.0888 97.1432 31.4516 95.19 30.2473 91.8781C28.9658 88.4195 34.007 85.7021 33.1809 81.9501C31.691 75.1178 21.7166 78.3448 21.2225 72.3927C20.9215 69.0808 23.6235 69.1579 26.5571 69.2351C30.9962 69.3818 35.2885 67.9536 34.7558 63.5146C34.6092 62.2408 35.1496 61.5846 36.1146 60.7353C41.9355 55.5938 36.2612 47.2715 38.6699 41.8521C40.2139 38.3163 44.9154 37.9457 44.0122 32.5262C43.3328 28.1644 38.446 28.5426 37.9211 25.1535C37.3961 21.7644 40.4764 20.3439 39.0482 16.6615C57.7462 7.16576 82.4813 11.1262 99.782 27.9482C96.4392 27.6394 94.4783 28.2184 93.9147 31.6307C93.0887 35.9925 88.9507 33.9467 86.0171 34.8654C82.1571 36.0697 84.4731 39.9838 78.8683 38.7254C73.6032 37.5211 69.4653 38.0461 68.4153 43.8438C68.0371 45.9437 66.0067 46.3992 65.0262 48.2752C64.4719 49.5556 64.3158 50.9733 64.5785 52.3436C49.3777 52.5366 43.5567 52.3436 41.9355 59.4847C41.1095 63.3447 38.3997 84.3125 36.6704 101.389C34.4763 100.508 32.3611 99.4409 30.3477 98.2009L30.3168 98.1931ZM111.879 117.154C111.779 118.298 111.362 119.391 110.675 120.311C110.976 115.27 109.092 113.919 106.236 113.687C95.6826 112.846 92.8185 114.776 96.0069 115.046C99.1953 115.316 105.41 115.123 107.062 115.872C105.858 116.999 85.0984 127.985 75.1704 132.949C69.7046 135.605 61.3206 133.999 50.7209 134.601C46.1661 134.74 48.6056 137.388 43.8732 137.913C41.9664 138.114 35.8366 138.137 33.1192 138.137C31.1583 138.137 32.27 134.686 28.1552 134.524C26.9508 134.454 22.4346 134.524 17.7022 134.524C12.5066 134.601 10.1211 135.033 11.3023 136.184C11.8041 136.662 15.7181 136.33 27.7769 136.33C31.8376 136.408 28.2324 140.545 36.3539 139.866C38.1604 139.719 41.5418 139.789 44.1743 139.642C49.4394 139.418 47.8645 136.485 50.7981 136.33C59.4601 135.836 70.7391 137.318 75.9965 134.524C84.118 130.092 106.012 118.952 108.49 116.551C108.714 116.853 108.869 116.853 108.946 118.505C109.015 121.361 108.869 121.894 107.286 122.944C104.97 124.488 86.5266 135.358 79.3778 138.963C69.805 143.834 75.5641 142.723 9.42628 142.723C5.82873 142.723 5.6666 139.982 5.6666 136.33C5.6666 134.153 5.36552 133.173 8.44583 131.22C39.0559 112.46 33.0265 115.347 45.7569 115.007C48.845 115.007 46.6602 113.201 43.7266 113.201C40.7929 113.201 38.9092 113.124 37.5505 113.201C38.7548 95.9775 42.7384 64.6108 43.796 59.7935C44.6221 56.1805 46.3514 55.0534 52.2881 54.4512C60.1858 53.6252 110.189 54.2273 110.729 54.3045C115.709 54.3045 117.345 54.8758 116.905 60.9978C116.257 69.1579 112.196 115.046 111.879 117.154ZM114.134 112.522C119.175 96.5797 126.995 81.7571 133.766 72.2769C136.09 72.3216 138.41 72.4992 140.714 72.8095C143.802 73.265 141.957 73.211 132.994 84.8451C113.022 111.078 115.176 112.56 114.149 112.56L114.134 112.522ZM128.501 107.179C124.517 109.82 119.02 113.425 115.377 115.671C115.157 115.578 114.929 115.503 114.697 115.448C115.824 113.193 117.708 109.657 120.564 104.995C126.432 97.7763 135.534 89.2765 141.555 87.0917C141.177 90.6275 142.15 94.0397 144.937 96.0392C140.853 100.077 133.627 103.837 128.516 107.218L128.501 107.179Z" fill="#001434"/>
<path d="M139.124 95.1128C137.394 95.8848 135.511 98.6486 136.491 98.4942C137.472 98.3398 139.672 96.487 140.444 95.8848C141.625 94.9893 141.378 94.2096 139.124 95.1128Z" fill="#001434"/>
</svg>
