<svg width="155" height="155" viewBox="0 0 155 155" fill="none" xmlns="http://www.w3.org/2000/svg">
<path d="M46.814 68.454C44.9303 71.7119 52.2181 75.9193 56.2557 71.874C60.6253 67.4735 48.829 64.98 46.814 68.454Z" fill="#3D9CFB"/>
<path d="M9.6036 95.907C10.2366 92.5565 10.2907 92.047 7.21038 93.977C2.36217 91.9929 6.64681 94.9575 3.85986 98.1072C6.33029 98.6013 6.48469 98.4701 7.86658 100.755C10.0282 97.4433 8.67719 99.1572 12.02 97.6672C12.2439 97.0033 9.80432 96.4474 9.6036 95.907Z" fill="#3D9CFB"/>
<path d="M131.712 96.1616C133.117 92.3016 133.518 90.2481 127.389 92.7416C124.748 90.6881 123.374 89.9007 123.212 94.5713C119.352 96.8873 119.815 97.7983 123.629 98.7401C124.339 105.171 126.864 103.936 128.639 100.091C133.495 101.249 135.101 101.133 131.712 96.1616Z" fill="#3D9CFB"/>
<path d="M86.0246 62.5787C86.0246 58.3095 78.3045 61.8762 78.9685 64.8176C79.7405 68.3379 86.0246 66.6935 86.0246 62.5787Z" fill="#3D9CFB"/>
<path d="M34.6325 128.346C34.0843 123.49 33.2969 124.486 30.5949 127.358C26.3257 127.049 26.8661 127.852 28.9582 130.701C28.9582 131.82 27.4142 133.31 28.1862 134.013C31.8378 133.411 31.2125 133.465 34.3623 135.673C36.1379 131.434 33.1193 133.48 38.0679 130.269C38.037 129.327 35.0571 129.041 34.6325 128.346Z" fill="#3D9CFB"/>
<path d="M29.707 29.6918C22.1027 33.6676 16.8222 42.5997 20.2499 59.028C22.2262 68.4928 8.10622 83.8558 26.426 87.5305C25.4764 82.9603 25.3606 73.1866 35.968 71.6349C38.0524 73.1789 38.8707 76.4368 41.4183 76.2129C28.1861 49.1927 62.718 48.7372 68.0217 33.6136C75.433 48.2817 98.3847 33.3897 88.2174 67.0878C121.977 25.1369 60.2167 -17.1536 29.707 29.6918ZM54.5811 34.3701C54.3186 36.1071 52.265 36.8714 49.3468 37.682C46.4209 43.8581 43.441 43.7886 41.6731 37.8596C34.9875 38.8246 34.0302 34.7716 39.5424 30.5101C38.0369 25.963 40.7004 24.3804 44.985 26.349C49.0921 23.5466 51.8713 25.0906 50.8445 29.6995C53.701 31.5755 54.8127 32.9496 54.5811 34.3701Z" fill="#3D9CFB"/>
<path d="M124.64 130.47C119.236 131.242 122.324 131.01 118.217 129.026C117.584 129.281 117.785 132.23 117.391 132.593C113.276 133.882 114.712 134.739 117.507 136.028C117.445 140.915 119.213 139.688 120.942 136.515C121.753 136.268 124.602 137.765 125.088 136.978C123.521 131.759 122.949 136.337 124.64 130.47Z" fill="#3D9CFB"/>
<path d="M90.8651 137.07C90.5254 136.236 91.7143 133.28 90.3787 133.017C83.6236 138.182 80.8521 129.975 82.7127 138.923C79.3776 143.293 79.5629 143.2 84.8125 143.331C85.6849 143.972 86.6422 147.431 88.0936 147.083C90.6875 138.962 88.742 143.571 94.8872 140.05C94.8641 138.861 91.3591 138.251 90.8651 137.07Z" fill="#3D9CFB"/>
<path d="M49.0147 31.2203C47.8259 30.4483 49.0842 28.2249 48.7137 27.1673C48.4435 27.1673 47.6483 27.3757 45.6256 28.5724C45.475 28.6639 45.3049 28.7186 45.1292 28.7321C44.9535 28.7455 44.777 28.7172 44.6143 28.6496C42.0204 27.5687 41.4336 27.7926 41.3719 27.7926C41.3101 27.7926 41.2252 28.3253 41.92 30.5796C41.9866 30.7974 41.9862 31.0302 41.9187 31.2477C41.8512 31.4653 41.7199 31.6575 41.5417 31.7993C38.1912 34.4705 38.2144 35.5127 38.2144 35.5127C43.9349 36.4237 42.1284 33.1967 45.1007 39.9981C45.6797 40.083 46.4903 37.2266 48.2659 35.6208C49.2077 35.366 52.0719 34.594 52.3421 34.0073C52.3344 34.015 52.1954 33.2893 49.0147 31.2203Z" fill="#3D9CFB"/>
<path d="M64.7558 136.738C64.4145 136.539 64.087 136.317 63.7754 136.074C63.8526 134.322 65.7671 130.871 63.6287 129.952C61.938 129.111 59.5062 131.581 57.8 132.5C52.1103 128.045 50.4428 129.119 51.8787 136.074C47.3702 140.081 49.0686 142.081 54.6425 142.135C55.4608 143.609 55.7851 146.203 57.9158 146.242C58.0946 146.242 58.271 146.201 58.4307 146.12C58.5903 146.04 58.7287 145.923 58.8345 145.778C59.7609 144.497 60.3322 143.632 60.7414 142.992C61.8376 141.316 61.0888 142.312 66.1454 140.876C66.337 140.817 66.5094 140.707 66.645 140.56C66.7806 140.412 66.8746 140.231 66.9174 140.035C67.3111 138.329 65.7749 137.371 64.7558 136.738ZM61.9689 139.533C59.5216 139.757 59.1433 141.532 57.6919 143.486C55.9318 138.792 55.8623 140.274 51.732 139.548C52.3595 138.732 53.0711 137.984 53.8551 137.317C54.6271 136.669 53.8551 135.434 53.6235 132.361C58.6183 135.75 57.0589 135.588 62.324 132.245C61.4362 135.796 60.5329 137.109 64.1845 139.062C63.1809 139.309 62.4784 139.44 61.9689 139.533Z" fill="#001434"/>
<path d="M114.01 116.056C114.589 114.134 117.599 110.42 115.469 109.247C113.925 108.205 111.099 110.204 109.293 110.729C103.503 106.622 101.511 107.433 102.213 114.25C96.2535 118.303 99.0018 120.132 104.529 121.105C105.155 122.95 104.969 126.509 107.224 126.772C107.377 126.787 107.533 126.771 107.68 126.725C107.827 126.678 107.964 126.602 108.081 126.501C112.759 122.518 109.478 122.827 115.083 122.695C115.608 122.626 117.036 122.827 117.399 122.348C119.738 119.847 115.029 117.446 114.01 116.056ZM115.029 120.433C109.053 120.433 110.458 121.066 107.478 124.016C106.398 117.917 106.498 119.546 101.356 117.924C102.177 117.095 103.092 116.365 104.082 115.747C104.245 115.633 104.375 115.478 104.46 115.298C104.546 115.118 104.583 114.919 104.568 114.721C104.405 113.324 104.374 111.915 104.475 110.513C109.555 112.829 107.509 114.211 113.739 111.347C110.96 116.851 110.798 116.365 115.384 120.418L115.029 120.433Z" fill="#001434"/>
<path d="M18.6518 107.024C15.2241 103.936 13.5179 105.673 14.0197 110.065C12.7768 110.837 10.4762 111.44 10.9703 113.254C11.4644 115.068 13.4871 114.736 14.8303 114.968C15.1546 116.157 15.0156 118.179 16.9997 118.303C17.1841 118.311 17.3676 118.273 17.5335 118.192C17.6994 118.111 17.8423 117.99 17.9493 117.84C19.1381 116.172 19.6245 115.361 20.9292 115.462C21.5236 115.33 22.921 115.578 23.4537 114.852C24.5036 113.192 22.7434 112.134 21.9869 111.123C23.5926 107.634 22.4423 105.688 18.6518 107.024ZM17.1078 115.099C16.9688 113.308 15.695 112.582 14.0197 112.613C16.9688 111.378 16.1891 110.544 16.2431 107.981C16.714 108.159 17.7871 109.703 18.7444 109.332C19.2659 109.152 19.7968 109 20.3348 108.877C20.1804 109.386 19.8947 110.135 19.6786 110.729C19.3775 111.663 20.1881 112.528 20.7748 113.161C18.8988 113.37 18.4356 113.4 17.1386 115.099H17.1078Z" fill="#001434"/>
<path d="M142.373 92.5719C141.127 88.237 140.244 83.8058 139.733 79.3243C134.692 73.8662 140.281 93.3594 140.219 93.1586C143.053 103.697 143.647 105.897 119.375 113.733C119.11 113.841 118.896 114.045 118.775 114.304C118.655 114.564 118.636 114.859 118.724 115.132C118.812 115.404 119 115.633 119.249 115.773C119.499 115.913 119.792 115.954 120.07 115.887C145.392 107.696 145.6 104.553 142.373 92.5719Z" fill="#001434"/>
<path d="M150.21 101.843C148.434 94.7641 145.724 81.3544 143.3 75.5952C138.606 69.4191 129.597 67.7825 122.896 70.1448C117.747 63.1273 109.363 58.2559 102.399 53.7242C117.615 14.2283 56.6192 -9.78881 30.7029 22.0719C20.0724 33.2815 3.21174 31.1971 9.41096 59.3213C11.3641 72.3528 4.00691 88.3951 26.1635 92.6565C27.6458 102.446 31.5058 110.119 37.6896 115.446C52.0566 128.223 78.5519 123.869 83.431 108.321C85.9478 107.085 87.4454 105.356 87.8932 103.148C92.9962 104.352 98.4852 104.916 98.4774 100.523C97.9062 97.5974 92.1007 95.1733 87.7774 93.884C88.5494 86.7893 74.9853 81.8407 70.5925 88.1789C64.594 86.5731 60.8344 88.8428 63.9687 93.969C59.8076 95.3509 57.1442 92.1547 55.7932 87.7157C55.7054 87.4295 55.5096 87.1888 55.2473 87.0446C54.9849 86.9005 54.6767 86.8643 54.3881 86.9437C52.7128 87.5767 54.1488 89.6689 54.4962 90.7343C44.877 88.4182 34.424 97.057 33.3586 106.885C31.5947 103.925 30.2661 100.727 29.4137 97.389C28.3449 93.6137 27.7128 89.7282 27.53 85.8088C27.4219 79.8335 29.846 73.4567 36.2845 72.7542C50.4045 88.9664 74.1129 80.5592 90.4949 67.5046C98.987 75.1011 103.495 82.4661 103.92 89.3987C103.938 89.6861 104.064 89.9561 104.273 90.154C104.483 90.3518 104.759 90.4626 105.047 90.4641C107.958 89.1516 104.584 82.798 103.588 80.1114C105.302 76.2977 110.536 67.7593 117.206 67.1263C118.491 68.3159 119.679 69.6068 120.758 70.9863C115.091 73.8505 111.825 79.2236 112.142 85.114C108.869 88.2021 108.799 91.7765 108.73 96.4394C109.463 97.8522 106.576 108.429 108.961 108.135C109.224 108.135 109.479 108.043 109.682 107.875C109.885 107.708 110.023 107.475 110.073 107.217C112.937 96.5089 106.367 87.9936 119.955 83.2844C125.976 87.5999 137.147 85.5618 134.484 76.8536C136.205 76.1974 140.451 74.6147 141.208 76.4444C143.053 80.8912 145.377 91.0662 146.766 97.1496C152.595 110.366 139.046 112.242 121.337 118.465C121.184 118.469 121.035 118.504 120.896 118.566C120.757 118.629 120.632 118.718 120.528 118.828C120.424 118.939 120.342 119.069 120.288 119.212C120.234 119.354 120.209 119.505 120.213 119.658C120.218 119.81 120.252 119.959 120.315 120.098C120.377 120.237 120.466 120.362 120.577 120.466C120.688 120.57 120.818 120.652 120.96 120.706C121.103 120.76 121.254 120.785 121.406 120.781C137.039 116.025 153.058 110.907 150.21 101.843ZM90.1475 97.0802C94.6714 98.9175 96.3776 100.284 96.1691 101.133C95.3971 101.797 92.6179 102.083 88.5263 100.979C89.746 99.9752 90.6416 98.5856 90.1475 97.0802ZM85.5154 93.1043C81.3775 91.5603 76.5293 89.777 73.0784 88.8197C76.9307 85.5695 85.2761 89.059 85.5386 93.1043H85.5154ZM65.1808 90.3251C66.7248 88.4954 78.6677 92.9962 83.1145 94.6329C77.6332 95.6597 72.098 97.8058 66.4314 93.6602C65.0418 91.5294 65.0032 90.5413 65.1808 90.3251ZM56.6269 93.9998C57.6933 95.2494 59.1516 96.1007 60.764 96.4147C62.3764 96.7288 64.0476 96.4871 65.505 95.7291C73.9971 102.145 84.2802 94.1388 87.8932 97.5125C88.5185 99.7204 82.2884 101.735 80.8371 102.029C80.5588 102.074 80.3074 102.222 80.1319 102.442C79.9564 102.663 79.8693 102.941 79.8876 103.222C79.906 103.504 80.0283 103.768 80.231 103.964C80.4336 104.16 80.702 104.274 80.9837 104.283C82.6109 104.002 84.1874 103.482 85.6621 102.739C85.1371 105.055 82.8134 106.638 78.6137 107.541C78.3455 107.604 78.1095 107.763 77.9498 107.988C77.7902 108.213 77.7178 108.488 77.7462 108.762C77.7745 109.036 77.9017 109.291 78.104 109.478C78.3062 109.665 78.5697 109.772 78.8453 109.78C79.4835 109.681 80.1132 109.534 80.729 109.34C73.889 122.912 48.7061 125.938 35.3967 109.795C34.8332 99.2109 47.1853 88.7811 56.6269 93.9921V93.9998ZM28.2093 75.0471C25.2294 79.2391 24.8048 85.5232 25.6694 90.2788C6.28433 86.3415 13.85 70.8628 11.5803 58.7423C6.94826 41.3567 15.201 33.9222 22.9056 30.7416C33.8682 25.3375 34.4858 17.6869 48.3124 12.391C78.9611 -2.77126 122.564 35.6901 92.9499 62.5714C102.368 33.9454 81.0918 45.2862 68.6316 31.1276C59.8539 46.0042 23.8012 45.6722 35.1265 70.6235C33.7378 70.8654 32.4111 71.3811 31.2236 72.1405C30.0361 72.8999 29.0115 73.8879 28.2093 75.0471ZM89.553 65.3275C40.4302 105.518 11.5031 46.7453 60.3866 46.421C60.6738 46.4138 60.9476 46.2979 61.1527 46.0966C61.3578 45.8954 61.4789 45.6239 61.4917 45.3369C61.5044 45.0498 61.4078 44.7686 61.2213 44.55C61.0349 44.3315 60.7724 44.1917 60.487 44.1591C60.3248 44.1591 58.1709 44.0587 55.1756 44.2363C60.7417 41.6423 66.0995 38.7782 68.8864 34.37C71.3337 37.3577 74.468 38.9557 77.6718 40.0597C75.8245 40.5274 74.0174 41.1418 72.2678 41.8971C71.9883 42.022 71.7699 42.2528 71.6606 42.5387C71.5513 42.8247 71.56 43.1423 71.6849 43.4218C71.8098 43.7013 72.0406 43.9197 72.3266 44.029C72.6125 44.1383 72.9302 44.1296 73.2096 44.0047C77.1546 41.6269 88.4027 40.052 92.0852 46.753C93.8454 50.1807 93.0271 56.2487 89.553 65.3275ZM102.214 77.6796C99.4754 73.3601 96.1262 69.4597 92.2705 66.0995C95.9141 63.2458 98.9842 59.7278 101.318 55.7314C105.85 58.6651 110.583 61.5292 115.037 65.2349C109.201 66.8484 104.599 73.1171 102.245 77.6719L102.214 77.6796ZM131.079 82.219C126.571 86.2875 118.727 78.1042 118.202 81.5319C116.865 82.0608 115.574 82.6985 114.342 83.4388C116.504 65.9683 138.267 73.9508 131.11 82.2113L131.079 82.219ZM133.357 74.8849C131.961 73.2313 130.116 72.0167 128.045 71.3878C131.337 71.2019 134.614 71.9627 137.487 73.5803C136.078 73.9056 134.697 74.3419 133.357 74.8849Z" fill="#001434"/>
<path d="M81.2923 44.9083C72.0282 45.0009 68.1681 59.3912 79.7483 59.8466C90.2553 60.2558 92.8955 44.7771 81.2923 44.9083ZM75.8033 56.141C70.2371 49.1929 86.2486 42.6772 86.6114 51.4086C83.0756 51.9027 78.7446 53.9794 75.8033 56.141Z" fill="#001434"/>
<path d="M114.257 106.846C116.735 105.773 115.206 100.971 115.701 97.8059C115.222 94.7179 116.997 90.2943 115.06 89.5763C111.972 89.5763 114.164 103.025 113.137 105.557C113.114 105.717 113.126 105.881 113.171 106.036C113.217 106.192 113.296 106.336 113.402 106.458C113.508 106.58 113.639 106.678 113.787 106.745C113.935 106.812 114.095 106.847 114.257 106.846Z" fill="#001434"/>
<path d="M68.9011 64.0769C66.8862 65.4125 63.7596 65.0882 62.5861 63.4284C62.4141 63.1837 62.152 63.0174 61.8574 62.966C61.5627 62.9146 61.2598 62.9824 61.0151 63.1543C60.7704 63.3263 60.6041 63.5885 60.5527 63.8831C60.5013 64.1777 60.569 64.4807 60.741 64.7254C64.8481 70.5386 74.8842 64.1695 68.9011 64.0769Z" fill="#001434"/>
<path d="M63.7827 57.0595C65.458 57.5072 65.2418 54.1336 66.67 54.5659C68.8471 54.7743 67.2722 58.6035 69.2022 58.9046C72.5913 57.8932 68.7622 51.8947 67.0251 52.3271C65.5429 51.4701 61.1116 55.3611 63.7827 57.0595Z" fill="#001434"/>
<path d="M52.3884 49.3238C41.7038 49.5091 39.7043 65.5977 51.8634 64.764C62.0848 64.0769 63.9839 48.8915 52.3884 49.3238ZM46.8762 61.151C40.7619 53.7243 57.6843 46.699 58.0703 56.0634C54.3415 56.6193 49.7481 58.889 46.8762 61.151Z" fill="#001434"/>
</svg>
