<svg width="119" height="118" viewBox="0 0 119 118" fill="none" xmlns="http://www.w3.org/2000/svg">
<path d="M15 97.5C11 95.1 18.1669 85 22.5003 80.5L24.628 78.372C24.8757 78.1243 25.139 77.8914 25.3541 77.615C25.7293 77.133 26.249 76.3153 26.7285 75.4991C27.5788 74.0519 26.9259 72.642 25.3336 72.1112C25.1116 72.0372 24.8835 71.9834 24.6519 71.9503L23.0427 71.7204C22.0155 71.5736 20.9792 71.5 19.9417 71.5H19.883C18.6298 71.5 17.3787 71.3965 16.1426 71.1904L12 70.5C10.1667 70.3333 6.3 70 5.5 70C4.5 70 3 69 2.5 69C2.21528 69 1.74479 67.9867 1.37703 67.042C1.11074 66.3579 1 65.6258 1 64.8917V64.202C1 63.4155 1.21377 62.6437 1.61844 61.9693C2.18487 61.0252 3.08893 60.3317 4.14752 60.0293L9.5 58.5L18 57L21.1489 56.6501C22.0445 56.5506 22.9193 56.3137 23.7427 55.9478L25.5595 55.1403C26.4831 54.7297 27.2101 53.9748 27.5855 53.0363C27.8563 52.3592 27.9308 51.6194 27.8003 50.9019L27 46.5C26.6667 44.8333 26 41.3 26 40.5C26 39.1457 25.5896 37.7829 25.7576 36.4391L25.9274 35.0806C25.9756 34.6951 26.073 34.3174 26.2173 33.9567L26.3546 33.6135C26.7639 32.5902 27.603 31.799 28.6486 31.4505C29.5191 31.1603 30.4659 31.1997 31.3093 31.5611L32.3232 31.9957C33.1006 32.3288 33.8073 32.8073 34.4053 33.4053L35.2695 34.2695C36.0862 35.0862 36.7903 36.0081 37.3634 37.0109L37.5618 37.3581C38.1845 38.4478 38.9497 39.4497 39.8372 40.3372L40.737 41.237C41.5693 42.0693 42.5703 42.7139 43.6725 43.1272C45.1904 43.6964 46.8425 43.8056 48.4221 43.441L49.7736 43.1292C51.5701 42.7146 53.2564 41.9181 54.7178 40.794L59 37.5L65 32L70.5 26.5L74.6381 22.7757C75.211 22.2601 75.8375 21.8071 76.5068 21.4247L76.8294 21.2403C78.2518 20.4275 79.8617 20 81.5 20H81.8074C82.8297 20 83.7489 20.6224 84.1286 21.5715C84.367 22.1676 84.367 22.8324 84.1286 23.4285L83.5 25L81.5 29C80.1688 31.3296 79.0267 33.7622 78.0846 36.2745L78 36.5L77.5765 38.194C77.2142 39.6433 77.5654 41.1784 78.5217 42.3261L78.8813 42.7576C79.2833 43.24 79.8283 43.5821 80.4376 43.7344C81.1232 43.9058 81.8474 43.8263 82.4795 43.5102L83.7026 42.8987C84.2318 42.6341 84.794 42.4412 85.3742 42.3252L89.5 41.5L95 40.5C98.6504 39.5044 102.417 39 106.201 39H109H110.939C112.277 39 113.578 39.4338 114.649 40.2364C114.883 40.4119 115.105 40.6023 115.305 40.8157C115.823 41.3684 116.5 42.171 116.5 42.5C116.5 43 115.5 44.5 115 45C113.17 46.8303 110.77 47.9729 108.354 48.9021L105.5 50L102.621 51.4393C101.209 52.1456 99.7481 52.7506 98.25 53.25L96.466 53.8447C96.1557 53.9481 95.8532 54.0734 95.5607 54.2197L94.4748 54.7626C93.5305 55.2348 92.8124 56.0627 92.4786 57.0642C92.1703 57.9891 92.2121 58.995 92.5962 59.8911L93.5 62L96.5 67.5C97.1667 68.6667 98.5 71.1 98.5 71.5C98.5 72 100 74.5 100 75V77.4676C100 78.4704 99.7275 79.4542 99.2116 80.314C98.7444 81.0927 98.0927 81.7444 97.314 82.2116L97.0232 82.3861C96.3461 82.7923 95.6042 83.0792 94.8299 83.234L93.6214 83.4757C91.8894 83.8221 90.1076 83.8377 88.3698 83.5218L85.5 83L80.0734 81.6434C79.6923 81.5481 79.3227 81.4114 78.9713 81.2357L76.3033 79.9016C75.8236 79.6618 75.2442 79.7558 74.865 80.135C74.6313 80.3687 74.5 80.6857 74.5 81.0161V82.8787C74.5 84.2369 73.9604 85.5396 73 86.5C72.5 87 71 87.4 69 85C66.5 82 66 82.5 65 81.5C64.2 80.7 62.6667 82.8333 62 84C61 86 58.9 90.1 58.5 90.5C58 91 56 95 54 96.5C52 98 52.5 97 51.5 97C48.8306 97 48.6055 92.7178 47.8204 90.1665L47 87.5L46.0695 82.8477C46.0234 82.6169 45.9467 82.3933 45.8414 82.1828L45.3062 81.1125C44.8781 80.2563 43.7965 79.969 43 80.5L34 87.5L26 95C23.8334 96.6667 19 99.9 15 97.5Z" fill="#1B191A" stroke="#1B191A"/>
<path d="M37.5758 75.6612C35.9827 74.7116 38.837 70.7158 40.5629 68.9355L41.4109 68.093C41.5091 67.9954 41.6135 67.9037 41.699 67.7947C41.8476 67.6052 42.0534 67.2838 42.2437 66.9623C42.5842 66.3871 42.3248 65.8264 41.6903 65.6163C41.6026 65.5873 41.5124 65.5661 41.4209 65.5531L40.1645 65.3748C39.2368 65.3748 38.3106 65.2987 37.3953 65.1472L36.381 64.9792C35.6508 64.9133 34.1108 64.7814 33.7922 64.7814C33.3939 64.7814 32.7965 64.3858 32.5974 64.3858C32.484 64.3858 32.2966 63.9848 32.1501 63.611C32.0441 63.3405 32 63.0507 32 62.7602V62.4905C32 62.1775 32.0855 61.8704 32.2474 61.6024C32.4723 61.23 32.8302 60.9569 33.2487 60.8381L35.3853 60.2317L38.7706 59.6382L40.0276 59.4995C40.3823 59.4603 40.729 59.3671 41.0556 59.2229L41.7854 58.9006C42.1506 58.7394 42.4384 58.4419 42.5875 58.0716C42.6958 57.8028 42.7256 57.5088 42.6734 57.2237L42.355 55.4841C42.2222 54.8248 41.9567 53.4269 41.9567 53.1104C41.9567 52.5745 41.7933 52.0352 41.8602 51.5034L41.9276 50.9676C41.9469 50.8143 41.9859 50.664 42.0437 50.5206L42.0959 50.3909C42.2602 49.9829 42.5958 49.6678 43.0134 49.5295C43.3591 49.4151 43.7346 49.4306 44.0697 49.5732L44.4738 49.7453C44.7842 49.8774 45.0667 50.0675 45.3061 50.3053L45.6472 50.6442C45.9733 50.9681 46.2547 51.3341 46.4838 51.7325L46.5597 51.8644C46.8088 52.2975 47.1147 52.6953 47.4691 53.0474L47.8236 53.3996C48.1567 53.7305 48.5566 53.9864 48.9966 54.1503C49.6003 54.3752 50.2567 54.4184 50.8847 54.2744L51.4235 54.1509C52.14 53.9866 52.8131 53.6707 53.3972 53.2243L55.0996 51.9235L57.4892 49.7475L59.6797 47.5716L61.3264 46.0994C61.5555 45.8945 61.8058 45.7148 62.073 45.563L62.199 45.4915C62.7666 45.1694 63.408 45 64.0606 45H64.1892C64.5928 45 64.9559 45.2452 65.1066 45.6196C65.2021 45.8567 65.2021 46.1215 65.1066 46.3585L64.8571 46.9781L64.0606 48.5607C63.5304 49.4823 63.0754 50.4451 62.6999 51.4399L62.6667 51.5279L62.4993 52.1927C62.3543 52.7691 62.4946 53.38 62.8766 53.8353L63.0163 54.0019C63.1773 54.1939 63.3951 54.3298 63.6382 54.3902C63.9109 54.4579 64.1988 54.4264 64.4504 54.3015L64.9376 54.0595C65.1485 53.9547 65.3725 53.8784 65.6035 53.8325L67.2468 53.506L69.4372 53.1104C70.8911 52.7165 72.3908 52.5169 73.8971 52.5169H75.013H75.7879C76.3191 52.5169 76.8361 52.6883 77.2621 53.0057C77.3557 53.0754 77.4446 53.151 77.5247 53.2359C77.7311 53.4545 78 53.7716 78 53.9016C78 54.0994 77.6017 54.6929 77.4026 54.8907C76.6732 55.6153 75.719 56.0665 74.7586 56.4335L73.619 56.8688L71.6277 57.8579L69.8355 58.4513L69.2237 58.7552C68.8504 58.9406 68.5662 59.2668 68.4336 59.6619C68.3105 60.0288 68.3272 60.4282 68.4805 60.7835L68.8398 61.6164L70.0346 63.7923C70.3001 64.2539 70.8312 65.2166 70.8312 65.3748C70.8312 65.5726 71.4286 66.5617 71.4286 66.7595V67.7331C71.4286 68.1315 71.3197 68.5223 71.1137 68.8633C70.9282 69.1705 70.6699 69.4272 70.3617 69.6109L70.2418 69.6824C69.9729 69.8426 69.6786 69.9557 69.3715 70.0167L68.8873 70.1129C68.198 70.2499 67.4891 70.2561 66.7975 70.1311L65.6537 69.9246L63.4925 69.3878C63.3407 69.3501 63.1934 69.296 63.0533 69.2264L61.989 68.6978C61.7989 68.6034 61.5697 68.6405 61.4191 68.7901C61.3254 68.8832 61.2727 69.0097 61.2727 69.1418V69.8738C61.2727 70.4127 61.0577 70.9294 60.6753 71.3092C60.4762 71.5071 59.8788 71.6653 59.0823 70.7158C58.0866 69.5289 57.8874 69.7267 57.4892 69.3311C57.1706 69.0146 56.5599 69.8586 56.2944 70.3202C55.8961 71.1114 55.0597 72.7335 54.9004 72.8918C54.7013 73.0896 53.9048 74.6721 53.1082 75.2655C52.3117 75.859 52.5108 75.4633 52.1126 75.4633C51.0536 75.4633 50.9594 73.7681 50.6461 72.7565L50.3203 71.7049L49.9501 69.8658C49.9315 69.7735 49.9006 69.6841 49.8583 69.6L49.6468 69.1799C49.4754 68.8394 49.0451 68.725 48.7273 68.9355L45.1429 71.7049L41.9567 74.6721C41.0938 75.3315 39.1688 76.6107 37.5758 75.6612Z" fill="white" stroke="white"/>
</svg>
