<svg width="24" height="24" viewBox="0 0 24 24" fill="none" xmlns="http://www.w3.org/2000/svg">
<g clip-path="url(#clip0_1060_3048)">
<path fill-rule="evenodd" clip-rule="evenodd" d="M15.5967 1.40416C13.4683 0.36624 10.372 -0.0792189 8.08653 0.0114715C5.79961 0.0498989 2.73334 0.669425 0.66689 1.82579C0.449906 1.94723 0.296346 2.15689 0.24605 2.4004C-0.456454 5.80161 0.387435 9.59162 2.24077 12.4947C3.34602 14.226 5.10351 15.872 7.30945 16.3114C7.41921 17.0162 7.58042 17.708 7.79137 18.3748C8.51944 20.6763 10.1661 23.1477 12.9207 23.8502C12.9319 23.853 12.9431 23.8557 12.9543 23.8581C15.7302 24.4715 18.3134 23.0063 19.9999 21.2794C22.3974 18.8241 23.9937 15.2977 23.9995 11.8251C24 11.5143 23.8655 11.2186 23.631 11.0147C21.842 9.45986 18.9851 8.23892 16.7716 7.73855C16.5982 7.69523 16.4194 7.65415 16.2357 7.61542C16.5705 5.72689 16.5329 3.77084 16.0493 1.95408C15.9853 1.71381 15.8202 1.51315 15.5967 1.40416ZM9.83437 17.7285C9.00081 15.0935 9.09543 12.0268 10.1803 9.54665C12.0117 9.206 14.46 9.36791 16.2629 9.82012L16.2883 9.82616C18.1019 10.2343 20.3607 11.1923 21.8425 12.3211C21.6942 15.0241 20.3978 17.8048 18.4669 19.7822C17.0363 21.247 15.1743 22.1458 13.4335 21.7695C11.7097 21.3214 10.4519 19.6807 9.83437 17.7285ZM16.9856 13.8598C17.4753 13.7058 17.9824 13.7326 18.4559 13.8594C18.9294 13.9863 19.3819 14.2167 19.729 14.5948C20.0859 14.9838 20.2719 15.4654 20.3001 15.9754C20.3328 16.5662 19.8804 17.0716 19.2895 17.1043C18.6988 17.137 18.1933 16.6846 18.1605 16.0937C18.1588 16.0614 18.1535 16.0482 18.153 16.0473C18.1528 16.0469 18.1526 16.0464 18.153 16.0473C18.1533 16.0476 18.1525 16.0461 18.1502 16.0437C18.1439 16.0367 18.0861 15.9787 17.9013 15.9292C17.7165 15.8797 17.6375 15.901 17.6284 15.9039L17.6248 15.9052C17.624 15.9059 17.6121 15.915 17.5945 15.9421C17.2708 16.4374 16.6067 16.5765 16.1114 16.2528C15.6161 15.9291 15.477 15.2651 15.8007 14.7698C16.0801 14.3422 16.482 14.0181 16.9856 13.8598ZM13.2554 12.4658C12.782 12.3389 12.2748 12.3122 11.7852 12.4661C11.2816 12.6245 10.8797 12.9486 10.6003 13.3762C10.2766 13.8715 10.4157 14.5354 10.911 14.8591C11.4063 15.1828 12.0703 15.0437 12.394 14.5484C12.4117 14.5213 12.4229 14.5126 12.4237 14.5119C12.4245 14.5114 12.4241 14.5118 12.4237 14.5119C12.4234 14.5121 12.4248 14.5112 12.4279 14.5102C12.437 14.5074 12.516 14.486 12.7008 14.5355C12.8856 14.5851 12.9433 14.643 12.9498 14.6501C12.9513 14.6517 12.952 14.6527 12.9523 14.653C12.9527 14.654 12.9583 14.6678 12.9601 14.7001C12.9928 15.2909 13.4982 15.7434 14.089 15.7107C14.6798 15.678 15.1323 15.1726 15.0996 14.5817C15.0714 14.0718 14.8854 13.5901 14.5285 13.2012C14.1814 12.823 13.7288 12.5926 13.2554 12.4658Z" fill="#202020"/>
</g>
<defs>
<clipPath id="clip0_1060_3048">
<rect width="23.9992" height="23.9992" fill="white"/>
</clipPath>
</defs>
</svg>
