<svg width="24" height="24" viewBox="0 0 24 24" fill="none" xmlns="http://www.w3.org/2000/svg">
<g clip-path="url(#clip0_1060_3042)">
<path fill-rule="evenodd" clip-rule="evenodd" d="M15.5977 1.40416C13.4692 0.36624 10.3729 -0.0792189 8.0875 0.0114715C5.80059 0.0498989 2.73431 0.669425 0.667866 1.82579C0.450883 1.94723 0.297322 2.15689 0.247027 2.4004C-0.455477 5.80161 0.388411 9.59162 2.24175 12.4947C3.34699 14.226 5.10449 15.872 7.31043 16.3114C7.42019 17.0162 7.58139 17.708 7.79235 18.3748C8.52041 20.6763 10.167 23.1477 12.9217 23.8502C12.9329 23.853 12.9441 23.8557 12.9553 23.8581C15.7311 24.4715 18.3144 23.0063 20.0009 21.2794C22.3984 18.8241 23.9947 15.2977 24.0005 11.8251C24.001 11.5143 23.8665 11.2186 23.6319 11.0147C21.843 9.45986 18.986 8.23892 16.7726 7.73855C16.5992 7.69523 16.4203 7.65415 16.2367 7.61542C16.5714 5.72689 16.5338 3.77084 16.0503 1.95408C15.9863 1.71381 15.8212 1.51315 15.5977 1.40416ZM9.83535 17.7285C9.00179 15.0935 9.09641 12.0268 10.1813 9.54665C12.0127 9.206 14.461 9.36791 16.2639 9.82012L16.2893 9.82616C18.1029 10.2343 20.3617 11.1923 21.8435 12.3211C21.6952 15.0241 20.3987 17.8048 18.4678 19.7822C17.0373 21.247 15.1753 22.1458 13.4345 21.7695C11.7107 21.3214 10.4529 19.6807 9.83535 17.7285ZM16.9866 13.8598C17.4763 13.7058 17.9834 13.7326 18.4569 13.8594C18.9303 13.9863 19.3829 14.2167 19.73 14.5948C20.0869 14.9838 20.2729 15.4654 20.301 15.9754C20.3338 16.5662 19.8814 17.0716 19.2905 17.1043C18.6998 17.137 18.1942 16.6846 18.1615 16.0937C18.1598 16.0614 18.1545 16.0482 18.154 16.0473C18.1538 16.0469 18.1536 16.0464 18.154 16.0473C18.1543 16.0476 18.1534 16.0461 18.1512 16.0437C18.1449 16.0367 18.0871 15.9787 17.9023 15.9292C17.7175 15.8797 17.6385 15.901 17.6294 15.9039L17.6258 15.9052C17.6249 15.9059 17.6131 15.915 17.5955 15.9421C17.2718 16.4374 16.6077 16.5765 16.1124 16.2528C15.6171 15.9291 15.478 15.2651 15.8017 14.7698C16.0811 14.3422 16.483 14.0181 16.9866 13.8598ZM13.2564 12.4658C12.7829 12.3389 12.2758 12.3122 11.7862 12.4661C11.2825 12.6245 10.8807 12.9486 10.6012 13.3762C10.2775 13.8715 10.4167 14.5354 10.912 14.8591C11.4073 15.1828 12.0712 15.0437 12.3949 14.5484C12.4127 14.5213 12.4239 14.5126 12.4247 14.5119C12.4255 14.5114 12.4251 14.5118 12.4247 14.5119C12.4244 14.5121 12.4257 14.5112 12.4289 14.5102C12.438 14.5074 12.5169 14.486 12.7018 14.5355C12.8866 14.5851 12.9443 14.643 12.9508 14.6501C12.9523 14.6517 12.953 14.6527 12.9533 14.653C12.9537 14.654 12.9593 14.6678 12.9611 14.7001C12.9937 15.2909 13.4992 15.7434 14.09 15.7107C14.6808 15.678 15.1333 15.1726 15.1006 14.5817C15.0724 14.0718 14.8864 13.5901 14.5294 13.2012C14.1824 12.823 13.7298 12.5926 13.2564 12.4658Z" fill="white"/>
</g>
<defs>
<clipPath id="clip0_1060_3042">
<rect width="23.9992" height="23.9992" fill="white" transform="translate(0.000976562)"/>
</clipPath>
</defs>
</svg>
