<svg width="24" height="24" viewBox="0 0 24 24" fill="none" xmlns="http://www.w3.org/2000/svg">
<path d="M21 13V17C21 19.7614 18.7614 22 16 22H8C5.23858 22 3 19.7614 3 17V9C3 6.23858 5.23858 4 8 4H12" stroke="#202020" stroke-width="2" stroke-linecap="round"/>
<path d="M17.1718 3.28601C17.9523 2.50437 19.2181 2.50389 19.9992 3.28494L21.4884 4.77419C22.2628 5.54858 22.2709 6.80222 21.5065 7.58649L14.4465 14.8301C13.8821 15.4092 13.1079 15.7357 12.2996 15.7357L10.6024 15.7356C9.74956 15.7356 9.06848 15.0246 9.10435 14.1719L9.17844 12.4104C9.21004 11.6592 9.52226 10.9472 10.0533 10.4153L17.1718 3.28601Z" stroke="#202020" stroke-width="2"/>
<path d="M15.7297 4.86846L19.7437 8.88245" stroke="#202020" stroke-width="2" stroke-linecap="round" stroke-linejoin="round"/>
</svg>
