<svg width="24" height="24" viewBox="0 0 24 24" fill="none" xmlns="http://www.w3.org/2000/svg">
<g clip-path="url(#clip0_1112_3036)">
<path fill-rule="evenodd" clip-rule="evenodd" d="M5.5018 8.63708C5.5018 6.41327 6.12393 4.82721 7.15507 3.79605C8.18621 2.76491 9.77228 2.14278 11.9961 2.14278C14.2199 2.14278 15.806 2.76491 16.8371 3.79605C17.8683 4.82721 18.4904 6.41327 18.4904 8.63708C18.4904 10.8609 17.8683 12.447 16.8371 13.4781C15.806 14.5093 14.2199 15.1314 11.9961 15.1314C11.2392 15.1314 10.5561 15.0593 9.94371 14.9236C9.92929 14.9196 9.91475 14.916 9.90011 14.9126C8.39732 14.5697 7.31179 13.8415 6.59707 12.8019C6.58403 12.783 6.57047 12.7645 6.55641 12.7466C5.88809 11.7458 5.5018 10.3894 5.5018 8.63708ZM4.22828 12.9684C3.64385 11.7242 3.35902 10.2618 3.35902 8.63708C3.35902 6.01886 4.09871 3.82208 5.6399 2.28088C7.18109 0.739692 9.37788 0 11.9961 0C14.6143 0 16.8111 0.739692 18.3524 2.28088C19.8935 3.82208 20.6332 6.01886 20.6332 8.63708C20.6332 10.261 20.3486 11.7228 19.7647 12.9667C21.6327 14.0748 23.4193 15.9692 23.9689 18.3631C24.0584 18.7535 23.9229 19.1611 23.6175 19.4201C23.0384 19.9109 22.4396 20.1456 21.7976 20.2011C21.5822 20.2198 21.3655 20.2173 21.1533 20.2025C20.8906 21.6701 20.1103 22.995 18.5818 23.8602C18.271 24.0362 17.8926 24.0456 17.5733 23.8854C17.2541 23.7249 17.0356 23.416 16.991 23.0615C16.6713 20.5203 15.5156 18.538 14.015 17.1121C13.3756 17.2206 12.7011 17.2741 11.9961 17.2741C11.2922 17.2741 10.6188 17.2208 9.98044 17.1126C8.48008 18.5385 7.32469 20.5207 7.00499 23.0615C6.96039 23.416 6.74199 23.7249 6.42267 23.8854C6.10336 24.0456 5.72513 24.0362 5.41419 23.8602C3.88575 22.995 3.1054 21.6701 2.84273 20.2025C2.63057 20.2173 2.41391 20.2198 2.19843 20.2011C1.5564 20.1456 0.957558 19.9109 0.378576 19.4201C0.0731373 19.1611 -0.0623981 18.7535 0.027191 18.3631C0.576417 15.9705 2.36132 14.0769 4.22828 12.9684ZM10.5872 4.70538C11.1972 3.5534 12.8042 3.55316 13.4134 4.70627C13.6279 5.11227 13.7982 5.54019 13.9319 5.99767C14.3813 5.9982 14.818 6.03257 15.2486 6.10479C16.5342 6.32036 17.0952 7.85234 16.1552 8.81025C15.8436 9.12775 15.4982 9.41104 15.1131 9.66819C15.2426 10.0722 15.3376 10.4749 15.3996 10.8819C15.6 12.1957 14.2857 13.2238 13.0649 12.6032C12.694 12.4146 12.3408 12.1903 11.9986 11.927C11.6569 12.19 11.3044 12.4141 10.9342 12.6026C9.71349 13.2241 8.3991 12.1955 8.59946 10.8819C8.66155 10.4749 8.75645 10.0722 8.88603 9.66819C8.50093 9.41104 8.15546 9.12775 7.8439 8.81025C6.90387 7.85234 7.46488 6.32036 8.75047 6.10479C9.1811 6.03257 9.61782 5.9982 10.0673 5.99767C10.2012 5.53978 10.3721 5.11159 10.5872 4.70538Z" fill="white"/>
</g>
<defs>
<clipPath id="clip0_1112_3036">
<rect width="23.9992" height="23.9992" fill="white"/>
</clipPath>
</defs>
</svg>
