<svg width="24" height="24" viewBox="0 0 24 24" fill="none" xmlns="http://www.w3.org/2000/svg">
<g clip-path="url(#clip0_1110_1921)">
<path fill-rule="evenodd" clip-rule="evenodd" d="M11.9999 0C9.3887 0 7.29791 0.0815259 5.10732 0.236625C2.9572 0.38886 1.24637 2.10199 1.10578 4.25847C0.943036 6.75486 0.857422 9.34467 0.857422 11.9996C0.857422 14.6545 0.943036 17.2443 1.10578 19.7407C1.24637 21.8972 2.9572 23.6104 5.10732 23.7626C7.29791 23.9176 9.3887 23.9992 11.9999 23.9992C14.6111 23.9992 16.7019 23.9176 18.8925 23.7626C21.0426 23.6104 22.7534 21.8972 22.894 19.7407C23.0519 17.3204 23.1371 14.8123 23.1422 12.2422V12.2306L23.1424 11.9996C23.1424 11.2771 23.136 10.5595 23.1235 9.84728C23.0966 8.31508 22.6055 6.80159 21.6481 5.56435C20.2059 3.7003 18.9067 2.40134 16.9255 0.888745C16.2074 0.340428 15.337 0.0468264 14.4488 0.0265827L14.3372 0.0241055L14.3295 0.0239661C13.591 0.00805815 12.8209 0 11.9999 0ZM13.2427 2.14942C12.8412 2.14501 12.4279 2.14278 11.9999 2.14278C9.43937 2.14278 7.39903 2.22251 5.25865 2.37405C4.17426 2.45083 3.31473 3.31336 3.24402 4.39787C3.08436 6.84719 3.00021 9.3905 3.00021 11.9996C3.00021 14.6087 3.08436 17.152 3.24402 19.6013C3.31473 20.6858 4.17426 21.5484 5.25867 21.6252C7.39905 21.7767 9.43937 21.8564 11.9999 21.8564C14.5604 21.8564 16.6008 21.7767 18.7411 21.6252C19.8255 21.5484 20.685 20.6858 20.7558 19.6013C20.9086 17.258 20.9922 14.8288 20.9991 12.3382C20.7325 11.1389 20.0516 10.4693 19.1964 10.0554C18.2632 9.60372 17.1124 9.45912 16.0593 9.42866C14.5445 9.38483 13.2427 8.19564 13.2427 6.58759V2.14942Z" fill="#202020"/>
</g>
<defs>
<clipPath id="clip0_1110_1921">
<rect width="23.9992" height="23.9992" fill="white"/>
</clipPath>
</defs>
</svg>
