<svg width="24" height="24" viewBox="0 0 24 24" fill="none" xmlns="http://www.w3.org/2000/svg">
<g clip-path="url(#clip0_1112_3037)">
<path fill-rule="evenodd" clip-rule="evenodd" d="M11.9997 2.57052C10.2092 2.57052 8.44024 2.73174 6.68043 2.92682C4.70951 3.1453 3.11816 4.73924 2.90896 6.70637C2.72298 8.45507 2.5715 10.216 2.5715 11.9988C2.5715 13.7816 2.72298 15.5425 2.90896 17.2911C3.11816 19.2584 4.70951 20.8522 6.68043 21.0708C8.44024 21.2659 10.2092 21.427 11.9997 21.427C13.7903 21.427 15.5593 21.2659 17.319 21.0708C19.29 20.8522 20.8813 19.2584 21.0905 17.2911C21.2765 15.5425 21.428 13.7816 21.428 11.9988C21.428 10.216 21.2765 8.45507 21.0905 6.70637C20.8813 4.73924 19.29 3.1453 17.319 2.92682C15.5593 2.73174 13.7903 2.57052 11.9997 2.57052ZM6.44435 0.797078C8.2243 0.599762 10.0879 0.427734 11.9997 0.427734C13.9116 0.427734 15.7752 0.599762 17.5552 0.797078C20.5213 1.1259 22.9051 3.50736 23.2212 6.47976C23.4096 8.25052 23.5708 10.1009 23.5708 11.9988C23.5708 13.8966 23.4096 15.747 23.2212 17.5177C22.9051 20.4902 20.5213 22.8716 17.5552 23.2004C15.7752 23.3977 13.9116 23.5698 11.9997 23.5698C10.0879 23.5698 8.2243 23.3977 6.44435 23.2004C3.47812 22.8716 1.09431 20.4902 0.77819 17.5177C0.589869 15.747 0.428711 13.8966 0.428711 11.9988C0.428711 10.1009 0.589869 8.25052 0.77819 6.47976C1.09431 3.50736 3.47812 1.1259 6.44435 0.797078ZM17.7954 6.61068C17.7954 5.90063 17.2197 5.32501 16.5096 5.32501H7.47994C6.76989 5.32501 6.19427 5.90063 6.19427 6.61068C6.19427 7.32075 6.76989 7.89635 7.47994 7.89635H16.5096C17.2197 7.89635 17.7954 7.32075 17.7954 6.61068ZM16.5096 9.94487C17.2197 9.94487 17.7954 10.5205 17.7954 11.2305C17.7954 11.9406 17.2197 12.5162 16.5096 12.5162H7.47994C6.76989 12.5162 6.19427 11.9406 6.19427 11.2305C6.19427 10.5205 6.76989 9.94487 7.47994 9.94487H16.5096Z" fill="white"/>
</g>
<defs>
<clipPath id="clip0_1112_3037">
<rect width="23.9992" height="23.9992" fill="white" transform="translate(0 -0.000732422)"/>
</clipPath>
</defs>
</svg>
