<svg width="24" height="24" viewBox="0 0 24 24" fill="none" xmlns="http://www.w3.org/2000/svg">
<path fill-rule="evenodd" clip-rule="evenodd" d="M2.94266 2.20687C2.87785 2.26051 2.79087 2.37783 2.74839 2.58272C1.93607 6.5016 1.9456 10.2979 2.74892 14.2221C2.77432 14.3462 2.83847 14.4744 2.91911 14.5629C2.99412 14.6453 3.04994 14.6605 3.07913 14.6634L3.10289 14.6657C5.30754 14.9359 7.93576 16.2696 9.58342 17.342C10.0793 17.6648 10.2197 18.3285 9.8969 18.8245C9.57413 19.3204 8.91043 19.4606 8.41452 19.1378C6.86041 18.1264 4.56835 17.0075 2.85189 16.7941C1.55246 16.6566 0.829856 15.532 0.649674 14.6518C-0.210946 10.4477 -0.222332 6.35721 0.650208 2.1478C0.901934 0.933337 1.92943 -0.173649 3.46617 0.0229661L3.48912 0.0259012C6.37086 0.457997 8.97515 1.99932 11.0009 3.80591C13.0414 1.99856 15.6641 0.457747 18.5646 0.02598L18.5874 0.0225985C20.1233 -0.172502 21.1591 0.926028 21.414 2.14629C21.9567 4.74568 22.1607 7.30365 22.0314 9.87508C22.0016 10.466 21.4985 10.921 20.9076 10.8913C20.3165 10.8616 19.8616 10.3584 19.8914 9.76744C20.0112 7.38441 19.8228 5.00976 19.3163 2.58423C19.2739 2.38102 19.1868 2.26377 19.1207 2.20931C19.0696 2.1674 18.999 2.13253 18.8663 2.14748C16.3394 2.52755 13.9497 3.96857 12.0699 5.7304V11.8557C12.0699 12.4474 11.5902 12.9271 10.9985 12.9271C10.4068 12.9271 9.92712 12.4474 9.92712 11.8557V5.72843C8.06114 3.96656 5.69033 2.52697 3.18526 2.14734C3.05837 2.13299 2.99172 2.16626 2.94266 2.20687ZM14.9143 14.9161C14.3935 15.4369 14.0415 16.2725 14.0415 17.5357C14.0415 18.7987 14.3935 19.6344 14.9143 20.1552C15.4351 20.676 16.2706 21.0279 17.5338 21.0279C18.7303 21.0279 19.543 20.7122 20.0681 20.2363C20.0926 20.2056 20.1192 20.1761 20.1475 20.1477C20.1758 20.1196 20.2051 20.0932 20.2354 20.0688C20.7108 19.5437 21.026 18.7312 21.026 17.5357C21.026 16.2725 20.6741 15.4369 20.1533 14.9161C19.6325 14.3953 18.797 14.0434 17.5338 14.0434C16.2706 14.0434 15.4351 14.3953 14.9143 14.9161ZM17.5338 23.1707C18.778 23.1707 19.9032 22.9062 20.8229 22.3383L22.1701 23.6855C22.5885 24.1039 23.2669 24.1039 23.6853 23.6857C24.1038 23.2672 24.1038 22.5889 23.6853 22.1705L22.3378 20.8227C22.9048 19.9034 23.1688 18.779 23.1688 17.5357C23.1688 15.8781 22.6993 14.4318 21.6685 13.401C20.6376 12.3701 19.1915 11.9006 17.5338 11.9006C15.8762 11.9006 14.4299 12.3701 13.3991 13.401C12.3682 14.4318 11.8987 15.8781 11.8987 17.5357C11.8987 19.1932 12.3682 20.6395 13.3991 21.6704C14.4299 22.7012 15.8762 23.1707 17.5338 23.1707Z" fill="#1D6CFF"/>
</svg>
