<svg width="24" height="24" viewBox="0 0 24 24" fill="none" xmlns="http://www.w3.org/2000/svg">
<circle cx="3" cy="3" r="3" transform="matrix(-1 0 0 1 15 9)" stroke="#202020" stroke-width="2"/>
<path d="M12.0005 2L12.0005 1H12.0005V2ZM16.5005 4.9375L16.0005 5.80353L16.0006 5.80357L16.5005 4.9375ZM16.5005 19.0625L16.0005 18.1965L16.0005 18.1965L16.5005 19.0625ZM12.0005 22L12.0005 23L12.0005 23L12.0005 22ZM7.50049 19.0625L8.00063 18.1966L8.00049 18.1965L7.50049 19.0625ZM7.50049 4.9375L8.00049 5.80353L8.00058 5.80347L7.50049 4.9375ZM8.91981 3.01535L7.94534 2.79086L8.91981 3.01535ZM2.90771 9.68646L3.54378 8.91483L2.90771 9.68646ZM4.40899 18.5048L5.16799 17.8537L4.40899 18.5048ZM9.5352 21.6935L9.28937 22.6628L9.5352 21.6935ZM8.91971 20.9838L9.89413 20.7591L8.91971 20.9838ZM15.0795 20.9838L14.1051 20.7586L15.0795 20.9838ZM14.4637 21.6935L14.2179 20.7242L14.4637 21.6935ZM19.5899 18.505L18.831 17.8538L19.5899 18.505ZM21.4419 8.70679L22.3862 8.37756L21.4419 8.70679ZM21.0924 9.68652L21.7286 10.458L21.0924 9.68652ZM2.90758 14.3127L2.27164 13.5409L2.90758 14.3127ZM19.591 5.49417L18.832 6.14527L19.591 5.49417ZM4.40896 5.49421L3.64997 4.84311L4.40896 5.49421ZM21.442 15.2921L22.3862 15.6213L21.442 15.2921ZM15.0794 3.01539L14.105 3.24038L15.0794 3.01539ZM12.0005 2L12.0004 3C12.767 3.00003 13.5098 3.09557 14.2181 3.27496L14.4636 2.30557L14.7091 1.33618C13.8415 1.11644 12.9339 1.00004 12.0005 1L12.0005 2ZM15.0794 3.01539L14.105 3.24038C14.3451 4.2803 15.0002 5.22601 16.0005 5.80353L16.5005 4.9375L17.0005 4.07147C16.5014 3.78334 16.1746 3.31388 16.0537 2.7904L15.0794 3.01539ZM16.5005 4.9375L16.0006 5.80357C16.9188 6.33362 17.9601 6.45549 18.9133 6.23061L18.6837 5.25733L18.4541 4.28404C17.9746 4.39716 17.458 4.33559 17.0004 4.07143L16.5005 4.9375ZM19.591 5.49417L18.832 6.14527C19.5556 6.98876 20.1248 7.96654 20.4977 9.03601L21.4419 8.70679L22.3862 8.37756C21.9296 7.06818 21.2334 5.87282 20.35 4.84306L19.591 5.49417ZM21.0924 9.68652L20.4561 8.91503C19.5692 9.64651 19.0005 10.7566 19.0005 12H20.0005H21.0005C21.0005 11.3795 21.2821 10.8263 21.7286 10.458L21.0924 9.68652ZM20.0005 12H19.0005C19.0005 13.2436 19.5696 14.3531 20.4564 15.0842L21.0925 14.3126L21.7286 13.541C21.282 13.1728 21.0005 12.62 21.0005 12H20.0005ZM21.442 15.2921L20.4977 14.9628C20.1248 16.0323 19.5552 17.01 18.831 17.8538L19.5899 18.505L20.3488 19.1563C21.2325 18.1265 21.9295 16.9313 22.3862 15.6213L21.442 15.2921ZM18.6829 18.742L18.912 17.7686C17.9589 17.5442 16.9182 17.6667 16.0005 18.1965L16.5005 19.0625L17.0004 19.9285C17.4582 19.6643 17.9745 19.6026 18.4537 19.7154L18.6829 18.742ZM16.5005 19.0625L16.0005 18.1965C15.0005 18.7738 14.3454 19.7189 14.1051 20.7586L15.0795 20.9838L16.0538 21.209C16.1747 20.6858 16.5014 20.2167 17.0005 19.9285L16.5005 19.0625ZM14.4637 21.6935L14.2179 20.7242C13.5093 20.9039 12.7667 21 12.0004 21L12.0005 22L12.0005 23C12.9345 23 13.8422 22.8828 14.7096 22.6628L14.4637 21.6935ZM12.0005 22V21C11.2336 21 10.4901 20.904 9.78103 20.7242L9.5352 21.6935L9.28937 22.6628C10.1575 22.883 11.0661 23 12.0005 23V22ZM8.91971 20.9838L9.89413 20.7591C9.65449 19.72 9.00095 18.7743 8.00063 18.1966L7.50049 19.0625L7.00034 19.9284C7.49857 20.2162 7.82455 20.685 7.94528 21.2086L8.91971 20.9838ZM7.50049 19.0625L8.00049 18.1965C7.0825 17.6665 6.04084 17.5438 5.0871 17.7684L5.31636 18.7418L5.54563 19.7152C6.02522 19.6022 6.54247 19.6641 7.00049 19.9285L7.50049 19.0625ZM4.40899 18.5048L5.16799 17.8537C4.4443 17.0101 3.87506 16.0324 3.50226 14.963L2.55799 15.2921L1.61372 15.6213C2.07023 16.9309 2.76663 18.1261 3.64999 19.1559L4.40899 18.5048ZM2.90758 14.3127L3.54353 15.0844C4.43042 14.3536 5.00049 13.2441 5.00049 12H4.00049H3.00049C3.00049 12.6196 2.71877 13.1725 2.27164 13.5409L2.90758 14.3127ZM4.00049 12H5.00049C5.00049 10.7561 4.43083 9.64603 3.54378 8.91483L2.90771 9.68646L2.27165 10.4581C2.71867 10.8266 3.00049 11.3799 3.00049 12H4.00049ZM2.55809 8.70676L3.50234 9.03599C3.87521 7.96656 4.44438 6.98879 5.16796 6.14531L4.40896 5.49421L3.64997 4.84311C2.76662 5.87284 2.07036 7.06818 1.61384 8.37754L2.55809 8.70676ZM5.31633 5.25738L5.08668 6.23065C6.04015 6.45563 7.08197 6.33383 8.00049 5.80353L7.50049 4.9375L7.00049 4.07147C6.54284 4.3357 6.02585 4.39733 5.54598 4.2841L5.31633 5.25738ZM7.50049 4.9375L8.00058 5.80347C9.00138 5.22552 9.65485 4.27923 9.89429 3.23983L8.91981 3.01535L7.94534 2.79086C7.82465 3.31478 7.49863 3.7838 7.00039 4.07153L7.50049 4.9375ZM9.53537 2.30557L9.78088 3.27496C10.4896 3.09547 11.2332 3 12.0005 3V2V1C11.0667 1 10.1582 1.11626 9.28985 1.33617L9.53537 2.30557ZM8.91981 3.01535L9.89429 3.23983C9.89779 3.22465 9.90225 3.21279 9.90588 3.20511C9.90955 3.19736 9.91066 3.19744 9.90596 3.20316C9.90106 3.20912 9.88874 3.22247 9.86658 3.23724C9.84358 3.25258 9.81424 3.26651 9.78088 3.27496L9.53537 2.30557L9.28985 1.33617C8.47767 1.54187 8.07269 2.23804 7.94534 2.79086L8.91981 3.01535ZM2.90771 9.68646L3.54378 8.91483C3.53 8.90347 3.5194 8.89191 3.51241 8.88258C3.50535 8.87315 3.50514 8.87026 3.50757 8.87648C3.51015 8.88307 3.51643 8.90204 3.51778 8.93225C3.51921 8.96396 3.51475 9.00039 3.50234 9.03599L2.55809 8.70676L1.61384 8.37754C1.30164 9.27296 1.78927 10.0605 2.27165 10.4581L2.90771 9.68646ZM5.31636 18.7418L5.0871 17.7684C5.07198 17.772 5.05941 17.7732 5.05094 17.7734C5.0424 17.7735 5.04196 17.7725 5.04909 17.7741C5.05653 17.7759 5.07379 17.781 5.09667 17.7941C5.12041 17.8078 5.14573 17.8278 5.16799 17.8537L4.40899 18.5048L3.64999 19.1559C4.19365 19.7897 4.99426 19.845 5.54563 19.7152L5.31636 18.7418ZM9.5352 21.6935L9.78103 20.7242C9.81434 20.7327 9.84362 20.7466 9.86658 20.7619C9.88869 20.7766 9.90098 20.7899 9.90586 20.7959C9.91054 20.8016 9.90942 20.8016 9.90574 20.7939C9.9021 20.7862 9.89764 20.7743 9.89413 20.7591L8.91971 20.9838L7.94528 21.2086C8.07274 21.7612 8.47765 22.457 9.28937 22.6628L9.5352 21.6935ZM15.0795 20.9838L14.1051 20.7586C14.1016 20.7739 14.0971 20.7858 14.0934 20.7936C14.0897 20.8014 14.0886 20.8014 14.0932 20.7958C14.0981 20.7899 14.1103 20.7766 14.1324 20.7619C14.1553 20.7466 14.1846 20.7327 14.2179 20.7242L14.4637 21.6935L14.7096 22.6628C15.5213 22.457 15.9261 21.7613 16.0538 21.209L15.0795 20.9838ZM19.5899 18.505L18.831 17.8538C18.8533 17.8279 18.8786 17.808 18.9023 17.7943C18.9252 17.7811 18.9424 17.776 18.9499 17.7743C18.957 17.7726 18.9566 17.7737 18.9481 17.7735C18.9396 17.7734 18.9271 17.7721 18.912 17.7686L18.6829 18.742L18.4537 19.7154C19.0051 19.8452 19.8053 19.7897 20.3488 19.1563L19.5899 18.505ZM21.4419 8.70679L20.4977 9.03601C20.4853 9.00041 20.4808 8.96398 20.4822 8.93227C20.4836 8.90207 20.4899 8.88311 20.4924 8.87654C20.4948 8.87034 20.4946 8.87324 20.4875 8.8827C20.4805 8.89206 20.4699 8.90365 20.4561 8.91503L21.0924 9.68652L21.7286 10.458C22.2107 10.0604 22.6984 9.27297 22.3862 8.37756L21.4419 8.70679ZM2.55799 15.2921L3.50226 14.963C3.51467 14.9986 3.51913 15.035 3.5177 15.0667C3.51635 15.0969 3.51006 15.1159 3.50748 15.1225C3.50503 15.1288 3.50522 15.1259 3.51226 15.1165C3.51922 15.1072 3.52979 15.0957 3.54353 15.0844L2.90758 14.3127L2.27164 13.5409C1.78912 13.9385 1.30162 14.726 1.61372 15.6213L2.55799 15.2921ZM18.6837 5.25733L18.9133 6.23061C18.9284 6.22706 18.9409 6.22583 18.9493 6.22569C18.9578 6.22555 18.9582 6.22656 18.951 6.22489C18.9436 6.22315 18.9263 6.21806 18.9034 6.20486C18.8796 6.19116 18.8543 6.17122 18.832 6.14527L19.591 5.49417L20.35 4.84306C19.8063 4.2093 19.0057 4.15393 18.4541 4.28404L18.6837 5.25733ZM4.40896 5.49421L5.16796 6.14531C5.14569 6.17126 5.12037 6.1912 5.09661 6.2049C5.07372 6.2181 5.05643 6.22319 5.04896 6.22493C5.04179 6.2266 5.04219 6.22558 5.05068 6.22572C5.0591 6.22586 5.07161 6.22709 5.08668 6.23065L5.31633 5.25738L5.54598 4.2841C4.99439 4.15395 4.19368 4.20931 3.64997 4.84311L4.40896 5.49421ZM21.0925 14.3126L20.4564 15.0842C20.4701 15.0955 20.4807 15.1071 20.4877 15.1164C20.4948 15.1258 20.495 15.1287 20.4925 15.1225C20.4899 15.1159 20.4836 15.0969 20.4823 15.0666C20.4809 15.0349 20.4853 14.9985 20.4977 14.9628L21.442 15.2921L22.3862 15.6213C22.6984 14.726 22.2109 13.9386 21.7286 13.541L21.0925 14.3126ZM14.4636 2.30557L14.2181 3.27496C14.1847 3.26651 14.1554 3.25258 14.1324 3.23726C14.1103 3.22251 14.098 3.20919 14.0931 3.20328C14.0885 3.19761 14.0896 3.19759 14.0933 3.20541C14.097 3.21317 14.1015 3.22511 14.105 3.24038L15.0794 3.01539L16.0537 2.7904C15.9262 2.23802 15.5213 1.54189 14.7091 1.33618L14.4636 2.30557Z" fill="#202020"/>
</svg>
