<svg width="24" height="24" viewBox="0 0 24 24" fill="none" xmlns="http://www.w3.org/2000/svg">
<g clip-path="url(#clip0_1060_3049)">
<path fill-rule="evenodd" clip-rule="evenodd" d="M9.64186 4.4863C9.64186 3.5864 9.89164 3.03464 10.2194 2.70683C10.5473 2.37902 11.099 2.12924 11.9989 2.12924C12.8988 2.12924 13.4506 2.37902 13.7784 2.70683C14.1062 3.03464 14.356 3.5864 14.356 4.4863C14.356 5.38618 14.1062 5.93794 13.7784 6.26577C13.4506 6.59358 12.8988 6.84336 11.9989 6.84336C11.099 6.84336 10.5473 6.59358 10.2194 6.26577C9.89164 5.93794 9.64186 5.38618 9.64186 4.4863ZM11.9989 -0.0135498C10.7046 -0.0135498 9.54214 0.353791 8.70428 1.19165C7.86641 2.0295 7.49907 3.19197 7.49907 4.4863C7.49907 5.78061 7.86641 6.94308 8.70428 7.78094C8.75107 7.82774 8.79888 7.87307 8.84767 7.91695C8.13541 8.22488 7.47876 8.63665 6.9139 9.13834C5.56923 10.3326 4.7297 12.058 4.96808 14.07C5.00036 14.3426 5.03871 14.6268 5.08285 14.9268C5.27418 16.2265 6.39029 17.1677 7.68033 17.1677H7.94333L8.55445 21.0192C8.82422 22.7192 10.2747 23.9857 11.9958 23.9857C13.7169 23.9857 15.1674 22.7192 15.4372 21.0192L16.0483 17.1677H16.3241C17.6043 17.1677 18.7195 16.2398 18.9163 14.9458C18.9595 14.6616 18.9971 14.391 19.0286 14.1297C19.2732 12.103 18.4225 10.3627 17.0655 9.15803C16.5003 8.65628 15.8439 8.24313 15.1325 7.93272C15.1874 7.88395 15.2411 7.83336 15.2936 7.78094C16.1314 6.94308 16.4988 5.78061 16.4988 4.4863C16.4988 3.19197 16.1314 2.0295 15.2936 1.19165C14.4557 0.353791 13.2932 -0.0135498 11.9989 -0.0135498Z" fill="white"/>
</g>
<defs>
<clipPath id="clip0_1060_3049">
<rect width="23.9992" height="23.9992" fill="white" transform="translate(-0.000976562)"/>
</clipPath>
</defs>
</svg>
