<svg width="24" height="24" viewBox="0 0 24 24" fill="none" xmlns="http://www.w3.org/2000/svg">
<g clip-path="url(#clip0_1060_3043)">
<path fill-rule="evenodd" clip-rule="evenodd" d="M9.64283 4.4863C9.64283 3.5864 9.89261 3.03464 10.2204 2.70683C10.5482 2.37902 11.1 2.12924 11.9999 2.12924C12.8998 2.12924 13.4516 2.37902 13.7794 2.70683C14.1072 3.03464 14.357 3.5864 14.357 4.4863C14.357 5.38618 14.1072 5.93794 13.7794 6.26577C13.4516 6.59358 12.8998 6.84336 11.9999 6.84336C11.1 6.84336 10.5482 6.59358 10.2204 6.26577C9.89261 5.93794 9.64283 5.38618 9.64283 4.4863ZM11.9999 -0.0135498C10.7056 -0.0135498 9.54312 0.353791 8.70525 1.19165C7.86739 2.0295 7.50005 3.19197 7.50005 4.4863C7.50005 5.78061 7.86739 6.94308 8.70525 7.78094C8.75205 7.82774 8.79986 7.87307 8.84865 7.91695C8.13639 8.22488 7.47973 8.63665 6.91488 9.13834C5.57021 10.3326 4.73068 12.058 4.96906 14.07C5.00134 14.3426 5.03969 14.6268 5.08383 14.9268C5.27515 16.2265 6.39127 17.1677 7.68131 17.1677H7.94431L8.55543 21.0192C8.8252 22.7192 10.2757 23.9857 11.9968 23.9857C13.7179 23.9857 15.1684 22.7192 15.4381 21.0192L16.0493 17.1677H16.3251C17.6052 17.1677 18.7205 16.2398 18.9173 14.9458C18.9605 14.6616 18.9981 14.391 19.0296 14.1297C19.2742 12.103 18.4234 10.3627 17.0665 9.15803C16.5012 8.65628 15.8449 8.24313 15.1335 7.93272C15.1884 7.88395 15.2421 7.83336 15.2945 7.78094C16.1324 6.94308 16.4997 5.78061 16.4997 4.4863C16.4997 3.19197 16.1324 2.0295 15.2945 1.19165C14.4567 0.353791 13.2942 -0.0135498 11.9999 -0.0135498Z" fill="#202020"/>
</g>
<defs>
<clipPath id="clip0_1060_3043">
<rect width="23.9992" height="23.9992" fill="white"/>
</clipPath>
</defs>
</svg>
