<svg width="24" height="24" viewBox="0 0 24 24" fill="none" xmlns="http://www.w3.org/2000/svg">
<g clip-path="url(#clip0_420_3805)">
<path fill-rule="evenodd" clip-rule="evenodd" d="M1.0504 6.60004C1.5904 6.60004 1.2804 6.06004 1.2404 3.79004C1.2404 2.10004 1.1404 1.49004 3.0404 1.21004C4.1104 1.06004 5.2704 1.21004 6.3404 1.16004C6.43437 1.14504 6.51992 1.09703 6.58167 1.02463C6.64343 0.952238 6.67735 0.860196 6.67735 0.765038C6.67735 0.669879 6.64343 0.577837 6.58167 0.505441C6.51992 0.433044 6.43437 0.385036 6.3404 0.370038C4.4504 0.220038 2.3804 -0.659962 0.500402 1.00004C-0.569598 2.00004 0.500402 5.09004 0.680402 6.30004C0.690482 6.38854 0.734894 6.46956 0.804086 6.52566C0.873278 6.58176 0.961724 6.60847 1.0504 6.60004Z" fill="#0C6FFF"/>
<path fill-rule="evenodd" clip-rule="evenodd" d="M6.33983 22.8401C5.26983 22.7901 4.10983 22.9401 3.03983 22.7901C1.12983 22.5101 1.20983 21.8901 1.23983 20.2101C1.23983 17.9501 1.58983 17.4501 1.04983 17.4001C0.958582 17.3945 0.868787 17.4249 0.799643 17.4847C0.7305 17.5445 0.687497 17.629 0.67983 17.7201C0.45983 19.0001 -0.580171 22.0501 0.49983 23.0001C2.36983 24.6301 4.43983 23.7601 6.34983 23.6101C6.43344 23.5853 6.50669 23.534 6.55842 23.4638C6.61016 23.3936 6.63754 23.3085 6.63641 23.2213C6.63528 23.1341 6.60569 23.0497 6.55215 22.9809C6.49861 22.912 6.42406 22.8626 6.33983 22.8401Z" fill="#0C6FFF"/>
<path fill-rule="evenodd" clip-rule="evenodd" d="M17.6605 1.16009C18.7305 1.21009 19.8905 1.06009 20.9605 1.21009C22.8605 1.49009 22.7905 2.10009 22.7605 3.79009C22.7605 6.06009 22.4105 6.55009 22.9505 6.60009C22.996 6.60419 23.0418 6.59909 23.0853 6.58509C23.1287 6.57109 23.1689 6.54849 23.2034 6.51863C23.238 6.48876 23.2661 6.45225 23.2862 6.41127C23.3064 6.37029 23.318 6.32568 23.3205 6.28009C23.5405 5.00009 24.5805 2.00009 23.5005 1.00009C21.6305 -0.649908 19.5605 0.220092 17.6505 0.370092C17.5567 0.386238 17.4717 0.435311 17.4108 0.508495C17.35 0.581678 17.3172 0.674173 17.3184 0.769359C17.3196 0.864545 17.3547 0.956181 17.4174 1.0278C17.4801 1.09942 17.5663 1.14633 17.6605 1.16009Z" fill="#0C6FFF"/>
<path fill-rule="evenodd" clip-rule="evenodd" d="M23 17.4001C22.46 17.4501 22.77 17.9401 22.81 20.2101C22.81 21.8901 22.92 22.5101 21.01 22.7901C19.94 22.9401 18.78 22.7901 17.71 22.8401C17.616 22.8551 17.5305 22.9031 17.4687 22.9755C17.407 23.0479 17.373 23.1399 17.373 23.2351C17.373 23.3302 17.407 23.4223 17.4687 23.4947C17.5305 23.5671 17.616 23.6151 17.71 23.6301C19.61 23.7801 21.71 24.6301 23.56 23.0201C24.63 22.0201 23.56 19.0201 23.38 17.7201C23.3762 17.674 23.3634 17.6292 23.3422 17.5882C23.321 17.5472 23.2919 17.5107 23.2566 17.481C23.2213 17.4512 23.1804 17.4288 23.1364 17.4149C23.0924 17.401 23.046 17.396 23 17.4001Z" fill="#0C6FFF"/>
<path fill-rule="evenodd" clip-rule="evenodd" d="M10 8.00009C9.78062 7.82613 9.51189 7.72586 9.23215 7.71356C8.9524 7.70127 8.67592 7.77758 8.44208 7.93162C8.20825 8.08566 8.029 8.30958 7.92987 8.57146C7.83075 8.83334 7.81681 9.11983 7.89003 9.39009C7.88084 9.43409 7.8804 9.47946 7.88875 9.52362C7.89709 9.56778 7.91405 9.60987 7.93866 9.64748C7.96326 9.68508 7.99504 9.71748 8.03216 9.74281C8.06929 9.76813 8.11104 9.7859 8.15503 9.79509C8.19903 9.80429 8.2444 9.80472 8.28856 9.79638C8.33272 9.78804 8.37481 9.77108 8.41242 9.74647C8.45003 9.72186 8.48242 9.69009 8.50775 9.65296C8.53307 9.61584 8.55084 9.57409 8.56003 9.53009C8.56003 9.46009 9.50003 8.74009 9.72003 8.77009C9.82214 8.80722 9.93482 8.80227 10.0333 8.75632C10.1317 8.71038 10.2079 8.6272 10.245 8.52509C10.2822 8.42298 10.2772 8.31031 10.2313 8.21185C10.1853 8.1134 10.1021 8.03722 10 8.00009Z" fill="#020202"/>
<path fill-rule="evenodd" clip-rule="evenodd" d="M12.0003 8.51999L13.1303 8.08999C13.2452 8.04252 13.3665 8.0122 13.4903 7.99999C13.5382 8.01903 13.5894 8.02844 13.641 8.02769C13.6926 8.02694 13.7435 8.01604 13.7909 7.99561C13.8382 7.97518 13.8811 7.94563 13.917 7.90863C13.953 7.87163 13.9812 7.82792 14.0003 7.77999C14.0193 7.73206 14.0287 7.68084 14.028 7.62927C14.0272 7.5777 14.0163 7.52678 13.9959 7.47942C13.9755 7.43207 13.9459 7.3892 13.9089 7.35326C13.8719 7.31733 13.8282 7.28903 13.7803 7.26999C13.5915 7.0892 13.3558 6.9649 13.1 6.91114C12.8441 6.85739 12.5784 6.87634 12.3328 6.96584C12.0871 7.05534 11.8715 7.21183 11.7102 7.41757C11.549 7.62332 11.4485 7.8701 11.4203 8.12999C11.3745 8.20689 11.36 8.29838 11.3796 8.38568C11.3992 8.47297 11.4515 8.54944 11.5258 8.59936C11.6 8.64929 11.6906 8.66888 11.7788 8.65412C11.8671 8.63936 11.9463 8.59136 12.0003 8.51999Z" fill="#020202"/>
<path fill-rule="evenodd" clip-rule="evenodd" d="M12.9997 11C13.0103 10.8966 12.9794 10.7932 12.9138 10.7126C12.8481 10.6319 12.7532 10.5806 12.6497 10.57C12.5463 10.5594 12.4429 10.5903 12.3622 10.656C12.2816 10.7216 12.2303 10.8166 12.2197 10.92C12.1873 11.0211 12.1341 11.1142 12.0634 11.1935C11.9928 11.2727 11.9064 11.3362 11.8097 11.38C11.2895 11.4503 10.7601 11.3632 10.2897 11.13C10.2623 11.0889 10.2266 11.0541 10.1848 11.0278C10.143 11.0015 10.0961 10.9844 10.0471 10.9775C9.99823 10.9706 9.94842 10.9742 9.90098 10.9879C9.85355 11.0017 9.80956 11.0253 9.77191 11.0573C9.73426 11.0892 9.7038 11.1288 9.68253 11.1734C9.66127 11.218 9.64968 11.2665 9.64853 11.3159C9.64738 11.3653 9.6567 11.4144 9.67586 11.4599C9.69502 11.5054 9.72361 11.5464 9.75973 11.58C10.6697 13.49 13.1197 12.93 12.9997 11Z" fill="#020202"/>
<path fill-rule="evenodd" clip-rule="evenodd" d="M18.179 19.78C18.231 19.78 18.2826 19.7696 18.3305 19.7494C18.3785 19.7292 18.422 19.6995 18.4583 19.6623C18.4947 19.625 18.5232 19.5808 18.5422 19.5323C18.5612 19.4838 18.5703 19.432 18.569 19.38C18.829 16.17 17.649 14.38 15.859 13.13C16.5144 12.5122 16.9967 11.7336 17.2579 10.8716C17.5192 10.0096 17.5502 9.09421 17.348 8.21649C17.1457 7.33877 16.7173 6.52928 16.1052 5.8685C15.4931 5.20772 14.7187 4.71868 13.859 4.44999C8.41895 2.49999 2.79895 7.56999 6.18895 12.62C6.6826 13.3574 7.33097 13.9785 8.08895 14.44C6.40895 15.57 5.37895 17 5.43895 20.13C5.44506 20.2263 5.48575 20.3171 5.55355 20.3858C5.62134 20.4544 5.71166 20.4962 5.80786 20.5036C5.90406 20.5109 5.99967 20.4831 6.07705 20.4255C6.15443 20.3679 6.20838 20.2843 6.22895 20.19C6.62734 18.188 7.55641 16.3299 8.91895 14.81C9.40365 15.0128 9.92354 15.1181 10.449 15.12C10.4992 15.1286 10.5507 15.1261 10.5998 15.1127C10.649 15.0993 10.6946 15.0754 10.7336 15.0425C10.7725 15.0097 10.8038 14.9687 10.8253 14.9225C10.8468 14.8763 10.8579 14.8259 10.8579 14.775C10.8579 14.724 10.8468 14.6737 10.8253 14.6275C10.8038 14.5813 10.7725 14.5403 10.7336 14.5075C10.6946 14.4746 10.649 14.4507 10.5998 14.4373C10.5507 14.4239 10.4992 14.4214 10.449 14.43C9.94128 14.3875 9.44774 14.2411 8.99895 14C7.93058 13.4938 7.09338 12.602 6.65558 11.5038C6.21779 10.4056 6.21185 9.18239 6.63895 8.07999C8.06895 5.07999 13.019 4.43999 15.309 6.89999C17.599 9.35999 15.859 13.38 12.579 14C12.4881 14.0298 12.411 14.0912 12.3615 14.1729C12.312 14.2547 12.2935 14.3515 12.3092 14.4458C12.3249 14.5401 12.3739 14.6256 12.4472 14.6869C12.5205 14.7482 12.6134 14.7812 12.709 14.78C13.6375 14.6447 14.5157 14.2728 15.259 13.7C16.0913 14.7057 16.7472 15.8452 17.199 17.07C17.999 19.18 17.569 19.79 18.179 19.78Z" fill="#020202"/>
</g>
<defs>
<clipPath id="clip0_420_3805">
<rect width="24" height="24" fill="white"/>
</clipPath>
</defs>
</svg>
