<svg width="64" height="64" viewBox="0 0 64 64" fill="none" xmlns="http://www.w3.org/2000/svg">
<path fill-rule="evenodd" clip-rule="evenodd" d="M35.5589 32.4738C33.9326 26.9815 27.5604 28.7945 26.174 30.3675C25.7689 30.8278 25.4742 31.3744 25.3125 31.9659C25.1508 32.5573 25.1263 33.1779 25.2409 33.7802C25.6408 37.5929 27.907 39.1126 31.933 38.2861C32.5747 38.1849 33.1873 37.947 33.729 37.5885C34.2708 37.2299 34.7292 36.7591 35.073 36.2078C35.4169 35.6566 35.6383 35.0379 35.7221 34.3937C35.806 33.7494 35.7503 33.0947 35.5589 32.4738ZM31.2131 34.82C28.9468 35.3266 28.5469 34.6867 28.227 33.247C28.067 32.6071 28.0137 32.1272 28.4136 31.7806C28.8135 31.434 32.3062 29.1144 32.7595 33.0604C32.7901 33.2806 32.773 33.5048 32.7091 33.7178C32.6453 33.9308 32.5362 34.1275 32.3895 34.2945C32.2427 34.4615 32.0616 34.5949 31.8586 34.6856C31.6556 34.7763 31.4354 34.8222 31.2131 34.82Z" fill="#020202"/>
<path fill-rule="evenodd" clip-rule="evenodd" d="M2.73676 17.5966C4.17649 17.5966 3.34998 16.1302 3.24334 10.1047C3.24334 5.59888 2.97672 3.97252 8.04244 3.22599C10.8952 2.82606 13.988 3.22599 16.8408 3.09268C17.0913 3.05269 17.3194 2.92469 17.4841 2.73167C17.6487 2.53865 17.7392 2.29325 17.7392 2.03954C17.7392 1.78584 17.6487 1.54044 17.4841 1.34742C17.3194 1.1544 17.0913 1.0264 16.8408 0.986408C12.0684 0.613144 6.28277 -1.75975 1.27037 2.66609C-1.58243 5.33226 1.27037 13.4641 1.75028 16.7968C1.76014 16.915 1.79381 17.03 1.84926 17.1349C1.90471 17.2398 1.9808 17.3324 2.07295 17.4071C2.1651 17.4818 2.27141 17.5371 2.38549 17.5697C2.49957 17.6023 2.61905 17.6114 2.73676 17.5966Z" fill="#0C6FFF"/>
<path fill-rule="evenodd" clip-rule="evenodd" d="M16.8427 60.8948C13.9899 60.7615 10.8971 61.1615 8.04433 60.7615C2.8453 60.015 3.4052 57.6421 3.4052 57.5355C3.21609 54.1584 3.27847 50.7719 3.59183 47.404C3.62266 47.2737 3.62506 47.1382 3.59886 47.0068C3.57266 46.8754 3.51847 46.7512 3.43998 46.6426C3.36149 46.534 3.26054 46.4436 3.14399 46.3775C3.02745 46.3114 2.89803 46.2712 2.76456 46.2596C2.63108 46.248 2.49667 46.2653 2.37047 46.3103C2.24427 46.3552 2.12923 46.4269 2.03317 46.5203C1.93712 46.6137 1.8623 46.7267 1.81382 46.8515C1.76533 46.9764 1.7443 47.1103 1.75217 47.2441C1.37891 49.377 -0.64738 55.9091 0.205794 59.5351C0.872336 62.2013 4.84493 63.8276 7.72439 63.9609C10.7905 63.8419 13.8454 63.5213 16.8693 63.0011C17.1195 62.9581 17.346 62.8272 17.5084 62.6321C17.6707 62.437 17.7581 62.1904 17.7548 61.9366C17.7516 61.6828 17.658 61.4385 17.4908 61.2476C17.3236 61.0566 17.0938 60.9315 16.8427 60.8948Z" fill="#0C6FFF"/>
<path fill-rule="evenodd" clip-rule="evenodd" d="M47.0213 3.09276C49.8741 3.22606 52.9668 2.82614 55.8196 3.22606C61.152 3.97259 60.4588 6.34548 60.4854 6.45213C60.6679 9.82986 60.5966 13.2165 60.2721 16.5836C60.2509 16.8311 60.3289 17.0768 60.4889 17.2668C60.6489 17.4568 60.8778 17.5755 61.1253 17.5967C61.3728 17.6179 61.6186 17.54 61.8086 17.38C61.9986 17.22 62.1173 16.991 62.1385 16.7435C62.4851 14.6906 64.538 8.07849 63.6582 4.4525C62.9916 1.67969 59.019 0.15997 56.1662 0C53.0912 0.11765 50.0274 0.438288 46.9946 0.959821C46.7118 0.963356 46.4419 1.07911 46.2444 1.28161C46.0469 1.48411 45.938 1.75677 45.9415 2.03962C45.945 2.32246 46.0608 2.59232 46.2633 2.78982C46.4658 2.98732 46.7384 3.09629 47.0213 3.09276Z" fill="#0C6FFF"/>
<path fill-rule="evenodd" clip-rule="evenodd" d="M61.2587 46.3914C59.819 46.5247 60.6455 47.8311 60.7522 53.8833C60.7788 55.1024 60.7343 56.3221 60.6189 57.536C60.6189 57.536 61.1787 60.0155 55.9531 60.7621C50.7274 61.5086 46.1416 59.8022 46.0882 61.9352C46.0847 62.0739 46.1089 62.212 46.1596 62.3413C46.2103 62.4705 46.2863 62.5883 46.3832 62.6877C46.4801 62.7871 46.5959 62.8661 46.7239 62.92C46.8518 62.9739 46.9892 63.0017 47.128 63.0016C50.1608 63.5232 53.2247 63.8438 56.2997 63.9615C59.1525 63.9615 63.1251 62.3084 63.7916 59.5356C64.6448 55.9629 62.5918 49.1109 62.2719 47.2446C62.2618 47.1219 62.2276 47.0024 62.1711 46.893C62.1147 46.7835 62.0371 46.6864 61.9429 46.6071C61.8487 46.5278 61.7398 46.4679 61.6224 46.4309C61.505 46.3939 61.3814 46.3804 61.2587 46.3914Z" fill="#0C6FFF"/>
<path fill-rule="evenodd" clip-rule="evenodd" d="M47.1827 34.4739C50.1111 34.782 53.0709 34.5745 55.9277 33.8606C56.179 33.8058 56.4021 33.6619 56.5557 33.4556C56.7093 33.2493 56.7832 32.9944 56.7637 32.7379C56.7442 32.4814 56.6327 32.2406 56.4497 32.0599C56.2666 31.8791 56.0245 31.7706 55.7677 31.7544C50.942 31.4877 50.7553 30.5279 43.93 31.5411C43.6737 28.7772 42.4049 26.2056 40.3674 24.3206C38.3298 22.4357 35.6674 21.3704 32.892 21.3296C33.8794 17.5572 33.7777 13.5822 32.5987 9.86512C32.5472 9.64709 32.4189 9.45488 32.2373 9.32363C32.0557 9.19237 31.833 9.13083 31.6098 9.15024C31.3866 9.16965 31.1778 9.26871 31.0216 9.42934C30.8654 9.58997 30.7722 9.80143 30.7591 10.0251C29.8882 13.7328 29.7794 17.5787 30.4391 21.3296C27.5902 21.5272 24.8742 22.6098 22.6705 24.4263C20.4669 26.2427 18.8858 28.7022 18.1481 31.4611C18.1481 31.7544 18.6547 31.7544 14.8154 31.4611C12.149 31.2001 9.45996 31.2898 6.81689 31.7277C6.68298 31.7048 6.5457 31.7115 6.41462 31.7471C6.28354 31.7828 6.16184 31.8467 6.05801 31.9343C5.95417 32.0219 5.87072 32.1311 5.81347 32.2543C5.75622 32.3775 5.72656 32.5117 5.72656 32.6475C5.72656 32.7834 5.75622 32.9176 5.81347 33.0408C5.87072 33.164 5.95417 33.2732 6.05801 33.3608C6.16184 33.4484 6.28354 33.5122 6.41462 33.5479C6.5457 33.5836 6.68298 33.5902 6.81689 33.5674C11.7226 34.7671 12.6025 35.5403 18.1748 34.1806C18.4382 37.0464 19.7846 39.7038 21.9397 41.6111C24.0947 43.5185 26.896 44.5321 29.7726 44.4453C29.3098 47.6497 29.5002 50.9147 30.3325 54.0435C30.3725 54.2941 30.5005 54.5221 30.6935 54.6868C30.8865 54.8515 31.1319 54.9419 31.3856 54.9419C31.6393 54.9419 31.8847 54.8515 32.0778 54.6868C32.2708 54.5221 32.3988 54.2941 32.4388 54.0435C33.382 50.2553 33.0829 46.2643 31.5856 42.659C31.5856 40.2061 28.1196 45.1119 23.0272 39.4063C16.4418 31.9943 26.3066 22.2095 35.4515 25.1423C43.45 27.8084 43.45 39.9395 34.1185 41.1393C33.8661 41.1957 33.6427 41.3419 33.4901 41.5507C33.3375 41.7594 33.2659 42.0166 33.2887 42.2742C33.3116 42.5318 33.4272 42.7724 33.6142 42.9511C33.8012 43.1297 34.0467 43.2344 34.3051 43.2455C36.2681 43.1762 38.1678 42.5331 39.7693 41.3959C41.3709 40.2587 42.6042 38.6772 43.3167 36.8467C44.8631 32.8742 42.3302 33.7807 47.1827 34.4739Z" fill="#020202"/>
</svg>
