<svg width="48" height="49" viewBox="0 0 48 49" fill="none" xmlns="http://www.w3.org/2000/svg">
<g clip-path="url(#clip0_425_6760)">
<path fill-rule="evenodd" clip-rule="evenodd" d="M14.4405 29.4101C14.9782 29.4799 15.5227 29.4799 16.0605 29.4101C16.5848 29.3332 17.1005 29.2059 17.6005 29.0301C18.7208 28.6033 19.7933 28.0603 20.8005 27.4101C20.9514 27.3328 21.0668 27.2003 21.1226 27.0402C21.1785 26.8801 21.1706 26.7046 21.1005 26.5501C21.0196 26.4026 20.887 26.2903 20.7281 26.2349C20.5693 26.1795 20.3956 26.1849 20.2405 26.2501C19.1784 26.623 18.0883 26.9106 16.9805 27.1101C16.3196 27.2457 15.652 27.3458 14.9805 27.4101H13.9805C15.1476 25.8811 15.849 24.0478 16.0005 22.1301C16.4005 18.1301 14.4205 14.1301 9.78049 13.7301C8.28931 13.7213 6.81734 14.0666 5.48566 14.7377C4.15397 15.4088 3.00063 16.3864 2.12049 17.5901C1.13741 18.7438 0.550499 20.1825 0.446093 21.6946C0.341686 23.2067 0.725296 24.7123 1.54049 25.9901C2.05728 26.7593 2.74092 27.4019 3.54049 27.8701L4.3005 28.2701C2.76634 29.8387 1.60437 31.732 0.900495 33.8101C0.375015 35.4214 0.0722135 37.0969 0.000494754 38.7901C-0.0888193 41.26 0.0719997 43.7326 0.480495 46.1701C0.485299 46.2606 0.50866 46.349 0.549124 46.43C0.589588 46.5111 0.646289 46.5829 0.7157 46.641C0.785111 46.6992 0.865746 46.7424 0.952589 46.7681C1.03943 46.7937 1.13063 46.8013 1.22049 46.7901C1.38316 46.7701 1.53191 46.6883 1.6361 46.5618C1.74029 46.4353 1.79197 46.2736 1.78049 46.1101C1.65704 43.7215 1.73062 41.3267 2.00049 38.9501C2.17496 37.4277 2.476 35.9225 2.90049 34.4501C3.46006 32.3967 4.41826 30.4735 5.72049 28.7901C6.26049 28.9301 6.8005 29.0701 7.3405 29.1701C7.48636 29.1993 7.63785 29.1694 7.76162 29.0868C7.8854 29.0043 7.97132 28.876 8.00049 28.7301C8.02967 28.5843 7.9997 28.4328 7.91719 28.309C7.83467 28.1852 7.70636 28.0993 7.56049 28.0701C3.56049 27.1501 2.84049 25.2901 2.82049 25.2301C2.25195 24.207 2.02856 23.0278 2.18349 21.8677C2.33842 20.7075 2.86341 19.6282 3.68049 18.7901C4.37903 17.86 5.28538 17.1062 6.32717 16.5888C7.36896 16.0713 8.5173 15.8047 9.6805 15.8101C13.1005 16.0101 14.4605 18.9901 14.2805 21.9501C14.3007 23.4982 13.8072 25.0092 12.8772 26.2469C11.9471 27.4845 10.633 28.3789 9.1405 28.7901C8.97609 28.8196 8.82895 28.9102 8.72874 29.0438C8.62853 29.1774 8.5827 29.3441 8.6005 29.5101C8.6299 29.6731 8.72135 29.8184 8.85562 29.9154C8.98989 30.0123 9.15652 30.0535 9.32049 30.0301C10.4025 29.8748 11.4277 29.4482 12.3005 28.7901C12.978 29.1048 13.6997 29.3139 14.4405 29.4101Z" fill="#020202"/>
<path fill-rule="evenodd" clip-rule="evenodd" d="M21.1405 30.1905C20.3241 30.9631 19.4176 31.6346 18.4405 32.1905C17.4737 32.7254 16.4552 33.1609 15.4005 33.4905C14.589 33.6903 13.788 33.9306 13.0005 34.2105C12.4428 34.4159 11.9706 34.8034 11.6605 35.3105C11.2101 36.4124 11.0185 37.6029 11.1005 38.7905C11.1005 41.2905 11.9205 44.3705 12.0405 45.9505C12.043 46.0337 12.0623 46.1155 12.0971 46.1911C12.1319 46.2667 12.1816 46.3346 12.2432 46.3906C12.3048 46.4466 12.377 46.4896 12.4556 46.517C12.5342 46.5445 12.6175 46.5559 12.7005 46.5505C12.782 46.5479 12.8621 46.5293 12.9363 46.4957C13.0106 46.4622 13.0774 46.4143 13.1332 46.3548C13.1889 46.2954 13.2324 46.2256 13.2611 46.1493C13.2898 46.0731 13.3032 45.9919 13.3005 45.9105C13.3005 44.5505 13.0805 42.0505 13.0805 39.7505C13.0805 34.5705 14.3005 36.0305 16.1405 35.3105C17.2397 34.7916 18.2905 34.1758 19.2805 33.4705C20.2882 32.7542 21.202 31.9143 22.0005 30.9705C22.0563 30.9199 22.1009 30.8581 22.1315 30.7892C22.162 30.7204 22.1778 30.6458 22.1778 30.5705C22.1778 30.4951 22.162 30.4206 22.1315 30.3517C22.1009 30.2828 22.0563 30.2211 22.0005 30.1705C21.9465 30.1087 21.8796 30.0595 21.8045 30.0265C21.7294 29.9934 21.6479 29.9772 21.5658 29.9792C21.4838 29.9811 21.4032 30.001 21.3297 30.0375C21.2562 30.074 21.1916 30.1263 21.1405 30.1905Z" fill="#020202"/>
<path fill-rule="evenodd" clip-rule="evenodd" d="M41.2791 27.0508C40.3284 27.1509 39.3698 27.1509 38.4191 27.0508C35.5791 26.6508 31.7191 24.1708 33.0791 20.1108C33.5376 18.9252 34.2721 17.8659 35.2216 17.0207C36.1711 16.1755 37.3084 15.5688 38.5391 15.2508C39.8386 14.8571 41.2309 14.8979 42.505 15.3671C43.7791 15.8363 44.8654 16.7083 45.5991 17.8508C45.9635 18.4352 46.2082 19.0861 46.319 19.7658C46.4297 20.4456 46.4043 21.1405 46.2443 21.8104C46.0843 22.4802 45.7928 23.1116 45.3868 23.6678C44.9808 24.2241 44.4683 24.6942 43.8791 25.0508C43.7428 25.1475 43.6498 25.2937 43.6199 25.4582C43.59 25.6226 43.6256 25.7923 43.7191 25.9308C43.7632 26.0028 43.8221 26.0646 43.8917 26.1123C43.9614 26.16 44.0403 26.1925 44.1234 26.2076C44.2064 26.2227 44.2917 26.2201 44.3737 26.1999C44.4557 26.1798 44.5325 26.1426 44.5991 26.0908C45.3667 25.6606 46.0411 25.0822 46.5832 24.3892C47.1253 23.6962 47.5242 22.9023 47.7568 22.0537C47.9894 21.2052 48.0511 20.3188 47.9382 19.4462C47.8253 18.5736 47.5401 17.7322 47.0991 16.9708C46.2076 15.4277 44.8353 14.2189 43.1921 13.5291C41.5489 12.8393 39.725 12.7064 37.9991 13.1508C36.4324 13.5601 34.9907 14.349 33.8012 15.4478C32.6117 16.5466 31.7112 17.9214 31.1791 19.4508C30.845 20.4736 30.7855 21.5663 31.0067 22.6193C31.2278 23.6723 31.7218 24.6488 32.4391 25.4508C32.109 25.3351 31.7881 25.1947 31.4791 25.0308C30.4344 24.3354 29.5761 23.3947 28.9791 22.2908C28.4893 21.4092 27.869 20.6068 27.1391 19.9108C26.5532 19.3224 25.8273 18.8926 25.0297 18.6617C24.232 18.4308 23.3888 18.4064 22.5791 18.5908C21.9156 18.8712 21.3324 19.3124 20.882 19.8746C20.4316 20.4367 20.1282 21.1021 19.9991 21.8108C19.8805 22.2631 19.8805 22.7384 19.9991 23.1908C20.2102 23.7432 20.4505 24.2839 20.7191 24.8108C20.988 25.3288 21.2885 25.8298 21.6191 26.3108C22.441 27.5724 23.4076 28.7336 24.4991 29.7708C25.6024 30.8112 26.8401 31.6991 28.1791 32.4108C29.2509 32.8616 30.3458 33.2555 31.4591 33.5908C31.7917 33.71 32.1076 33.8713 32.3991 34.0708C32.6058 34.8093 32.7398 35.5662 32.7991 36.3308C32.9488 37.5246 33.009 38.728 32.9791 39.9308C32.9343 41.7708 32.7874 43.607 32.5391 45.4308C32.5153 45.5793 32.5514 45.7312 32.6395 45.8531C32.7277 45.975 32.8606 46.0569 33.0091 46.0808C33.1576 46.1046 33.3096 46.0685 33.4315 45.9804C33.5534 45.8923 33.6353 45.7593 33.6591 45.6108C33.9591 43.7708 34.2591 41.8908 34.3791 40.0108C34.469 38.739 34.469 37.4625 34.3791 36.1908C34.3556 35.3663 34.2754 34.5443 34.1391 33.7308C34.0548 33.3759 33.8749 33.0508 33.6191 32.7908C33.1793 32.4154 32.6876 32.1055 32.1591 31.8708C31.1591 31.4108 29.9791 31.1108 29.1191 30.6308C27.957 29.9667 26.882 29.1605 25.9191 28.2308C24.9579 27.2933 24.0936 26.2614 23.3391 25.1508C23.0591 24.7108 22.7991 24.2708 22.5591 23.8108C21.7191 22.2908 21.9191 22.3708 22.0391 21.9508C22.0903 21.6339 22.2169 21.334 22.4084 21.0764C22.5998 20.8188 22.8505 20.6111 23.1391 20.4708C23.8191 20.2108 24.7191 20.4708 25.9991 21.3708C27.2791 22.2708 28.1991 25.0108 30.6991 26.3308C31.8802 26.9315 33.195 27.2206 34.5191 27.1708C34.7122 27.2959 34.9126 27.4094 35.1191 27.5108C36.1036 27.9568 37.1606 28.2211 38.2391 28.2908C39.2746 28.3435 40.3127 28.2967 41.3391 28.1508C41.4121 28.1435 41.4829 28.1214 41.5471 28.0859C41.6113 28.0503 41.6676 28.002 41.7125 27.944C41.7574 27.886 41.79 27.8194 41.8084 27.7484C41.8267 27.6773 41.8304 27.6033 41.8191 27.5308C41.8089 27.3964 41.7468 27.2712 41.6461 27.1817C41.5454 27.0921 41.4138 27.0452 41.2791 27.0508Z" fill="#020202"/>
<path fill-rule="evenodd" clip-rule="evenodd" d="M43.0809 26.2302C43.0303 26.1664 42.9665 26.1144 42.8938 26.0778C42.8211 26.0413 42.7413 26.021 42.6599 26.0184C42.5786 26.0158 42.4976 26.0309 42.4227 26.0628C42.3479 26.0947 42.2808 26.1425 42.2263 26.2029C42.1718 26.2633 42.1311 26.3349 42.107 26.4126C42.083 26.4904 42.0762 26.5725 42.0871 26.6531C42.098 26.7338 42.1263 26.8111 42.1702 26.8797C42.214 26.9482 42.2723 27.0064 42.3409 27.0502C44.0033 28.9315 45.0501 31.2765 45.3409 33.7702C45.6015 35.2645 45.7619 36.7745 45.8209 38.2902C45.8951 40.6384 45.835 42.9889 45.6409 45.3302C45.6297 45.4117 45.6348 45.4947 45.656 45.5742C45.6771 45.6537 45.7139 45.7282 45.7642 45.7934C45.8145 45.8585 45.8772 45.913 45.9487 45.9537C46.0203 45.9943 46.0992 46.0203 46.1809 46.0302C46.3449 46.0535 46.5115 46.0124 46.6458 45.9154C46.78 45.8184 46.8715 45.6732 46.9009 45.5102C47.414 43.1338 47.7284 40.7188 47.8409 38.2902C47.9068 36.6249 47.7589 34.9579 47.4009 33.3302C46.8038 30.5437 45.2812 28.0412 43.0809 26.2302Z" fill="#020202"/>
<path fill-rule="evenodd" clip-rule="evenodd" d="M14.2796 10.0908C14.3765 10.4283 14.5037 10.7563 14.6596 11.0708C14.7997 11.381 14.96 11.6817 15.1396 11.9708C15.5998 12.6715 16.1077 13.3398 16.6596 13.9708C16.7349 14.0969 16.8552 14.1897 16.9962 14.2305C17.1373 14.2714 17.2886 14.2572 17.4196 14.1908C17.5494 14.1191 17.6455 13.9988 17.6868 13.8563C17.728 13.7139 17.711 13.5608 17.6396 13.4308C17.3796 12.6508 17.2396 11.8908 16.9796 11.1308C16.8669 10.8091 16.7333 10.4951 16.5796 10.1908C16.4394 9.88713 16.279 9.59314 16.0996 9.31084C15.6796 8.61084 15.2196 7.95084 14.7596 7.31084C14.6851 7.16164 14.5554 7.04737 14.398 6.99237C14.2406 6.93736 14.0679 6.94596 13.9168 7.01633C13.7656 7.0867 13.6479 7.21328 13.5886 7.36914C13.5294 7.525 13.5333 7.69783 13.5996 7.85084C13.8396 8.57084 13.9996 9.33084 14.2796 10.0908Z" fill="#0C6FFF"/>
<path fill-rule="evenodd" clip-rule="evenodd" d="M23.3397 10.5705C23.3396 10.7156 23.3959 10.8551 23.4966 10.9595C23.5973 11.064 23.7347 11.1253 23.8797 11.1305C23.9539 11.136 24.0285 11.1261 24.0987 11.1014C24.1689 11.0768 24.2332 11.0379 24.2877 10.9872C24.3421 10.9365 24.3855 10.8751 24.4151 10.8068C24.4447 10.7385 24.4599 10.6649 24.4597 10.5905C24.6397 9.75046 24.8597 8.97046 24.9597 8.11046C24.9802 7.75742 24.9802 7.4035 24.9597 7.05046C24.9791 6.69739 24.9791 6.34353 24.9597 5.99046C24.9597 5.17046 24.7197 4.37046 24.5997 3.53046C24.6 3.36743 24.5381 3.21042 24.4266 3.09149C24.3151 2.97255 24.1624 2.90065 23.9997 2.89046C23.9166 2.88778 23.8338 2.90183 23.7563 2.93179C23.6787 2.96174 23.608 3.00699 23.5483 3.06483C23.4886 3.12267 23.4411 3.19193 23.4087 3.26848C23.3763 3.34504 23.3597 3.42733 23.3597 3.51046C23.2197 4.35046 23.0597 5.15046 22.9797 5.99046C22.9599 6.34351 22.9599 6.6974 22.9797 7.05046C22.9601 7.40352 22.9601 7.7574 22.9797 8.11046C23.0197 8.95046 23.2197 9.73046 23.3397 10.5705Z" fill="#0C6FFF"/>
<path fill-rule="evenodd" clip-rule="evenodd" d="M30.6204 13.3306C31.2091 12.9076 31.7641 12.4395 32.2804 11.9306C32.4823 11.7079 32.6631 11.4669 32.8204 11.2106C32.9804 10.9706 33.1204 10.7106 33.2604 10.4506C33.5604 9.8106 33.8004 9.1906 34.0804 8.5706C34.184 8.43854 34.2334 8.27196 34.2185 8.10477C34.2036 7.93757 34.1256 7.78232 34.0004 7.6706C33.8618 7.57708 33.6922 7.54146 33.5278 7.57136C33.3633 7.60126 33.2171 7.6943 33.1204 7.8306C32.6004 8.3306 32.1204 8.7906 31.6404 9.3306C31.4604 9.5506 31.2804 9.7706 31.1204 10.0106C30.9259 10.2559 30.752 10.5168 30.6004 10.7906C30.3004 11.4106 30.1004 12.0306 29.7804 12.6306C29.7291 12.6853 29.6893 12.7498 29.6634 12.8202C29.6375 12.8905 29.626 12.9654 29.6295 13.0403C29.6331 13.1152 29.6517 13.1887 29.6842 13.2563C29.7167 13.3238 29.7625 13.3842 29.8187 13.4338C29.875 13.4834 29.9407 13.5211 30.0118 13.5449C30.083 13.5686 30.1582 13.5778 30.2329 13.5719C30.3077 13.566 30.3805 13.5451 30.4471 13.5105C30.5136 13.476 30.5725 13.4284 30.6204 13.3706V13.3306Z" fill="#0C6FFF"/>
</g>
<defs>
<clipPath id="clip0_425_6760">
<rect width="48" height="48" fill="white" transform="translate(0 0.790527)"/>
</clipPath>
</defs>
</svg>
