<svg width="32" height="33" viewBox="0 0 32 33" fill="none" xmlns="http://www.w3.org/2000/svg">
<g clip-path="url(#clip0_466_2457)">
<path d="M7.76014 10.9849C8.28014 10.9849 8.81347 10.9849 9.33347 11.0649C10.2237 11.1154 11.0986 11.3183 11.9201 11.6649C12.0203 11.7146 12.1356 11.7243 12.2426 11.6921C12.3497 11.6598 12.4404 11.588 12.4964 11.4912C12.5525 11.3945 12.5695 11.28 12.5442 11.1711C12.5189 11.0622 12.4531 10.9671 12.3601 10.9049C11.6255 10.3708 10.7982 9.97745 9.92014 9.74494C9.17 9.53674 8.38629 9.47785 7.61347 9.57161C6.72579 9.70901 5.86594 9.98812 5.0668 10.3983C4.97145 10.4344 4.89351 10.5056 4.8489 10.5973C4.80429 10.689 4.79639 10.7943 4.8268 10.8916C4.86294 10.99 4.93629 11.0703 5.03105 11.1152C5.12581 11.1601 5.23441 11.166 5.33347 11.1316C6.13412 10.9904 6.9483 10.9412 7.76014 10.9849Z" fill="#1D6CFF"/>
<path d="M12.6656 14.3582C11.6859 13.4698 10.4269 12.9511 9.10564 12.8916C8.73591 12.879 8.36578 12.8969 7.99897 12.9449C7.13768 13.1063 6.30004 13.3751 5.50564 13.7449C5.41953 13.7836 5.35054 13.8524 5.31166 13.9384C5.27279 14.0244 5.26672 14.1217 5.29459 14.2118C5.32246 14.302 5.38236 14.3789 5.46298 14.428C5.54361 14.477 5.6394 14.4949 5.73231 14.4782C6.54054 14.3663 7.35668 14.3217 8.17231 14.3449H9.73231C10.5926 14.3786 11.4348 14.6017 12.199 14.9982C12.2429 15.0451 12.2966 15.0818 12.3562 15.1057C12.4158 15.1296 12.4799 15.1402 12.5441 15.1367C12.6082 15.1332 12.6708 15.1157 12.7275 15.0854C12.7841 15.0551 12.8335 15.0128 12.872 14.9614C12.9106 14.91 12.9374 14.8508 12.9506 14.7879C12.9638 14.725 12.9631 14.66 12.9485 14.5975C12.9339 14.5349 12.9058 14.4763 12.8662 14.4257C12.8265 14.3752 12.7763 14.334 12.719 14.3049L12.6656 14.3582Z" fill="#1D6CFF"/>
<path d="M9.17348 16.2516C8.79269 16.2049 8.40761 16.2049 8.02682 16.2516C7.15927 16.3692 6.31954 16.6401 5.54682 17.0516C5.45584 17.0883 5.38221 17.1581 5.34081 17.247C5.29942 17.336 5.29336 17.4373 5.32387 17.5305C5.35437 17.6237 5.41917 17.7019 5.50512 17.7491C5.59108 17.7963 5.69177 17.8092 5.78682 17.7849C6.54157 17.6358 7.3132 17.591 8.08015 17.6516H9.01348C9.32268 17.6764 9.62997 17.7209 9.93348 17.7849C10.6572 17.9575 11.353 18.2313 12.0001 18.5983C12.0455 18.6319 12.0972 18.6562 12.152 18.6697C12.2069 18.6832 12.2638 18.6857 12.3197 18.677C12.3755 18.6683 12.429 18.6486 12.4772 18.6191C12.5253 18.5896 12.5671 18.5508 12.6001 18.5049C12.6352 18.4583 12.6604 18.405 12.6741 18.3483C12.6878 18.2916 12.6897 18.2326 12.6797 18.1752C12.6697 18.1177 12.648 18.0629 12.616 18.0141C12.5839 17.9653 12.5423 17.9236 12.4935 17.8916C11.8373 17.3103 11.0773 16.858 10.2535 16.5583C9.90275 16.4259 9.54146 16.3233 9.17348 16.2516Z" fill="#1D6CFF"/>
<path d="M20.6916 8.38503C20.7945 8.90917 20.8657 9.43901 20.905 9.9717C21.0916 12.1984 20.905 14.4784 21.2916 16.6384C21.2916 16.6384 21.8783 17.4517 22.4916 16.945C22.7803 16.7064 23.0563 16.4527 23.3183 16.185C23.4833 15.9661 23.6304 15.7342 23.7583 15.4917C23.9397 15.1599 24.1 14.817 24.2383 14.465C24.5448 14.7942 24.8256 15.1463 25.0783 15.5184C25.0783 15.5184 25.785 16.4517 25.8383 16.505C25.9516 16.6399 26.1063 16.7337 26.2783 16.7717C26.4532 16.818 26.6393 16.7953 26.798 16.7085C26.9568 16.6217 27.0762 16.4773 27.1316 16.305C27.2175 16.0873 27.2714 15.8582 27.2916 15.625V14.4117L27.1583 10.865C26.665 6.14503 26.665 5.5317 26.345 4.87836C26.227 4.64259 26.0621 4.43344 25.8603 4.26376C25.6585 4.09408 25.4242 3.96747 25.1716 3.8917C24.7941 3.76545 24.3953 3.71559 23.9983 3.74503C23.506 3.75958 23.0155 3.81308 22.5316 3.90503C22.3983 3.90503 19.6783 4.5317 19.425 4.6917C19.3814 4.71648 19.3433 4.74976 19.3129 4.78957C19.2825 4.82938 19.2605 4.8749 19.248 4.92342C19.2356 4.97194 19.233 5.02247 19.2405 5.07199C19.248 5.12152 19.2654 5.16903 19.2916 5.2117C19.8545 6.22438 20.3231 7.28662 20.6916 8.38503ZM20.345 5.30503L22.665 4.8117C23.109 4.78434 23.5543 4.78434 23.9983 4.8117C24.2528 4.80033 24.5069 4.84117 24.745 4.9317C24.8643 4.96962 24.9745 5.03185 25.0686 5.11446C25.1626 5.19708 25.2386 5.29828 25.2916 5.4117C25.4379 5.9138 25.5054 6.43557 25.4916 6.95837L25.7716 11.025V14.145C25.5861 13.9018 25.3857 13.6703 25.1716 13.4517C24.8726 13.1577 24.531 12.9105 24.1583 12.7184C24.058 12.6718 23.9488 12.6477 23.8383 12.6477C23.7278 12.6477 23.6186 12.6718 23.5183 12.7184C23.3751 12.771 23.2532 12.8694 23.1716 12.9984C23.1174 13.1419 23.0729 13.2889 23.0383 13.4384L22.8383 13.9717C22.7316 14.225 22.625 14.4917 22.505 14.745L22.3183 15.0917C22.0916 13.385 22.0916 11.625 21.8516 9.90503C21.7837 9.33395 21.6768 8.76819 21.5316 8.2117C21.4067 7.72167 21.2371 7.24412 21.025 6.78503C20.7983 6.30503 20.5316 5.82503 20.2516 5.35836L20.345 5.30503Z" fill="#1D6CFF"/>
<path d="M31.8522 14.4784C31.7056 13.1451 31.4789 11.8117 31.2789 10.5851C31.1564 9.6269 30.9511 8.68116 30.6656 7.75839C30.5188 7.25485 30.2093 6.81411 29.7856 6.50505C29.2961 6.22891 28.7569 6.0522 28.1989 5.98505C28.1056 5.97992 28.0122 5.97992 27.9189 5.98505C27.0522 5.98505 27.1722 6.81172 27.9189 6.95839H28.0122C28.4205 7.03274 28.8102 7.18678 29.1589 7.41172C29.4212 7.71426 29.58 8.09263 29.6122 8.49172C29.7722 9.31839 29.7856 10.2651 29.8522 10.8517C30.0256 12.0117 30.1989 13.3184 30.3722 14.6651C30.5456 16.0117 30.6789 17.1984 30.7189 18.4651C30.7781 19.7445 30.7066 21.0267 30.5056 22.2917C28.9855 21.785 27.3869 21.5546 25.7856 21.6117C24.124 21.6626 22.4755 21.9225 20.8789 22.3851C20.373 22.5286 19.8887 22.7394 19.4389 23.0117C18.8654 23.3605 18.3133 23.7435 17.7856 24.1584L17.3722 24.4251C17.3722 23.2517 17.4789 21.7584 17.4656 20.2784V18.2651C17.4656 17.5851 17.3589 16.9317 17.2789 16.2651C17.0656 14.5051 16.7322 12.8651 16.4656 11.6517C16.466 11.5951 16.4531 11.5391 16.4278 11.4884C16.4026 11.4377 16.3657 11.3937 16.3203 11.3599C16.2748 11.3261 16.222 11.3035 16.1661 11.294C16.1103 11.2845 16.053 11.2883 15.9989 11.3051C15.9497 11.3116 15.9022 11.3279 15.8594 11.3529C15.8165 11.378 15.7791 11.4114 15.7493 11.4512C15.7195 11.4909 15.6979 11.5362 15.6858 11.5843C15.6737 11.6325 15.6714 11.6826 15.6789 11.7317C15.7856 12.9584 15.7989 14.5984 15.8656 16.3584C15.8656 16.9984 15.8656 17.6917 15.9722 18.3317C16.0789 18.9717 16.0656 19.6651 16.1322 20.3184C16.2522 21.7451 16.3856 23.0784 16.4656 24.1984C16.1456 23.9717 15.7722 23.7051 15.2789 23.4117C14.7702 23.1029 14.24 22.8311 13.6922 22.5984C11.7965 21.7939 9.72565 21.4909 7.6789 21.7184C5.85092 21.9575 4.08824 22.5556 2.49223 23.4784C2.63111 22.3194 2.68902 21.1521 2.66557 19.9851C2.64323 18.6889 2.52289 17.3964 2.30557 16.1184L1.4789 10.1451C1.4789 9.87839 1.62557 9.70505 1.8389 9.54505C2.19559 9.29849 2.58638 9.10534 2.9989 8.97172C4.99712 8.2139 7.11516 7.821 9.25223 7.81172C11.3957 7.83878 13.5123 8.29202 15.4789 9.14505C15.5832 9.19279 15.7022 9.19713 15.8097 9.15713C15.9173 9.11712 16.0045 9.03604 16.0522 8.93172C16.1 8.8274 16.1043 8.70839 16.0643 8.60087C16.0243 8.49335 15.9432 8.40612 15.8389 8.35839C13.8124 7.33503 11.5983 6.73614 9.33223 6.59839C7.03891 6.49728 4.74674 6.82279 2.57223 7.55839C1.87155 7.76649 1.22519 8.12609 0.6789 8.61172C0.425745 8.82049 0.230321 9.09066 0.111277 9.39644C-0.00776701 9.70221 -0.0464568 10.0334 -0.00110005 10.3584C-0.00110005 10.6384 0.2389 11.9584 0.4789 13.3451C0.6789 14.4917 0.905567 15.6651 1.0789 16.3717C1.35706 17.5787 1.54866 18.8041 1.65223 20.0384C1.74557 21.3051 1.65223 24.2117 1.65223 24.3051C1.59944 24.8419 1.72604 25.3811 2.01223 25.8384C2.17018 26.0803 2.38032 26.2837 2.62721 26.4336C2.8741 26.5836 3.15146 26.6764 3.4389 26.7051C3.7478 26.7575 4.06333 26.7575 4.37223 26.7051C4.9589 26.5851 5.58557 26.3184 6.1189 26.2384C6.85805 26.1556 7.60208 26.1244 8.34557 26.1451C9.07194 26.15 9.79583 26.2304 10.5056 26.3851C11.7177 26.5509 12.8176 27.1821 13.5722 28.1451C13.9527 28.707 14.4369 29.1913 14.9989 29.5717C15.5525 29.8611 16.1759 29.9904 16.7989 29.9451C17.6139 29.9508 18.4169 29.7489 19.1322 29.3584C20.0133 28.7238 20.8305 28.0048 21.5722 27.2117C21.8565 26.9562 22.1868 26.7571 22.5456 26.6251C23.1477 26.3834 23.7733 26.2047 24.4122 26.0917C25.0572 25.9558 25.7133 25.8799 26.3722 25.8651C27.0298 25.8554 27.6866 25.9134 28.3322 26.0384C28.4522 26.0384 29.3189 26.3717 29.6656 26.4251C29.766 26.4454 29.8697 26.4428 29.969 26.4174C30.0683 26.392 30.1606 26.3445 30.2389 26.2784C30.5262 25.9589 30.7321 25.5746 30.8389 25.1584C31.3763 22.9663 31.7551 20.7383 31.9722 18.4917C32.0151 17.1527 31.9751 15.8124 31.8522 14.4784ZM29.9722 24.8117C29.9218 24.961 29.8547 25.1041 29.7722 25.2384C29.3865 25.0773 28.9762 24.9826 28.5589 24.9584C27.8427 24.7841 27.1093 24.6902 26.3722 24.6784C25.6406 24.6672 24.9092 24.7162 24.1856 24.8251C23.4658 24.9335 22.7566 25.103 22.0656 25.3317C21.578 25.5189 21.1268 25.7896 20.7322 26.1317C20.0352 26.8338 19.2766 27.4719 18.4656 28.0384C17.956 28.305 17.3872 28.4381 16.8122 28.4251C15.6256 28.4251 15.3456 27.8917 14.8522 27.2917C14.386 26.6638 13.7845 26.1489 13.0922 25.7851C12.3773 25.418 11.6071 25.1703 10.8122 25.0517C10.014 24.9293 9.20576 24.8846 8.3989 24.9184C7.59797 24.9407 6.8 25.0254 6.01223 25.1717C5.46557 25.2784 4.8389 25.5851 4.2389 25.7451C4.03971 25.8027 3.83289 25.8297 3.62557 25.8251C3.4615 25.8195 3.3008 25.777 3.15538 25.7009C3.00997 25.6247 2.88357 25.5168 2.78557 25.3851C2.5959 25.0964 2.49826 24.757 2.50557 24.4117C4.15077 23.515 5.96976 22.9829 7.8389 22.8517C9.67806 22.7535 11.5123 23.1204 13.1722 23.9184C14.2946 24.4939 15.3771 25.1443 16.4122 25.8651C16.6553 25.9873 16.9281 26.0381 17.1989 26.0117C17.6214 25.9595 18.0244 25.8037 18.3722 25.5584C19.2547 24.7705 20.253 24.123 21.3322 23.6384C22.8129 23.1394 24.3485 22.8216 25.9056 22.6917C27.4036 22.5487 28.9152 22.6935 30.3589 23.1184C30.2922 23.2117 30.0922 24.4384 29.9722 24.8117Z" fill="#202020"/>
<path d="M16.8649 9.06491C17.3768 8.81163 17.9073 8.59767 18.4516 8.42491L19.1983 8.11825C19.3357 8.04734 19.4461 7.93331 19.5125 7.79363C19.5789 7.65395 19.5977 7.49634 19.5659 7.34498C19.5341 7.19362 19.4536 7.05687 19.3366 6.9557C19.2196 6.85453 19.0726 6.79453 18.9183 6.78491C18.4378 6.85416 17.9807 7.03699 17.5849 7.31825C17.1115 7.65632 16.6932 8.0656 16.3449 8.53158C16.2765 8.60348 16.2383 8.69896 16.2383 8.79825C16.2383 8.89753 16.2765 8.99301 16.3449 9.06491C16.4146 9.13252 16.5079 9.17033 16.6049 9.17033C16.702 9.17033 16.7953 9.13252 16.8649 9.06491Z" fill="#202020"/>
</g>
<defs>
<clipPath id="clip0_466_2457">
<rect width="32" height="32" fill="white" transform="translate(0 0.811523)"/>
</clipPath>
</defs>
</svg>
