<svg width="97" height="97" viewBox="0 0 97 97" fill="none" xmlns="http://www.w3.org/2000/svg">
<g clip-path="url(#clip0_1097_3058)">
<path d="M86.9722 59.6906C85.931 57.495 84.0668 55.798 81.7833 54.9669C79.4999 54.1359 76.981 54.2378 74.7722 55.2506C74.0645 55.4918 73.3814 55.7998 72.7322 56.1706C72.0928 56.5236 71.4898 56.939 70.9322 57.4106C70.8113 57.4946 70.7081 57.6016 70.6286 57.7255C70.5491 57.8494 70.4948 57.9877 70.4688 58.1326C70.4428 58.2775 70.4456 58.4261 70.4771 58.5699C70.5085 58.7137 70.568 58.8498 70.6522 58.9706C70.8351 59.2111 71.1046 59.3708 71.4034 59.4156C71.7022 59.4604 72.0067 59.3869 72.2522 59.2106C72.7636 58.8908 73.2985 58.61 73.8522 58.3706C74.3905 58.1244 74.9538 57.9367 75.5322 57.8106C77.0929 57.2778 78.7996 57.3721 80.2922 58.0736C81.7847 58.7751 82.9464 60.029 83.5322 61.5706C84.5654 63.9485 84.9783 66.5497 84.7322 69.1306C84.6388 71.6689 83.7581 74.1153 82.2122 76.1306C80.9284 77.507 79.339 78.562 77.5722 79.2106C75.6953 79.939 73.7325 80.423 71.7322 80.6506C71.3927 80.6506 71.0671 80.7855 70.8271 81.0255C70.587 81.2656 70.4522 81.5912 70.4522 81.9306C70.4522 82.2701 70.587 82.5957 70.8271 82.8357C71.0671 83.0758 71.3927 83.2106 71.7322 83.2106C74.4607 83.1469 77.1614 82.6473 79.7322 81.7306C81.6061 81.0739 83.3322 80.0545 84.8122 78.7306C87.1787 76.225 88.5939 72.9703 88.8122 69.5306C89.1856 66.1408 88.5452 62.7164 86.9722 59.6906Z" fill="white"/>
<path d="M79.8902 7.65047C79.7549 6.55881 79.2119 5.55864 78.3702 4.85047C77.0047 4.02515 75.5001 3.45583 73.9302 3.17047C71.0736 2.07874 68.1109 1.2878 65.0902 0.810472C62.762 0.479624 60.3894 0.914841 58.3302 2.05047C57.5987 2.82739 57.0757 3.7769 56.8102 4.81047C55.3702 9.61047 52.5702 21.9305 52.4502 22.6105C52.4005 22.9061 52.4632 23.2097 52.6261 23.4614C52.789 23.7131 53.0402 23.8947 53.3302 23.9705C53.4747 23.9996 53.6235 23.9999 53.7681 23.9715C53.9127 23.943 54.0502 23.8862 54.1729 23.8045C54.2955 23.7227 54.4008 23.6176 54.4827 23.495C54.5646 23.3725 54.6215 23.235 54.6502 23.0905C54.6502 22.4105 58.2902 10.4905 60.0102 5.89047C60.1711 5.5177 60.3583 5.1568 60.5702 4.81047C61.9578 4.42912 63.4226 4.42912 64.8102 4.81047C67.5557 5.35746 70.2368 6.1886 72.8102 7.29047C73.6502 7.57047 74.6502 7.69047 75.4902 8.01047C75.4902 8.01047 75.8502 8.01047 75.8902 8.37047C75.938 9.88652 75.6795 11.3966 75.1302 12.8105C74.8102 14.0505 74.3702 15.2905 73.9302 16.4905C73.2102 15.9705 72.4902 15.4505 71.7302 14.9705C70.9702 14.4905 70.8902 14.4505 70.4502 14.2505C69.9973 14.0422 69.5293 13.8684 69.0502 13.7305C67.8902 13.3705 66.7702 13.2505 65.5702 12.9705C65.4391 12.9012 65.2955 12.8587 65.1478 12.8454C65.0002 12.832 64.8513 12.8482 64.7099 12.8928C64.5685 12.9375 64.4374 13.0098 64.3241 13.1055C64.2109 13.2012 64.1178 13.3185 64.0502 13.4505C63.9738 13.5778 63.9245 13.7196 63.9054 13.8668C63.8862 14.0141 63.8976 14.1637 63.9389 14.3064C63.9802 14.449 64.0505 14.5816 64.1453 14.6959C64.2402 14.8102 64.3576 14.9036 64.4902 14.9705C65.3474 15.8673 66.2846 16.684 67.2902 17.4105C67.6977 17.7164 68.141 17.9716 68.6102 18.1705C69.0834 18.3966 69.5796 18.571 70.0902 18.6905C71.0502 18.9305 71.9702 19.0905 72.9302 19.2505C72.7302 19.7305 72.5702 20.2505 72.4102 20.7305C71.6902 23.2105 71.0102 25.8105 70.3702 28.4505H70.0902C69.1302 27.8505 68.2902 27.2505 67.2502 26.7305C66.8574 26.4906 66.4421 26.2897 66.0102 26.1305C65.6223 25.9829 65.2201 25.8756 64.8102 25.8105C63.6783 25.7301 62.5421 25.7301 61.4102 25.8105C61.2685 25.7606 61.1182 25.7398 60.9683 25.7492C60.8184 25.7586 60.6719 25.798 60.5376 25.8652C60.4032 25.9324 60.2838 26.0259 60.1863 26.1402C60.0888 26.2545 60.0153 26.3872 59.9702 26.5305C59.8805 26.817 59.9054 27.1272 60.0397 27.3957C60.174 27.6643 60.4072 27.8703 60.6902 27.9705C61.6902 28.6105 62.4502 29.2905 63.4902 29.8505C63.898 30.0775 64.3267 30.265 64.7702 30.4105L66.1302 30.7305C67.2502 30.7305 68.3302 30.7305 69.4502 31.0505C69.6215 31.0885 69.799 31.0885 69.9702 31.0505L67.4502 41.9305C66.3302 41.2505 65.2902 40.4905 64.1702 39.8105L62.6502 38.9305C62.0592 38.5927 61.4442 38.2985 60.8102 38.0505C59.5302 37.4905 58.2502 37.0905 56.8102 36.4105C56.5821 36.2142 56.2854 36.1166 55.9854 36.1391C55.6853 36.1616 55.4065 36.3024 55.2102 36.5305C55.014 36.7586 54.9163 37.0553 54.9388 37.3553C54.9613 37.6554 55.1021 37.9342 55.3302 38.1305C56.258 39.3989 57.3321 40.5535 58.5302 41.5705C59.5903 42.3466 60.7642 42.9538 62.0102 43.3705C63.444 43.7839 64.8996 44.1178 66.3702 44.3705C66.3702 44.8105 66.1702 45.2505 66.0502 45.6905C65.7302 46.9305 65.3702 48.1305 65.0102 49.3305C64.7302 51.4905 65.4102 51.9305 67.8102 49.3305C68.1302 48.4105 68.4902 47.4505 68.7702 46.4905C71.2902 38.4905 73.3302 29.8905 76.0502 22.1305C77.4487 19.1041 78.6511 15.9911 79.6502 12.8105C80.0714 11.1234 80.1529 9.36938 79.8902 7.65047Z" fill="white"/>
<path d="M67.3287 51.691C65.5687 52.691 67.5287 55.691 66.1687 75.051C65.9312 78.4233 65.4769 81.7769 64.8087 85.091C64.6883 86.199 64.3191 87.2656 63.7287 88.211C60.6458 90.5205 56.9372 91.845 53.0887 92.011C46.9967 92.8246 40.8146 92.6761 34.7687 91.571C33.0732 91.2503 31.4123 90.7681 29.8087 90.131C29.0111 89.8574 28.2861 89.406 27.6887 88.811C26.7259 87.5057 25.9952 86.0443 25.5287 84.491C24.7819 81.867 24.2205 79.1937 23.8487 76.491C23.0087 71.731 22.2887 67.011 21.8087 62.251C21.5687 59.691 21.4087 57.091 21.3287 54.491C21.3287 54.491 32.0087 54.051 36.8087 53.931H44.8087C47.4087 53.931 50.0087 53.691 52.8087 53.691C55.6087 53.691 58.0087 53.691 60.8087 53.931C60.9861 53.9761 61.171 53.9826 61.3512 53.9502C61.5313 53.9177 61.7023 53.8471 61.8528 53.7429C62.0033 53.6387 62.1297 53.5035 62.2235 53.3463C62.3172 53.1892 62.3762 53.0137 62.3964 52.8318C62.4166 52.6499 62.3976 52.4658 62.3406 52.2919C62.2836 52.118 62.19 51.9583 62.0661 51.8236C61.9421 51.689 61.7908 51.5825 61.6222 51.5113C61.4535 51.4401 61.2716 51.4059 61.0887 51.411C57.0887 50.731 53.3687 50.291 49.5687 50.011C49.7934 49.9111 49.9846 49.7485 50.1194 49.5428C50.2542 49.3371 50.3268 49.0969 50.3287 48.851C50.3287 46.931 50.6087 44.851 50.8087 43.051C51.0087 41.251 51.2487 39.051 51.5287 37.291C51.9019 35.6161 52.1691 33.9194 52.3287 32.211C52.0035 27.2677 51.2133 22.366 49.9687 17.571C49.3632 15.75 48.2868 14.1216 46.8487 12.851C46.5909 12.6368 46.2869 12.4856 45.9606 12.4092C45.6343 12.3328 45.2947 12.3334 44.9687 12.411C43.4887 12.691 40.3687 19.731 39.6487 21.611C38.9307 23.3381 38.3424 25.1164 37.8887 26.931C37.4395 27.0721 37.0561 27.3703 36.8087 27.771C36.4487 30.531 36.1287 33.251 35.8087 36.011C35.4887 38.771 35.2487 41.531 35.0887 44.291C35.0703 44.438 35.0811 44.5873 35.1204 44.7302C35.1597 44.8731 35.2267 45.0069 35.3177 45.1239C35.4087 45.2409 35.5219 45.3389 35.6508 45.4121C35.7796 45.4854 35.9216 45.5326 36.0687 45.551C36.2158 45.5693 36.365 45.5586 36.508 45.5193C36.6509 45.48 36.7847 45.4129 36.9017 45.3219C37.0187 45.2309 37.1166 45.1178 37.1899 44.9889C37.2631 44.8601 37.3103 44.718 37.3287 44.571C37.6887 42.411 38.1287 40.291 38.6087 38.131C39.2087 35.291 39.8887 32.491 40.5687 29.651H45.6887C46.1687 29.651 47.6087 29.651 47.5287 29.931C47.4487 30.211 47.5287 35.171 47.5287 36.651C47.5287 38.131 47.5287 39.851 47.3287 41.451V48.571C47.3294 48.787 47.3849 48.9993 47.4898 49.1881C47.5947 49.377 47.7457 49.5362 47.9287 49.651H46.6487H40.6087C38.5687 49.651 37.2087 49.651 35.5287 49.971C34.8887 48.531 34.2887 47.091 33.6087 45.691C33.2485 44.9236 32.848 44.1759 32.4087 43.451C32.0068 42.7381 31.5522 42.0562 31.0487 41.411C30.0087 40.011 28.8887 38.731 27.8087 37.411C28.9064 36.6638 29.9132 35.7913 30.8087 34.811C31.0739 34.5988 31.244 34.2899 31.2815 33.9524C31.319 33.6148 31.2209 33.2762 31.0087 33.011C30.7965 32.7457 30.4877 32.5757 30.1501 32.5382C29.8126 32.5007 29.4739 32.5988 29.2087 32.811C26.5328 35.5229 22.8982 37.0744 19.0887 37.131C16.0887 36.811 13.6887 34.931 13.0087 30.331C12.7754 29.0078 12.7754 27.6541 13.0087 26.331C13.4524 24.209 14.0541 22.1232 14.8087 20.091C15.2087 18.891 15.6087 17.731 15.9687 16.491C16.3287 15.251 16.2887 15.131 16.4087 14.411C17.8887 15.531 19.3687 16.611 20.7687 17.771C21.8286 18.61 22.8433 19.5046 23.8087 20.451C25.1987 21.7364 26.4095 23.2028 27.4087 24.811C28.3254 26.4052 28.8081 28.2119 28.8087 30.051C28.8085 30.3942 28.9421 30.724 29.1811 30.9705C29.42 31.2169 29.7456 31.3606 30.0887 31.371C30.2568 31.371 30.4232 31.3379 30.5785 31.2735C30.7338 31.2092 30.8749 31.1149 30.9938 30.9961C31.1127 30.8772 31.2069 30.7361 31.2713 30.5808C31.3356 30.4255 31.3687 30.2591 31.3687 30.091C31.4529 28.292 31.167 26.4949 30.5287 24.811C29.478 22.358 28.002 20.11 26.1687 18.171C25.2087 17.091 24.1687 16.091 23.1287 15.091C22.0887 14.091 19.9287 12.291 18.2887 11.091C17.5531 10.2659 16.7503 9.50333 15.8887 8.81096C15.6088 8.62647 15.2933 8.50269 14.9626 8.44757C14.6319 8.39246 14.2933 8.40724 13.9687 8.49096C13.5561 8.68119 13.2015 8.97782 12.9414 9.35039C12.6813 9.72296 12.5251 10.158 12.4887 10.611V13.211C12.3712 13.9134 12.2109 14.6081 12.0087 15.291C11.6487 16.451 11.2487 17.571 10.8487 18.731C9.96339 21.0269 9.28078 23.3959 8.8087 25.811C8.48825 27.5698 8.48825 29.3721 8.8087 31.131C9.06729 33.1309 9.8889 35.0162 11.1778 36.5671C12.4667 38.1181 14.1698 39.2708 16.0887 39.891C16.4306 39.9805 16.778 40.0473 17.1287 40.091C17.1483 41.4284 17.2418 42.7638 17.4087 44.091C17.4975 44.8215 17.6447 45.5438 17.8487 46.251C18.0252 46.9682 18.2389 47.6758 18.4887 48.371C18.8487 49.411 19.2087 50.451 19.6087 51.491C19.4425 51.5913 19.3041 51.7318 19.2062 51.8995C19.1084 52.0673 19.0542 52.2569 19.0487 52.451V62.211C19.2887 67.051 19.8087 71.891 20.4087 76.731C20.6894 79.5852 21.1571 82.418 21.8087 85.211C22.3119 87.2381 23.1941 89.1518 24.4087 90.851C25.3758 92.103 26.6409 93.0931 28.0887 93.731C29.9263 94.5412 31.8433 95.1579 33.8087 95.571C40.4015 96.8424 47.1588 97.0181 53.8087 96.091C58.5514 95.7027 63.0544 93.8427 66.6887 90.771C68.5406 87.047 69.4603 82.929 69.3687 78.771C69.7733 70.1199 69.6932 61.453 69.1287 52.811C69.0487 51.331 67.3287 51.691 67.3287 51.691ZM47.3287 25.451C45.2163 25.1974 43.0811 25.1974 40.9687 25.451H40.3287C40.6487 24.811 41.0087 24.171 41.3687 23.571C42.5287 21.571 43.8487 19.571 45.1287 17.811C45.5231 18.5208 45.8705 19.2557 46.1687 20.011C46.8487 21.811 47.3687 23.691 47.8487 25.451C47.7288 25.4432 47.6086 25.4432 47.4887 25.451H47.3287ZM20.0887 40.171C22.0482 39.9612 23.9493 39.3773 25.6887 38.451C26.2185 40.0817 26.8327 41.6839 27.5287 43.251C27.8892 44.0052 28.2898 44.7395 28.7287 45.451C29.1687 46.171 29.6487 46.851 30.1287 47.531L32.1687 50.131C29.0487 50.531 25.8887 51.051 22.6887 51.611C22.6887 50.291 22.6887 48.971 22.4087 47.611C22.3278 46.8585 22.2076 46.1108 22.0487 45.371C22.0487 44.651 21.6487 43.931 21.4087 43.251C21.1687 42.571 20.5287 41.171 20.0887 40.171Z" fill="white"/>
</g>
<defs>
<clipPath id="clip0_1097_3058">
<rect width="96" height="96" fill="white" transform="translate(0.810547 0.810425)"/>
</clipPath>
</defs>
</svg>
