<svg width="64" height="74" viewBox="0 0 64 74" fill="none" xmlns="http://www.w3.org/2000/svg">
<path fill-rule="evenodd" clip-rule="evenodd" d="M27.5475 29.0674C29.1001 27.8353 30.8743 26.9119 32.7741 26.3471C34.6757 25.7308 36.688 25.5328 38.6732 25.7663C38.804 25.7975 38.9398 25.8013 39.0722 25.7776C39.2045 25.7539 39.3305 25.7032 39.4424 25.6287C39.5542 25.5541 39.6495 25.4572 39.7223 25.3442C39.7951 25.2312 39.8437 25.1043 39.8653 24.9716C39.8963 24.8368 39.8993 24.697 39.874 24.561C39.8488 24.425 39.7958 24.2956 39.7184 24.1809C39.641 24.0663 39.5408 23.9688 39.4241 23.8944C39.3074 23.8201 39.1767 23.7706 39.04 23.749C36.7618 23.2752 34.4105 23.2752 32.1323 23.749C29.8249 24.2046 27.6191 25.0745 25.6219 26.3165C24.7883 26.7448 24.055 27.3448 23.4702 28.0772C22.8854 28.8095 22.4624 29.6574 22.2291 30.5651C22.1472 31.2932 22.2341 32.0305 22.4833 32.7196C22.7324 33.4087 23.137 34.0311 23.6657 34.5385C24.3391 35.2937 25.1562 35.907 26.0694 36.3426C26.9826 36.7782 27.9735 37.0273 28.9841 37.0754C30.9638 37.1126 32.9362 36.8235 34.822 36.2196C36.2735 35.7122 37.8103 35.4941 39.3457 35.5778C41.852 35.9751 44.5112 37.5339 47.1398 38.0535C48.5057 38.3755 49.9342 38.3121 51.2661 37.8701C51.562 37.781 51.8103 37.5779 51.9565 37.3056C52.1027 37.0334 52.1347 36.7142 52.0455 36.4183C51.9564 36.1224 51.7533 35.8741 51.481 35.7279C51.2087 35.5817 50.8896 35.5497 50.5937 35.6389C49.6516 35.8835 48.6626 35.8835 47.7205 35.6389C45.0919 34.9053 42.4939 33.0714 39.9875 32.5824C37.9581 32.215 35.8733 32.2879 33.8745 32.7963C32.3421 33.2209 30.7574 33.4267 29.1674 33.4076C28.1207 33.3448 27.1371 32.8858 26.4166 32.1239C26.0498 31.7265 25.8053 31.482 25.9275 31.1764C26.2115 30.3093 26.783 29.5653 27.5475 29.0674Z" fill="#202020"/>
<path fill-rule="evenodd" clip-rule="evenodd" d="M63.2172 24.9412C59.9467 23.5658 57.1041 21.8847 53.8948 20.3259C51.7794 19.249 49.5694 18.3691 47.2927 17.6973C43.461 16.6343 39.4393 16.4463 35.5251 17.1471C36.0852 15.0321 36.4736 12.8753 36.6866 10.6978C36.8681 8.79041 36.7858 6.86707 36.442 4.98213C35.6779 1.34487 33.7217 0 32.0101 0C30.8686 0.107049 29.7714 0.495291 28.8167 1.13001C27.8619 1.76474 27.0794 2.62616 26.5389 3.63726L24.3688 7.45792C22.86 10.8483 21.5636 14.3293 20.487 17.8807C20.487 17.8807 20.2119 17.8807 20.1202 17.8807C17.4687 19.6293 15.1674 21.8581 13.3347 24.4522C12.3843 25.6944 11.5552 27.025 10.8589 28.4257C10.1478 29.8519 9.58447 31.3472 9.17786 32.8882C8.86748 34.0376 8.79686 35.2385 8.97038 36.4164C9.1439 37.5942 9.55786 38.7237 10.1865 39.7348C10.7949 40.5434 11.6971 41.0801 12.698 41.2288C13.699 41.3775 14.7182 41.1263 15.5354 40.5295C14.6282 44.2761 14.116 48.1075 14.0072 51.9609C14.0335 52.4353 14.1052 52.9061 14.2211 53.3669C14.3171 53.8584 14.4604 54.3395 14.649 54.8035C15.1074 55.8812 15.6813 56.906 16.3607 57.86C16.758 58.8075 18.8976 59.3577 22.6877 55.8427C23.0856 55.4752 23.4536 55.0766 23.788 54.6506C24.1283 54.2269 24.4349 53.7773 24.705 53.3058C25.2307 52.2202 25.7 51.1081 26.111 49.9741C27.2291 50.9409 28.5132 51.6969 29.9011 52.2054C30.7163 52.5082 31.5705 52.6934 32.438 52.7556C33.7635 52.8484 35.0953 52.7245 36.3809 52.3888C36.656 52.3888 36.87 52.0526 37.145 51.9303C39.3495 53.3473 41.8927 54.1493 44.5113 54.2533C46.3324 54.2341 48.1462 54.0189 49.9213 53.6114C52.3715 52.9553 54.8631 52.4651 57.3792 52.1443C57.6873 52.1443 57.9827 52.0219 58.2005 51.8041C58.4183 51.5863 58.5407 51.2908 58.5407 50.9828C58.5407 50.6748 58.4183 50.3793 58.2005 50.1615C57.9827 49.9437 57.6873 49.8213 57.3792 49.8213C54.3229 49.5967 51.2521 49.6683 48.2096 50.0353L44.7558 50.3715H42.5551C41.5269 50.3738 40.5017 50.261 39.4986 50.0353C39.8548 49.664 40.1535 49.2416 40.385 48.7821C40.7863 47.9228 40.8619 46.947 40.5977 46.0362C40.3334 45.1254 39.7473 44.3416 38.9484 43.8305C38.9484 43.8305 38.6733 43.8305 38.5205 43.8305C39.2214 43.3672 39.8193 42.7644 40.2768 42.0597C40.7343 41.355 41.0417 40.5636 41.1796 39.7348C41.3006 38.9638 41.1805 38.1742 40.8358 37.474C40.4912 36.7737 39.9388 36.197 39.254 35.8224C39.0059 35.6657 38.7075 35.6087 38.419 35.6629C38.1305 35.7172 37.8733 35.8786 37.699 36.1149C37.5247 36.3511 37.4464 36.6446 37.4797 36.9362C37.513 37.2279 37.6555 37.4961 37.8786 37.6869C38.0798 37.8665 38.2223 38.1024 38.2877 38.3641C38.3532 38.6257 38.3384 38.9009 38.2454 39.1541C38.0435 39.5898 37.7419 39.9718 37.3648 40.2692C36.9878 40.5666 36.546 40.7709 36.0753 40.8657C35.3279 41.0064 34.5608 41.0064 33.8134 40.8657L31.9795 40.6823C31.0835 40.5491 30.1957 40.3654 29.3203 40.1321V38.4511C29.3888 38.3163 29.427 38.1683 29.4324 38.0173C29.4378 37.8663 29.4101 37.7159 29.3514 37.5767C29.2927 37.4375 29.2044 37.3127 29.0925 37.2111C28.9807 37.1095 28.848 37.0335 28.7038 36.9885C28.5596 36.9434 28.4073 36.9303 28.2575 36.9501C28.1077 36.97 27.964 37.0222 27.8365 37.1033C27.7089 37.1843 27.6006 37.2922 27.519 37.4194C27.4375 37.5466 27.3846 37.69 27.3642 37.8398C27.0585 38.3899 25.1023 42.2411 24.9495 42.7302C24.8052 43.2527 24.6929 43.7834 24.6133 44.3196C24.5984 44.5435 24.5984 44.7681 24.6133 44.992C23.8186 44.6558 23.1462 44.2584 22.3515 43.9528C22.0215 43.7952 21.672 43.6821 21.3123 43.6166C20.9709 43.5359 20.6232 43.4848 20.273 43.4638C19.3255 43.4638 18.5308 43.6471 17.6139 43.7083H17.4305C19.081 37.259 20.7621 30.5347 22.6877 23.9326C24.0426 18.8908 25.7691 13.9562 27.8532 9.16957L29.5649 5.65457C30.2679 4.46252 31.0014 3.515 31.8573 3.48444C32.7131 3.45387 32.9882 4.3097 33.3549 5.74626C33.7515 7.34454 33.9162 8.99154 33.844 10.6367C33.7398 13.2311 33.3919 15.8099 32.8048 18.3391C32.7393 18.6386 32.7917 18.9517 32.9511 19.2136C33.1104 19.4754 33.3645 19.6658 33.6606 19.7451C33.9032 19.7906 34.154 19.7555 34.3747 19.6451C34.5955 19.5347 34.774 19.3552 34.8832 19.1338C35.012 19.1781 35.1518 19.1781 35.2806 19.1338C38.0606 19.1407 40.8232 19.5736 43.472 20.4176C44.4501 20.7232 45.4282 21.09 46.3757 21.4262C47.8734 21.9458 49.4323 22.5266 50.8077 23.0767C54.5978 24.5133 58.4184 25.9804 62.453 27.0808C62.749 27.1786 63.0716 27.1566 63.3515 27.0195C63.6315 26.8824 63.8466 26.6411 63.9507 26.3472C64.0373 26.0635 64.0089 25.7571 63.8717 25.4941C63.7345 25.2311 63.4994 25.0325 63.2172 24.9412ZM15.6271 36.6783C15.2561 37.1274 14.785 37.4833 14.2517 37.7175C13.9063 37.8437 13.5273 37.8437 13.1819 37.7175C12.9374 37.7175 12.9374 37.3201 12.8457 37.0451C12.5111 35.9597 12.5111 34.7988 12.8457 33.7134C13.2946 32.1425 13.8669 30.6095 14.5573 29.1287C15.2273 27.599 16.0035 26.118 16.8803 24.6967C17.6156 23.6247 18.4223 22.6036 19.2949 21.6402C19.2949 22.1904 18.9587 22.6794 18.8059 23.2296C17.7972 27.2947 17.0026 31.4516 16.2996 35.4557C16.1467 35.8836 15.9328 36.2809 15.6271 36.6783ZM32.0101 44.6252C33.5977 45.0829 35.2823 45.0829 36.87 44.6252C36.7938 44.8363 36.7823 45.0653 36.8367 45.2831C36.8911 45.5008 37.0091 45.6974 37.1756 45.8478C37.387 46.1008 37.5028 46.4199 37.5028 46.7495C37.5028 47.0791 37.387 47.3983 37.1756 47.6512C36.947 47.9539 36.6576 48.2055 36.3259 48.3897C35.9943 48.5739 35.6278 48.6868 35.25 48.721C34.3274 48.9249 33.382 49.0071 32.438 48.9655C31.4143 49.0136 30.3885 48.9418 29.3815 48.7515C28.4222 48.5446 27.4963 48.2051 26.6306 47.7429C27.0279 47.0093 27.4253 46.3063 27.7615 45.5728C27.9948 45.0793 28.189 44.5683 28.3423 44.0445C28.4178 43.7831 28.4791 43.5178 28.5256 43.2498C29.6263 43.8494 30.7966 44.3114 32.0101 44.6252ZM17.0026 45.8478C17.7505 46.3841 18.5372 46.8643 19.3561 47.2844C19.6966 47.4423 20.0562 47.5553 20.4259 47.6206C20.8022 47.6521 21.1805 47.6521 21.5568 47.6206C22.4462 47.5949 23.3338 47.5235 24.2159 47.4067V48.1097C24.1219 48.3557 24.1219 48.6278 24.2159 48.8738C23.2087 49.6616 22.2493 50.5087 21.3428 51.4107C20.8298 52.037 20.3503 52.69 19.9062 53.3669C19.3866 54.1616 18.9282 54.9868 18.4391 55.7815C18.4391 55.0683 18.378 54.3653 18.2557 53.6725C18.1882 52.9287 18.0552 52.1923 17.8584 51.4718C17.4309 50.255 16.8561 49.0951 16.1467 48.018C16.1467 48.018 16.3301 47.804 16.3607 47.6818C16.5441 47.0093 16.7275 46.3063 16.8803 45.6339C16.9109 45.8478 16.9414 45.8478 17.0026 45.8478Z" fill="#202020"/>
<path fill-rule="evenodd" clip-rule="evenodd" d="M28.5866 65.4708C25.1538 64.1309 21.4067 63.8125 17.797 64.5539L14.1904 65.4708L10.3086 66.021C9.50945 66.0523 8.7094 65.9908 7.92448 65.8376C7.189 65.6835 6.47898 65.4262 5.81548 65.0735C4.56231 64.4316 3.70648 63.6675 3.55365 62.7199C3.49246 62.1312 3.59068 61.5368 3.83804 60.9991C4.0854 60.4614 4.47279 60 4.95966 59.6634C6.12241 58.6626 7.47331 57.904 8.93313 57.4322C10.4648 56.9497 12.0654 56.7225 13.6707 56.7597C13.912 56.7179 14.1307 56.5922 14.2883 56.4049C14.446 56.2176 14.5324 55.9806 14.5324 55.7358C14.5324 55.491 14.446 55.254 14.2883 55.0667C14.1307 54.8793 13.912 54.7537 13.6707 54.7118C11.8628 54.5167 10.0351 54.6199 8.2607 55.0175C6.39235 55.4251 4.62519 56.2047 3.06461 57.3099C2.08221 57.9084 1.27964 58.761 0.741653 59.7778C0.203666 60.7946 -0.049776 61.9378 0.00808828 63.0867C0.173718 64.238 0.619999 65.3308 1.3076 66.269C1.9952 67.2071 2.903 67.9617 3.951 68.4662C4.89962 69.0243 5.93154 69.4267 7.00752 69.6582C8.09187 69.8888 9.20102 69.9812 10.3086 69.9333C11.1183 69.911 11.9254 69.8292 12.7232 69.6888C13.4874 69.6888 14.2515 69.3832 15.0156 69.1998L18.6834 68.0077C21.4742 67.1663 24.451 67.1663 27.2417 68.0077C27.7307 68.2217 28.1892 68.4356 28.3115 68.8941C28.4337 69.3526 28.3115 70.3612 27.4251 71.4616C27.3328 71.584 27.2655 71.7234 27.227 71.8719C27.1886 72.0203 27.1798 72.1748 27.201 72.3267C27.2223 72.4785 27.2733 72.6247 27.3511 72.7568C27.4289 72.889 27.5319 73.0045 27.6543 73.0968C27.7768 73.1892 27.9162 73.2565 28.0646 73.2949C28.213 73.3333 28.3676 73.3422 28.5194 73.3209C28.8261 73.2779 29.1031 73.1148 29.2896 72.8676C29.8907 72.2663 30.3444 71.5339 30.6148 70.7278C30.8853 69.9217 30.9652 69.0639 30.8484 68.2217C30.6892 67.6285 30.405 67.0761 30.0149 66.6017C29.6248 66.1272 29.1378 65.7417 28.5866 65.4708Z" fill="#1D6CFF"/>
</svg>
