<svg width="65" height="64" viewBox="0 0 65 64" fill="none" xmlns="http://www.w3.org/2000/svg">
<path fill-rule="evenodd" clip-rule="evenodd" d="M26.0098 11.4134C26.6765 11.6534 25.4498 11.2267 30.8898 12.5867C34.1298 13.9621 37.5521 14.8604 41.0498 15.2534C42.536 15.6693 44.0514 15.9724 45.5832 16.16C47.8232 16.16 50.2232 15.36 50.0365 9.36003C50.0365 6.3467 48.0098 6.69337 45.4499 5.60003C45.3942 4.51058 45.1031 3.44613 44.5965 2.48003C44.1619 1.71294 43.4591 1.13358 42.6232 0.853365C39.3965 -0.0266347 34.0898 -0.746634 31.7165 1.49337C29.3432 3.73337 31.7165 4.80003 32.1698 3.65337C32.3149 3.27843 32.5428 2.94113 32.8365 2.6667C34.7032 1.09337 39.3698 2.13337 41.9032 3.04003C42.5432 3.25337 42.8098 4.77337 42.8098 5.49337C42.8098 6.21337 42.3032 7.3867 43.6365 8.16003C46.3032 9.4667 47.7965 6.9867 46.5965 11.84C46.4034 12.2321 46.2515 12.6432 46.1432 13.0667C45.1298 13.0667 43.4765 12.6667 36.9432 11.7334C33.6898 10.5817 30.3316 9.75103 26.9165 9.25337C27.5032 8.69337 27.1565 6.5867 27.1565 5.89337V5.6267C27.6701 5.60279 28.184 5.6659 28.6765 5.81337C28.9134 5.86287 29.1603 5.81623 29.3629 5.68371C29.5654 5.55118 29.707 5.34363 29.7565 5.1067C29.806 4.86977 29.7594 4.62288 29.6269 4.42034C29.4943 4.2178 29.2868 4.07621 29.0498 4.0267C26.9165 3.4667 25.3165 3.4667 25.1565 5.81337C25.0765 7.3067 23.3165 10.3734 26.0098 11.4134Z" fill="#202020"/>
<path fill-rule="evenodd" clip-rule="evenodd" d="M59.2369 13.3336C58.437 11.9736 55.0769 11.2269 53.5303 10.9602C53.3093 10.9581 53.0947 11.0344 52.9248 11.1756C52.7548 11.3168 52.6404 11.5137 52.602 11.7313C52.5636 11.9489 52.6037 12.1731 52.715 12.364C52.8264 12.5548 53.0019 12.7 53.2103 12.7736C54.7054 13.002 56.1492 13.4893 57.4769 14.2136C57.4769 17.0402 53.2903 33.6002 46.6236 60.7736C46.0369 60.7736 44.917 61.0402 43.7703 60.9602C31.7613 59.9951 19.8692 57.9059 8.25028 54.7202C9.10362 45.3336 9.37028 41.0402 10.917 30.2402C13.4236 13.0936 14.357 11.5736 15.957 7.0669C18.1196 6.83433 20.301 6.83433 22.4636 7.0669C22.6547 7.10516 22.8532 7.07467 23.024 6.98082C23.1948 6.88697 23.3269 6.7358 23.3971 6.55398C23.4673 6.37217 23.471 6.1714 23.4075 5.98714C23.3441 5.80287 23.2175 5.64695 23.0503 5.5469C20.404 5.12707 17.7133 5.06429 15.0503 5.36024C14.357 5.57357 14.5436 5.49357 12.3836 10.9336C9.72699 21.4708 7.69677 32.1562 6.30362 42.9336C4.75695 55.9202 4.51695 56.0802 5.61028 57.0402C8.51695 59.5202 45.3169 65.6002 48.277 63.5202C48.4692 63.4047 48.6351 63.25 48.7637 63.0663C48.8923 62.8825 48.9809 62.6738 49.0236 62.4536C59.2103 17.8136 59.957 14.6402 59.2369 13.3336Z" fill="#1D6CFF"/>
<path fill-rule="evenodd" clip-rule="evenodd" d="M48.2504 24.6404C48.292 24.4493 48.2725 24.2499 48.1946 24.0705C48.1168 23.891 47.9845 23.7405 47.8165 23.6403C47.6485 23.5401 47.4533 23.4952 47.2584 23.512C47.0635 23.5288 46.8788 23.6063 46.7304 23.7338C46.4104 23.9738 34.0104 36.8804 33.6904 36.5604C32.6237 35.5471 32.0637 32.8271 30.8637 32.4538C29.1037 31.9738 30.517 35.3604 31.317 37.2004C32.117 39.0404 33.9837 39.8671 36.3837 38.1071C39.4386 35.7351 42.1333 32.9326 44.3837 29.7871C45.8172 28.1852 47.1109 26.4633 48.2504 24.6404Z" fill="#202020"/>
<path fill-rule="evenodd" clip-rule="evenodd" d="M29.584 27.5203C31.2373 26.9603 35.7973 26.5337 35.7706 28.1337C35.7706 28.3458 35.8549 28.5493 36.005 28.6993C36.155 28.8494 36.3585 28.9337 36.5706 28.9337C36.7828 28.9337 36.9863 28.8494 37.1363 28.6993C37.2864 28.5493 37.3706 28.3458 37.3706 28.1337C37.6373 24.827 32.0373 24.5337 28.9706 25.467C21.5573 27.4137 16.4106 34.4537 20.2773 41.467C21.957 44.1491 24.4334 46.239 27.3597 47.4439C30.2861 48.6489 33.516 48.9087 36.5973 48.187C41.7706 46.6937 46.064 40.507 43.6373 35.8137C43.5096 35.6284 43.3193 35.4954 43.1014 35.4393C42.8835 35.3833 42.6526 35.4078 42.4514 35.5084C42.2501 35.6091 42.092 35.779 42.0061 35.987C41.9202 36.195 41.9123 36.427 41.984 36.6403C43.6106 40.2137 39.8506 44.8003 35.9573 45.6803C33.4554 46.1037 30.8843 45.7925 28.5557 44.7844C26.227 43.7762 24.2407 42.1144 22.8373 40.0003C19.7973 34.8803 23.9573 29.3337 29.584 27.5203Z" fill="#202020"/>
</svg>
