<svg width="24" height="24" viewBox="0 0 24 24" fill="none" xmlns="http://www.w3.org/2000/svg">
<g clip-path="url(#clip0_1196_2981)">
<path fill-rule="evenodd" clip-rule="evenodd" d="M9.18008 9.57003L9.58008 9.42003C9.58008 9.42003 9.58008 9.51003 9.66008 9.54003C10.2901 10.07 10.9401 10.54 11.6001 11.05C12.2601 11.56 12.9201 12 13.6001 12.47C13.6901 12.53 14.3001 12.95 14.6001 13.09C14.7272 13.1667 14.8756 13.2003 15.0233 13.1858C15.1711 13.1714 15.3102 13.1098 15.4201 13.01C15.6964 12.6456 15.9001 12.2314 16.0201 11.79C16.1649 11.1995 16.2553 10.597 16.2901 9.99003C16.3501 9.16003 16.4101 8.33003 16.4901 7.49003C16.5501 6.95003 16.6101 6.41003 16.6801 5.87003L17.2001 5.50003C17.1964 5.55083 17.2076 5.60161 17.2325 5.64605C17.2574 5.6905 17.2948 5.72665 17.3401 5.75003C17.9857 6.12397 18.6536 6.45793 19.3401 6.75003C20.0192 7.05532 20.7134 7.32567 21.4201 7.56003C21.4901 7.56003 22.3701 7.86003 22.7201 7.95003C22.8532 7.98701 22.994 7.986 23.1265 7.94712C23.259 7.90824 23.3781 7.83304 23.4701 7.73003C23.6096 7.4825 23.6852 7.20411 23.6901 6.92003C23.6756 6.44525 23.5982 5.97449 23.4601 5.52003C23.3283 5.10883 23.1747 4.70493 23.0001 4.31003C22.6601 3.42003 22.2601 2.56003 21.9501 1.66003C21.9335 1.60074 21.9001 1.54751 21.854 1.50671C21.8079 1.46591 21.751 1.43929 21.6901 1.43003L22.0501 1.00003C22.1137 0.939028 22.1505 0.855241 22.1524 0.767099C22.1543 0.678957 22.1211 0.59368 22.0601 0.530028C21.9991 0.466376 21.9153 0.429563 21.8272 0.427688C21.739 0.425812 21.6537 0.459028 21.5901 0.520028C20.9001 1.17003 20.2801 1.84003 19.5901 2.46003C19.3101 2.72003 19.0201 2.97003 18.7101 3.21003C16.8424 4.63198 14.8315 5.85526 12.7101 6.86003C11.4433 7.48976 10.1449 8.05384 8.82008 8.55003C7.93008 8.88003 7.04008 9.18003 6.15008 9.43003C5.57008 9.59003 5.00008 9.72003 4.42008 9.82003C3.04008 10.07 1.64008 10.21 0.250083 10.45C0.173184 10.4647 0.104668 10.5079 0.0582959 10.5709C0.0119234 10.634 -0.00887278 10.7123 8.33424e-05 10.79C0.0189635 10.8599 0.0632877 10.9202 0.124349 10.959C0.185409 10.9979 0.258793 11.0125 0.330083 11L1.45008 10.9C1.96008 11.72 2.45008 12.52 3.07008 13.29C3.47008 13.83 3.89008 14.36 4.34008 14.88C4.34008 14.88 4.94008 15.56 5.19008 15.77C5.28137 15.8541 5.39393 15.9116 5.51555 15.9363C5.63718 15.961 5.76325 15.9519 5.88008 15.91C6.20207 15.7574 6.4755 15.5185 6.67008 15.22C6.89905 14.8714 7.09013 14.4993 7.24008 14.11C7.42341 13.6591 7.57054 13.1943 7.68008 12.72C7.89008 11.78 7.95008 10.91 8.15008 9.84003C8.49008 9.78003 8.84008 9.68003 9.18008 9.57003ZM19.2501 3.91003C19.5701 3.64003 19.8601 3.35003 20.1501 3.07003C20.4401 2.79003 20.9301 2.24003 21.3101 1.83003C21.5401 2.76003 21.8601 3.66003 22.1101 4.59003C22.2226 4.96367 22.3094 5.34456 22.3701 5.73003C22.3701 5.94003 22.4701 6.26003 22.5001 6.58003V6.75003L21.6301 6.51003C20.935 6.37604 20.2474 6.20581 19.5701 6.00003C18.8904 5.79005 18.2227 5.54301 17.5701 5.26003C18.1301 4.80003 18.7101 4.36003 19.2501 3.91003ZM13.2001 7.91003C14.1201 7.44003 15.0101 6.91003 15.8701 6.38003L15.2401 9.88003C15.1743 10.4215 15.0639 10.9567 14.9101 11.48C14.8673 11.6303 14.8138 11.7773 14.7501 11.92L14.1701 11.56C13.3101 11.09 12.4701 10.62 11.6401 10.12C11.1501 9.83003 10.6401 9.52003 10.1901 9.20003C11.2159 8.82078 12.2207 8.38682 13.2001 7.90003V7.91003ZM6.90008 12.08C6.75023 12.6415 6.53896 13.1848 6.27008 13.7C6.13425 14.0193 5.96675 14.3242 5.77008 14.61C5.71543 14.6813 5.65524 14.7482 5.59008 14.81C5.42212 14.6041 5.26842 14.3869 5.13008 14.16C4.54008 13.58 4.00008 13 3.43008 12.38C2.86008 11.76 2.58008 11.38 2.17008 10.86C2.96008 10.79 3.76008 10.73 4.55008 10.63C5.16008 10.56 5.76008 10.46 6.37008 10.33C6.71008 10.26 7.04008 10.17 7.37008 10.08C7.19008 10.8 7.07008 11.44 6.90008 12.08Z" fill="#202020"/>
<path fill-rule="evenodd" clip-rule="evenodd" d="M23.6903 18.32C21.8575 18.1479 20.0437 17.8133 18.2703 17.32C17.5203 17.1 16.7803 16.85 16.0603 16.56C15.3365 16.2641 14.6289 15.9303 13.9403 15.56C12.3171 14.7173 10.8276 13.639 9.52027 12.36C9.49407 12.3319 9.46234 12.3094 9.42707 12.294C9.3918 12.2787 9.35374 12.2708 9.31527 12.2708C9.2768 12.2708 9.23874 12.2787 9.20347 12.294C9.1682 12.3094 9.13647 12.3319 9.11027 12.36C9.05592 12.4144 9.02539 12.4881 9.02539 12.565C9.02539 12.6419 9.05592 12.7156 9.11027 12.77C9.33027 13.03 9.56027 13.26 9.79027 13.51C9.72027 13.87 9.67027 14.23 9.62027 14.59C9.57027 14.95 9.55027 15.39 9.53027 15.8V18.23C9.51722 18.4732 9.51722 18.7169 9.53027 18.96C9.54088 19.0612 9.57664 19.1581 9.63427 19.242C9.69191 19.3258 9.7696 19.3939 9.86027 19.44C10.142 19.5567 10.4585 19.5567 10.7403 19.44C11.1149 19.2818 11.4732 19.0876 11.8103 18.86C12.5003 18.43 13.1403 17.86 13.8103 17.46C14.0313 17.3178 14.2619 17.1908 14.5003 17.08C14.8703 17.25 15.2403 17.42 15.6103 17.56L15.7903 17.62C15.9503 18.17 16.1003 18.71 16.2703 19.25C16.4403 19.79 16.6603 20.5 16.8803 21.12C17.031 21.5667 17.208 22.0042 17.4103 22.43C17.5747 22.7642 17.7983 23.0657 18.0703 23.32C18.1875 23.4207 18.3326 23.4832 18.4862 23.4993C18.6399 23.5153 18.7948 23.4842 18.9303 23.41C19.335 23.1843 19.7027 22.8976 20.0203 22.56C20.4371 22.141 20.8278 21.6969 21.1903 21.23C21.7203 20.56 22.1903 19.84 22.6803 19.1C22.7009 19.0384 22.7009 18.9717 22.6803 18.91H23.5703C23.6131 18.9141 23.6563 18.9096 23.6974 18.8966C23.7384 18.8836 23.7764 18.8625 23.8091 18.8345C23.8417 18.8064 23.8684 18.7721 23.8875 18.7336C23.9066 18.695 23.9178 18.653 23.9203 18.61C23.914 18.5446 23.889 18.4825 23.8482 18.431C23.8074 18.3795 23.7525 18.341 23.6903 18.32ZM13.4703 16.82C12.7403 17.18 12.0503 17.64 11.3303 17.99C11.2003 18.05 10.8403 18.32 10.5803 18.45V18.2L10.3603 15.81C10.3603 15.41 10.3003 15.03 10.2903 14.65V14.12C11.2139 15.0371 12.2447 15.8395 13.3603 16.51L13.7003 16.7C13.6703 16.74 13.5603 16.77 13.4703 16.82ZM20.5503 20.68C20.1748 21.0819 19.7739 21.4593 19.3503 21.81C19.174 22.0352 18.9764 22.2428 18.7603 22.43C18.6344 22.278 18.5239 22.1138 18.4303 21.94C18.2103 21.54 18.0303 21.1 17.8703 20.76C17.5403 20.06 17.2103 19.36 16.8703 18.65C16.7603 18.41 16.6703 18.17 16.5703 17.92C17.0303 18.07 17.4903 18.21 17.9603 18.32C19.2953 18.625 20.6533 18.819 22.0203 18.9C21.5603 19.52 21.0803 20.12 20.5503 20.68Z" fill="#1D6CFF"/>
</g>
<defs>
<clipPath id="clip0_1196_2981">
<rect width="24" height="24" fill="white"/>
</clipPath>
</defs>
</svg>
