<svg width="32" height="32" viewBox="0 0 32 32" fill="none" xmlns="http://www.w3.org/2000/svg">
<path fill-rule="evenodd" clip-rule="evenodd" d="M30.9607 0C28.9332 0.247244 26.9274 0.648401 24.9607 1.2C23.5207 1.64 22.1074 2.21333 20.6674 2.68C18.3074 3.44 18.8407 2.90667 15.6674 8.62667C15.4367 7.44568 14.9843 6.31912 14.334 5.30667C13.0007 3.97333 11.6674 5.98667 10.7207 7.52C7.90737 12.12 5.33404 16.2533 4.8007 23.1733C4.79186 23.2794 4.82553 23.3847 4.89429 23.4659C4.96305 23.5472 5.06128 23.5978 5.16737 23.6067C5.27346 23.6155 5.37871 23.5818 5.45998 23.5131C5.54124 23.4443 5.59186 23.3461 5.6007 23.24C6.18737 16.6533 8.8007 12.5733 11.6674 8.13333C12.0758 7.35668 12.6438 6.67511 13.334 6.13333C13.414 6.26667 13.494 6.13333 13.8407 7.04C14.1874 7.94667 14.454 9.84 14.974 10.24C15.494 10.64 16.1474 10.24 16.5607 9.66667C16.974 9.09333 19.174 4.82667 20.0007 4.45333C20.384 4.29613 20.7813 4.17559 21.1874 4.09333C24.1434 2.95375 27.2149 2.14005 30.3474 1.66667C30.3795 2.79144 30.2447 3.91476 29.9474 5C29.2074 8.23537 28.1581 11.3921 26.814 14.4267C26.414 15.32 25.774 17.36 24.8674 18.0133C24.774 17.88 24.494 17.7733 24.414 17.6933C23.3049 16.7004 22.0147 15.9308 20.614 15.4267C18.9074 15.2 19.774 19 19.694 19.9067C18.7074 19.2267 16.2674 17.9867 15.8274 19.0267C15.534 19.72 15.9607 20.6133 16.094 21.16C16.4007 22.32 17.1474 24.56 16.254 25.3867C14.4007 26.7004 12.1201 27.267 9.86737 26.9733C6.66737 26.6667 7.66737 25.3333 6.97404 25.84C6.70737 25.9467 6.41404 26.1867 6.70737 26.5333C7.09559 27.1004 7.67966 27.504 8.34737 27.6667C10.8674 28.4 14.8674 27.9867 16.9074 26.1867C18.4007 24.8533 17.494 21.96 16.9074 19.9067C17.9976 20.2286 18.9795 20.8417 19.7474 21.68C19.8861 21.7949 20.0606 21.8578 20.2407 21.8578C20.4208 21.8578 20.5953 21.7949 20.734 21.68C21.2407 21.1067 20.734 18.64 20.8407 17.0267H21.094C21.885 17.5164 22.6382 18.0646 23.3474 18.6667C23.6125 18.9827 23.9278 19.253 24.2807 19.4667C25.094 19.8 26.014 18.9467 26.5074 18.28C28.174 16.08 34.1607 0.346667 30.9607 0Z" fill="#202020"/>
<path fill-rule="evenodd" clip-rule="evenodd" d="M9.41394 21.6402C18.6673 11.2402 23.1873 8.14685 26.0673 6.01352C26.1163 5.9785 26.158 5.93417 26.1898 5.88305C26.2217 5.83194 26.2433 5.77504 26.2532 5.71561C26.2631 5.65618 26.2612 5.59538 26.2476 5.53669C26.234 5.47799 26.209 5.42255 26.1739 5.37352C26.1389 5.32449 26.0946 5.28284 26.0435 5.25095C25.9924 5.21906 25.9355 5.19754 25.876 5.18764C25.8166 5.17773 25.7558 5.17963 25.6971 5.19322C25.6384 5.20681 25.583 5.23183 25.5339 5.26685C23.6673 6.60019 21.8406 7.73352 20.1206 9.12019C10.3873 17.1202 6.85394 22.4535 1.21395 29.8402L0.187278 31.3602C0.145445 31.4497 0.137092 31.5513 0.163734 31.6465C0.190376 31.7417 0.250249 31.8242 0.332495 31.879C0.414741 31.9339 0.513913 31.9574 0.612027 31.9454C0.710141 31.9334 0.800699 31.8866 0.867278 31.8135C3.56061 28.2935 7.89394 23.3469 9.41394 21.6402Z" fill="#1D6CFF"/>
</svg>
