<svg width="33" height="32" viewBox="0 0 33 32" fill="none" xmlns="http://www.w3.org/2000/svg">
<path fill-rule="evenodd" clip-rule="evenodd" d="M20.1176 6.79578C20.9098 5.02329 20.0007 3.49068 17.5203 4.23699C16.9359 4.39692 16.5203 5.22319 16.4424 6.08945C16.1307 8.75484 19.1436 9.15465 20.1176 6.79578ZM19.1436 5.86289C18.9488 6.38264 17.9748 7.31553 17.7281 6.55589C17.0528 4.45023 19.6761 4.51686 19.1436 5.86289Z" fill="#202020"/>
<path fill-rule="evenodd" clip-rule="evenodd" d="M29.0398 21.8816C28.5333 21.0953 28.1177 21.8816 28.1177 21.8816C28.1177 22.1615 28.1178 22.5746 28.2346 23.3076C28.3905 25.1867 29.2735 28.1053 28.7281 29.3847C28.5363 29.7127 28.2567 29.9774 27.9227 30.1473C27.5886 30.3171 27.2141 30.385 26.8435 30.3429C26.473 30.3008 26.122 30.1505 25.8322 29.9098C25.5424 29.669 25.3261 29.348 25.2088 28.9849C24.9405 28.1947 24.5454 27.456 24.04 26.7993C22.4686 25.6798 22.0271 31.2105 20.6246 30.5042C19.222 29.7978 19.6895 25.5865 19.1181 25.1734C19.0133 25.1037 18.8943 25.0597 18.7703 25.0445C18.6463 25.0294 18.5205 25.0436 18.4027 25.0861C18.2848 25.1285 18.178 25.1981 18.0905 25.2895C18.0029 25.3808 17.9368 25.4916 17.8974 25.6132C17.4948 26.546 17.4948 28.5984 16.8325 29.7578C16.1702 30.9173 15.5339 30.2509 14.456 30.4109C13.8413 30.4191 13.2302 30.3153 12.6509 30.1043L12.3911 29.438C11.9626 28.0387 11.8197 23.5341 10.8717 23.081C9.92371 22.6279 9.91072 23.6674 8.88479 26.1063C7.94977 28.3185 8.02769 30.2509 5.70311 29.7179C5.31352 29.3847 3.78111 29.398 4.20967 27.6655C4.63822 25.933 5.50831 24.7736 5.35248 22.1082C5.35248 21.6817 4.49537 21.3085 4.48238 22.1082C4.4694 22.9078 3.32659 25.4399 3.18374 28.1053C3.04088 30.4908 6.71605 31.7436 8.3004 30.1577C8.98869 29.4647 9.11855 28.705 10.4172 25.7064C10.7808 27.5589 10.7548 29.7045 11.4042 30.8107C12.0535 31.9168 14.4949 31.8102 16.1312 31.8502C16.5498 31.823 16.9545 31.6863 17.3069 31.453C17.6593 31.2196 17.9475 30.8976 18.1441 30.5175C18.7285 29.4647 18.3649 29.2781 18.7155 30.1843C19.4558 32.0101 21.0401 32.4232 22.0531 31.5836C22.7872 30.6906 23.3432 29.6582 23.6894 28.5451L24.1828 29.5713C24.353 30.0001 24.6133 30.3851 24.9452 30.6988C25.2771 31.0125 25.6724 31.247 26.1029 31.3858C26.5334 31.5246 26.9884 31.5641 27.4354 31.5015C27.8825 31.439 28.3106 31.2759 28.6892 31.0239C30.1566 30.1577 30.1177 28.5851 29.819 26.7326C29.5203 24.8802 29.5333 22.6546 29.0398 21.8816Z" fill="#1D6CFF"/>
<path fill-rule="evenodd" clip-rule="evenodd" d="M5.27363 17.1375C5.71516 13.5259 10.4682 12.0466 12.8317 13.6992C15.429 15.6049 13.6239 11.5802 13.8707 7.34219C14.1174 3.10421 17.8445 0.465468 20.1431 1.93144C21.3768 2.66442 21.7405 5.32982 21.7405 6.87575C21.8054 11.3136 19.7276 12.6863 20.312 13.8191C20.5847 14.3522 21.0652 14.2722 21.6106 14.0323H21.8703C22.2729 14.1256 26.1169 13.7658 27.8571 16.6977C28.5194 19.6163 28.4415 19.0566 28.3636 19.5364C28.0649 19.4031 23.7014 19.8962 23.5586 19.9095C19.5432 20.1164 15.5196 20.0897 11.5071 19.8296C10.2085 19.7496 8.68907 19.3765 7.36445 19.3765C7.26195 19.3947 7.16903 19.4495 7.10205 19.5312C7.03508 19.6128 6.99835 19.7162 6.99835 19.8229C6.99835 19.9297 7.03508 20.033 7.10205 20.1147C7.16903 20.1963 7.26195 20.2511 7.36445 20.2694C12.7409 21.0848 18.1815 21.366 23.6105 21.109C25.091 20.989 29.1427 21.3355 29.5583 20.6958C29.9739 20.0561 29.5583 18.6035 29.4934 17.9105C29.4597 17.0346 29.1908 16.1852 28.7164 15.4562C28.2421 14.7271 27.5807 14.1468 26.8052 13.7791C25.3415 12.9719 23.7005 12.5636 22.0392 12.593C22.8686 10.833 23.2823 8.89713 23.2469 6.94238C23.143 0.81197 19.7405 -1.16042 16.5459 0.638719C15.406 1.32733 14.4523 2.29788 13.7718 3.46182C13.0913 4.62576 12.7056 5.94604 12.6499 7.30221C12.6467 9.09068 12.8076 10.8755 13.1304 12.633C10.0526 10.9405 4.85806 12.8596 4.46846 17.0442V18.5235C4.44249 18.6568 5.15675 23.4678 5.27363 17.1375Z" fill="#202020"/>
</svg>
