<svg width="32" height="32" viewBox="0 0 32 32" fill="none" xmlns="http://www.w3.org/2000/svg">
<g clip-path="url(#clip0_827_2787)">
<path d="M20.4406 5.58687C19.5917 3.64992 18.5931 1.78204 17.454 0.000203302C17.3659 -0.0308294 17.2705 -0.0347116 17.1802 -0.0109409C17.0898 0.0128298 17.0087 0.0631594 16.9473 0.133537C16.7873 0.320203 16.9473 0.133537 15.334 2.6402C14.694 3.6802 13.854 4.06687 13.6673 5.8802C13.6198 6.76846 13.6198 7.65862 13.6673 8.54687C13.574 14.4269 13.1206 20.1602 13.814 26.2135C14.094 28.5469 14.5873 31.5469 16.9873 31.9602C19.3873 32.3735 20.2806 29.2935 20.454 26.6269C20.454 21.8669 20.7206 23.8535 20.5606 10.3335C20.5473 10.2669 20.4673 5.74687 20.4406 5.58687ZM15.3206 26.2402C15.3206 25.8669 15.2406 25.6402 15.1206 24.5869C16.403 24.7509 17.6992 24.7777 18.9873 24.6669C18.9649 25.111 18.9649 25.556 18.9873 26.0002C17.7721 25.6738 16.483 25.7581 15.3206 26.2402ZM19.3206 5.97354C19.694 6.74687 19.2273 20.8002 19.0673 23.5469C17.768 23.09 16.3473 23.1184 15.0673 23.6269C14.6673 18.6669 14.774 13.7469 14.6673 8.54687V6.66687C15.3206 7.5202 16.534 9.77354 17.334 8.45354C17.9081 7.5636 18.5691 6.73286 19.3073 5.97354H19.3206ZM17.174 1.33354C17.3366 1.60487 17.4835 1.88534 17.614 2.17354C18.1288 3.02545 18.5747 3.91719 18.9473 4.8402C18.8273 4.8402 16.6273 6.73354 16.5473 6.81354C15.814 5.9602 15.7606 6.41354 14.774 5.1202C15.0273 4.37354 14.934 4.97354 17.174 1.33354ZM15.4673 27.2802C16.6124 27.4176 17.7714 27.3861 18.9073 27.1869C18.4406 31.8669 16.134 31.2935 15.4673 27.2802Z" fill="#202020"/>
<path d="M26.8542 10.4004C26.9461 10.4534 27.0553 10.4677 27.1579 10.4402C27.2604 10.4127 27.3478 10.3456 27.4008 10.2537C27.4539 10.1617 27.4682 10.0525 27.4407 9.94998C27.4132 9.84746 27.3461 9.76007 27.2542 9.70702C26.7608 9.38702 26.0542 9.86702 24.6942 8.76036C24.5051 8.62496 24.346 8.45209 24.2268 8.25252C24.1075 8.05295 24.0306 7.83095 24.0008 7.60036C23.8408 5.82702 26.6675 4.64036 26.8942 2.66702C26.8497 2.40973 26.7736 2.15893 26.6675 1.92036C28.2275 2.62702 28.6675 2.62702 29.0808 3.09369C30.2142 4.42702 29.9475 6.93369 29.0808 8.33369C28.8406 8.84812 28.4901 9.30334 28.0542 9.66702C27.4675 9.96036 27.9608 11.267 29.2008 9.89369C31.5208 7.32036 31.5208 3.96036 30.2008 2.22702C29.6117 1.57377 28.8485 1.102 28.0008 0.867025C27.5691 0.587632 27.0902 0.388861 26.5875 0.280358C26.4553 0.24661 26.3176 0.239566 26.1826 0.259639C26.0476 0.279712 25.918 0.326499 25.8013 0.397263C25.6846 0.468027 25.5832 0.561349 25.503 0.67177C25.4228 0.782192 25.3654 0.907497 25.3342 1.04036C25.2875 1.51477 25.2875 1.99261 25.3342 2.46702L25.0542 3.14702C24.2675 4.61369 22.3875 5.60036 22.8008 7.74702C23.2942 10.4537 27.2808 10.4537 26.8542 10.4004Z" fill="#1D6CFF"/>
<path d="M28.628 12.1603C28.628 12.387 28.628 12.1603 28.5347 16.0003C28.5347 19.0937 27.308 30.2403 26.8413 30.187C26.3747 30.1337 25.8813 27.6003 25.8147 27.147C25.0409 23.1561 24.83 19.0765 25.188 15.027C25.3039 13.7837 25.5452 12.5552 25.908 11.3603C25.908 10.667 25.308 10.3737 25.0413 11.187C24.7747 12.0003 24.628 12.6803 24.5613 12.9737C22.9213 19.987 24.2413 28.8537 25.1213 30.507C26.0013 32.1603 27.628 32.187 28.3747 30.6003C28.756 29.3736 28.9581 28.0982 28.9747 26.8137C29.468 18.9337 29.6547 21.987 29.5347 12.147C30.0413 11.6403 28.8547 10.8537 28.628 12.1603Z" fill="#202020"/>
<path d="M5.33493 25.0938C4.74827 25.2538 4.62827 25.3205 4.53493 25.6938C4.4416 26.0672 4.53493 25.8672 6.10827 28.7205C7.4416 31.1872 7.4416 31.3872 7.82827 31.3872C7.91835 31.3891 8.00629 31.3595 8.07689 31.3035C8.14748 31.2476 8.19631 31.1687 8.21493 31.0805C8.21493 30.9472 8.49493 31.4405 5.82827 26.2805C7.31127 26.2183 8.7848 26.013 10.2283 25.6672C9.5473 26.9498 8.97636 28.288 8.5216 29.6672C8.5216 30.1872 9.2016 30.3072 9.45493 29.6672C10.8816 26.3605 11.4016 25.9605 11.4016 24.9205C11.4016 23.8805 5.8816 24.9338 5.33493 25.0938Z" fill="#1D6CFF"/>
<path d="M2.98786 7.90703C3.2308 7.17973 3.57171 6.48893 4.0012 5.8537C4.31821 5.50328 4.73064 5.25304 5.18786 5.1337C4.81453 7.5737 4.97453 9.76037 4.8012 12.1737C4.54786 15.8937 4.5212 20.347 4.5212 23.0937C4.6812 24.427 5.0412 24.427 5.61453 23.0937C5.61453 21.7604 5.61453 19.9604 5.86786 16.427C7.29744 16.7534 8.79007 16.6703 10.1745 16.187C10.1745 20.3337 10.2545 22.2137 10.2679 23.147C10.2812 24.0804 10.8145 24.2137 11.3479 23.147C11.3479 21.387 11.3479 16.8804 11.5079 6.32037C11.5079 4.38703 11.7612 2.0537 10.0012 0.987034C9.4812 0.653701 9.1212 0.253701 8.3612 0.373701C6.5212 0.693701 5.69453 2.42703 5.33453 4.2537C4.4824 4.24214 3.65608 4.54607 3.01453 5.10703C1.33453 6.9337 1.0412 8.74703 0.921198 11.227C0.921198 12.107 0.681198 13.8937 1.6412 13.8937C2.6012 13.8937 1.33453 12.787 2.98786 7.90703ZM8.61453 1.88037L9.1612 2.24037C10.1212 2.80037 10.0012 4.78703 9.97453 5.92037C8.84604 5.66988 7.67635 5.66988 6.54786 5.92037C6.66786 4.44037 7.17453 2.12037 8.61453 1.88037ZM6.13453 12.2937L6.46786 6.96037C7.61933 7.25522 8.82239 7.28712 9.98786 7.0537L10.1079 15.0537C8.68438 14.8602 7.23564 14.9878 5.86786 15.427C5.94786 14.4004 6.02786 13.3337 6.13453 12.2937Z" fill="#202020"/>
</g>
<defs>
<clipPath id="clip0_827_2787">
<rect width="32" height="32" fill="white"/>
</clipPath>
</defs>
</svg>
