<svg width="32" height="32" viewBox="0 0 32 32" fill="none" xmlns="http://www.w3.org/2000/svg">
<g clip-path="url(#clip0_827_2782)">
<path fill-rule="evenodd" clip-rule="evenodd" d="M30.8407 6.01335C30.7313 4.98177 30.4472 3.97632 30.0007 3.04001C29.6985 2.44796 29.3554 1.87769 28.974 1.33335C28.8951 1.22639 28.7957 1.13622 28.6816 1.06813C28.5674 1.00003 28.4409 0.955366 28.3093 0.936744C28.1777 0.918123 28.0437 0.925919 27.9152 0.959675C27.7866 0.993432 27.6661 1.05247 27.5607 1.13335C26.9207 1.68001 26.4007 2.22668 25.774 2.68001C25.4077 2.96161 25.0038 3.1905 24.574 3.36001C22.7207 4.13335 19.8673 4.69335 18.1073 5.94668C17.3685 6.43247 16.8069 7.14444 16.5064 7.97605C16.206 8.80766 16.1829 9.71419 16.4407 10.56C16.5212 10.8838 16.6282 11.2004 16.7607 11.5067L16.9607 11.8533C13.2571 14.2784 9.69575 16.9138 6.29399 19.7467C4.65434 21.0249 3.22774 22.555 2.06732 24.28C1.68837 24.9736 1.41428 25.7194 1.25399 26.4933C1.14711 27.0617 1.14711 27.645 1.25399 28.2133C1.38434 28.8783 1.65672 29.5072 2.05252 30.0572C2.44832 30.6072 2.95821 31.0652 3.54732 31.4C4.14787 31.7519 4.82255 31.9581 5.51721 32.0021C6.21187 32.0461 6.90717 31.9267 7.54732 31.6533C9.41497 30.4341 11.0571 28.9003 12.4007 27.12C15.9073 23 20.0007 17.24 21.414 15.48C21.5001 15.3705 21.5412 15.2322 21.5288 15.0935C21.5164 14.9547 21.4515 14.8259 21.3473 14.7333C21.2656 14.687 21.1744 14.6597 21.0807 14.6533C20.7873 14.2667 20.5207 13.8667 20.2007 13.4933C20.0588 13.3206 19.9027 13.16 19.734 13.0133C19.5706 12.8579 19.392 12.7194 19.2007 12.6C18.7632 12.3933 18.3848 12.0798 18.1005 11.6883C17.8162 11.2968 17.6351 10.84 17.574 10.36C17.4198 9.72773 17.4726 9.06265 17.7246 8.46261C17.9766 7.86257 18.4146 7.35925 18.974 7.02668C19.836 6.51734 20.7715 6.14406 21.7473 5.92001C21.7687 6.12291 21.8227 6.32102 21.9073 6.50668C22.2195 6.99582 22.6902 7.36295 23.2407 7.54668C23.736 7.67744 24.193 7.92424 24.574 8.26668C24.891 8.67336 25.056 9.17795 25.0407 9.69335C25.0445 10.4987 25.2459 11.2907 25.6273 12C25.8644 12.2893 26.1597 12.5256 26.494 12.6933C25.947 13.1448 25.3576 13.5422 24.734 13.88C23.8876 14.3477 22.9407 14.6038 21.974 14.6267C21.9046 14.6212 21.8348 14.6298 21.7688 14.6518C21.7028 14.6738 21.6419 14.7089 21.5896 14.7549C21.5374 14.8009 21.495 14.8569 21.4648 14.9196C21.4346 14.9824 21.4173 15.0505 21.414 15.12C21.4086 15.1894 21.4171 15.2592 21.4391 15.3252C21.4612 15.3912 21.4962 15.4521 21.5422 15.5044C21.5882 15.5566 21.6442 15.599 21.707 15.6292C21.7697 15.6594 21.8378 15.6767 21.9073 15.68C22.8193 15.716 23.7284 15.5569 24.574 15.2133C25.8437 14.7441 27.0248 14.0633 28.0673 13.2C28.6901 12.6678 29.2216 12.0372 29.6407 11.3333C30.0422 10.634 30.3515 9.88553 30.5607 9.10668C30.8421 8.10132 30.937 7.0529 30.8407 6.01335ZM18.974 14.7467C19.3207 14.9733 19.6673 15.16 20.014 15.36C18.254 17.4933 14.414 22.4267 11.094 26.0267C9.87508 27.5901 8.40645 28.9416 6.74732 30.0267C6.36248 30.1837 5.94625 30.2486 5.53186 30.2162C5.11748 30.1838 4.7164 30.055 4.36065 29.84C3.99524 29.6359 3.67845 29.355 3.43215 29.0166C3.18584 28.6783 3.01588 28.2905 2.93399 27.88C2.86892 27.4348 2.89615 26.9809 3.01399 26.5467C3.15057 26.0444 3.33822 25.5574 3.57399 25.0933C4.98991 23.0029 6.72683 21.149 8.72065 19.6C11.8673 16.84 15.5073 14.0933 17.2407 12.84C17.456 13.2074 17.6966 13.5593 17.9607 13.8933C18.26 14.2243 18.6006 14.5156 18.974 14.76V14.7467ZM29.014 8.72001C28.8805 9.39778 28.6515 10.0532 28.334 10.6667C28.0831 11.1146 27.7737 11.5271 27.414 11.8933C27.1492 11.7885 26.9249 11.6016 26.774 11.36C26.5998 10.7717 26.5633 10.1513 26.6673 9.54668C26.691 8.62283 26.3675 7.72366 25.7607 7.02668C25.2446 6.5963 24.6234 6.31098 23.9607 6.20001C23.534 6.10668 23.094 6.20001 22.8673 5.85335C22.7844 5.7994 22.7158 5.72621 22.6673 5.64001C23.5473 5.42668 24.4273 5.22668 25.1473 4.97335C25.7305 4.76899 26.2791 4.47673 26.774 4.10668C27.2376 3.77101 27.6827 3.41048 28.1073 3.02668C28.254 3.37335 28.374 3.76001 28.3873 3.78668C28.7644 4.54573 29.0165 5.36065 29.134 6.20001C29.2327 7.0409 29.1921 7.89231 29.014 8.72001Z" fill="#202020"/>
<path fill-rule="evenodd" clip-rule="evenodd" d="M1.69351 6.00001C2.30684 7.13335 1.08018 4.66668 7.28018 16.08C7.33706 16.1893 7.43487 16.2717 7.55228 16.3092C7.66968 16.3467 7.79715 16.3362 7.90684 16.28C8.01605 16.2229 8.09911 16.126 8.13882 16.0093C8.17853 15.8927 8.17186 15.7652 8.12018 15.6533L6.66684 12.3067C7.09597 12.1969 7.51179 12.0404 7.90684 11.84C8.26547 11.6461 8.60478 11.4184 8.92018 11.16C9.40018 10.7733 9.80018 10.3467 10.2535 9.96001C10.3139 9.92674 10.3672 9.8819 10.4103 9.82805C10.4533 9.7742 10.4854 9.71239 10.5046 9.64615C10.5238 9.57991 10.5297 9.51054 10.5221 9.442C10.5145 9.37346 10.4934 9.30709 10.4602 9.24668C10.4269 9.18627 10.3821 9.13301 10.3282 9.08993C10.2744 9.04685 10.2126 9.0148 10.1463 8.99561C10.0801 8.97642 10.0107 8.97046 9.94216 8.97808C9.87362 8.9857 9.80725 9.00674 9.74684 9.04001C9.14963 9.22612 8.56602 9.45333 8.00018 9.72001C7.52263 9.92717 7.07436 10.1961 6.66684 10.52C6.44018 10.7067 6.22684 10.9067 6.01351 11.1067L4.84018 8.44001L5.48018 8.20001C5.70684 8.09335 5.93351 7.97335 6.13351 7.85335C6.33351 7.73335 6.54684 7.57335 6.74684 7.42668C7.21351 7.05335 7.64018 6.66668 8.08018 6.28001C8.20041 6.20929 8.28762 6.0937 8.32263 5.95867C8.35763 5.82365 8.33757 5.68024 8.26684 5.56001C8.19612 5.43978 8.08053 5.35257 7.9455 5.31756C7.81048 5.28256 7.66707 5.30262 7.54684 5.37335C6.98684 5.57335 6.44018 5.74668 5.88018 5.98668C5.649 6.07891 5.426 6.19041 5.21351 6.32001C4.99248 6.44354 4.78278 6.58631 4.58684 6.74668C4.45582 6.86437 4.3312 6.98899 4.21351 7.12001C3.89351 6.48001 3.49351 5.78668 3.17351 5.16001C3.09351 5.00001 3.02684 4.85335 2.96018 4.69335C3.30004 4.56203 3.6473 4.45073 4.00018 4.36001C4.70684 4.00001 5.46684 3.60001 6.22684 3.24001C6.98684 2.88001 7.76018 2.54668 8.53351 2.22668C8.86762 2.14611 9.19348 2.03452 9.50684 1.89335V2.00001C9.81351 2.45335 10.0935 3.00001 10.3202 3.33335C11.0268 4.32001 11.6535 5.36001 12.3335 6.41335C13.0135 7.46668 13.5602 8.56001 14.0935 9.65335C14.1223 9.71732 14.1635 9.77498 14.2146 9.82303C14.2657 9.87107 14.3259 9.90855 14.3915 9.93333C14.4572 9.9581 14.527 9.96967 14.5972 9.96739C14.6673 9.9651 14.7363 9.949 14.8002 9.92001C14.927 9.85939 15.0248 9.75114 15.0722 9.6188C15.1197 9.48646 15.1129 9.34075 15.0535 9.21335C14.5735 8.06668 14.0135 6.92001 13.4268 5.80001C12.8402 4.68001 12.2135 3.57335 11.5602 2.50668C11.3068 2.12001 11.0268 1.42668 10.6802 0.920013C10.4886 0.609283 10.2398 0.337798 9.94684 0.120013C9.80884 0.0565634 9.65874 0.0237122 9.50684 0.0237122C9.35495 0.0237122 9.20485 0.0565634 9.06684 0.120013C8.80018 0.18668 8.00018 0.600013 7.90684 0.640013C7.09351 0.94668 6.28018 1.28001 5.49351 1.62668C4.70684 1.97335 3.90684 2.37335 3.14684 2.77335C2.57321 3.0734 2.02866 3.42602 1.52018 3.82668C1.38178 3.94913 1.27899 4.10667 1.22267 4.28268C1.16635 4.45868 1.15858 4.64663 1.20018 4.82668C1.32207 5.23435 1.48747 5.62772 1.69351 6.00001Z" fill="#1D6CFF"/>
<path fill-rule="evenodd" clip-rule="evenodd" d="M23.5873 24C23.0273 22.9333 22.3873 21.9067 21.814 20.8534C21.574 20.4134 21.334 19.96 21.134 19.52C21.0753 19.3975 20.9722 19.302 20.8456 19.253C20.7189 19.2039 20.5784 19.205 20.4525 19.256C20.3267 19.307 20.225 19.4041 20.1683 19.5275C20.1116 19.6509 20.1041 19.7913 20.1473 19.92L22.214 24.6667C22.3073 24.8934 22.494 25.2667 22.6406 25.6533C22.715 25.8185 22.7644 25.9937 22.7873 26.1733C22.3536 26.3544 21.9081 26.5058 21.454 26.6267L17.334 29.0667C17.1473 29.1733 16.854 29.36 16.5473 29.5067L16.2273 29.68C16.1881 29.5954 16.1612 29.5056 16.1473 29.4133L15.4806 28.2C15.8233 28.1485 16.162 28.0728 16.494 27.9733C16.6591 27.9042 16.8195 27.824 16.9739 27.7333C17.1275 27.6478 17.2706 27.5449 17.4006 27.4267C17.734 27.1467 18.0006 26.8533 18.3206 26.5467C18.4416 26.4768 18.5304 26.3622 18.5678 26.2276C18.6052 26.0929 18.5883 25.949 18.5206 25.8267C18.4507 25.7057 18.3361 25.6169 18.2015 25.5795C18.0669 25.5421 17.9229 25.559 17.8006 25.6267C17.374 25.7467 16.974 25.8267 16.5606 25.9733C16.3902 26.0353 16.2252 26.1111 16.0673 26.2C15.9095 26.2853 15.7619 26.3882 15.6273 26.5067C15.3878 26.7348 15.165 26.9799 14.9606 27.24V27.1334C14.8988 27.0255 14.7985 26.945 14.6798 26.9079C14.5612 26.8708 14.4329 26.8799 14.3206 26.9334C14.2113 26.9902 14.1289 27.088 14.0914 27.2055C14.054 27.3229 14.0645 27.4503 14.1206 27.56L15.1073 29.9467C15.182 30.1935 15.2756 30.4342 15.3873 30.6667C15.4382 30.7538 15.5075 30.8288 15.5904 30.8864C15.6734 30.944 15.7678 30.9827 15.8673 31C16.1518 31.0711 16.4494 31.0711 16.734 31C17.1932 30.8732 17.6396 30.7035 18.0673 30.4934C18.6806 30.24 19.294 29.96 19.894 29.6533C20.774 29.2133 21.614 28.7067 22.4673 28.2267C23.0637 27.9478 23.6347 27.6177 24.1739 27.24C24.3768 27.0677 24.5174 26.8334 24.574 26.5734C24.5971 26.2203 24.5472 25.8662 24.4273 25.5333C24.187 25.0015 23.9062 24.4888 23.5873 24Z" fill="#1D6CFF"/>
</g>
<defs>
<clipPath id="clip0_827_2782">
<rect width="32" height="32" fill="white"/>
</clipPath>
</defs>
</svg>
