<svg width="65" height="65" viewBox="0 0 65 65" fill="none" xmlns="http://www.w3.org/2000/svg">
<g clip-path="url(#clip0_1097_3064)">
<path fill-rule="evenodd" clip-rule="evenodd" d="M7.65779 21.6906C7.41672 21.5682 7.16312 21.4719 6.90152 21.4036C6.63272 21.3783 6.36232 21.3783 6.09325 21.4036C3.19939 20.9604 3.04285 21.2732 2.86045 21.6906C2.67805 22.1079 2.73005 22.7594 5.23299 24.0631C5.48365 24.198 5.74525 24.3114 6.01512 24.402C6.30072 24.4399 6.59005 24.4399 6.87565 24.402C7.16232 24.402 9.82179 24.402 10.0042 23.5679C10.0565 23.5156 10.3173 22.942 7.65779 21.6906Z" fill="white"/>
<path fill-rule="evenodd" clip-rule="evenodd" d="M12.8716 11.5745C12.8716 11.5745 14.9316 12.3828 15.479 11.9134C16.0265 11.4441 15.1921 9.30598 15.166 9.30598C15.0924 9.14651 14.9857 9.00438 14.8532 8.88891C14.7041 8.78065 14.5361 8.70118 14.3577 8.65425C12.298 7.68945 11.959 8.02838 11.7505 8.31531C11.542 8.60225 11.255 8.88891 12.246 10.9225C12.3068 11.0468 12.386 11.1609 12.4806 11.2614C12.5772 11.4022 12.7132 11.5113 12.8716 11.5745Z" fill="white"/>
<path fill-rule="evenodd" clip-rule="evenodd" d="M32.4248 6.04706C33.1288 6.04706 33.937 4.16973 34.0154 3.9612C34.0426 3.7884 34.0426 3.6124 34.0154 3.4396C34.04 3.258 34.04 3.07373 34.0154 2.89213C33.2592 0.832397 32.8421 0.832397 32.4248 0.832397C32.0074 0.832397 31.5906 0.832397 30.9128 3.04866C30.8858 3.22146 30.8858 3.3972 30.9128 3.57C30.8874 3.74306 30.8874 3.91853 30.9128 4.0916C31.6949 6.35986 32.3989 6.04706 32.4248 6.04706Z" fill="white"/>
<path fill-rule="evenodd" clip-rule="evenodd" d="M47.9904 9.72331C48.1853 9.63504 48.3624 9.51131 48.512 9.35824C48.6648 9.20517 48.8043 9.03957 48.9291 8.86277C50.4152 6.77691 50.1805 6.49024 49.9197 6.25557C49.6589 6.02091 49.2419 5.52544 46.9475 6.62064L46.3477 6.9857C46.1803 7.14144 46.0315 7.31637 45.9045 7.50704C45.7776 7.69771 44.6269 9.69717 45.1485 10.1142C45.6701 10.5313 47.808 9.82757 47.9904 9.72331Z" fill="white"/>
<path fill-rule="evenodd" clip-rule="evenodd" d="M58.7863 20.335C58.5874 20.3089 58.3858 20.3089 58.1868 20.335C57.9804 20.359 57.7788 20.4116 57.5871 20.4913C54.9796 21.5604 55.4231 22.2121 55.4231 22.2382C55.4231 22.9942 57.4828 23.5158 58.0303 23.594C58.2634 23.6329 58.5012 23.6329 58.7343 23.594C58.9623 23.5644 59.1831 23.4937 59.386 23.3854C61.6804 22.3164 61.6543 21.7689 61.55 21.3257C61.4458 20.8825 61.0287 20.5177 58.7863 20.335Z" fill="white"/>
<path fill-rule="evenodd" clip-rule="evenodd" d="M33.5186 33.1099C32.241 30.1376 31.3807 30.9459 30.6506 33.1099V35.0133C30.6463 36.2237 30.7071 37.4336 30.833 38.6373C30.9895 40.4627 31.2762 42.2355 31.3805 44.0605C31.3805 44.8032 32.1845 45.2675 32.8277 44.896C33.1261 44.7237 33.3101 44.4053 33.3101 44.0605C33.6101 42.256 33.8189 40.4371 33.9357 38.6115V36.2909C33.9138 35.5235 33.853 34.7576 33.7533 33.9965L33.5186 33.1099Z" fill="white"/>
<path fill-rule="evenodd" clip-rule="evenodd" d="M50.9371 22.7072C50.2115 18.8717 48.4019 15.3248 45.7224 12.4866C43.0355 9.5389 39.4694 7.5365 35.5539 6.7765C31.184 6.24317 26.7598 7.15917 22.9608 9.38397C19.0872 11.3986 15.928 14.5576 13.9134 18.4312C12.5803 21.4285 11.9728 24.6978 12.1406 27.9738C12.268 31.2216 13.1616 34.393 14.7478 37.2298C16.2078 39.837 17.9547 41.584 19.2062 43.7741C19.9787 45.0781 20.484 46.5226 20.6923 48.024H20.4318C19.7694 48.024 19.3555 48.7408 19.6864 49.3144C19.8403 49.5808 20.1243 49.7448 20.4318 49.7448H26.6632H30.1568L36.5707 49.9794C37.7176 50.0226 38.8595 50.1533 39.9864 50.3704C40.536 50.4277 41.0683 50.5962 41.5507 50.8658C41.8896 51.0482 42.1243 51.2048 42.2024 51.4133C42.2806 51.6218 42.2024 51.6218 41.9939 51.7522C41.8211 51.9776 41.6195 52.1792 41.3942 52.352C39.9502 53.4266 38.2526 54.1093 36.4664 54.3336C33.5387 54.7413 30.5654 54.6885 27.6539 54.177C26.6931 53.9954 25.7627 53.6794 24.8902 53.2384C23.9854 52.7986 23.1139 52.2933 22.283 51.7264C21.863 51.3848 21.2419 51.4682 20.927 51.9088C20.616 52.337 20.6963 52.9338 21.1096 53.2645C22.1899 54.1453 23.351 54.9221 24.5774 55.585C24.7598 55.585 24.9944 55.7154 25.203 55.8197C24.9102 56.0109 24.7734 56.3685 24.864 56.7061C25.1976 58.3437 25.9731 59.8584 27.1064 61.0864C28.3366 62.3514 29.9323 63.1994 31.6691 63.5112C33.6192 63.7112 35.5734 63.1714 37.1443 61.9989C38.7096 60.8125 39.4755 58.8474 39.1259 56.9146C40.671 56.5824 42.1336 55.9442 43.428 55.0376C44.571 54.277 45.331 53.0608 45.5139 51.7002C45.5456 50.1538 44.6387 48.7421 43.2195 48.1282C42.8416 47.9674 42.4486 47.8453 42.0462 47.7632C41.6438 47.681 42.0462 47.6328 42.0462 47.5285C42.1374 46.2152 42.5883 44.9522 43.3496 43.8784C44.5491 42.0533 46.2179 40.4626 47.4432 38.6637C48.9014 36.3541 49.9344 33.8021 50.4936 31.1285C51.2054 28.3797 51.3566 25.5154 50.9371 22.7072ZM36.1016 59.2093C35.5446 59.6218 34.9038 59.9066 34.2243 60.0434C33.5264 60.1736 32.8104 60.1736 32.1123 60.0434C30.9512 59.976 29.836 59.568 28.9054 58.8701C27.9398 58.1469 27.1544 57.2098 26.611 56.1325C26.8216 56.2352 27.0395 56.3221 27.2627 56.3933C30.4152 57.172 33.6715 57.4448 36.9096 57.2016H37.0662C37.0283 57.9733 36.6806 58.6976 36.1016 59.2093ZM26.9499 26.592C27.315 25.6533 27.68 24.7408 28.1232 23.8282C28.3318 23.3589 28.6187 22.9157 28.8534 22.4725C29.3523 22.7538 29.876 22.9896 30.4176 23.1765C30.8088 23.2813 31.212 23.3338 31.6171 23.3328C32.0294 23.3397 32.4408 23.296 32.8424 23.2026C33.5814 22.9976 34.2848 22.681 34.9283 22.264C35.6843 23.724 36.3883 25.184 37.1184 26.6442C35.9971 26.4877 34.9022 26.3312 33.7811 26.2269H31.956H30.1568C28.9835 26.3053 27.9408 26.4616 26.9499 26.592ZM30.1048 20.1781C30.6 19.2656 31.0694 18.353 31.5648 17.5709L31.9038 16.4757C32.1384 17.0493 32.347 17.6229 32.4512 17.8314C32.9206 18.5877 33.3118 19.3698 33.755 20.1258H32.4774C31.9824 20.0992 31.4862 20.0992 30.9912 20.1258C30.6688 20.1162 30.3462 20.1336 30.0264 20.1781H30.1048ZM36.8576 47.0853L30.3654 47.3981L27.7582 47.5546V41.5056L27.7582 38.377C27.7582 37.3341 27.7582 36.3173 27.5758 35.2744C27.367 33.0581 27.0803 30.8941 26.8718 28.704C30.0374 29.6434 33.3984 29.7064 36.5968 28.8864C36.2592 31.1045 36.0763 33.3437 36.0494 35.5872C36.0494 37.0472 36.2059 38.5074 36.3363 39.9413C36.5448 42.1053 36.9099 44.2434 37.0142 46.4074C36.9928 46.6613 37.0888 46.9109 37.2747 47.0853H36.8576ZM48.1211 30.4248C47.6686 32.8397 46.7854 35.1536 45.5139 37.2557C44.1582 39.4981 42.1243 41.4013 41.0032 43.7218C40.4862 44.7896 40.1934 45.952 40.1427 47.1376C39.6566 47.1114 39.1691 47.1114 38.6827 47.1376C38.8542 46.9728 38.9566 46.749 38.9696 46.5117C39.3118 44.0581 39.4859 41.5842 39.491 39.1069C39.491 37.6469 39.491 36.1869 39.2302 34.7266C38.8011 30.0608 38.0694 25.4274 37.04 20.856C36.4406 19.3698 35.8147 17.9098 35.1107 16.4496C34.6192 15.337 34.0256 14.272 33.3379 13.2688C32.9568 12.7757 32.4403 12.4042 31.8518 12.1997C31.0016 12.0874 30.1742 12.5274 29.7918 13.2949C29.4008 14.0509 28.5144 16.0586 28.4883 16.1106C27.5758 18.353 26.5848 20.6213 25.8808 22.968C24.3947 27.296 24.8902 25.3666 24.5774 35.3786V38.5594C24.5774 39.6285 24.7078 40.6453 24.812 41.6882C25.0467 43.7218 25.3595 45.7296 25.6462 47.737L22.5696 47.9458C22.3816 46.1741 21.8504 44.456 21.0054 42.8877C19.832 40.6453 18.1632 38.716 16.8075 36.1608C15.4918 33.6122 14.795 30.7898 14.7739 27.9218C14.735 25.093 15.3694 22.296 16.6251 19.761C18.352 16.4824 21.0467 13.8152 24.3427 12.1216C27.5008 10.3128 31.1587 9.57197 34.7718 10.0096C38.0619 10.5978 41.0774 12.2242 43.3758 14.6506C45.7624 17.0002 47.4427 19.9722 48.2254 23.2285C48.6454 25.6125 48.6099 28.0541 48.1211 30.4248Z" fill="white"/>
</g>
<defs>
<clipPath id="clip0_1097_3064">
<rect width="64" height="64" fill="white" transform="translate(0.191406 0.191895)"/>
</clipPath>
</defs>
</svg>
