<svg width="48" height="48" viewBox="0 0 48 48" fill="none" xmlns="http://www.w3.org/2000/svg">
<path fill-rule="evenodd" clip-rule="evenodd" d="M47.5398 28.32C46.6998 27.5 44.9198 27.86 43.7998 27.86L34.3798 28.22C35.4998 27.38 30.7998 15.58 27.2798 7.77997L27.0398 6.93997C28.9378 6.01094 31.0267 5.53838 33.1398 5.55997C33.1398 7.99997 37.9998 18.82 39.6998 22.6C39.6998 22.76 41.5398 27.2 41.6998 27.36C41.8329 27.4837 42.008 27.5524 42.1898 27.5524C42.3715 27.5524 42.5466 27.4837 42.6798 27.36C43.0798 26.96 41.2398 21.76 41.2998 21.92C35.2998 6.31997 35.2998 3.73997 33.8598 3.51997C31.8598 3.23997 28.2798 4.91997 26.5598 5.81997C24.8398 6.71997 26.1598 8.29997 26.8398 10.88C26.9998 11.34 26.9398 11.06 26.2798 11.06C25.2307 11.0954 24.1867 11.2226 23.1598 11.44C22.7398 9.43997 21.9398 9.15997 20.7398 9.01997C19.2395 8.90998 17.732 8.95018 16.2398 9.13997C15.7207 9.1315 15.2029 9.19203 14.6998 9.31997C14.9998 6.73997 14.6998 5.57997 12.4798 4.75997C10.1267 3.86694 7.54206 3.78947 5.13976 4.53997C3.89976 4.97997 3.31976 5.63997 3.13976 7.59997C3.03976 8.65997 3.23976 27.88 3.93976 29.86C2.84375 30.0741 1.76176 30.3546 0.699761 30.7C-0.900239 31.26 0.83976 34.7 1.65976 36.32C2.79976 38.54 1.65976 37.32 6.33976 37.3C5.68238 38.6209 5.3661 40.0854 5.41976 41.56C5.61976 43.56 7.25976 45.12 10.7798 44.28C13.2998 43.52 12.3798 40.5 12.2598 38.72C12.2598 38.48 12.0598 37.56 11.9598 37.16C14.8998 37.02 17.6598 36.86 21.7198 36.46C23.8598 36.24 26.0598 36.46 28.2198 36.34C29.9798 36.34 32.1198 35.86 34.9198 35.54C34.7996 37.3313 34.7996 39.1287 34.9198 40.92C34.7998 42.18 35.2798 43.04 36.9198 43.56C37.7063 43.8942 38.5793 43.9678 39.4107 43.7698C40.2421 43.5719 40.9882 43.1128 41.5398 42.46C42.2998 41.22 41.8198 36.94 41.5398 35.52C42.7709 36.0203 44.1486 36.0203 45.3798 35.52C46.4626 34.6981 47.1805 33.4848 47.3798 32.14C47.4198 31.4 48.6398 29.42 47.5398 28.32ZM14.4998 10.76C15.9331 10.5647 17.3864 10.5647 18.8198 10.76C19.3459 10.8043 19.8676 10.8912 20.3798 11.02C20.5598 11.02 21.0198 11.02 20.9398 11.18C20.4198 12 21.9998 28 21.9998 28C22.1097 28.0767 22.2377 28.1238 22.3712 28.1367C22.5046 28.1496 22.6392 28.1279 22.7619 28.0736C22.8845 28.0193 22.9911 27.9343 23.0713 27.8268C23.1515 27.7193 23.2026 27.593 23.2198 27.46C23.5198 25.72 23.4598 15.34 23.4198 14.5C23.2598 12.34 23.0998 12.5 25.9198 12.66C26.1169 12.6787 26.3114 12.719 26.4998 12.78C26.6721 13.5 26.7461 14.2401 26.7198 14.98C27.1198 17.9 26.7198 19.32 27.3798 23.78L27.7198 26.62C27.8798 27.28 27.5398 28.26 28.3798 28.18C29.3598 28.46 29.4198 27.78 29.2398 18.32C29.6198 19.4 30.0598 20.44 30.5398 21.48C33.6798 28.46 33.3198 28.1 33.5198 28.22C26.8451 28.0505 20.1663 28.2842 13.5198 28.92C13.4998 28.66 14.3998 11.52 14.4998 10.76ZM5.31976 8.33997C5.69976 3.99997 12.2998 7.39997 12.4798 7.31997C12.5815 8.56112 12.5346 9.80999 12.3398 11.04C12.2198 12.84 11.9998 21.58 12.3398 26.34C12.3398 27.3 12.1598 28.14 12.1398 29.02C9.79528 29.0715 7.4568 29.2786 5.13976 29.64C4.85976 28.48 5.23976 12.98 5.31976 8.33997ZM10.5198 41.12C10.5198 41.32 10.3998 42.02 10.1998 42.06C9.54272 42.2202 8.8568 42.2202 8.19976 42.06C6.19976 41.46 7.71976 37.76 7.23976 37.2C10.9598 37.2 10.4598 37.02 10.5198 37.2C10.1598 37.52 10.8598 38 10.5198 41.12ZM39.7398 41.12C39.5798 41.5 37.5198 41.5 36.9198 41.24C36.9198 41.04 36.6598 39.88 36.0198 35.38C37.3511 35.278 38.6884 35.278 40.0198 35.38C39.7972 37.2982 39.7036 39.2292 39.7398 41.16V41.12ZM45.0198 31.5C44.6398 33.06 44.4798 33.86 43.0198 33.5C38.7598 32.48 33.8598 33.5 29.6198 34.2C27.0598 34.6 24.1598 34.32 21.4798 34.64C18.7998 34.96 15.6398 35.3 12.7198 35.52C12.1998 35.52 2.95976 36.18 2.71976 35.72C2.47976 35.26 2.37976 32.34 1.55976 31.84C6.65976 30.34 12.0398 30.88 17.5598 30.5C23.7398 30.08 29.8798 30.5 35.0198 30.5C41.8798 30.5 41.9998 30.02 45.0198 30.36C45.0398 30.86 45.0398 31.4 45.0198 31.54V31.5Z" fill="#202020"/>
<path fill-rule="evenodd" clip-rule="evenodd" d="M9.37991 20.9H8.53991C8.27551 20.9175 8.01389 20.9645 7.75991 21.04C7.13991 21.2 6.61991 21.46 5.97991 21.62C5.82427 21.6252 5.67675 21.6907 5.56852 21.8027C5.46028 21.9146 5.39982 22.0643 5.39991 22.22C5.39918 22.3746 5.45621 22.5238 5.5598 22.6385C5.66339 22.7532 5.80608 22.8251 5.95991 22.84C6.68612 23.0697 7.43908 23.2042 8.19991 23.24C8.63199 23.2473 9.06293 23.1935 9.47991 23.08C10.0999 22.96 10.6799 22.72 11.2999 22.62C11.3866 22.6254 11.4735 22.6137 11.5557 22.5854C11.6378 22.5572 11.7136 22.513 11.7786 22.4554C11.8437 22.3978 11.8967 22.3279 11.9347 22.2498C11.9726 22.1716 11.9948 22.0868 11.9999 22C12.011 21.8228 11.9524 21.6483 11.8365 21.5138C11.7207 21.3792 11.5568 21.2953 11.3799 21.28C10.7259 21.094 10.0566 20.9668 9.37991 20.9Z" fill="#1D6CFF"/>
<path fill-rule="evenodd" clip-rule="evenodd" d="M18.4 20.9H17.52C17.2357 20.9157 16.954 20.9627 16.68 21.04C16 21.2 15.44 21.46 14.68 21.62C14.5371 21.646 14.4079 21.7213 14.3149 21.8328C14.2219 21.9442 14.1709 22.0848 14.1709 22.23C14.1709 22.3752 14.2219 22.5158 14.3149 22.6273C14.4079 22.7388 14.5371 22.8141 14.68 22.84C15.468 23.0687 16.2803 23.203 17.1 23.24C17.5651 23.2484 18.0292 23.1946 18.48 23.08C19.14 22.96 19.76 22.72 20.48 22.62C20.6428 22.5922 20.7906 22.5077 20.8971 22.3814C21.0037 22.2551 21.0621 22.0952 21.0621 21.93C21.0621 21.7648 21.0037 21.6049 20.8971 21.4787C20.7906 21.3524 20.6428 21.2679 20.48 21.24C19.7971 21.0701 19.1015 20.9563 18.4 20.9Z" fill="#1D6CFF"/>
<path fill-rule="evenodd" clip-rule="evenodd" d="M34.9399 17.2599C34.7273 17.3154 34.5198 17.389 34.3199 17.4799C34.1221 17.5739 33.9345 17.6878 33.7599 17.8199C33.3399 18.1399 33.0399 18.5199 32.5999 18.8399C32.4768 18.9079 32.3837 19.0197 32.3393 19.1531C32.2948 19.2865 32.3022 19.4317 32.3599 19.5599C32.4599 19.8799 32.7599 20.0799 32.9799 19.9999C33.6073 20.0194 34.2342 19.9452 34.8399 19.7799C35.1616 19.6645 35.4648 19.5028 35.7399 19.2999C36.1799 18.9999 36.5399 18.6399 36.9799 18.3599C37.1229 18.2905 37.2338 18.1687 37.2897 18.0198C37.3455 17.871 37.342 17.7063 37.2799 17.5599C37.246 17.4006 37.1527 17.2602 37.0189 17.1673C36.8851 17.0744 36.721 17.036 36.5599 17.0599C36.0135 17.0561 35.4689 17.1233 34.9399 17.2599Z" fill="#1D6CFF"/>
</svg>
