<svg width="24" height="24" viewBox="0 0 24 24" fill="none" xmlns="http://www.w3.org/2000/svg">
<g clip-path="url(#clip0_1196_2968)">
<path d="M23.9997 14.61C24.0971 11.6925 23.9465 8.77198 23.5497 5.87996C23.5654 5.67359 23.5654 5.46633 23.5497 5.25996C23.4097 4.58996 21.3997 4.25996 20.5497 4.17996C20.4716 4.17147 20.3933 4.19394 20.3316 4.24256C20.2699 4.29117 20.2297 4.36205 20.2197 4.43996C20.1697 5.09996 21.2197 4.43996 22.8297 5.43996C22.8098 6.15069 22.8668 6.86149 22.9997 7.55996C23.2397 9.79996 23.1097 11.35 22.9997 17.3C21.8115 17.0414 20.5943 16.9405 19.3797 17C17.115 16.9842 14.9031 17.6842 13.0597 19C13.7397 16.36 15.3997 15.65 17.7397 14.81C18.0048 14.7269 18.2821 14.6897 18.5597 14.7C18.6139 14.8227 18.7097 14.9223 18.8301 14.9814C18.9505 15.0404 19.0879 15.0551 19.2181 15.0229C19.3483 14.9906 19.463 14.9135 19.5419 14.805C19.6209 14.6966 19.659 14.5638 19.6497 14.43C19.2697 4.31996 19.6497 2.89996 19.4897 1.95996C19.3297 1.01996 18.6497 0.909963 17.6997 0.769963C16.5328 0.647591 15.3544 0.839959 14.2869 1.32708C13.2195 1.8142 12.302 2.57829 11.6297 3.53996C11.5497 3.70996 11.0797 4.74996 11.0397 4.85996C10.3573 4.33861 9.56871 3.97335 8.72971 3.78996C6.57564 3.31203 4.32045 3.66942 2.41971 4.78996C2.04926 5.03061 1.73211 5.34468 1.48787 5.71276C1.24363 6.08085 1.07748 6.49512 0.999708 6.92996C0.119708 10.49 -0.410292 11.54 0.409708 19.11C0.409708 19.42 0.409708 19.9 0.709708 20.19C0.776946 20.2461 0.855653 20.2868 0.940304 20.3093C1.02495 20.3317 1.11349 20.3354 1.19971 20.32V21.09C1.32971 22.89 3.71971 21.79 6.34971 21.57C8.52971 21.4 8.76971 21.87 10.6997 22.99C11.4942 23.2887 12.3552 23.3648 13.1897 23.21C13.8737 23.1072 14.5224 22.8395 15.0797 22.43C21.6697 17.58 21.4397 23.25 22.9797 19.18C23.051 18.994 23.0948 18.7986 23.1097 18.6C23.1873 18.6509 23.2769 18.6806 23.3696 18.6861C23.4622 18.6916 23.5547 18.6726 23.6378 18.6311C23.7208 18.5895 23.7915 18.5269 23.8427 18.4495C23.8939 18.3721 23.9239 18.2826 23.9297 18.19C24.0216 16.999 24.045 15.8037 23.9997 14.61ZM11.8797 5.38996C14.8797 -0.250037 18.5997 2.22996 18.7597 2.38996C18.8397 2.68996 18.3897 9.46996 18.3697 10.09L18.4597 13.54C17.3504 13.659 16.2782 14.0087 15.3121 14.5667C14.3459 15.1247 13.5072 15.8786 12.8497 16.78C12.3497 17.64 12.5197 17.73 12.4297 17.16C12.4097 17.06 11.8397 5.46996 11.8797 5.38996ZM1.07971 9.72996C1.36971 8.61996 1.72971 5.79996 2.68971 5.47996C5.48971 4.53996 8.28971 4.30996 10.8897 5.72996C11.1982 6.58842 11.3375 7.49853 11.2997 8.40996C11.2997 10.46 11.3597 16.65 11.5997 18.51C10.0078 17.7841 8.26793 17.4416 6.51971 17.51C5.13687 17.6328 3.78461 17.9878 2.51971 18.56C2.39971 18.56 1.83971 19.13 1.43971 19.35C1.43971 19.21 1.32971 19.05 1.31971 18.97C0.999708 16.25 0.529708 12.67 1.07971 9.72996ZM21.6397 19.56C18.7597 18.41 16.4697 20.04 14.4297 21.5C13.9937 21.7917 13.5026 21.991 12.9867 22.0856C12.4707 22.1802 11.9408 22.1681 11.4297 22.05C7.55971 19.31 6.05971 20.62 2.55971 21.15C2.37971 21.15 2.23971 21.24 2.14971 21.15C2.05971 21.06 1.95971 20.48 1.72971 20.15C2.15971 19.93 2.72971 19.58 2.86971 19.54C4.33971 19.08 5.99971 18 9.59971 19C12.2597 19.69 12.1197 20.85 13.0197 20.36C14.3597 19.64 16.2897 17.48 22.3297 18.21C22.2691 18.2828 22.2371 18.3752 22.2397 18.47C21.6497 19.53 21.6797 19.46 21.6397 19.56Z" fill="#202020"/>
<path d="M3.65014 8.99998C4.65014 8.85998 4.57014 8.36998 5.89014 8.36998C6.62604 8.42338 7.352 8.57126 8.05014 8.80998C8.24014 8.73998 8.38014 8.65998 8.38014 8.46998C8.38014 8.03998 7.78014 7.59998 6.87014 7.46998C4.24014 6.97998 3.99014 8.23998 3.49014 8.46998C3.44446 8.5076 3.41093 8.55789 3.39376 8.61452C3.37659 8.67115 3.37656 8.7316 3.39366 8.78825C3.41076 8.84491 3.44424 8.89524 3.48988 8.93291C3.53552 8.97058 3.59128 8.99392 3.65014 8.99998Z" fill="#1D6CFF"/>
<path d="M3.64989 12.5299C4.64989 12.3899 4.56989 11.8999 5.88989 11.8999C6.62579 11.9533 7.35175 12.1012 8.0499 12.3399C8.2399 12.2799 8.3799 12.1899 8.3799 11.9999C8.3799 11.5699 7.77989 11.1399 6.86989 10.9999C4.23989 10.5099 3.98989 11.7599 3.48989 11.9999C3.44074 11.9949 3.3911 12.002 3.34538 12.0208C3.29966 12.0395 3.25928 12.0693 3.22782 12.1074C3.19637 12.1455 3.17481 12.1908 3.16507 12.2392C3.15533 12.2876 3.1577 12.3377 3.17198 12.385C3.18626 12.4324 3.21201 12.4754 3.24693 12.5104C3.28185 12.5453 3.32486 12.5711 3.37215 12.5854C3.41944 12.5998 3.46953 12.6022 3.51799 12.5925C3.56644 12.5828 3.61175 12.5613 3.64989 12.5299Z" fill="#1D6CFF"/>
<path d="M3.64934 16.1C4.64934 15.96 4.56933 15.47 5.88933 15.47C6.62445 15.5289 7.34972 15.6767 8.04934 15.91C8.23934 15.85 8.37933 15.76 8.37933 15.58C8.37933 15.14 7.77933 14.71 6.86933 14.58C4.23933 14.09 3.98934 15.35 3.48934 15.58C3.43939 15.5731 3.38852 15.5789 3.34142 15.5969C3.29432 15.6149 3.25251 15.6444 3.21986 15.6829C3.18721 15.7213 3.16476 15.7673 3.1546 15.8167C3.14443 15.8661 3.14688 15.9172 3.1617 15.9654C3.17653 16.0136 3.20326 16.0572 3.23943 16.0924C3.27559 16.1275 3.32003 16.1529 3.36863 16.1663C3.41723 16.1798 3.46842 16.1807 3.51748 16.1691C3.56655 16.1575 3.61189 16.1337 3.64934 16.1Z" fill="#1D6CFF"/>
</g>
<defs>
<clipPath id="clip0_1196_2968">
<rect width="24" height="24" fill="white"/>
</clipPath>
</defs>
</svg>
