<svg width="48" height="48" viewBox="0 0 48 48" fill="none" xmlns="http://www.w3.org/2000/svg">
<g clip-path="url(#clip0_490_2847)">
<path fill-rule="evenodd" clip-rule="evenodd" d="M33.6205 33.78C33.5154 33.7796 33.4114 33.8011 33.3151 33.843C33.2187 33.8849 33.1321 33.9463 33.0607 34.0233C32.9893 34.1004 32.9346 34.1914 32.9001 34.2907C32.8657 34.3899 32.8522 34.4952 32.8605 34.6C32.9913 36.6473 32.9377 38.7022 32.7005 40.74C32.4895 41.9808 31.9352 43.1379 31.1005 44.08C30.4732 44.5534 29.7376 44.8628 28.9605 44.98C25.3133 45.7923 21.5682 46.0752 17.8405 45.82C12.7805 45.54 7.64046 44.46 5.30046 41.82C4.65658 40.58 4.28818 39.2155 4.22046 37.82C3.451 31.443 3.29027 25.0073 3.74046 18.6C3.90592 14.8904 4.43513 11.2061 5.32046 7.59996C5.57454 6.26013 6.19006 5.01526 7.10046 3.99996C8.88046 2.57996 13.1005 2.21996 17.6205 2.27996C22.7773 2.24391 27.92 2.8213 32.9405 3.99996C33.4405 4.17996 33.8405 4.61996 34.0205 4.47996C34.3544 5.44426 34.5168 6.4596 34.5005 7.47996C34.5005 9.35996 34.3805 11.48 34.3805 12.7C34.375 12.7926 34.3886 12.8853 34.4203 12.9725C34.452 13.0597 34.5012 13.1394 34.5649 13.2069C34.6286 13.2743 34.7054 13.328 34.7907 13.3646C34.8759 13.4013 34.9677 13.4201 35.0605 13.42C35.1524 13.4226 35.244 13.4071 35.3299 13.3744C35.4159 13.3417 35.4945 13.2923 35.5614 13.2292C35.6282 13.166 35.682 13.0903 35.7196 13.0064C35.7572 12.9224 35.7779 12.8319 35.7805 12.74C35.7805 11.2 36.1205 8.73996 36.0205 6.53996C35.9971 5.5599 35.8008 4.59167 35.4405 3.67996C34.9447 3.03559 34.2357 2.58889 33.4405 2.41996C28.306 0.970961 23.0131 0.158207 17.6805 -4.49307e-05C12.4605 -0.200045 7.68046 0.359955 5.56046 1.99996C4.19633 3.31779 3.25034 5.00805 2.84046 6.85996C1.83018 10.6313 1.22674 14.5001 1.04046 18.4C0.569054 25.0038 0.77681 31.6386 1.66046 38.2C1.82379 40.0768 2.43414 41.8873 3.44046 43.48C6.20046 46.44 12.0005 47.78 17.7405 48C24.5405 48.22 31.2005 46.8 32.4805 45.3C33.5299 44.1088 34.2229 42.6464 34.4805 41.08C34.6811 38.9179 34.6811 36.742 34.4805 34.58C34.4808 34.4697 34.4583 34.3605 34.4144 34.2593C34.3705 34.1581 34.3061 34.0671 34.2253 33.992C34.1446 33.9168 34.0492 33.8592 33.9451 33.8227C33.841 33.7862 33.7305 33.7717 33.6205 33.78Z" fill="#1D6CFF"/>
<path fill-rule="evenodd" clip-rule="evenodd" d="M46.3204 19.1199C41.7604 20.0199 36.9204 20.7599 32.0404 21.5199C28.9004 22.0199 25.7204 22.5399 22.5804 22.8599C19.9804 23.1199 17.4004 23.2599 14.8604 23.2799L16.6404 21.5799C18.0404 20.2799 19.4204 18.9799 20.6404 17.5799L25.2604 12.0799C25.3855 11.9435 25.4549 11.7651 25.4549 11.5799C25.4549 11.3948 25.3855 11.2164 25.2604 11.0799C25.1935 11.0128 25.114 10.9596 25.0265 10.9232C24.939 10.8869 24.8452 10.8682 24.7504 10.8682C24.6556 10.8682 24.5618 10.8869 24.4743 10.9232C24.3868 10.9596 24.3073 11.0128 24.2404 11.0799L19.1604 16.1599C17.5604 17.6599 15.6004 19.0199 13.8604 20.5199C12.6298 21.5742 11.4984 22.7391 10.4804 23.9999C10.3398 24.1823 10.2402 24.3928 10.1884 24.6172C10.1367 24.8415 10.1339 25.0744 10.1804 25.2999C10.2475 25.5544 10.3727 25.7898 10.5462 25.9876C10.7198 26.1854 10.9369 26.3403 11.1804 26.4399C11.4804 26.5799 12.0804 26.6599 12.3604 26.8199L14.9204 28.6599C16.5988 29.9044 18.2079 31.2397 19.7404 32.6599C20.7218 33.6311 21.6372 34.6667 22.4804 35.7599C22.5983 35.9335 22.7796 36.0539 22.9854 36.095C23.1911 36.1362 23.4048 36.0948 23.5804 35.9799C23.7554 35.8584 23.8762 35.6735 23.9173 35.4645C23.9583 35.2554 23.9164 35.0386 23.8004 34.8599C22.9941 33.6228 22.0984 32.4463 21.1204 31.3399C19.6579 29.7173 18.1019 28.1813 16.4604 26.7399L14.2804 24.9799C17.679 25.2803 21.0957 25.3204 24.5004 25.0999C26.2604 24.9799 28.0004 24.7999 29.7404 24.5599C31.4804 24.3199 33.1804 23.9999 34.9004 23.6199C38.9004 22.7199 42.9004 21.6199 46.6604 20.4199C46.8384 20.3685 46.9897 20.2503 47.0828 20.0902C47.1759 19.93 47.2037 19.7401 47.1604 19.5599C47.1052 19.3917 46.9866 19.2515 46.8298 19.1694C46.6729 19.0872 46.4901 19.0695 46.3204 19.1199Z" fill="#202020"/>
</g>
<defs>
<clipPath id="clip0_490_2847">
<rect width="48" height="48" fill="white"/>
</clipPath>
</defs>
</svg>
