<svg width="24" height="24" viewBox="0 0 24 24" fill="none" xmlns="http://www.w3.org/2000/svg">
<g clip-path="url(#clip0_1196_2974)">
<path d="M18.3297 11.58C17.6997 9.57997 16.8197 7.57997 16.0697 5.70997C14.9997 2.90997 14.6197 2.43997 10.7697 3.99997C6.5397 5.69997 3.4597 6.72997 0.7797 8.55997C0.732226 8.59404 0.693761 8.63916 0.667628 8.69143C0.641494 8.7437 0.628476 8.80154 0.6297 8.85997C0.581077 8.83115 0.525303 8.81666 0.468803 8.81816C0.412303 8.81966 0.357375 8.83709 0.310348 8.86844C0.26332 8.89979 0.226106 8.94379 0.202992 8.99537C0.179878 9.04695 0.171804 9.104 0.1797 9.15997C0.6897 13 2.2297 16.63 3.4597 20.22C3.7397 21.03 4.8497 23.79 5.7597 23.97C6.6697 24.15 7.4897 23.53 8.1297 23.33C10.1823 22.6564 12.1869 21.8445 14.1297 20.9C15.9397 20.06 19.2797 19.38 19.7597 18.27C20.1497 17.33 19.9397 17 18.3297 11.58ZM18.6897 17.81C18.5297 18.16 14.6897 19.38 13.6397 19.87C11.7469 20.8107 9.80016 21.6388 7.8097 22.35C7.23599 22.6416 6.62789 22.86 5.9997 23C4.9097 22.09 2.1797 14.28 1.9097 13.46C1.42024 12.0526 1.04568 10.6079 0.7897 9.13997C1.1897 9.38997 1.7097 8.43997 5.3997 6.97997C12.1197 4.46997 12.1897 4.40997 13.0997 4.19997C13.4251 4.11081 13.7627 4.07368 14.0997 4.08997C14.5704 4.67859 14.9112 5.3602 15.0997 6.08997C15.8397 7.99997 16.6697 9.99997 17.2597 11.91C18.7997 17.24 18.9097 17.3 18.6897 17.81Z" fill="#202020"/>
<path d="M16.6893 13.0499C16.3598 12.0055 15.9554 10.9861 15.4793 9.9999C14.7093 8.3499 14.4793 6.3999 13.6093 5.8699C13.1393 5.5799 12.7593 5.8699 12.4693 5.9799C8.40928 7.3399 5.10928 8.3299 2.56928 9.8799C2.52358 9.90621 2.48563 9.94409 2.45923 9.98974C2.43284 10.0354 2.41895 10.0872 2.41895 10.1399C2.41895 10.1926 2.43284 10.2444 2.45923 10.2901C2.48563 10.3357 2.52358 10.3736 2.56928 10.3999C4.20928 16.2299 3.79928 15.8699 4.77928 17.8899C5.61928 19.6199 5.56928 19.6099 15.4793 15.4299C16.0707 15.2958 16.587 14.9372 16.9193 14.4299C17.1493 13.9199 16.7893 13.3899 16.6893 13.0499ZM15.3193 12.5999C14.3193 12.1399 13.3993 11.4799 12.3893 10.8899C12.8353 10.1869 13.3333 9.51841 13.8793 8.8899C14.3693 10.4699 14.6593 10.7399 15.3193 12.5999ZM3.22928 10.2099C4.09612 9.7433 4.99506 9.33895 5.91928 8.9999C6.84928 8.6599 12.6893 6.8899 13.0793 6.6899C13.3473 7.09694 13.534 7.55196 13.6293 8.0299C12.7397 8.62438 12.0717 9.4963 11.7293 10.5099C10.2093 9.7399 8.72928 9.3699 7.43928 10.5099C6.14928 11.6499 5.60928 12.9099 4.60928 14.9299C3.63928 11.2399 3.99928 12.5099 3.22928 10.2099ZM15.6193 14.1199C15.0593 14.4099 17.9093 13.1199 7.30928 17.6499C7.07928 17.7499 6.12928 18.1499 5.91928 18.0299C5.49346 17.3387 5.15742 16.596 4.91928 15.8199C5.64177 14.5175 6.47484 13.2796 7.40928 12.1199C8.60928 10.9399 8.96928 10.6299 10.8093 11.2799C12.6493 11.9299 13.8093 12.9499 15.6793 13.4699C15.7393 13.6699 15.7193 14.0599 15.6193 14.1199Z" fill="#202020"/>
<path d="M16.59 16.6099C16.1098 16.6296 15.6378 16.7416 15.2 16.9399C14.2278 17.2927 13.3218 17.8065 12.52 18.4599C12.4872 18.4823 12.4591 18.5108 12.4373 18.544C12.4155 18.5772 12.4005 18.6144 12.393 18.6534C12.3856 18.6924 12.3859 18.7324 12.394 18.7713C12.4021 18.8102 12.4177 18.8471 12.44 18.8799C12.4623 18.9128 12.4909 18.9409 12.5241 18.9627C12.5573 18.9845 12.5945 18.9995 12.6335 19.0069C12.6725 19.0143 12.7125 19.014 12.7514 19.006C12.7903 18.9979 12.8272 18.9823 12.86 18.9599C13.5515 18.5933 14.2664 18.2726 15 17.9999C15.5268 17.7241 16.0713 17.4835 16.63 17.2799C16.679 17.2849 16.7285 17.2792 16.7751 17.2632C16.8217 17.2471 16.8642 17.2212 16.8998 17.1871C16.9354 17.153 16.9631 17.1116 16.981 17.0657C16.999 17.0198 17.0068 16.9706 17.0039 16.9214C17.0009 16.8722 16.9873 16.8243 16.964 16.7809C16.9407 16.7375 16.9083 16.6997 16.8689 16.67C16.8296 16.6404 16.7842 16.6197 16.7361 16.6093C16.6879 16.5989 16.6381 16.5991 16.59 16.6099Z" fill="#202020"/>
<path d="M23.7994 4.83996C23.6594 1.93996 23.6794 1.83996 23.5594 1.48996C23.5016 1.28348 23.3864 1.09767 23.227 0.954245C23.0676 0.810817 22.8708 0.715688 22.6594 0.679964C22.5694 0.679964 22.9094 0.679964 15.0194 0.0799636C13.3071 -0.0549971 11.5858 -0.0248582 9.87936 0.169964C7.99936 0.469964 7.46936 0.999964 7.70936 2.92996C7.74941 3.31893 7.84715 3.69977 7.99936 4.05996C8.03118 4.1329 8.09068 4.1902 8.16475 4.21927C8.23883 4.24834 8.32142 4.24679 8.39436 4.21496C8.46729 4.18314 8.52459 4.12364 8.55366 4.04957C8.58273 3.97549 8.58118 3.8929 8.54936 3.81996C8.23426 3.06109 8.2164 2.2114 8.49936 1.43996C9.17936 0.509964 14.2694 0.999964 14.9994 1.08996C15.0994 1.08996 22.5194 1.85996 22.5394 1.98996C22.5594 2.11996 22.7194 4.92996 22.7194 4.98996C22.8694 6.05996 22.5794 11.18 22.5394 12.28C22.5885 13.39 22.5718 14.5019 22.4894 15.61C22.2694 15.77 21.9294 15.69 20.7094 15.55C20.6667 15.5368 20.6218 15.5322 20.5774 15.5364C20.5329 15.5406 20.4897 15.5536 20.4503 15.5744C20.4108 15.5953 20.3758 15.6238 20.3474 15.6582C20.3189 15.6926 20.2975 15.7323 20.2844 15.775C20.2712 15.8176 20.2666 15.8625 20.2708 15.9069C20.275 15.9514 20.2879 15.9946 20.3088 16.0341C20.3297 16.0735 20.3582 16.1085 20.3926 16.137C20.427 16.1654 20.4667 16.1868 20.5094 16.2C22.0694 16.45 22.5094 16.54 22.9294 16.2C23.3494 15.86 23.2694 15.36 23.3094 15.03C23.4694 10.3 23.9294 6.16996 23.7994 4.83996Z" fill="#1D6CFF"/>
<path d="M20.9995 11.26C21.4095 10.93 21.3095 10.11 21.3195 9.79998C21.3195 8.42998 21.2495 7.41998 21.2095 6.28998C21.2522 5.47276 21.2287 4.65343 21.1395 3.83998C20.8995 2.76998 20.0595 2.95998 19.4795 2.91998C18.3695 2.76067 17.2407 2.78771 16.1395 2.99998C16.1008 3.00983 16.0644 3.02721 16.0324 3.05114C16.0003 3.07506 15.9733 3.10506 15.9529 3.13942C15.9325 3.17377 15.919 3.21182 15.9133 3.25138C15.9076 3.29094 15.9097 3.33124 15.9195 3.36998C15.9294 3.40872 15.9468 3.44514 15.9707 3.47716C15.9946 3.50919 16.0246 3.53618 16.059 3.55661C16.0933 3.57704 16.1314 3.5905 16.1709 3.59623C16.2105 3.60195 16.2508 3.59983 16.2895 3.58998C17.5095 3.30998 20.1695 4.05998 20.0795 3.92998C20.1295 9.13998 20.3195 7.07998 20.4795 10.65C20.2395 10.85 19.7095 10.77 19.2695 10.78C19.1881 10.7939 19.1142 10.8362 19.061 10.8993C19.0077 10.9624 18.9785 11.0424 18.9785 11.125C18.9785 11.2076 19.0077 11.2875 19.061 11.3507C19.1142 11.4138 19.1881 11.4561 19.2695 11.47C19.8595 11.49 20.4795 11.7 20.9995 11.26Z" fill="#1D6CFF"/>
</g>
<defs>
<clipPath id="clip0_1196_2974">
<rect width="24" height="24" fill="white"/>
</clipPath>
</defs>
</svg>
