<svg width="25" height="24" viewBox="0 0 25 24" fill="none" xmlns="http://www.w3.org/2000/svg">
<g clip-path="url(#clip0_1138_3024)">
<path fill-rule="evenodd" clip-rule="evenodd" d="M14.2664 5.14997C12.5864 4.83997 4.96645 4.06997 4.65645 5.61997C4.07645 8.41997 3.85645 9.01997 3.85645 9.37997C3.85645 10.25 5.79645 10.38 6.66645 10.52C7.53645 10.66 8.60644 10.81 9.58644 10.92C10.8764 11.0462 12.1784 10.9515 13.4364 10.64C13.7264 10.64 14.1164 10.64 14.3364 10.3C14.4939 9.88589 14.5455 9.43904 14.4864 8.99997C14.8264 6.22997 14.8864 5.99997 14.7864 5.65997C14.7582 5.53387 14.6941 5.41863 14.6018 5.32814C14.5095 5.23765 14.3931 5.17578 14.2664 5.14997ZM13.2664 9.50997L11.5664 9.78997C9.95955 9.84104 8.35114 9.76413 6.75645 9.55997C6.07943 9.56869 5.40504 9.47428 4.75645 9.27997C4.75645 9.08997 4.66645 10.02 5.04645 7.19997C5.04645 7.19997 5.40645 5.82997 5.40645 5.74997C5.55645 6.11997 10.4064 5.50997 12.6064 5.88997C12.9731 5.94997 13.3331 6.01997 13.6864 6.09997V6.55997C13.1664 10.19 13.2464 9.27997 13.2364 9.50997H13.2664Z" fill="#202020"/>
<path fill-rule="evenodd" clip-rule="evenodd" d="M18.5059 6.99992C18.5472 7.0199 18.592 7.03135 18.6377 7.03359C18.6835 7.03582 18.7292 7.02878 18.7722 7.01291C18.8151 6.99703 18.8544 6.97264 18.8877 6.94119C18.921 6.90975 18.9476 6.8719 18.9659 6.82992C19.5459 5.92992 17.1559 5.71992 15.7259 5.95992C15.6347 5.95437 15.5449 5.98475 15.4758 6.04455C15.4066 6.10434 15.3636 6.18882 15.3559 6.27992C15.3159 6.99992 17.8059 6.68992 18.5059 6.99992Z" fill="#1D6CFF"/>
<path fill-rule="evenodd" clip-rule="evenodd" d="M15.4063 9.12997C16.3556 9.61409 17.4347 9.78227 18.4863 9.60997C18.9163 9.74997 19.5463 9.04997 18.6763 8.74997C18.4794 8.70194 18.2786 8.67182 18.0763 8.65997C17.1163 8.50997 14.9663 8.25997 15.4063 9.12997Z" fill="#1D6CFF"/>
<path fill-rule="evenodd" clip-rule="evenodd" d="M8.74592 12.72C3.82592 12.59 4.07592 12.63 3.94592 12.85C3.92231 12.8862 3.90739 12.9273 3.90233 12.9702C3.89726 13.0131 3.90218 13.0566 3.9167 13.0972C3.93123 13.1379 3.95496 13.1747 3.98605 13.2046C4.01714 13.2346 4.05475 13.257 4.09592 13.27C4.25592 13.36 4.15592 13.32 8.70592 13.79C11.8693 13.995 15.0426 13.995 18.2059 13.79C18.2961 13.79 18.3826 13.7542 18.4463 13.6904C18.5101 13.6267 18.5459 13.5402 18.5459 13.45C18.5459 13.3598 18.5101 13.2734 18.4463 13.2096C18.3826 13.1458 18.2961 13.11 18.2059 13.11C15.8259 13.11 15.2059 12.88 8.74592 12.72Z" fill="#1D6CFF"/>
<path fill-rule="evenodd" clip-rule="evenodd" d="M17.6467 16.61C12.2067 16.34 13.9667 16.06 9.00665 16.14C8.11665 16.14 7.22665 16.19 6.33665 16.14C5.98665 16.14 4.16665 15.88 4.03665 15.91C3.97189 15.9306 3.91535 15.9712 3.87523 16.026C3.8351 16.0809 3.81348 16.1471 3.81348 16.215C3.81348 16.283 3.8351 16.3491 3.87523 16.404C3.91535 16.4588 3.97189 16.4994 4.03665 16.52C4.13665 16.52 3.87665 16.52 6.28665 16.96C8.85519 17.219 11.4351 17.3492 14.0167 17.35H15.1467C19.2267 17.36 18.5167 16.58 17.6467 16.61Z" fill="#1D6CFF"/>
<path fill-rule="evenodd" clip-rule="evenodd" d="M24.9663 10.27C24.8363 6.74996 24.9163 7.76995 24.8263 5.40996C24.8221 5.32371 24.7926 5.24061 24.7415 5.17101C24.6904 5.1014 24.62 5.04837 24.539 5.01852C24.4579 4.98867 24.3699 4.98332 24.2859 5.00314C24.2018 5.02295 24.1255 5.06706 24.0663 5.12996C23.8163 5.51928 23.4712 5.8384 23.0634 6.05713C22.6557 6.27586 22.199 6.38697 21.7363 6.37996C21.9912 5.41418 22.1783 4.43179 22.2963 3.43996C22.3008 3.21945 22.2223 3.00532 22.0763 2.83996C21.7663 2.53996 19.0763 2.62996 18.5963 2.63996C15.5463 2.72996 12.8863 2.36996 9.53634 2.43996C4.91634 2.53996 3.70634 1.70996 4.06634 2.63996C4.09553 2.69962 4.13757 2.75208 4.18944 2.79358C4.24131 2.83507 4.30172 2.86457 4.36634 2.87996C6.07756 3.13638 7.80604 3.26009 9.53634 3.24996C13.9463 3.33996 13.8163 3.77996 20.8563 3.77996H21.0263C21.0263 5.04996 20.0263 7.57995 20.0263 12.23C20.0263 13.87 20.1563 18.47 20.8763 19.79C20.9845 19.9783 21.1192 20.1501 21.2763 20.3C17.9663 21.38 5.36634 20.8 3.49634 20.09C3.17634 19.97 2.72634 19.93 2.59634 19.73C1.42634 18 2.65634 9.93996 2.87634 7.91996C3.02337 6.73008 3.24717 5.55096 3.54634 4.38996C3.74882 3.84058 3.88969 3.27042 3.96634 2.68996C3.94408 2.63104 3.90441 2.5803 3.85261 2.54449C3.8008 2.50868 3.73932 2.4895 3.67634 2.4895C3.61336 2.4895 3.55187 2.50868 3.50007 2.54449C3.44826 2.5803 3.40859 2.63104 3.38634 2.68996C3.47634 2.58996 2.49634 5.47995 2.13634 7.86996C1.68634 10.49 0.106337 18.1 1.57634 20.33C1.97634 20.94 2.57634 20.96 3.02634 21.14C4.04306 21.46 5.1006 21.6317 6.16634 21.65C8.24634 21.78 21.4663 22.26 22.8563 20.44C25.0163 17.62 25.0563 13.78 24.9663 10.27ZM22.2663 20C22.0942 19.9808 21.9299 19.9173 21.7897 19.8157C21.6495 19.714 21.538 19.5776 21.4663 19.42C20.8563 18.22 20.8763 13.6 20.9363 12.23C21.0116 10.4725 21.2256 8.72371 21.5763 6.99996C21.9902 7.06023 22.4119 7.03642 22.8163 6.92996C23.2069 6.82071 23.5757 6.64479 23.9063 6.40996C23.5763 13 24.4863 16.56 22.2663 20Z" fill="#202020"/>
<path fill-rule="evenodd" clip-rule="evenodd" d="M22.3959 8.90998C21.8259 8.49998 21.8459 9.90998 21.7159 11.06C21.5904 12.4416 21.6105 13.8326 21.7759 15.21C21.7759 15.3002 21.8117 15.3866 21.8755 15.4504C21.9392 15.5142 22.0257 15.55 22.1159 15.55C22.206 15.55 22.2925 15.5142 22.3563 15.4504C22.4201 15.3866 22.4559 15.3002 22.4559 15.21C22.7023 13.8411 22.8062 12.4503 22.7659 11.06C22.4859 8.76998 22.5759 8.99998 22.3959 8.90998Z" fill="#202020"/>
</g>
<defs>
<clipPath id="clip0_1138_3024">
<rect width="24" height="24" fill="white" transform="translate(0.966797)"/>
</clipPath>
</defs>
</svg>
