<svg width="24" height="24" viewBox="0 0 24 24" fill="none" xmlns="http://www.w3.org/2000/svg">
<g clip-path="url(#clip0_1199_2986)">
<path fill-rule="evenodd" clip-rule="evenodd" d="M23.6403 5.81002C23.5103 4.71002 23.5703 2.54002 22.7203 1.93002C20.8203 0.570018 16.7203 0.930018 13.9203 0.850018C10.4303 0.720018 6.74035 1.00002 3.30035 1.09002C3.21017 1.09002 3.12369 1.12584 3.05993 1.1896C2.99617 1.25336 2.96035 1.33984 2.96035 1.43002C2.96035 1.52019 2.99617 1.60667 3.05993 1.67043C3.12369 1.7342 3.21017 1.77002 3.30035 1.77002C6.77035 1.72002 10.3003 1.50002 13.8703 1.69002C16.2903 1.81002 20.5503 1.55002 22.1303 2.69002C22.5203 2.97002 22.5203 5.13002 22.6003 5.88002C22.9386 8.56811 22.9621 11.2865 22.6703 13.98C22.6237 14.8738 22.4761 15.7594 22.2303 16.62C19.7103 17.9 2.50035 18.81 1.49035 17.18C1.11413 15.8271 0.902599 14.4337 0.860348 13.03C0.723211 11.5973 0.706486 10.1556 0.810348 8.72002C1.60035 1.31002 1.55035 1.85002 1.47035 1.72002C1.41427 1.66505 1.33887 1.63426 1.26035 1.63426C1.18182 1.63426 1.10643 1.66505 1.05035 1.72002C0.650348 2.13002 0.240348 7.47002 0.100348 8.64002C-0.169652 10.77 0.100348 16.69 0.730348 17.64C1.56035 19.05 7.04035 19.11 8.73035 19.12C8.06743 19.9728 7.74971 21.0437 7.84035 22.12L5.68035 22.28C5.60078 22.28 5.52448 22.3116 5.46822 22.3679C5.41196 22.4241 5.38035 22.5005 5.38035 22.58C5.38035 22.6596 5.41196 22.7359 5.46822 22.7921C5.52448 22.8484 5.60078 22.88 5.68035 22.88C8.29506 23.0839 10.9188 23.1474 13.5403 23.07C14.9303 23.01 16.3503 22.85 17.7803 22.75C17.8705 22.75 17.957 22.7142 18.0208 22.6504C18.0845 22.5867 18.1203 22.5002 18.1203 22.41C18.1203 22.3198 18.0845 22.2334 18.0208 22.1696C17.957 22.1058 17.8705 22.07 17.7803 22.07H15.9403C15.8078 20.9634 15.4686 19.8914 14.9403 18.91C16.2603 18.82 22.4803 18.39 23.2203 17.29C23.628 16.2856 23.8451 15.214 23.8603 14.13C24.1287 11.3582 24.0548 8.56381 23.6403 5.81002ZM15.1203 22.1C12.2703 22.03 10.8803 22.01 8.58035 22.1C8.73035 21.72 8.98035 21.18 9.09035 20.81C9.23501 20.2695 9.33205 19.7174 9.38035 19.16C9.38035 19.04 9.66035 19.24 14.0603 18.97C14.1541 20.084 14.518 21.1583 15.1203 22.1Z" fill="#202020"/>
<path fill-rule="evenodd" clip-rule="evenodd" d="M15.7805 6.10999C15.8105 6.08056 15.8341 6.04515 15.8496 6.00603C15.865 5.96692 15.8721 5.92499 15.8704 5.88297C15.8686 5.84094 15.858 5.79976 15.8393 5.76209C15.8206 5.72442 15.7941 5.69111 15.7617 5.66432C15.7293 5.63753 15.6916 5.61786 15.651 5.60659C15.6105 5.59531 15.5681 5.59268 15.5265 5.59888C15.4849 5.60507 15.445 5.61994 15.4095 5.64253C15.374 5.66512 15.3437 5.69492 15.3205 5.72999C12.4105 8.72999 10.6305 10.55 10.5705 11.07C10.3105 13.31 10.1605 14.4 10.4705 14.72C11.0905 15.39 13.6005 14.63 14.1305 14.3C14.6605 13.97 19.1305 8.91999 19.6505 8.19999C20.3615 7.51153 20.8522 6.62754 21.0605 5.65999C21.043 5.32295 20.9577 4.9929 20.8098 4.68957C20.6618 4.38624 20.4542 4.11587 20.1993 3.89463C19.9445 3.67338 19.6476 3.5058 19.3265 3.40191C19.0054 3.29802 18.6666 3.25995 18.3305 3.28999C17.7678 3.37701 17.2541 3.66042 16.8805 4.08999C16.8168 4.13773 16.7748 4.2088 16.7635 4.28756C16.7522 4.36633 16.7727 4.44634 16.8205 4.50999C16.8682 4.57364 16.9393 4.61572 17.0181 4.62697C17.0968 4.63823 17.1768 4.61773 17.2405 4.56999C17.3955 4.43312 17.5759 4.32821 17.7716 4.26128C17.9672 4.19435 18.1741 4.16672 18.3805 4.17999C18.9205 4.17999 20.0205 5.05999 20.0105 5.61999C20.0211 6.20838 19.8106 6.77934 19.4205 7.21999C19.1705 6.97999 17.1205 5.31999 16.7005 4.92999C16.6345 4.88294 16.5539 4.86102 16.4731 4.86817C16.3924 4.87532 16.3169 4.91106 16.2602 4.96897C16.2035 5.02688 16.1693 5.10313 16.1639 5.18399C16.1584 5.26485 16.1821 5.345 16.2305 5.40999C16.6305 5.81999 18.1605 7.15999 18.8105 7.78999C18.4505 8.32999 18.4905 8.21999 14.6505 12.19C14.436 11.706 14.1275 11.2693 13.743 10.9054C13.3585 10.5415 12.9056 10.2575 12.4105 10.07C13.4205 8.82999 14.8205 7.24999 15.7805 6.10999ZM12.6905 11.48C13.0905 11.89 13.7705 12.41 14.1205 12.74C13.9322 12.9513 13.7318 13.1517 13.5205 13.34C12.8495 13.6387 12.1326 13.8212 11.4005 13.88C11.4005 10.88 11.4905 11.25 11.9505 10.66C12.1805 10.91 12.4105 11.19 12.6905 11.48Z" fill="#1D6CFF"/>
<path fill-rule="evenodd" clip-rule="evenodd" d="M3.0506 14.54C3.1406 14.54 3.6406 14.08 3.8406 13.96C4.4506 13.62 5.2006 12.83 5.7306 12.96C5.8806 12.96 5.8106 13.12 5.7906 13.25C5.6906 13.94 5.3506 14.71 5.8506 15.15C6.6206 15.85 7.6206 14.87 9.5606 14.76C9.63952 14.7463 9.71108 14.7052 9.76265 14.6439C9.81423 14.5826 9.84251 14.5051 9.84251 14.425C9.84251 14.3449 9.81423 14.2674 9.76265 14.2061C9.71108 14.1448 9.63952 14.1037 9.5606 14.09C8.74796 14.0638 7.93519 14.1377 7.1406 14.31C6.4906 14.44 6.6706 14.47 6.7506 14.17C6.88548 13.7435 6.94635 13.2971 6.9306 12.85C6.91409 12.5902 6.80344 12.3453 6.61936 12.1613C6.43528 11.9772 6.1904 11.8665 5.9306 11.85C4.8006 11.71 4.1406 12.85 3.4606 13.36C3.27734 13.5231 3.10371 13.6967 2.9406 13.88C2.5506 14 2.5606 14.65 3.0506 14.54Z" fill="#202020"/>
</g>
<defs>
<clipPath id="clip0_1199_2986">
<rect width="24" height="24" fill="white"/>
</clipPath>
</defs>
</svg>
