<svg width="44" height="48" viewBox="0 0 44 48" fill="none" xmlns="http://www.w3.org/2000/svg">
<path d="M6.73899 27.9988C6.91899 25.7988 7.21899 22.7388 7.23899 21.8788C9.71899 22.1588 20.439 25.2788 20.679 25.3188C20.8417 27.0756 20.7542 28.8467 20.419 30.5788C20.419 32.8388 21.399 32.5788 21.999 30.8788C21.999 30.4988 22.139 28.9988 22.219 28.4988C23.189 28.6863 24.1718 28.8 25.159 28.8388C25.299 29.2988 25.439 30.0388 25.519 30.3388C25.879 31.5588 27.379 30.6788 27.239 29.4388C27.3333 28.5456 27.1955 27.6432 26.839 26.8188C26.6622 26.6363 26.4303 26.5168 26.179 26.4788C24.9352 26.5674 23.699 26.7411 22.479 26.9988C22.479 26.1988 22.859 24.6188 22.239 23.9388C21.159 22.8188 10.659 20.1388 7.57899 19.7188C6.49899 19.5788 5.81899 19.8388 5.57899 20.9188C5.38004 23.1797 5.29993 25.4495 5.33899 27.7188C5.21899 29.7188 6.11899 29.4988 6.73899 27.9988Z" fill="#1D6CFF"/>
<path d="M40.8399 3.59907C38.8399 3.29907 21.1599 -0.400935 20.2999 0.0590652C18.2681 1.16432 16.3749 2.50706 14.6599 4.05907C11.1999 7.85907 11.2399 7.85907 11.1599 7.99907C11.0799 8.13907 11.1599 7.99907 10.6799 11.9991C10.5212 14.0676 10.6559 16.1482 11.0799 18.1791C11.0799 18.3594 11.1516 18.5324 11.2791 18.6599C11.4066 18.7874 11.5796 18.8591 11.7599 18.8591C11.9403 18.8591 12.1132 18.7874 12.2408 18.6599C12.3683 18.5324 12.4399 18.3594 12.4399 18.1791C12.4399 18.1791 12.6999 15.4791 12.7199 15.3791C12.7399 15.2791 13.7199 15.6591 13.9799 15.7391C16.5095 16.7374 19.1278 17.4941 21.7999 17.9991C24.3972 18.4169 27.0138 18.7039 29.6399 18.8591C30.0799 18.8591 30.3999 18.8591 30.6399 18.5391L30.7599 28.5391C30.4199 28.3591 29.8799 29.1991 29.6599 29.3791C24.8199 33.7591 24.2799 35.6191 21.4399 34.2391C21.4399 33.7791 14.6999 32.3391 14.4999 32.2391L13.9999 31.9991C9.37993 30.9991 4.55993 30.6191 3.27993 29.3991C2.85993 29.0191 1.85993 29.0591 1.77993 31.7791L0.919933 40.6191C0.919933 41.1791 0.279933 42.3791 1.03993 43.1791C2.51001 44.2787 4.20296 45.0433 5.99993 45.4191C11.6199 47.5991 10.9599 47.1391 19.9999 47.9591C21.2887 48.0437 22.5813 47.8668 23.7999 47.4391C27.1199 45.4391 29.9799 43.8191 33.9999 40.8391C35.4999 39.7191 41.4399 35.1791 42.7799 33.8991C42.9244 33.7349 43.0212 33.5343 43.0599 33.3191C43.0599 33.1191 43.4199 14.8191 43.4199 10.4591C43.3999 3.55907 43.4399 3.99907 40.8399 3.59907ZM20.8399 1.59907C22.2799 1.77907 40.2399 5.77907 40.9399 5.99907C39.3508 6.61058 37.8183 7.36011 36.3599 8.23907C34.9937 9.20796 33.6911 10.2635 32.4599 11.3991C29.8399 7.93906 21.5599 7.77907 18.2999 7.39907C16.6696 7.258 15.0302 7.258 13.3999 7.39907C15.4637 4.99234 17.9861 3.02067 20.8199 1.59907H20.8399ZM30.6399 17.5991C30.5511 17.5271 30.4485 17.474 30.3385 17.4431C30.2285 17.4121 30.1132 17.4039 29.9999 17.4191C29.8199 17.4191 28.1799 17.0791 26.6399 16.6991C22.5895 15.6178 18.465 14.8357 14.2999 14.3591C14.0799 14.3591 13.3599 14.0391 13.1799 14.1591C13.0741 14.1399 12.9657 14.1399 12.8599 14.1591C13.0396 12.3815 12.828 10.5861 12.2399 8.89907H16.4199C19.6671 9.25291 22.8921 9.78707 26.0799 10.4991C27.7119 10.9018 29.2348 11.6599 30.5399 12.7191C31.3399 13.3191 30.5999 15.8391 30.6199 17.6391L30.6399 17.5991ZM20.8399 46.1391C18.5399 45.4391 15.0799 45.3791 12.2999 44.8991C10.3701 44.5663 8.48905 43.9953 6.69993 43.1991C5.23008 42.9613 3.8063 42.4957 2.47993 41.8191C2.73993 39.7191 2.63993 44.5391 3.01993 31.8191C3.01993 30.0991 2.57993 30.8391 4.31993 31.4591C5.73993 31.9591 7.49993 32.1191 8.69993 32.5991C12.2963 33.873 15.9622 34.9414 19.6799 35.7991C20.2399 35.9391 21.1199 36.4391 21.9999 36.7191C21.8186 39.8952 21.4244 43.0557 20.8199 46.1791L20.8399 46.1391ZM37.1999 35.9991C32.0714 39.1267 27.2144 42.6792 22.6799 46.6191C23.1599 45.2391 23.0799 44.2191 23.3399 36.9191C25.0399 36.9191 25.3399 35.9391 30.5999 30.3191L30.7799 30.1791C31.0999 38.1791 30.4199 39.5191 31.4799 39.5391C32.1799 39.5391 32.2399 40.1191 32.7799 23.8191C32.8799 20.7991 32.9199 18.2591 32.9199 17.2791C33.1174 15.7877 33.171 14.2807 33.0799 12.7791C35.9396 11.3465 38.6241 9.58818 41.0799 7.53907C41.0799 9.77907 41.2999 31.5391 41.3199 32.1391C41.3399 32.7391 42.5599 31.9991 37.1999 35.9991Z" fill="#202020"/>
</svg>
