<svg width="24" height="24" viewBox="0 0 24 24" fill="none" xmlns="http://www.w3.org/2000/svg">
<g clip-path="url(#clip0_1189_2914)">
<path d="M23.8599 17.5601C23.8645 17.077 23.8209 16.5946 23.7299 16.1201C23.6658 15.8656 23.5042 15.6465 23.2799 15.5101C22.3824 15.133 21.4126 14.9589 20.4399 15.0001C19.4481 14.9415 18.4582 15.1449 17.5699 15.5901C17.3345 15.7572 17.1647 16.0012 17.0899 16.2801C17.0129 16.6097 16.9561 16.9436 16.9199 17.2801L16.8599 17.5501C16.863 17.5867 16.863 17.6235 16.8599 17.6601C16.6203 17.7152 16.3757 17.7453 16.1299 17.7501C15.1299 17.8401 13.6799 17.8701 12.1299 17.8601C10.5046 17.9047 8.87844 17.8077 7.26993 17.5701C7.12098 17.5447 6.98612 17.4666 6.88993 17.3501C6.77862 17.1426 6.71058 16.9147 6.68993 16.6801C6.65279 16.4764 6.57414 16.2825 6.45888 16.1105C6.34362 15.9384 6.19421 15.7919 6.01993 15.6801C5.47418 15.5453 4.9105 15.4981 4.34993 15.5401C3.19351 15.5521 2.03855 15.6255 0.88993 15.7601C0.41993 15.8901 0.10993 16.3801 0.0299304 17.1601C-0.11007 18.5501 0.33993 20.9101 0.33993 22.3801C0.33989 22.4633 0.372228 22.5432 0.430094 22.6029C0.487959 22.6626 0.566806 22.6975 0.64993 22.7001C0.7015 22.7088 0.754437 22.7044 0.803815 22.6871C0.853193 22.6699 0.897407 22.6404 0.932339 22.6015C0.967272 22.5626 0.991788 22.5154 1.00361 22.4645C1.01542 22.4135 1.01416 22.3604 0.99993 22.3101C0.99993 21.0601 0.69993 19.1601 0.71993 17.7801C0.714089 17.4258 0.757846 17.0723 0.84993 16.7301C0.89993 16.5801 0.95993 16.4601 1.07993 16.4301C1.19993 16.4001 2.34993 16.3401 3.39993 16.3201H5.27993H5.57993C5.77993 16.4601 5.77993 16.6901 5.81993 16.9001C5.86207 17.1975 5.96413 17.4833 6.11993 17.7401C6.32651 18.0377 6.63079 18.2535 6.97993 18.3501C9.00852 18.6902 11.0631 18.8508 13.1199 18.8301C14.5531 18.9121 15.9909 18.8147 17.3999 18.5401C17.6523 18.3909 17.8436 18.157 17.9399 17.8801C18.0392 17.5536 18.1095 17.219 18.1499 16.8801C18.1499 16.7301 18.2399 16.5001 18.2499 16.4501C18.9374 16.157 19.6843 16.0302 20.4299 16.0801C21.1654 16.062 21.8978 16.1807 22.5899 16.4301C22.5899 16.6301 22.6699 17.4301 22.6799 17.5801C22.6799 17.9401 22.8499 19.4901 22.8399 20.8401C22.8427 21.3161 22.8025 21.7913 22.7199 22.2601C22.7232 22.3067 22.7232 22.3535 22.7199 22.4001C22.5699 22.4001 22.2399 22.5201 21.9099 22.5401C20.0499 22.6701 16.0699 22.7701 12.0999 22.8301C6.86993 22.9101 1.63993 22.9301 1.22993 22.8301C1.18462 22.8216 1.13808 22.822 1.09296 22.8315C1.04783 22.8409 1.00501 22.8592 0.966941 22.8852C0.928868 22.9112 0.89629 22.9444 0.871066 22.983C0.845842 23.0216 0.828466 23.0648 0.81993 23.1101C0.811395 23.1554 0.811866 23.202 0.821318 23.2471C0.830769 23.2922 0.849016 23.335 0.875017 23.3731C0.901017 23.4112 0.934262 23.4437 0.972852 23.469C1.01144 23.4942 1.05462 23.5116 1.09993 23.5201C1.62993 23.6201 10.1999 23.7501 16.4799 23.7201C19.1199 23.7201 21.3599 23.7201 22.4199 23.5901C22.7278 23.5893 23.033 23.5317 23.3199 23.4201C23.5174 23.2371 23.6758 23.0161 23.7858 22.7704C23.8958 22.5247 23.955 22.2593 23.9599 21.9901C24.0468 20.5132 24.0133 19.0316 23.8599 17.5601Z" fill="#202020"/>
<path d="M2.39 14.3901C2.43074 14.3875 2.47057 14.3769 2.50722 14.359C2.54387 14.341 2.5766 14.316 2.60355 14.2853C2.63049 14.2546 2.65112 14.2189 2.66424 14.1803C2.67736 14.1416 2.68271 14.1008 2.68 14.0601C2.61 12.5801 2.68 9.38005 2.84 6.58005C2.93 5.00005 3.05 3.58005 3.19 2.63005C3.33 1.68005 3.62 1.87005 4.37 1.77005C5.7 1.58005 7.83 1.50005 10.13 1.43005C13.3856 1.28626 16.6464 1.30629 19.9 1.49005C20.62 1.57005 20.72 1.75005 20.9 2.49005C21.1808 4.14541 21.3744 5.81437 21.48 7.49005C21.6731 9.57426 21.7166 11.6696 21.61 13.7601C21.5985 13.8526 21.6233 13.946 21.6792 14.0206C21.7352 14.0952 21.8179 14.1452 21.91 14.1601C22.0036 14.1688 22.097 14.1417 22.1713 14.0841C22.2456 14.0266 22.2952 13.9429 22.31 13.8501C22.5065 11.2905 22.5065 8.71962 22.31 6.16005C22.2458 4.78668 22.1056 3.41791 21.89 2.06005C21.8136 1.63464 21.6576 1.2275 21.43 0.860051C21.0686 0.598025 20.6363 0.451599 20.19 0.440051C17.4431 0.210116 14.6856 0.129998 11.93 0.200051C9.16316 0.199725 6.39971 0.393534 3.66 0.780051C3.2305 0.825547 2.82374 0.995898 2.49 1.27005C2.37755 1.44255 2.3026 1.63674 2.27 1.84005C2.1118 2.98369 2.02165 4.13572 2 5.29005C1.9 8.34005 1.92 12.3901 2.06 14.1001C2.06254 14.1408 2.07311 14.1806 2.09108 14.2173C2.10906 14.2539 2.1341 14.2867 2.16476 14.3136C2.19542 14.3405 2.2311 14.3612 2.26976 14.3743C2.30841 14.3874 2.34927 14.3928 2.39 14.3901Z" fill="#1D6CFF"/>
<path d="M8.60988 4.19005C8.63797 4.22034 8.672 4.24451 8.70986 4.26103C8.74771 4.27756 8.78858 4.28609 8.82988 4.28609C8.87119 4.28609 8.91205 4.27756 8.94991 4.26103C8.98776 4.24451 9.0218 4.22034 9.04988 4.19005C9.07891 4.16124 9.10195 4.12696 9.11767 4.0892C9.13339 4.05145 9.14148 4.01095 9.14148 3.97005C9.14148 3.92915 9.13339 3.88866 9.11767 3.8509C9.10195 3.81314 9.07891 3.77887 9.04988 3.75005C8.14988 2.67005 6.63988 3.04005 5.64988 3.94005C4.65988 4.84005 4.23988 6.51005 5.54988 7.52005C5.87616 7.74546 6.2439 7.90395 6.63182 7.98634C7.01974 8.06873 7.42015 8.07339 7.80988 8.00005C8.58654 7.89783 9.29844 7.51341 9.80988 6.92005C10.2331 6.41066 10.4851 5.78082 10.5299 5.12005C10.5446 4.86035 10.4834 4.60199 10.3538 4.37647C10.2242 4.15096 10.0317 3.96804 9.79988 3.85005C9.75868 3.82762 9.71339 3.81369 9.6667 3.80911C9.62002 3.80452 9.57288 3.80937 9.52811 3.82337C9.48333 3.83736 9.44182 3.86021 9.40605 3.89056C9.37028 3.92091 9.34098 3.95815 9.31988 4.00005C9.29425 4.03924 9.27674 4.08317 9.26839 4.12925C9.26004 4.17533 9.26103 4.22262 9.27129 4.26831C9.28154 4.314 9.30086 4.35717 9.32811 4.39526C9.35535 4.43334 9.38996 4.46558 9.42988 4.49005C9.55126 4.58834 9.63738 4.72344 9.67526 4.87496C9.71314 5.02648 9.70072 5.1862 9.63988 5.33005C9.52728 5.70632 9.32478 6.04953 9.04988 6.33005C8.67023 6.68531 8.17881 6.89744 7.65988 6.93005C7.17094 7.00331 6.67219 6.89287 6.25988 6.62005C5.52988 6.12005 5.82988 5.28005 6.35988 4.70005C6.88988 4.12005 7.91988 3.54005 8.60988 4.19005Z" fill="#202020"/>
<path d="M16.0003 12.8201C15.052 12.9477 14.097 13.0178 13.1403 13.0301L7.14027 13.1501C7.09348 13.1487 7.04689 13.1568 7.00326 13.1738C6.95964 13.1908 6.91986 13.2163 6.8863 13.249C6.85273 13.2816 6.82605 13.3207 6.80784 13.3638C6.78963 13.4069 6.78025 13.4533 6.78027 13.5001C6.78027 13.5929 6.81715 13.6819 6.88279 13.7476C6.94842 13.8132 7.03745 13.8501 7.13027 13.8501L13.1303 13.9701C14.1313 13.9915 15.1328 13.9581 16.1303 13.8701C16.8649 13.8141 17.58 13.6064 18.2303 13.2601C18.3473 13.1564 18.4401 13.0284 18.5023 12.885C18.5645 12.7416 18.5945 12.5863 18.5903 12.4301C18.5435 11.1358 18.2938 9.85688 17.8503 8.64007C17.6412 7.95483 17.3016 7.31646 16.8503 6.76007C16.699 6.57094 16.4987 6.42705 16.2712 6.34416C16.0437 6.26126 15.7977 6.24255 15.5603 6.29007C14.88 6.50494 14.2985 6.95521 13.9203 7.56007C13.267 8.61809 12.6695 9.70958 12.1303 10.8301C12.0474 10.7885 11.9673 10.7417 11.8903 10.6901C11.5152 10.3119 11.0993 9.97651 10.6503 9.69007C10.4039 9.55787 10.1298 9.48591 9.85027 9.48007C9.60595 9.47328 9.36426 9.53198 9.15027 9.65007C8.88085 9.81201 8.64356 10.0222 8.45027 10.2701C8.08027 10.7201 7.81027 11.0401 7.57027 11.3801C7.29641 11.7712 7.05239 12.1823 6.84027 12.6101C6.80365 12.6849 6.7967 12.7708 6.82081 12.8506C6.84493 12.9304 6.89832 12.9981 6.97027 13.0401C7.00636 13.0592 7.04588 13.0711 7.08656 13.0749C7.12724 13.0787 7.16827 13.0745 7.20731 13.0624C7.24634 13.0503 7.2826 13.0306 7.314 13.0045C7.3454 12.9784 7.37132 12.9463 7.39027 12.9101C7.60724 12.517 7.85116 12.1394 8.12027 11.7801C8.36027 11.4701 8.63027 11.1701 9.01027 10.7801C9.13549 10.6409 9.27643 10.5167 9.43027 10.4101C9.55004 10.3361 9.6898 10.3012 9.83027 10.3101C10.0363 10.3341 10.2308 10.4175 10.3903 10.5501C10.7028 10.8057 10.9999 11.0795 11.2803 11.3701C11.4784 11.6236 11.7227 11.8374 12.0003 12.0001C12.1484 12.0433 12.3069 12.0341 12.449 11.9739C12.5911 11.9138 12.7081 11.8065 12.7803 11.6701C13.4403 10.6701 14.0803 9.27007 14.7803 8.30007C15.0153 7.92728 15.3668 7.64253 15.7803 7.49007C15.7803 7.49007 15.7803 7.49007 15.8503 7.55007C15.9237 7.61784 15.9876 7.6952 16.0403 7.78007C16.3299 8.15172 16.5656 8.56245 16.7403 9.00007C17.0875 9.97004 17.3223 10.9766 17.4403 12.0001V12.4001C16.9833 12.6095 16.4982 12.751 16.0003 12.8201Z" fill="#202020"/>
</g>
<defs>
<clipPath id="clip0_1189_2914">
<rect width="24" height="24" fill="white"/>
</clipPath>
</defs>
</svg>
