<svg width="25" height="24" viewBox="0 0 25 24" fill="none" xmlns="http://www.w3.org/2000/svg">
<g clip-path="url(#clip0_1182_2906)">
<path fill-rule="evenodd" clip-rule="evenodd" d="M8.21652 12.6999C8.25704 12.6951 8.29616 12.6821 8.33148 12.6616C8.36679 12.6412 8.39756 12.6137 8.4219 12.5809C8.44624 12.5482 8.46363 12.5108 8.47302 12.4711C8.48242 12.4314 8.4836 12.3901 8.47652 12.3499C8.48144 11.5458 8.77208 10.7696 9.29652 10.1599C9.60008 9.75434 9.92732 9.367 10.2765 8.99995C10.7792 8.44937 11.3134 7.9285 11.8765 7.43995C12.2588 7.54066 12.6513 7.59769 13.0465 7.60995C13.1191 7.61273 13.19 7.58715 13.2441 7.53863C13.2982 7.49011 13.3314 7.42245 13.3365 7.34995C13.3392 7.31447 13.3349 7.27881 13.3238 7.245C13.3127 7.2112 13.295 7.17992 13.2718 7.15297C13.2486 7.12602 13.2202 7.10393 13.1884 7.08797C13.1566 7.072 13.122 7.06248 13.0865 7.05995C10.9665 6.87995 9.96652 5.55995 9.96652 4.17995C10.258 4.32637 10.5727 4.4211 10.8965 4.45995C11.0492 4.47996 11.2038 4.47996 11.3565 4.45995C11.5138 4.4319 11.6678 4.38836 11.8165 4.32995C12.1768 4.19113 12.4965 3.96421 12.7465 3.66995C12.7465 3.66995 12.7465 3.59995 12.8065 3.55995L13.1665 3.75995C13.4843 3.91471 13.8203 4.02894 14.1665 4.09995C14.8289 4.20627 15.5041 4.20627 16.1665 4.09995C16.2485 4.82044 16.0518 5.545 15.6167 6.12511C15.1817 6.70522 14.5411 7.09694 13.8265 7.21995C13.7433 7.23 13.6674 7.27229 13.615 7.33774C13.5626 7.40319 13.5381 7.48656 13.5465 7.56995C13.5514 7.6108 13.5644 7.65026 13.5848 7.68603C13.6051 7.7218 13.6324 7.75316 13.6649 7.77829C13.6975 7.80342 13.7348 7.82182 13.7745 7.8324C13.8143 7.84299 13.8558 7.84555 13.8965 7.83995C14.3604 7.80415 14.8108 7.66765 15.2165 7.43995C15.5456 7.79703 15.8434 8.18178 16.1065 8.58995C16.2628 8.81163 16.4063 9.042 16.5365 9.27995C16.6765 9.51995 16.8065 9.74995 16.9265 9.99995C17.2228 10.5978 17.467 11.2201 17.6565 11.8599C17.6622 11.9004 17.6765 11.9392 17.6982 11.9737C17.72 12.0083 17.7488 12.0379 17.7828 12.0605C17.8168 12.0832 17.8552 12.0984 17.8954 12.1052C17.9357 12.112 17.977 12.1102 18.0165 12.0999C18.0974 12.0853 18.1692 12.0392 18.216 11.9717C18.2629 11.9042 18.2811 11.8208 18.2665 11.7399C18.2035 11.0202 18.0627 10.3094 17.8465 9.61995C17.7389 9.32364 17.6085 9.03611 17.4565 8.75995C17.3172 8.49191 17.1532 8.23747 16.9665 7.99995C16.6354 7.64627 16.2627 7.334 15.8565 7.06995C16.2972 6.64406 16.6365 6.12459 16.8494 5.54994C17.0623 4.97529 17.1433 4.36013 17.0865 3.74995C17.0826 3.25185 16.9803 2.75943 16.7854 2.301C16.5906 1.84257 16.3071 1.42718 15.9511 1.07869C15.5952 0.730208 15.1739 0.455506 14.7115 0.270377C14.2491 0.0852484 13.7546 -0.00665534 13.2565 -5.11475e-05C12.1855 -0.0384433 11.142 0.344043 10.3495 1.0655C9.55706 1.78697 9.07856 2.79005 9.01652 3.85995C8.99112 4.56694 9.17996 5.26511 9.55827 5.86291C9.93658 6.46071 10.4867 6.93025 11.1365 7.20995C10.5855 7.52291 10.0634 7.88434 9.57652 8.28995C9.14002 8.66362 8.75947 9.09806 8.44652 9.57995C8.16412 9.99396 7.96734 10.4602 7.86774 10.9514C7.76813 11.4425 7.76772 11.9486 7.86652 12.4399C7.87134 12.4805 7.88438 12.5196 7.90484 12.5549C7.9253 12.5902 7.95275 12.621 7.98552 12.6453C8.01828 12.6697 8.05567 12.6871 8.09539 12.6965C8.1351 12.7058 8.17632 12.707 8.21652 12.6999ZM13.2865 1.04995C13.9674 1.0287 14.6321 1.26002 15.1527 1.69939C15.6733 2.13877 16.0131 2.75516 16.1065 3.42995C15.5288 3.4083 14.9568 3.30736 14.4065 3.12995C14.1214 3.04255 13.8438 2.93219 13.5765 2.79995C13.3091 2.67287 13.0517 2.52579 12.8065 2.35995C12.3921 2.08329 12.0213 1.74623 11.7065 1.35995C12.2053 1.14583 12.7438 1.04016 13.2865 1.04995ZM11.1065 1.74995C11.376 2.28556 11.746 2.76428 12.1965 3.15995H12.2565C12.1305 3.21184 11.9999 3.25201 11.8665 3.27995H11.3965L10.9665 3.43995C10.6387 3.52321 10.304 3.57676 9.96652 3.59995C10.102 2.86249 10.5087 2.20249 11.1065 1.74995Z" fill="#202020"/>
<path fill-rule="evenodd" clip-rule="evenodd" d="M23.7764 15.5199C23.5664 15.3299 22.9964 14.9099 22.9564 14.8799L19.8364 12.1899C19.8112 12.1636 19.7809 12.1427 19.7474 12.1283C19.7139 12.114 19.6779 12.1067 19.6414 12.1067C19.605 12.1067 19.5689 12.114 19.5354 12.1283C19.5019 12.1427 19.4716 12.1636 19.4464 12.1899C19.3957 12.2422 19.3674 12.3121 19.3674 12.3849C19.3674 12.4577 19.3957 12.5277 19.4464 12.5799L22.0564 15.4299C19.8264 15.4299 17.5964 15.3099 15.3664 15.2699H13.3664H10.2264C8.06642 15.2699 5.91642 15.4099 3.75642 15.4499L6.41642 12.5499C6.46713 12.4977 6.49549 12.4277 6.49549 12.3549C6.49549 12.2821 6.46713 12.2122 6.41642 12.1599C6.39122 12.1336 6.36095 12.1127 6.32744 12.0983C6.29392 12.084 6.25786 12.0767 6.22142 12.0767C6.18498 12.0767 6.14892 12.084 6.11541 12.0983C6.08189 12.1127 6.05162 12.1336 6.02642 12.1599L2.96642 14.8799C2.96642 14.8799 2.35642 15.3299 2.14642 15.5199C2.06441 15.5933 2.00085 15.6849 1.96089 15.7874C1.92093 15.8899 1.90569 16.0004 1.91642 16.1099C1.95088 16.2389 2.0242 16.3541 2.12642 16.4399C2.24642 16.5499 2.57642 16.7899 2.61642 16.8199C2.99642 17.1299 3.35642 17.4599 3.72642 17.7699C4.09642 18.0799 4.25642 18.1899 4.53642 18.3799C4.81642 18.5699 5.34642 18.9399 5.76642 19.1899C6.04753 19.3655 6.33796 19.5258 6.63642 19.6699C6.70936 19.7097 6.79511 19.7189 6.87481 19.6954C6.95451 19.672 7.02164 19.6178 7.06142 19.5449C7.1012 19.472 7.11038 19.3862 7.08694 19.3065C7.0635 19.2268 7.00936 19.1597 6.93642 19.1199C6.66642 18.9599 6.41642 18.7799 6.16642 18.5999C5.91642 18.4199 5.42642 17.9999 5.06642 17.6999L3.36642 16.0799C5.36642 16.1799 7.27642 16.2599 9.23642 16.2999H12.4264C12.3264 16.9499 12.2164 17.7199 12.1664 18.5399V19.6199C12.1664 19.9799 12.1664 20.3399 12.2264 20.6999C12.2864 21.2899 12.3664 21.8499 12.4564 22.3599L12.0764 21.9999C11.5164 21.3999 10.9764 20.7599 10.3864 20.1899C10.1331 19.938 9.8624 19.7041 9.57642 19.4899C9.52586 19.4398 9.45758 19.4117 9.38642 19.4117C9.31526 19.4117 9.24698 19.4398 9.19642 19.4899C9.1701 19.5151 9.14916 19.5454 9.13485 19.5789C9.12055 19.6124 9.11317 19.6485 9.11317 19.6849C9.11317 19.7213 9.12055 19.7574 9.13485 19.7909C9.14916 19.8244 9.1701 19.8547 9.19642 19.8799C9.98477 20.7645 10.7099 21.7035 11.3664 22.6899C11.7031 23.1232 12.089 23.5158 12.5164 23.8599C12.6145 23.919 12.7269 23.9502 12.8414 23.9502C12.9559 23.9502 13.0683 23.919 13.1664 23.8599C13.4722 23.6652 13.763 23.448 14.0364 23.2099C14.28 22.9896 14.5042 22.7487 14.7064 22.4899C14.9964 22.1299 15.2564 21.7499 15.5164 21.3799L16.7764 19.7599C16.8348 19.7002 16.867 19.6198 16.8661 19.5364C16.8651 19.4529 16.8311 19.3733 16.7714 19.3149C16.7117 19.2566 16.6313 19.2243 16.5479 19.2252C16.4644 19.2262 16.3848 19.2602 16.3264 19.3199L14.8764 20.8599C14.5764 21.1899 14.2864 21.5299 13.9764 21.8599C13.7888 22.0594 13.5883 22.2464 13.3764 22.4199L13.1664 22.6299V20.5399V18.8499C13.1664 17.8499 13.0364 16.9999 13.0064 16.2499H13.4064L17.3164 16.1899C19.0564 16.1899 20.7864 16.0999 22.5164 16.0399L20.8664 17.6999C20.5064 18.0099 20.1464 18.3199 19.7564 18.5999C19.3664 18.8799 19.2564 18.9599 18.9864 19.1199C18.9503 19.1396 18.9184 19.1662 18.8926 19.1982C18.8668 19.2303 18.8475 19.2671 18.8359 19.3065C18.8243 19.346 18.8206 19.3874 18.825 19.4283C18.8293 19.4692 18.8417 19.5088 18.8614 19.5449C18.9012 19.6178 18.9683 19.672 19.048 19.6954C19.0875 19.707 19.1289 19.7108 19.1698 19.7064C19.2107 19.702 19.2503 19.6896 19.2864 19.6699C19.5849 19.5258 19.8753 19.3655 20.1564 19.1899C20.5764 18.9399 20.9864 18.6599 21.3864 18.3799C21.7864 18.0999 21.9364 17.9799 22.1964 17.7699C22.4564 17.5599 22.9264 17.1299 23.3064 16.8199C23.3064 16.8199 23.6764 16.5499 23.7964 16.4399C23.8986 16.3541 23.972 16.2389 24.0064 16.1099C24.0171 16.0004 24.0019 15.8899 23.962 15.7874C23.922 15.6849 23.8584 15.5933 23.7764 15.5199Z" fill="#1D6CFF"/>
</g>
<defs>
<clipPath id="clip0_1182_2906">
<rect width="24" height="24" fill="white" transform="translate(0.966309)"/>
</clipPath>
</defs>
</svg>
